%
M48
M72
T01C0.0150
T02C0.1300
T03C0.1575
%
T01
X18833Y33140
X19833Y33140
X19333Y34540
X18233Y34090
X17833Y34390
X18833Y36140
X18333Y37140
X22233Y37140
X22533Y36040
X22683Y35218
X23833Y34940
X24833Y34640
X25833Y35640
X25833Y36640
X24833Y37140
X23833Y36640
X22483Y33890
T02
X27833Y34640
X14833Y34640
T03
X15333Y31040
X19333Y31040
X23333Y31040
X27333Y31040
X27333Y38240
X23333Y38240
X19333Y38240
X15333Y38240
M30
