G75*
%MOIN*%
%OFA0B0*%
%FSLAX25Y25*%
%IPPOS*%
%LPD*%
%AMOC8*
5,1,8,0,0,1.08239X$1,22.5*
%
%ADD10C,0.02007*%
%ADD11C,0.00800*%
%ADD12C,0.02000*%
%ADD13C,0.00300*%
%ADD14R,0.12756X0.00157*%
%ADD15R,0.13701X0.00157*%
%ADD16R,0.14331X0.00157*%
%ADD17R,0.14961X0.00157*%
%ADD18R,0.15276X0.00157*%
%ADD19R,0.15591X0.00157*%
%ADD20R,0.15906X0.00157*%
%ADD21R,0.03780X0.00157*%
%ADD22R,0.07087X0.00157*%
%ADD23R,0.03465X0.00157*%
%ADD24R,0.01102X0.00157*%
%ADD25R,0.02362X0.00157*%
%ADD26R,0.03307X0.00157*%
%ADD27R,0.00787X0.00157*%
%ADD28R,0.00630X0.00157*%
%ADD29R,0.02047X0.00157*%
%ADD30R,0.03150X0.00157*%
%ADD31R,0.00472X0.00157*%
%ADD32R,0.01890X0.00157*%
%ADD33R,0.00315X0.00157*%
%ADD34R,0.01732X0.00157*%
%ADD35R,0.01575X0.00157*%
%ADD36R,0.01417X0.00157*%
%ADD37R,0.01260X0.00157*%
%ADD38R,0.04409X0.00157*%
%ADD39R,0.00945X0.00157*%
%ADD40R,0.03622X0.00157*%
%ADD41R,0.02205X0.00157*%
%ADD42R,0.05039X0.00157*%
%ADD43R,0.00157X0.00157*%
%ADD44R,0.02992X0.00157*%
%ADD45R,0.02520X0.00157*%
%ADD46R,0.14646X0.00157*%
%ADD47R,0.16220X0.00157*%
%ADD48R,0.16535X0.00157*%
%ADD49R,0.16850X0.00157*%
%ADD50R,0.04252X0.00157*%
%ADD51R,0.11969X0.00157*%
%ADD52R,0.04094X0.00157*%
%ADD53R,0.02835X0.00157*%
%ADD54R,0.03937X0.00157*%
%ADD55R,0.12126X0.00157*%
%ADD56R,0.13071X0.00157*%
%ADD57R,0.04882X0.00157*%
%ADD58R,0.05197X0.00157*%
%ADD59R,0.02677X0.00157*%
%ADD60R,0.14016X0.00157*%
%ADD61R,0.04567X0.00157*%
%ADD62R,0.05354X0.00157*%
%ADD63R,0.17165X0.00157*%
%ADD64R,0.17480X0.00157*%
%ADD65R,0.06614X0.00157*%
%ADD66R,0.06772X0.00157*%
D10*
X0171247Y0360455D03*
D11*
X0210873Y0314943D02*
X0210873Y0307857D01*
X0215794Y0307857D02*
X0215794Y0314943D01*
X0215794Y0318369D02*
X0210873Y0318369D01*
X0219583Y0332025D02*
X0219583Y0335775D01*
X0242658Y0345925D02*
X0242658Y0356875D01*
X0254008Y0356875D01*
X0254008Y0345925D01*
X0242658Y0345925D01*
X0250873Y0318369D02*
X0255794Y0318369D01*
X0255794Y0314943D02*
X0255794Y0307857D01*
X0250873Y0307857D02*
X0250873Y0314943D01*
X0182345Y0325006D02*
X0182345Y0328156D01*
X0179983Y0328156D01*
X0173684Y0328156D02*
X0171322Y0328156D01*
X0171322Y0325006D01*
X0169294Y0321857D02*
X0169294Y0328943D01*
X0169294Y0332369D02*
X0164373Y0332369D01*
X0164373Y0328943D02*
X0164373Y0321857D01*
X0172034Y0343132D02*
X0184633Y0343132D01*
X0184633Y0359668D01*
X0172034Y0359668D01*
X0172034Y0343132D01*
D12*
X0241958Y0345025D03*
D13*
X0235176Y0348051D02*
X0233640Y0348051D01*
X0233640Y0351515D01*
X0233601Y0351791D01*
X0233522Y0352027D01*
X0233404Y0352224D01*
X0233286Y0352381D01*
X0233129Y0352499D01*
X0232656Y0352578D01*
X0232105Y0352499D01*
X0231908Y0352381D01*
X0231751Y0352184D01*
X0231633Y0351988D01*
X0231554Y0351712D01*
X0231475Y0351358D01*
X0231475Y0348051D01*
X0229940Y0348051D01*
X0229940Y0352932D01*
X0229979Y0353641D01*
X0231396Y0353641D01*
X0231396Y0352854D01*
X0231436Y0352854D01*
X0231593Y0353090D01*
X0231751Y0353287D01*
X0231987Y0353444D01*
X0232184Y0353562D01*
X0232656Y0353720D01*
X0233129Y0353799D01*
X0233680Y0353720D01*
X0234152Y0353602D01*
X0234507Y0353405D01*
X0234743Y0353169D01*
X0234940Y0352814D01*
X0235097Y0352421D01*
X0235136Y0351988D01*
X0235176Y0351476D01*
X0235176Y0348051D01*
X0235176Y0348341D02*
X0233640Y0348341D01*
X0233640Y0348639D02*
X0235176Y0348639D01*
X0235176Y0348938D02*
X0233640Y0348938D01*
X0233640Y0349237D02*
X0235176Y0349237D01*
X0235176Y0349535D02*
X0233640Y0349535D01*
X0233640Y0349834D02*
X0235176Y0349834D01*
X0235176Y0350132D02*
X0233640Y0350132D01*
X0233640Y0350431D02*
X0235176Y0350431D01*
X0235176Y0350729D02*
X0233640Y0350729D01*
X0233640Y0351028D02*
X0235176Y0351028D01*
X0235176Y0351326D02*
X0233640Y0351326D01*
X0233625Y0351625D02*
X0235164Y0351625D01*
X0235141Y0351923D02*
X0233557Y0351923D01*
X0233406Y0352222D02*
X0235115Y0352222D01*
X0235057Y0352520D02*
X0233004Y0352520D01*
X0232250Y0352520D02*
X0229940Y0352520D01*
X0229940Y0352222D02*
X0231780Y0352222D01*
X0231614Y0351923D02*
X0229940Y0351923D01*
X0229940Y0351625D02*
X0231534Y0351625D01*
X0231475Y0351326D02*
X0229940Y0351326D01*
X0229940Y0351028D02*
X0231475Y0351028D01*
X0231475Y0350729D02*
X0229940Y0350729D01*
X0229940Y0350431D02*
X0231475Y0350431D01*
X0231475Y0350132D02*
X0229940Y0350132D01*
X0229940Y0349834D02*
X0231475Y0349834D01*
X0231475Y0349535D02*
X0229940Y0349535D01*
X0229940Y0349237D02*
X0231475Y0349237D01*
X0231475Y0348938D02*
X0229940Y0348938D01*
X0229940Y0348639D02*
X0231475Y0348639D01*
X0231475Y0348341D02*
X0229940Y0348341D01*
X0229113Y0348341D02*
X0227656Y0348341D01*
X0227656Y0348051D02*
X0227656Y0348838D01*
X0227499Y0348602D01*
X0227302Y0348444D01*
X0227105Y0348247D01*
X0226908Y0348129D01*
X0226436Y0347972D01*
X0226199Y0347932D01*
X0225924Y0347893D01*
X0225373Y0347972D01*
X0224940Y0348090D01*
X0224585Y0348287D01*
X0224310Y0348523D01*
X0224113Y0348877D01*
X0223995Y0349271D01*
X0223916Y0349704D01*
X0223916Y0353641D01*
X0225451Y0353641D01*
X0225451Y0350177D01*
X0225491Y0349901D01*
X0225570Y0349665D01*
X0225648Y0349468D01*
X0225806Y0349310D01*
X0225963Y0349192D01*
X0226160Y0349153D01*
X0226436Y0349114D01*
X0226711Y0349153D01*
X0226948Y0349192D01*
X0227144Y0349310D01*
X0227341Y0349507D01*
X0227459Y0349704D01*
X0227538Y0349980D01*
X0227577Y0350334D01*
X0227617Y0350728D01*
X0227617Y0353641D01*
X0229113Y0353641D01*
X0229113Y0348051D01*
X0227656Y0348051D01*
X0227199Y0348341D02*
X0224522Y0348341D01*
X0224245Y0348639D02*
X0227524Y0348639D01*
X0227656Y0348639D02*
X0229113Y0348639D01*
X0229113Y0348938D02*
X0224095Y0348938D01*
X0224005Y0349237D02*
X0225904Y0349237D01*
X0225621Y0349535D02*
X0223947Y0349535D01*
X0223916Y0349834D02*
X0225513Y0349834D01*
X0225458Y0350132D02*
X0223916Y0350132D01*
X0223916Y0350431D02*
X0225451Y0350431D01*
X0225451Y0350729D02*
X0223916Y0350729D01*
X0223916Y0351028D02*
X0225451Y0351028D01*
X0225451Y0351326D02*
X0223916Y0351326D01*
X0223916Y0351625D02*
X0225451Y0351625D01*
X0225451Y0351923D02*
X0223916Y0351923D01*
X0223916Y0352222D02*
X0225451Y0352222D01*
X0225451Y0352520D02*
X0223916Y0352520D01*
X0223916Y0352819D02*
X0225451Y0352819D01*
X0225451Y0353117D02*
X0223916Y0353117D01*
X0223916Y0353416D02*
X0225451Y0353416D01*
X0223483Y0353416D02*
X0220203Y0353416D01*
X0220136Y0353366D02*
X0220294Y0353484D01*
X0220412Y0353641D01*
X0220885Y0353641D01*
X0220885Y0354074D01*
X0220924Y0354429D01*
X0221003Y0354744D01*
X0221160Y0355019D01*
X0221357Y0355255D01*
X0221593Y0355492D01*
X0221908Y0355610D01*
X0222302Y0355728D01*
X0222735Y0355767D01*
X0223050Y0355767D01*
X0223168Y0355728D01*
X0223562Y0355728D01*
X0223562Y0354586D01*
X0222853Y0354586D01*
X0222617Y0354507D01*
X0222538Y0354468D01*
X0222499Y0354350D01*
X0222459Y0354271D01*
X0222420Y0354114D01*
X0222420Y0353641D01*
X0223483Y0353641D01*
X0223483Y0352618D01*
X0222420Y0352618D01*
X0222420Y0348051D01*
X0220885Y0348051D01*
X0220885Y0352618D01*
X0219388Y0352618D01*
X0219625Y0352854D01*
X0219782Y0352972D01*
X0219900Y0353129D01*
X0220136Y0353366D01*
X0219891Y0353117D02*
X0223483Y0353117D01*
X0223483Y0352819D02*
X0219590Y0352819D01*
X0219169Y0353117D02*
X0217389Y0353117D01*
X0217102Y0352819D02*
X0218865Y0352819D01*
X0218561Y0352520D02*
X0216815Y0352520D01*
X0216529Y0352222D02*
X0218257Y0352222D01*
X0217952Y0351923D02*
X0216242Y0351923D01*
X0215963Y0351923D02*
X0214467Y0351923D01*
X0214467Y0351625D02*
X0217648Y0351625D01*
X0217617Y0351594D02*
X0219940Y0348051D01*
X0218089Y0348051D01*
X0216554Y0350570D01*
X0215963Y0349980D01*
X0215963Y0348051D01*
X0214467Y0348051D01*
X0214467Y0354901D01*
X0215963Y0355767D01*
X0215963Y0351633D01*
X0217892Y0353641D01*
X0219703Y0353641D01*
X0217617Y0351594D01*
X0217792Y0351326D02*
X0214467Y0351326D01*
X0214467Y0351028D02*
X0217988Y0351028D01*
X0218184Y0350729D02*
X0214467Y0350729D01*
X0214467Y0350431D02*
X0216414Y0350431D01*
X0216639Y0350431D02*
X0218379Y0350431D01*
X0218575Y0350132D02*
X0216821Y0350132D01*
X0217003Y0349834D02*
X0218771Y0349834D01*
X0218966Y0349535D02*
X0217185Y0349535D01*
X0217367Y0349237D02*
X0219162Y0349237D01*
X0219358Y0348938D02*
X0217548Y0348938D01*
X0217730Y0348639D02*
X0219554Y0348639D01*
X0219749Y0348341D02*
X0217912Y0348341D01*
X0215963Y0348341D02*
X0214467Y0348341D01*
X0214467Y0348639D02*
X0215963Y0348639D01*
X0215963Y0348938D02*
X0214467Y0348938D01*
X0214467Y0349237D02*
X0215963Y0349237D01*
X0215963Y0349535D02*
X0214467Y0349535D01*
X0214467Y0349834D02*
X0215963Y0349834D01*
X0216116Y0350132D02*
X0214467Y0350132D01*
X0214467Y0352222D02*
X0215963Y0352222D01*
X0215963Y0352520D02*
X0214467Y0352520D01*
X0214467Y0352819D02*
X0215963Y0352819D01*
X0215963Y0353117D02*
X0214467Y0353117D01*
X0214467Y0353416D02*
X0215963Y0353416D01*
X0215963Y0353714D02*
X0214467Y0353714D01*
X0214467Y0354013D02*
X0215963Y0354013D01*
X0215963Y0354311D02*
X0214467Y0354311D01*
X0214467Y0354610D02*
X0215963Y0354610D01*
X0215963Y0354908D02*
X0214480Y0354908D01*
X0214995Y0355207D02*
X0215963Y0355207D01*
X0215963Y0355505D02*
X0215511Y0355505D01*
X0213798Y0353759D02*
X0213837Y0353720D01*
X0213837Y0352303D01*
X0213798Y0352303D01*
X0213719Y0352342D01*
X0213286Y0352342D01*
X0212892Y0352303D01*
X0212577Y0352224D01*
X0212341Y0352066D01*
X0212105Y0351830D01*
X0211869Y0351279D01*
X0211790Y0350925D01*
X0211790Y0348051D01*
X0210255Y0348051D01*
X0210255Y0353366D01*
X0210648Y0353444D01*
X0210806Y0353484D01*
X0211003Y0353484D01*
X0211199Y0353523D01*
X0211357Y0353562D01*
X0211554Y0353602D01*
X0211711Y0353641D01*
X0211711Y0352578D01*
X0211751Y0352578D01*
X0211869Y0352854D01*
X0212026Y0353090D01*
X0212223Y0353287D01*
X0212696Y0353602D01*
X0213247Y0353759D01*
X0213798Y0353759D01*
X0213837Y0353714D02*
X0213089Y0353714D01*
X0212416Y0353416D02*
X0213837Y0353416D01*
X0213837Y0353117D02*
X0212053Y0353117D01*
X0211711Y0353117D02*
X0210255Y0353117D01*
X0210255Y0352819D02*
X0211711Y0352819D01*
X0211854Y0352819D02*
X0213837Y0352819D01*
X0213837Y0352520D02*
X0210255Y0352520D01*
X0210255Y0352222D02*
X0212574Y0352222D01*
X0212198Y0351923D02*
X0210255Y0351923D01*
X0210255Y0351625D02*
X0212017Y0351625D01*
X0211889Y0351326D02*
X0210255Y0351326D01*
X0210255Y0351028D02*
X0211813Y0351028D01*
X0211790Y0350729D02*
X0210255Y0350729D01*
X0210255Y0350431D02*
X0211790Y0350431D01*
X0211790Y0350132D02*
X0210255Y0350132D01*
X0210255Y0349834D02*
X0211790Y0349834D01*
X0211790Y0349535D02*
X0210255Y0349535D01*
X0210255Y0349237D02*
X0211790Y0349237D01*
X0211790Y0348938D02*
X0210255Y0348938D01*
X0210255Y0348639D02*
X0211790Y0348639D01*
X0211790Y0348341D02*
X0210255Y0348341D01*
X0209585Y0348090D02*
X0209585Y0348051D01*
X0208050Y0348051D01*
X0208050Y0348129D01*
X0208010Y0348169D01*
X0208010Y0348208D01*
X0207971Y0348247D01*
X0207971Y0348484D01*
X0207932Y0348523D01*
X0207932Y0348602D01*
X0207853Y0348523D01*
X0207774Y0348405D01*
X0207656Y0348326D01*
X0207538Y0348287D01*
X0207420Y0348208D01*
X0207341Y0348169D01*
X0207223Y0348090D01*
X0207105Y0348051D01*
X0206948Y0348011D01*
X0206829Y0347972D01*
X0206711Y0347972D01*
X0206593Y0347932D01*
X0206318Y0347932D01*
X0206199Y0347893D01*
X0205885Y0347893D01*
X0205688Y0347932D01*
X0205491Y0347932D01*
X0205333Y0348011D01*
X0205176Y0348051D01*
X0204861Y0348208D01*
X0204743Y0348287D01*
X0204507Y0348523D01*
X0204388Y0348681D01*
X0204310Y0348838D01*
X0204231Y0349153D01*
X0204192Y0349350D01*
X0204192Y0349547D01*
X0204231Y0349980D01*
X0204349Y0350334D01*
X0204546Y0350610D01*
X0204782Y0350846D01*
X0205058Y0351003D01*
X0205373Y0351121D01*
X0205727Y0351200D01*
X0206042Y0351240D01*
X0206357Y0350413D01*
X0205963Y0350216D01*
X0205806Y0350058D01*
X0205727Y0349901D01*
X0205727Y0349744D01*
X0205688Y0349625D01*
X0205727Y0349547D01*
X0205727Y0349468D01*
X0205766Y0349350D01*
X0205766Y0349310D01*
X0205806Y0349232D01*
X0205924Y0349114D01*
X0206003Y0349074D01*
X0206042Y0349035D01*
X0206121Y0348995D01*
X0206199Y0348995D01*
X0206278Y0348956D01*
X0206869Y0348956D01*
X0207341Y0349074D01*
X0207459Y0349153D01*
X0207656Y0349350D01*
X0207696Y0349468D01*
X0207774Y0349547D01*
X0207814Y0349665D01*
X0207814Y0349783D01*
X0207853Y0349862D01*
X0207853Y0349980D01*
X0207892Y0350058D01*
X0207892Y0350806D01*
X0207814Y0350767D01*
X0207774Y0350728D01*
X0207696Y0350688D01*
X0207656Y0350649D01*
X0207577Y0350649D01*
X0207420Y0350570D01*
X0207223Y0350570D01*
X0207066Y0351397D01*
X0207341Y0351436D01*
X0207577Y0351515D01*
X0207735Y0351633D01*
X0207853Y0351791D01*
X0207892Y0351988D01*
X0207892Y0352106D01*
X0207853Y0352224D01*
X0207853Y0352303D01*
X0207774Y0352460D01*
X0207656Y0352578D01*
X0207420Y0352696D01*
X0207341Y0352696D01*
X0207262Y0352736D01*
X0206987Y0352736D01*
X0206908Y0352775D01*
X0206790Y0352736D01*
X0206593Y0352736D01*
X0206475Y0352696D01*
X0206396Y0352696D01*
X0206239Y0352618D01*
X0206003Y0352381D01*
X0205924Y0352224D01*
X0205924Y0352106D01*
X0205885Y0352027D01*
X0205885Y0351909D01*
X0204349Y0351909D01*
X0204388Y0352184D01*
X0204428Y0352381D01*
X0204507Y0352618D01*
X0204625Y0352814D01*
X0204743Y0352972D01*
X0204900Y0353129D01*
X0205215Y0353366D01*
X0205412Y0353484D01*
X0205806Y0353641D01*
X0206514Y0353759D01*
X0207381Y0353759D01*
X0207617Y0353720D01*
X0207814Y0353720D01*
X0208010Y0353681D01*
X0208247Y0353602D01*
X0208404Y0353562D01*
X0208601Y0353484D01*
X0208759Y0353405D01*
X0208916Y0353287D01*
X0209192Y0353011D01*
X0209270Y0352814D01*
X0209349Y0352657D01*
X0209428Y0352184D01*
X0209428Y0348641D01*
X0209467Y0348562D01*
X0209467Y0348405D01*
X0209507Y0348326D01*
X0209507Y0348287D01*
X0209546Y0348208D01*
X0209546Y0348169D01*
X0209585Y0348090D01*
X0209499Y0348341D02*
X0207971Y0348341D01*
X0207678Y0348341D02*
X0204689Y0348341D01*
X0204419Y0348639D02*
X0209429Y0348639D01*
X0209428Y0348938D02*
X0204285Y0348938D01*
X0204214Y0349237D02*
X0205803Y0349237D01*
X0205727Y0349535D02*
X0204192Y0349535D01*
X0204218Y0349834D02*
X0205727Y0349834D01*
X0205879Y0350132D02*
X0204282Y0350132D01*
X0204418Y0350431D02*
X0206350Y0350431D01*
X0206471Y0350431D01*
X0206436Y0350413D02*
X0206357Y0350413D01*
X0206042Y0351240D01*
X0206396Y0351318D01*
X0206751Y0351358D01*
X0207066Y0351397D01*
X0207223Y0350570D01*
X0207144Y0350531D01*
X0206987Y0350531D01*
X0206869Y0350492D01*
X0206711Y0350492D01*
X0206593Y0350452D01*
X0206514Y0350452D01*
X0206436Y0350413D01*
X0206236Y0350729D02*
X0207193Y0350729D01*
X0207776Y0350729D01*
X0207892Y0350729D02*
X0209428Y0350729D01*
X0209428Y0350431D02*
X0207892Y0350431D01*
X0207892Y0350132D02*
X0209428Y0350132D01*
X0209428Y0349834D02*
X0207839Y0349834D01*
X0207763Y0349535D02*
X0209428Y0349535D01*
X0209428Y0349237D02*
X0207543Y0349237D01*
X0207072Y0348042D02*
X0205208Y0348042D01*
X0203404Y0349232D02*
X0202066Y0349862D01*
X0201751Y0349389D01*
X0201514Y0349232D01*
X0201239Y0349114D01*
X0200885Y0349074D01*
X0200530Y0349114D01*
X0200255Y0349232D01*
X0200018Y0349389D01*
X0199703Y0349862D01*
X0199546Y0350492D01*
X0199546Y0351161D01*
X0199703Y0351791D01*
X0199822Y0352066D01*
X0200018Y0352303D01*
X0200255Y0352460D01*
X0200530Y0352578D01*
X0200885Y0352618D01*
X0201199Y0352578D01*
X0201475Y0352460D01*
X0201711Y0352303D01*
X0201908Y0352066D01*
X0202026Y0351791D01*
X0202144Y0351476D01*
X0202223Y0350846D01*
X0203719Y0350806D01*
X0203719Y0351358D01*
X0203601Y0351909D01*
X0203404Y0352421D01*
X0203129Y0352893D01*
X0202774Y0353247D01*
X0202341Y0353523D01*
X0201829Y0353720D01*
X0201199Y0353799D01*
X0200491Y0353681D01*
X0200255Y0353562D01*
X0199861Y0353326D01*
X0199546Y0352932D01*
X0199546Y0353641D01*
X0199349Y0353602D01*
X0199192Y0353562D01*
X0198798Y0353484D01*
X0198640Y0353484D01*
X0198444Y0353444D01*
X0198286Y0353405D01*
X0198089Y0353366D01*
X0198089Y0346121D01*
X0198286Y0345925D01*
X0198483Y0345767D01*
X0198837Y0345413D01*
X0199231Y0345098D01*
X0199428Y0344901D01*
X0199625Y0344744D01*
X0199625Y0348759D01*
X0199782Y0348562D01*
X0199940Y0348405D01*
X0200136Y0348247D01*
X0200333Y0348129D01*
X0200806Y0347972D01*
X0201042Y0347932D01*
X0201278Y0347932D01*
X0201869Y0347972D01*
X0202381Y0348169D01*
X0202774Y0348444D01*
X0203129Y0348799D01*
X0203404Y0349232D01*
X0202066Y0349862D01*
X0202144Y0350177D01*
X0202184Y0350492D01*
X0202223Y0350846D01*
X0203719Y0350806D01*
X0203680Y0350255D01*
X0203601Y0349704D01*
X0203404Y0349232D01*
X0203406Y0349237D02*
X0203394Y0349237D01*
X0201522Y0349237D01*
X0201848Y0349535D02*
X0202760Y0349535D01*
X0203531Y0349535D01*
X0203620Y0349834D02*
X0202125Y0349834D01*
X0202047Y0349834D01*
X0202133Y0350132D02*
X0203662Y0350132D01*
X0203692Y0350431D02*
X0202176Y0350431D01*
X0202210Y0350729D02*
X0203714Y0350729D01*
X0203719Y0351028D02*
X0202200Y0351028D01*
X0202163Y0351326D02*
X0203719Y0351326D01*
X0203662Y0351625D02*
X0202089Y0351625D01*
X0201970Y0351923D02*
X0203596Y0351923D01*
X0203481Y0352222D02*
X0201779Y0352222D01*
X0201335Y0352520D02*
X0203346Y0352520D01*
X0203172Y0352819D02*
X0198089Y0352819D01*
X0198089Y0353117D02*
X0199546Y0353117D01*
X0199694Y0353117D02*
X0202905Y0353117D01*
X0202510Y0353416D02*
X0200010Y0353416D01*
X0199546Y0353416D02*
X0198329Y0353416D01*
X0198089Y0352520D02*
X0200395Y0352520D01*
X0199951Y0352222D02*
X0198089Y0352222D01*
X0198089Y0351923D02*
X0199760Y0351923D01*
X0199662Y0351625D02*
X0198089Y0351625D01*
X0198089Y0351326D02*
X0199587Y0351326D01*
X0199546Y0351028D02*
X0198089Y0351028D01*
X0198089Y0350729D02*
X0199546Y0350729D01*
X0199561Y0350431D02*
X0198089Y0350431D01*
X0198089Y0350132D02*
X0199636Y0350132D01*
X0199722Y0349834D02*
X0198089Y0349834D01*
X0198089Y0349535D02*
X0199921Y0349535D01*
X0200247Y0349237D02*
X0198089Y0349237D01*
X0198089Y0348938D02*
X0203217Y0348938D01*
X0202969Y0348639D02*
X0199720Y0348639D01*
X0199625Y0348639D02*
X0198089Y0348639D01*
X0198089Y0348341D02*
X0199625Y0348341D01*
X0199625Y0348042D02*
X0198089Y0348042D01*
X0198089Y0347744D02*
X0199625Y0347744D01*
X0199625Y0347445D02*
X0198089Y0347445D01*
X0198089Y0347147D02*
X0199625Y0347147D01*
X0199625Y0346848D02*
X0198089Y0346848D01*
X0198089Y0346550D02*
X0199625Y0346550D01*
X0199625Y0346251D02*
X0198089Y0346251D01*
X0198258Y0345953D02*
X0199625Y0345953D01*
X0199625Y0345654D02*
X0198596Y0345654D01*
X0198908Y0345356D02*
X0199625Y0345356D01*
X0199625Y0345057D02*
X0199271Y0345057D01*
X0199606Y0344759D02*
X0199625Y0344759D01*
X0200594Y0348042D02*
X0202052Y0348042D01*
X0202627Y0348341D02*
X0200020Y0348341D01*
X0197420Y0349350D02*
X0197223Y0348956D01*
X0196987Y0348602D01*
X0196672Y0348366D01*
X0196278Y0348169D01*
X0195845Y0348011D01*
X0195373Y0347932D01*
X0194428Y0347932D01*
X0193955Y0348011D01*
X0193522Y0348169D01*
X0193129Y0348366D01*
X0192814Y0348602D01*
X0192538Y0348956D01*
X0192381Y0349389D01*
X0192302Y0349862D01*
X0193759Y0349862D01*
X0193798Y0349625D01*
X0193877Y0349468D01*
X0193955Y0349271D01*
X0194113Y0349153D01*
X0194507Y0348995D01*
X0194703Y0348956D01*
X0194940Y0348917D01*
X0195097Y0348956D01*
X0195255Y0348956D01*
X0195451Y0349035D01*
X0195609Y0349074D01*
X0195845Y0349310D01*
X0195924Y0349468D01*
X0195924Y0349665D01*
X0195885Y0349822D01*
X0195806Y0349940D01*
X0195688Y0350058D01*
X0195491Y0350177D01*
X0194940Y0350334D01*
X0194585Y0350413D01*
X0194192Y0350492D01*
X0193877Y0350610D01*
X0193562Y0350688D01*
X0193247Y0350806D01*
X0192971Y0350964D01*
X0192577Y0351358D01*
X0192459Y0351673D01*
X0192420Y0351988D01*
X0192499Y0352499D01*
X0192656Y0352893D01*
X0192892Y0353169D01*
X0193207Y0353405D01*
X0193562Y0353602D01*
X0193955Y0353720D01*
X0194388Y0353759D01*
X0194861Y0353799D01*
X0195727Y0353720D01*
X0196121Y0353602D01*
X0196475Y0353405D01*
X0196790Y0353169D01*
X0197066Y0352854D01*
X0197223Y0352460D01*
X0197302Y0352027D01*
X0195845Y0352027D01*
X0195806Y0352224D01*
X0195766Y0352381D01*
X0195530Y0352618D01*
X0195373Y0352696D01*
X0195215Y0352736D01*
X0195018Y0352775D01*
X0194664Y0352775D01*
X0194546Y0352736D01*
X0194388Y0352736D01*
X0194270Y0352696D01*
X0194034Y0352539D01*
X0193995Y0352421D01*
X0193955Y0352263D01*
X0193995Y0352066D01*
X0194113Y0351909D01*
X0194270Y0351791D01*
X0194507Y0351712D01*
X0195058Y0351555D01*
X0195373Y0351515D01*
X0195688Y0351436D01*
X0196042Y0351358D01*
X0196357Y0351240D01*
X0196633Y0351121D01*
X0196908Y0350964D01*
X0197144Y0350767D01*
X0197302Y0350531D01*
X0197420Y0350216D01*
X0197459Y0349862D01*
X0197420Y0349350D01*
X0197363Y0349237D02*
X0195771Y0349237D01*
X0195924Y0349535D02*
X0197434Y0349535D01*
X0197457Y0349834D02*
X0195877Y0349834D01*
X0195565Y0350132D02*
X0197429Y0350132D01*
X0197339Y0350431D02*
X0194497Y0350431D01*
X0193763Y0349834D02*
X0192307Y0349834D01*
X0192356Y0349535D02*
X0193843Y0349535D01*
X0194001Y0349237D02*
X0192436Y0349237D01*
X0192552Y0348938D02*
X0194812Y0348938D01*
X0195025Y0348938D02*
X0197211Y0348938D01*
X0197012Y0348639D02*
X0192784Y0348639D01*
X0193178Y0348341D02*
X0196623Y0348341D01*
X0195931Y0348042D02*
X0193869Y0348042D01*
X0193453Y0350729D02*
X0197170Y0350729D01*
X0196797Y0351028D02*
X0192908Y0351028D01*
X0192609Y0351326D02*
X0196126Y0351326D01*
X0195806Y0352222D02*
X0197266Y0352222D01*
X0197199Y0352520D02*
X0195628Y0352520D01*
X0195746Y0353714D02*
X0193936Y0353714D01*
X0193227Y0353416D02*
X0196456Y0353416D01*
X0196835Y0353117D02*
X0192848Y0353117D01*
X0192626Y0352819D02*
X0197080Y0352819D01*
X0194812Y0351625D02*
X0192477Y0351625D01*
X0192428Y0351923D02*
X0194102Y0351923D01*
X0193964Y0352222D02*
X0192456Y0352222D01*
X0192507Y0352520D02*
X0194028Y0352520D01*
X0200693Y0353714D02*
X0201844Y0353714D01*
X0204474Y0352520D02*
X0206141Y0352520D01*
X0205924Y0352222D02*
X0204396Y0352222D01*
X0204351Y0351923D02*
X0205885Y0351923D01*
X0206466Y0351326D02*
X0207079Y0351326D01*
X0209428Y0351326D01*
X0209428Y0351028D02*
X0207136Y0351028D01*
X0206123Y0351028D01*
X0205122Y0351028D01*
X0204665Y0350729D02*
X0206236Y0350729D01*
X0207723Y0351625D02*
X0209428Y0351625D01*
X0209428Y0351923D02*
X0207879Y0351923D01*
X0207854Y0352222D02*
X0209422Y0352222D01*
X0209372Y0352520D02*
X0207714Y0352520D01*
X0207842Y0353714D02*
X0206244Y0353714D01*
X0205299Y0353416D02*
X0208737Y0353416D01*
X0209086Y0353117D02*
X0204888Y0353117D01*
X0204628Y0352819D02*
X0209269Y0352819D01*
X0210505Y0353416D02*
X0211711Y0353416D01*
X0217676Y0353416D02*
X0219474Y0353416D01*
X0220885Y0353714D02*
X0222420Y0353714D01*
X0222420Y0354013D02*
X0220885Y0354013D01*
X0220911Y0354311D02*
X0222479Y0354311D01*
X0223562Y0354610D02*
X0220969Y0354610D01*
X0221097Y0354908D02*
X0223562Y0354908D01*
X0223562Y0355207D02*
X0221316Y0355207D01*
X0221630Y0355505D02*
X0223562Y0355505D01*
X0222420Y0352520D02*
X0220885Y0352520D01*
X0220885Y0352222D02*
X0222420Y0352222D01*
X0222420Y0351923D02*
X0220885Y0351923D01*
X0220885Y0351625D02*
X0222420Y0351625D01*
X0222420Y0351326D02*
X0220885Y0351326D01*
X0220885Y0351028D02*
X0222420Y0351028D01*
X0222420Y0350729D02*
X0220885Y0350729D01*
X0220885Y0350431D02*
X0222420Y0350431D01*
X0222420Y0350132D02*
X0220885Y0350132D01*
X0220885Y0349834D02*
X0222420Y0349834D01*
X0222420Y0349535D02*
X0220885Y0349535D01*
X0220885Y0349237D02*
X0222420Y0349237D01*
X0222420Y0348938D02*
X0220885Y0348938D01*
X0220885Y0348639D02*
X0222420Y0348639D01*
X0222420Y0348341D02*
X0220885Y0348341D01*
X0225114Y0348042D02*
X0226648Y0348042D01*
X0227021Y0349237D02*
X0229113Y0349237D01*
X0229113Y0349535D02*
X0227358Y0349535D01*
X0227496Y0349834D02*
X0229113Y0349834D01*
X0229113Y0350132D02*
X0227555Y0350132D01*
X0227587Y0350431D02*
X0229113Y0350431D01*
X0229113Y0350729D02*
X0227617Y0350729D01*
X0227617Y0351028D02*
X0229113Y0351028D01*
X0229113Y0351326D02*
X0227617Y0351326D01*
X0227617Y0351625D02*
X0229113Y0351625D01*
X0229113Y0351923D02*
X0227617Y0351923D01*
X0227617Y0352222D02*
X0229113Y0352222D01*
X0229113Y0352520D02*
X0227617Y0352520D01*
X0227617Y0352819D02*
X0229113Y0352819D01*
X0229113Y0353117D02*
X0227617Y0353117D01*
X0227617Y0353416D02*
X0229113Y0353416D01*
X0229966Y0353416D02*
X0231396Y0353416D01*
X0231396Y0353117D02*
X0229950Y0353117D01*
X0229940Y0352819D02*
X0234937Y0352819D01*
X0234771Y0353117D02*
X0231615Y0353117D01*
X0231944Y0353416D02*
X0234487Y0353416D01*
X0233703Y0353714D02*
X0232639Y0353714D01*
D14*
X0193621Y0362750D03*
X0193621Y0369050D03*
X0193546Y0330050D03*
X0193546Y0323750D03*
D15*
X0193546Y0323908D03*
X0193546Y0329892D03*
X0153361Y0330050D03*
X0153361Y0323750D03*
X0153306Y0362750D03*
X0153306Y0369050D03*
X0193621Y0368892D03*
X0193621Y0362908D03*
X0273593Y0363065D03*
X0273593Y0368735D03*
X0273073Y0329735D03*
X0273073Y0324065D03*
D16*
X0273073Y0324223D03*
X0273073Y0329577D03*
X0273593Y0363223D03*
X0273593Y0368577D03*
X0213676Y0330050D03*
X0213676Y0323750D03*
X0193546Y0324065D03*
X0193546Y0329735D03*
X0193621Y0363065D03*
X0193621Y0368735D03*
D17*
X0193621Y0368577D03*
X0193621Y0363223D03*
X0193546Y0329577D03*
X0193546Y0324223D03*
X0273073Y0324538D03*
X0273073Y0329262D03*
X0273593Y0363538D03*
X0273593Y0368262D03*
D18*
X0273593Y0368105D03*
X0273593Y0363695D03*
X0233121Y0363223D03*
X0233121Y0368577D03*
X0193621Y0368420D03*
X0193621Y0363380D03*
X0153306Y0363065D03*
X0153306Y0368735D03*
X0153361Y0329735D03*
X0153361Y0324065D03*
X0193546Y0324380D03*
X0193546Y0329420D03*
X0213676Y0329892D03*
X0213676Y0323908D03*
X0233546Y0324223D03*
X0233546Y0329577D03*
X0273073Y0329105D03*
X0273073Y0324695D03*
D19*
X0233546Y0324380D03*
X0233546Y0329420D03*
X0193546Y0329262D03*
X0193546Y0324538D03*
X0193621Y0363538D03*
X0193621Y0368262D03*
X0233121Y0368420D03*
X0233121Y0363380D03*
D20*
X0233121Y0363538D03*
X0233121Y0368262D03*
X0193621Y0368105D03*
X0193621Y0363695D03*
X0153306Y0363223D03*
X0153306Y0368577D03*
X0153361Y0329577D03*
X0153361Y0324223D03*
X0193546Y0324695D03*
X0193546Y0329105D03*
X0213676Y0329735D03*
X0213676Y0324065D03*
X0233546Y0324538D03*
X0233546Y0329262D03*
D21*
X0227168Y0328947D03*
X0226538Y0326900D03*
X0221314Y0326428D03*
X0221314Y0326270D03*
X0220841Y0328790D03*
X0210290Y0324853D03*
X0200396Y0326900D03*
X0199766Y0328947D03*
X0187325Y0328947D03*
X0186696Y0327530D03*
X0160369Y0328475D03*
X0160211Y0328632D03*
X0146510Y0328632D03*
X0146353Y0328475D03*
X0146455Y0364168D03*
X0146298Y0364325D03*
X0160156Y0364168D03*
X0160314Y0364325D03*
X0186770Y0365900D03*
X0187400Y0363853D03*
X0199841Y0363853D03*
X0200471Y0365270D03*
X0226113Y0366530D03*
X0226113Y0366687D03*
X0239499Y0363853D03*
X0240129Y0365900D03*
X0279499Y0363853D03*
X0280129Y0365900D03*
X0267168Y0328947D03*
X0266538Y0326900D03*
X0240554Y0326270D03*
X0240554Y0326113D03*
D22*
X0277325Y0328947D03*
X0269341Y0363853D03*
X0193621Y0363853D03*
X0193546Y0328947D03*
D23*
X0200081Y0328790D03*
X0200554Y0327372D03*
X0200554Y0327215D03*
X0200554Y0326743D03*
X0200554Y0326585D03*
X0199924Y0324853D03*
X0205881Y0326113D03*
X0205881Y0326270D03*
X0205881Y0326428D03*
X0205881Y0326585D03*
X0205881Y0326743D03*
X0205881Y0326900D03*
X0205881Y0327057D03*
X0205881Y0327215D03*
X0205881Y0327372D03*
X0205881Y0327530D03*
X0205881Y0327687D03*
X0210290Y0325325D03*
X0210290Y0325168D03*
X0210290Y0325010D03*
X0221314Y0325955D03*
X0221471Y0326743D03*
X0221471Y0326900D03*
X0221156Y0328475D03*
X0220999Y0328632D03*
X0226381Y0327687D03*
X0226381Y0327530D03*
X0226381Y0327372D03*
X0226853Y0325010D03*
X0240554Y0325798D03*
X0240554Y0325955D03*
X0266381Y0327215D03*
X0266381Y0327372D03*
X0266381Y0327530D03*
X0266381Y0327687D03*
X0266853Y0328790D03*
X0266853Y0325010D03*
X0267010Y0324853D03*
X0279814Y0364010D03*
X0280286Y0365113D03*
X0280286Y0365270D03*
X0280286Y0365428D03*
X0280286Y0365585D03*
X0279814Y0367790D03*
X0279656Y0367947D03*
X0240286Y0365428D03*
X0240286Y0365270D03*
X0240286Y0365113D03*
X0239814Y0367790D03*
X0226113Y0367002D03*
X0226113Y0366845D03*
X0200629Y0366530D03*
X0200629Y0365113D03*
X0200156Y0364010D03*
X0199999Y0367947D03*
X0187243Y0367947D03*
X0186613Y0366215D03*
X0186613Y0366057D03*
X0186613Y0365585D03*
X0186613Y0365428D03*
X0187085Y0364010D03*
X0160786Y0365113D03*
X0160786Y0365270D03*
X0160629Y0364798D03*
X0160471Y0364483D03*
X0160786Y0366530D03*
X0160786Y0366687D03*
X0160629Y0367002D03*
X0160629Y0367160D03*
X0160471Y0367317D03*
X0146140Y0367317D03*
X0145983Y0367160D03*
X0145983Y0367002D03*
X0145825Y0366687D03*
X0145825Y0365113D03*
X0145983Y0364798D03*
X0146196Y0328317D03*
X0146038Y0328002D03*
X0145881Y0327687D03*
X0145881Y0327530D03*
X0145881Y0326270D03*
X0145881Y0326113D03*
X0146038Y0325798D03*
X0146038Y0325640D03*
X0146196Y0325483D03*
X0160526Y0325483D03*
X0160684Y0325640D03*
X0160684Y0325798D03*
X0160841Y0326113D03*
X0160841Y0327687D03*
X0160684Y0328002D03*
X0186538Y0327687D03*
X0187010Y0328790D03*
X0186538Y0326270D03*
X0187168Y0324853D03*
D24*
X0189609Y0325955D03*
X0189609Y0326113D03*
X0189451Y0327530D03*
X0189609Y0327687D03*
X0191026Y0328790D03*
X0191499Y0327215D03*
X0193546Y0327215D03*
X0193546Y0327372D03*
X0196066Y0328790D03*
X0197325Y0327530D03*
X0197483Y0327687D03*
X0197483Y0326113D03*
X0197483Y0325955D03*
X0209109Y0327057D03*
X0210999Y0326428D03*
X0212416Y0328317D03*
X0214621Y0328317D03*
X0216196Y0326585D03*
X0216196Y0326428D03*
X0216196Y0326270D03*
X0218243Y0325483D03*
X0218243Y0325325D03*
X0218243Y0327057D03*
X0218243Y0327215D03*
X0218243Y0327687D03*
X0229451Y0325955D03*
X0230869Y0328790D03*
X0234491Y0325010D03*
X0269451Y0325955D03*
X0270711Y0327215D03*
X0271026Y0327845D03*
X0271184Y0328160D03*
X0271341Y0328317D03*
X0273388Y0327845D03*
X0274806Y0328790D03*
X0271341Y0325325D03*
X0271861Y0364010D03*
X0273278Y0364955D03*
X0275325Y0364483D03*
X0275483Y0364640D03*
X0275640Y0364955D03*
X0275955Y0365585D03*
X0277215Y0366845D03*
X0275325Y0367475D03*
X0237215Y0366845D03*
X0235798Y0364010D03*
X0232176Y0367790D03*
X0197715Y0365270D03*
X0197558Y0365113D03*
X0197558Y0366687D03*
X0197558Y0366845D03*
X0195668Y0365585D03*
X0196140Y0364010D03*
X0193621Y0365428D03*
X0193621Y0365585D03*
X0191101Y0364010D03*
X0189841Y0365270D03*
X0189684Y0365113D03*
X0189684Y0366687D03*
X0189684Y0366845D03*
X0157715Y0365585D03*
X0157085Y0364955D03*
X0152991Y0364798D03*
X0153463Y0367160D03*
X0149369Y0366845D03*
X0149369Y0365113D03*
X0149581Y0327845D03*
X0148951Y0327215D03*
X0153203Y0325640D03*
X0153676Y0328002D03*
X0157298Y0327687D03*
X0157298Y0325955D03*
D25*
X0193546Y0328632D03*
X0193546Y0328790D03*
X0195908Y0326585D03*
X0230239Y0327687D03*
X0237010Y0324853D03*
X0270239Y0327687D03*
X0271499Y0328790D03*
X0275168Y0364010D03*
X0276428Y0365113D03*
X0236428Y0365113D03*
X0229656Y0367947D03*
X0193621Y0364168D03*
X0193621Y0364010D03*
X0191259Y0366215D03*
D26*
X0187007Y0367790D03*
X0186534Y0366687D03*
X0186534Y0366530D03*
X0186534Y0366372D03*
X0186534Y0365270D03*
X0186534Y0365113D03*
X0186692Y0364640D03*
X0186849Y0364325D03*
X0187007Y0364168D03*
X0200235Y0364168D03*
X0200392Y0364325D03*
X0200550Y0364640D03*
X0200550Y0364798D03*
X0200550Y0364955D03*
X0200707Y0366687D03*
X0200235Y0367790D03*
X0226034Y0367160D03*
X0240050Y0367475D03*
X0240207Y0367160D03*
X0240207Y0367002D03*
X0240207Y0366845D03*
X0240207Y0364955D03*
X0240207Y0364798D03*
X0240207Y0364640D03*
X0240050Y0364483D03*
X0240050Y0364325D03*
X0239892Y0364168D03*
X0275168Y0363853D03*
X0279892Y0364168D03*
X0280050Y0364325D03*
X0280050Y0364483D03*
X0280207Y0364640D03*
X0280207Y0364798D03*
X0280207Y0364955D03*
X0280207Y0366845D03*
X0280207Y0367002D03*
X0271499Y0328947D03*
X0266774Y0328632D03*
X0266617Y0328475D03*
X0266617Y0328317D03*
X0266459Y0328160D03*
X0266459Y0328002D03*
X0266459Y0327845D03*
X0266459Y0325955D03*
X0266459Y0325798D03*
X0240633Y0325640D03*
X0226617Y0325325D03*
X0226459Y0325640D03*
X0226459Y0325798D03*
X0226459Y0325955D03*
X0226459Y0327845D03*
X0226459Y0328002D03*
X0226459Y0328160D03*
X0226617Y0328317D03*
X0226617Y0328475D03*
X0226774Y0328632D03*
X0221550Y0327687D03*
X0221550Y0327530D03*
X0221550Y0327372D03*
X0221550Y0327215D03*
X0221550Y0327057D03*
X0221392Y0327845D03*
X0221392Y0328002D03*
X0221392Y0328160D03*
X0221235Y0328317D03*
X0221392Y0325798D03*
X0221392Y0325640D03*
X0210211Y0325640D03*
X0210211Y0325483D03*
X0205959Y0325640D03*
X0205959Y0325798D03*
X0205959Y0325955D03*
X0205959Y0327845D03*
X0205959Y0328002D03*
X0205959Y0328160D03*
X0200633Y0327687D03*
X0200633Y0327530D03*
X0200475Y0328160D03*
X0200318Y0328475D03*
X0200160Y0328632D03*
X0200633Y0326428D03*
X0200633Y0326270D03*
X0200633Y0326113D03*
X0200160Y0325010D03*
X0186932Y0325010D03*
X0186459Y0326113D03*
X0186617Y0327845D03*
X0186617Y0328002D03*
X0186617Y0328160D03*
X0186774Y0328475D03*
X0186932Y0328632D03*
X0160920Y0327530D03*
X0160920Y0327372D03*
X0160920Y0327215D03*
X0160920Y0327057D03*
X0160920Y0326900D03*
X0160920Y0326743D03*
X0160920Y0326585D03*
X0160920Y0326428D03*
X0160920Y0326270D03*
X0160762Y0325955D03*
X0160762Y0327845D03*
X0145959Y0327845D03*
X0145802Y0327372D03*
X0145802Y0327215D03*
X0145802Y0327057D03*
X0145802Y0326900D03*
X0145802Y0326743D03*
X0145802Y0326585D03*
X0145802Y0326428D03*
X0145959Y0325955D03*
X0145904Y0364955D03*
X0145747Y0365270D03*
X0145747Y0365428D03*
X0145747Y0365585D03*
X0145747Y0365743D03*
X0145747Y0365900D03*
X0145747Y0366057D03*
X0145747Y0366215D03*
X0145747Y0366372D03*
X0145747Y0366530D03*
X0145904Y0366845D03*
X0160707Y0366845D03*
X0160865Y0366372D03*
X0160865Y0366215D03*
X0160865Y0366057D03*
X0160865Y0365900D03*
X0160865Y0365743D03*
X0160865Y0365585D03*
X0160865Y0365428D03*
X0160707Y0364955D03*
D27*
X0157085Y0367002D03*
X0155510Y0364955D03*
X0155510Y0364168D03*
X0152833Y0365270D03*
X0153621Y0366687D03*
X0153621Y0366845D03*
X0151259Y0367947D03*
X0189684Y0367002D03*
X0189684Y0364955D03*
X0191101Y0364168D03*
X0191416Y0364955D03*
X0191416Y0365113D03*
X0193621Y0365743D03*
X0193621Y0365900D03*
X0195668Y0365270D03*
X0196140Y0364168D03*
X0197558Y0364955D03*
X0197558Y0367002D03*
X0231231Y0365900D03*
X0231231Y0365743D03*
X0235640Y0365743D03*
X0235640Y0364798D03*
X0235640Y0364168D03*
X0235640Y0367632D03*
X0271861Y0365113D03*
X0273278Y0367002D03*
X0275325Y0367160D03*
X0275325Y0367317D03*
X0275798Y0365743D03*
X0274806Y0327687D03*
X0273388Y0325798D03*
X0271341Y0325640D03*
X0271341Y0325483D03*
X0270869Y0327057D03*
X0235436Y0327057D03*
X0235436Y0326900D03*
X0231026Y0327057D03*
X0231026Y0328002D03*
X0231026Y0328632D03*
X0231026Y0325168D03*
X0216353Y0327215D03*
X0216353Y0327372D03*
X0216353Y0327530D03*
X0212416Y0327845D03*
X0210999Y0326743D03*
X0210526Y0328632D03*
X0197483Y0327845D03*
X0196066Y0328632D03*
X0195751Y0327845D03*
X0195751Y0327687D03*
X0193546Y0327057D03*
X0193546Y0326900D03*
X0191499Y0327530D03*
X0191026Y0328632D03*
X0189609Y0327845D03*
X0189609Y0325798D03*
X0197483Y0325798D03*
X0155408Y0324853D03*
X0153046Y0325955D03*
X0153046Y0326113D03*
X0153833Y0327530D03*
X0151156Y0327845D03*
X0151156Y0328632D03*
X0149581Y0325798D03*
D28*
X0151235Y0325168D03*
X0151235Y0327215D03*
X0151235Y0328002D03*
X0151235Y0328160D03*
X0151235Y0328317D03*
X0151235Y0328475D03*
X0152967Y0326270D03*
X0153912Y0327372D03*
X0155487Y0328790D03*
X0157062Y0325798D03*
X0155487Y0325010D03*
X0191105Y0328475D03*
X0191262Y0328160D03*
X0191420Y0327845D03*
X0191420Y0327687D03*
X0195829Y0328002D03*
X0195829Y0328160D03*
X0195987Y0328475D03*
X0210605Y0328475D03*
X0211077Y0327057D03*
X0211077Y0326900D03*
X0212495Y0327530D03*
X0212495Y0327687D03*
X0213597Y0326270D03*
X0213597Y0326113D03*
X0213597Y0325955D03*
X0214699Y0327372D03*
X0214699Y0327530D03*
X0214699Y0327687D03*
X0216432Y0327687D03*
X0216432Y0327845D03*
X0216432Y0328002D03*
X0216432Y0328790D03*
X0229530Y0328002D03*
X0231105Y0328160D03*
X0231105Y0328317D03*
X0231105Y0328475D03*
X0231105Y0326900D03*
X0231105Y0325325D03*
X0232837Y0325798D03*
X0234727Y0325483D03*
X0234727Y0325325D03*
X0234885Y0325640D03*
X0235199Y0326270D03*
X0235357Y0326585D03*
X0235357Y0326743D03*
X0237089Y0326585D03*
X0269530Y0328002D03*
X0271262Y0325955D03*
X0271262Y0325798D03*
X0274885Y0325955D03*
X0274885Y0327845D03*
X0274885Y0328632D03*
X0271782Y0364168D03*
X0271782Y0364955D03*
X0271782Y0366845D03*
X0275404Y0366845D03*
X0275404Y0367002D03*
X0277136Y0364798D03*
X0237136Y0364798D03*
X0235562Y0364640D03*
X0235562Y0364483D03*
X0235562Y0364325D03*
X0235562Y0365900D03*
X0235562Y0367475D03*
X0233829Y0367002D03*
X0231940Y0367317D03*
X0231940Y0367475D03*
X0231782Y0367160D03*
X0231467Y0366530D03*
X0231310Y0366215D03*
X0231310Y0366057D03*
X0229577Y0366215D03*
X0196062Y0364325D03*
X0195904Y0364640D03*
X0195747Y0364955D03*
X0195747Y0365113D03*
X0191337Y0364798D03*
X0191337Y0364640D03*
X0191180Y0364325D03*
X0155432Y0364325D03*
X0155432Y0364483D03*
X0155432Y0364640D03*
X0155432Y0364798D03*
X0155432Y0365585D03*
X0153699Y0366530D03*
X0152755Y0365428D03*
X0151180Y0364010D03*
X0149605Y0367002D03*
X0151180Y0367790D03*
X0155432Y0367632D03*
D29*
X0191101Y0365743D03*
X0191101Y0365585D03*
X0192046Y0367475D03*
X0195196Y0367475D03*
X0193621Y0364483D03*
X0193621Y0364325D03*
X0229656Y0367632D03*
X0231231Y0364483D03*
X0235436Y0328317D03*
X0237010Y0325168D03*
X0196066Y0327057D03*
X0196066Y0327215D03*
X0195121Y0325325D03*
X0191971Y0325325D03*
X0193546Y0328317D03*
X0193546Y0328475D03*
D30*
X0200396Y0328317D03*
X0200554Y0328002D03*
X0200554Y0327845D03*
X0200554Y0325955D03*
X0200554Y0325798D03*
X0200554Y0325640D03*
X0200396Y0325325D03*
X0200239Y0325168D03*
X0206038Y0325325D03*
X0206038Y0325483D03*
X0206038Y0328317D03*
X0206038Y0328475D03*
X0210133Y0325798D03*
X0226538Y0325483D03*
X0226696Y0325168D03*
X0235199Y0328790D03*
X0240554Y0325483D03*
X0266381Y0325640D03*
X0266538Y0325483D03*
X0266538Y0325325D03*
X0266696Y0325168D03*
X0231467Y0364010D03*
X0226113Y0367317D03*
X0239971Y0367632D03*
X0240129Y0367317D03*
X0200629Y0367160D03*
X0200629Y0367002D03*
X0200629Y0366845D03*
X0200471Y0367475D03*
X0200314Y0367632D03*
X0200471Y0364483D03*
X0186770Y0364483D03*
X0186613Y0364798D03*
X0186613Y0364955D03*
X0186613Y0366845D03*
X0186613Y0367002D03*
X0186613Y0367160D03*
X0186770Y0367475D03*
X0186928Y0367632D03*
X0186696Y0328317D03*
X0186538Y0325955D03*
X0186538Y0325798D03*
X0186538Y0325640D03*
X0186696Y0325325D03*
X0186853Y0325168D03*
X0279971Y0367632D03*
X0280129Y0367475D03*
X0280129Y0367317D03*
X0280286Y0367160D03*
D31*
X0275640Y0366057D03*
X0275640Y0365900D03*
X0275483Y0366372D03*
X0275483Y0366530D03*
X0275483Y0366687D03*
X0271703Y0367002D03*
X0271703Y0367160D03*
X0271703Y0367632D03*
X0271703Y0364798D03*
X0271703Y0364325D03*
X0235483Y0366057D03*
X0235483Y0366215D03*
X0235483Y0366372D03*
X0235483Y0366530D03*
X0235483Y0366845D03*
X0235483Y0367002D03*
X0235483Y0367160D03*
X0235483Y0367317D03*
X0231703Y0367002D03*
X0231546Y0366845D03*
X0231546Y0366687D03*
X0231388Y0366372D03*
X0229656Y0366057D03*
X0195983Y0364483D03*
X0195825Y0364798D03*
X0193621Y0366057D03*
X0193621Y0366215D03*
X0191259Y0364483D03*
X0155353Y0365743D03*
X0155353Y0365900D03*
X0155353Y0366057D03*
X0155353Y0366215D03*
X0155353Y0366372D03*
X0155353Y0366530D03*
X0155353Y0366687D03*
X0155353Y0366845D03*
X0155353Y0367002D03*
X0155353Y0367160D03*
X0155353Y0367317D03*
X0155353Y0367475D03*
X0153778Y0366372D03*
X0152676Y0365743D03*
X0152676Y0365585D03*
X0151259Y0365585D03*
X0151259Y0365428D03*
X0151259Y0365270D03*
X0151259Y0365113D03*
X0151259Y0364955D03*
X0151259Y0364798D03*
X0151259Y0364640D03*
X0151259Y0364483D03*
X0151259Y0364325D03*
X0151259Y0364168D03*
X0151259Y0365743D03*
X0151259Y0365900D03*
X0151259Y0366057D03*
X0151259Y0366215D03*
X0151259Y0366372D03*
X0151259Y0366530D03*
X0151259Y0366687D03*
X0151259Y0366845D03*
X0151259Y0367002D03*
X0151259Y0367160D03*
X0151259Y0367317D03*
X0151259Y0367475D03*
X0151259Y0367632D03*
X0155408Y0328632D03*
X0155408Y0328475D03*
X0155408Y0328317D03*
X0155408Y0328160D03*
X0155408Y0328002D03*
X0155408Y0327845D03*
X0155408Y0327687D03*
X0155408Y0327530D03*
X0155408Y0327372D03*
X0155408Y0327215D03*
X0155408Y0327057D03*
X0155408Y0326900D03*
X0155408Y0326743D03*
X0155408Y0326585D03*
X0155408Y0326428D03*
X0155408Y0326270D03*
X0155408Y0326113D03*
X0155408Y0325955D03*
X0155408Y0325798D03*
X0155408Y0325640D03*
X0155408Y0325483D03*
X0155408Y0325325D03*
X0155408Y0325168D03*
X0153991Y0327057D03*
X0153991Y0327215D03*
X0152888Y0326428D03*
X0151314Y0326428D03*
X0151314Y0326585D03*
X0151314Y0326743D03*
X0151314Y0326900D03*
X0151314Y0327057D03*
X0151314Y0326270D03*
X0151314Y0326113D03*
X0151314Y0325955D03*
X0151314Y0325798D03*
X0151314Y0325640D03*
X0151314Y0325483D03*
X0151314Y0325325D03*
X0191184Y0328317D03*
X0191341Y0328002D03*
X0193546Y0326743D03*
X0193546Y0326585D03*
X0195908Y0328317D03*
X0210684Y0328317D03*
X0210841Y0328002D03*
X0210999Y0327530D03*
X0210999Y0327372D03*
X0210999Y0327215D03*
X0212416Y0327372D03*
X0216510Y0328160D03*
X0216510Y0328317D03*
X0216510Y0328475D03*
X0216510Y0328632D03*
X0231184Y0326743D03*
X0231184Y0326585D03*
X0231184Y0326428D03*
X0231184Y0326270D03*
X0231184Y0325955D03*
X0231184Y0325798D03*
X0231184Y0325640D03*
X0231184Y0325483D03*
X0234963Y0325798D03*
X0235121Y0325955D03*
X0235121Y0326113D03*
X0235278Y0326428D03*
X0237010Y0326743D03*
X0271026Y0326743D03*
X0271026Y0326900D03*
X0271184Y0326428D03*
X0271184Y0326270D03*
X0271184Y0326113D03*
X0274963Y0325798D03*
X0274963Y0325640D03*
X0274963Y0325168D03*
X0274963Y0328002D03*
X0274963Y0328475D03*
D32*
X0270475Y0327372D03*
X0271420Y0325010D03*
X0237089Y0325325D03*
X0230475Y0327372D03*
X0215959Y0324853D03*
X0196144Y0327372D03*
X0193625Y0328160D03*
X0153440Y0328790D03*
X0153440Y0324853D03*
X0153227Y0364010D03*
X0153227Y0367947D03*
X0191022Y0365428D03*
X0193542Y0364640D03*
X0229577Y0367475D03*
X0236192Y0365428D03*
X0275247Y0367790D03*
X0276192Y0365428D03*
D33*
X0275562Y0366215D03*
X0271625Y0367317D03*
X0271625Y0367475D03*
X0271625Y0364640D03*
X0271625Y0364483D03*
X0235404Y0366687D03*
X0229577Y0365900D03*
X0229577Y0365743D03*
X0197479Y0364798D03*
X0189605Y0364798D03*
X0153857Y0366057D03*
X0153857Y0366215D03*
X0152597Y0365900D03*
X0154070Y0326900D03*
X0152810Y0326743D03*
X0152810Y0326585D03*
X0189688Y0328002D03*
X0197562Y0328002D03*
X0210762Y0328160D03*
X0210920Y0327845D03*
X0210920Y0327687D03*
X0212495Y0327215D03*
X0212495Y0327057D03*
X0213597Y0326743D03*
X0213597Y0326585D03*
X0213597Y0326428D03*
X0214699Y0326900D03*
X0214699Y0327057D03*
X0214699Y0327215D03*
X0231262Y0326113D03*
X0237089Y0326900D03*
X0237089Y0327057D03*
X0271105Y0326585D03*
X0275042Y0325483D03*
X0275042Y0325325D03*
X0275042Y0328160D03*
X0275042Y0328317D03*
D34*
X0271499Y0328632D03*
X0237010Y0325483D03*
X0234333Y0324853D03*
X0233231Y0326743D03*
X0233231Y0326900D03*
X0233231Y0327057D03*
X0235436Y0328160D03*
X0213518Y0324853D03*
X0210841Y0326113D03*
X0195121Y0325640D03*
X0195121Y0325483D03*
X0193546Y0328002D03*
X0191971Y0325640D03*
X0191971Y0325483D03*
X0153361Y0325010D03*
X0193621Y0364798D03*
X0195196Y0367160D03*
X0195196Y0367317D03*
X0192046Y0367317D03*
X0192046Y0367160D03*
X0229656Y0367317D03*
X0232333Y0367947D03*
X0233436Y0366057D03*
X0233436Y0365900D03*
X0233436Y0365743D03*
X0231231Y0364640D03*
X0275168Y0364168D03*
X0153306Y0367790D03*
D35*
X0153227Y0364168D03*
X0149133Y0365585D03*
X0149133Y0365743D03*
X0149133Y0365900D03*
X0149133Y0366057D03*
X0149133Y0366215D03*
X0157322Y0366372D03*
X0157322Y0366530D03*
X0191810Y0366530D03*
X0191967Y0366845D03*
X0191967Y0367002D03*
X0193542Y0364955D03*
X0195747Y0365900D03*
X0195274Y0366845D03*
X0195274Y0367002D03*
X0229577Y0367160D03*
X0231152Y0364955D03*
X0231152Y0364798D03*
X0233514Y0365428D03*
X0233514Y0365585D03*
X0233514Y0366215D03*
X0233514Y0366372D03*
X0233514Y0366530D03*
X0273199Y0365113D03*
X0275247Y0367632D03*
X0273467Y0327687D03*
X0271420Y0325168D03*
X0237089Y0325640D03*
X0235514Y0327845D03*
X0235514Y0328002D03*
X0233152Y0327372D03*
X0233152Y0327215D03*
X0233152Y0326585D03*
X0233152Y0326428D03*
X0233152Y0326270D03*
X0218322Y0324853D03*
X0215959Y0325010D03*
X0215959Y0325168D03*
X0215959Y0325325D03*
X0214699Y0328790D03*
X0212495Y0328790D03*
X0195357Y0326270D03*
X0195199Y0325955D03*
X0195199Y0325798D03*
X0193625Y0327845D03*
X0191420Y0326900D03*
X0191892Y0325955D03*
X0191892Y0325798D03*
X0157534Y0326585D03*
X0157534Y0326743D03*
X0157534Y0326900D03*
X0157534Y0327057D03*
X0157534Y0327215D03*
X0153440Y0328632D03*
X0149345Y0326428D03*
X0149345Y0326270D03*
D36*
X0149424Y0326113D03*
X0153361Y0325168D03*
X0153518Y0328317D03*
X0153518Y0328475D03*
X0157455Y0327372D03*
X0157455Y0326428D03*
X0157455Y0326270D03*
X0191656Y0326585D03*
X0191814Y0326270D03*
X0191814Y0326113D03*
X0193546Y0327687D03*
X0195278Y0326113D03*
X0213518Y0325010D03*
X0216038Y0325483D03*
X0216038Y0325640D03*
X0216038Y0325798D03*
X0230869Y0324853D03*
X0233073Y0326113D03*
X0233073Y0327530D03*
X0273388Y0325955D03*
X0233593Y0365270D03*
X0233593Y0366687D03*
X0235798Y0367947D03*
X0273278Y0366845D03*
X0195510Y0366215D03*
X0195353Y0366530D03*
X0195353Y0366687D03*
X0193621Y0365113D03*
X0191888Y0366687D03*
X0157243Y0366687D03*
X0153306Y0367632D03*
X0153148Y0364483D03*
X0153148Y0364325D03*
X0149211Y0365428D03*
X0149211Y0366372D03*
X0149211Y0366530D03*
D37*
X0149290Y0366687D03*
X0149290Y0365270D03*
X0153070Y0364640D03*
X0155589Y0364010D03*
X0157164Y0366845D03*
X0155589Y0367947D03*
X0153385Y0367475D03*
X0153385Y0367317D03*
X0189762Y0366530D03*
X0191337Y0365270D03*
X0193542Y0365270D03*
X0195432Y0366372D03*
X0195589Y0366057D03*
X0195747Y0365743D03*
X0197636Y0366530D03*
X0231152Y0365270D03*
X0231152Y0365113D03*
X0233672Y0365113D03*
X0233672Y0366845D03*
X0235877Y0365585D03*
X0237294Y0366687D03*
X0271940Y0367947D03*
X0275247Y0364325D03*
X0277294Y0366687D03*
X0271420Y0328475D03*
X0269373Y0326113D03*
X0274727Y0324853D03*
X0235514Y0327530D03*
X0235514Y0327687D03*
X0232995Y0327687D03*
X0232995Y0325955D03*
X0230790Y0327215D03*
X0229373Y0326113D03*
X0218322Y0325168D03*
X0218322Y0325010D03*
X0218322Y0327372D03*
X0218322Y0327530D03*
X0216117Y0326113D03*
X0216117Y0325955D03*
X0213597Y0325325D03*
X0213597Y0325168D03*
X0210920Y0326270D03*
X0209188Y0327215D03*
X0209188Y0327372D03*
X0209188Y0327530D03*
X0209188Y0327687D03*
X0210448Y0328790D03*
X0212495Y0328632D03*
X0212495Y0328475D03*
X0214699Y0328475D03*
X0214699Y0328632D03*
X0197404Y0326270D03*
X0195829Y0327530D03*
X0193625Y0327530D03*
X0191735Y0326428D03*
X0191577Y0326743D03*
X0191420Y0327057D03*
X0189530Y0326270D03*
X0157377Y0326113D03*
X0157377Y0327530D03*
X0153597Y0328160D03*
X0151077Y0328790D03*
X0149503Y0325955D03*
X0151077Y0324853D03*
X0153282Y0325325D03*
X0153282Y0325483D03*
D38*
X0187010Y0326585D03*
X0187010Y0326743D03*
X0187010Y0326900D03*
X0187010Y0327057D03*
X0187010Y0327215D03*
X0187010Y0327372D03*
X0226853Y0326585D03*
X0239766Y0328632D03*
X0239924Y0328317D03*
X0240081Y0328002D03*
X0240081Y0327845D03*
X0240239Y0327530D03*
X0240239Y0327372D03*
X0239814Y0366215D03*
X0226900Y0364168D03*
X0226743Y0364483D03*
X0226585Y0364798D03*
X0226585Y0364955D03*
X0226428Y0365270D03*
X0226428Y0365428D03*
X0200156Y0365428D03*
X0200156Y0365585D03*
X0200156Y0365743D03*
X0200156Y0365900D03*
X0200156Y0366057D03*
X0200156Y0366215D03*
D39*
X0195747Y0365428D03*
X0231152Y0365428D03*
X0231152Y0365585D03*
X0232097Y0367632D03*
X0233829Y0364955D03*
X0235719Y0364955D03*
X0237136Y0364955D03*
X0237136Y0367002D03*
X0235719Y0367790D03*
X0271782Y0367790D03*
X0275562Y0364798D03*
X0277136Y0364955D03*
X0277136Y0367002D03*
X0271105Y0328002D03*
X0269530Y0327845D03*
X0269530Y0325798D03*
X0274885Y0325010D03*
X0235514Y0327215D03*
X0235514Y0327372D03*
X0234570Y0325168D03*
X0232837Y0327845D03*
X0230948Y0327845D03*
X0229530Y0327845D03*
X0229530Y0325798D03*
X0230948Y0325010D03*
X0218164Y0325640D03*
X0218164Y0325798D03*
X0218164Y0327845D03*
X0216274Y0327057D03*
X0216274Y0326900D03*
X0216274Y0326743D03*
X0214699Y0327845D03*
X0214699Y0328002D03*
X0214699Y0328160D03*
X0212495Y0328160D03*
X0212495Y0328002D03*
X0211077Y0326585D03*
X0209030Y0327845D03*
X0213597Y0325798D03*
X0213597Y0325640D03*
X0213597Y0325483D03*
X0191420Y0327372D03*
X0157219Y0327845D03*
X0153755Y0327845D03*
X0153755Y0327687D03*
X0153125Y0325798D03*
X0151235Y0325010D03*
X0148873Y0326585D03*
X0148873Y0326743D03*
X0148873Y0326900D03*
X0148873Y0327057D03*
X0149448Y0364955D03*
X0152912Y0364955D03*
X0152912Y0365113D03*
X0153542Y0367002D03*
X0155432Y0367790D03*
X0157794Y0366215D03*
X0157794Y0366057D03*
X0157794Y0365900D03*
X0157794Y0365743D03*
D40*
X0160550Y0364640D03*
X0160392Y0367475D03*
X0160235Y0367632D03*
X0146377Y0367632D03*
X0146219Y0367475D03*
X0146062Y0364640D03*
X0146219Y0364483D03*
X0186692Y0365743D03*
X0200475Y0327057D03*
X0221392Y0326585D03*
X0221392Y0326113D03*
X0226459Y0326113D03*
X0226459Y0327057D03*
X0226459Y0327215D03*
X0226932Y0328790D03*
X0227089Y0324853D03*
X0266459Y0326113D03*
X0266459Y0327057D03*
X0280207Y0365743D03*
X0280207Y0366687D03*
X0240207Y0366687D03*
X0240207Y0365743D03*
X0240207Y0365585D03*
X0239735Y0364010D03*
X0239577Y0367947D03*
X0160605Y0328160D03*
X0160448Y0328317D03*
X0160448Y0325325D03*
X0160290Y0325168D03*
X0146432Y0325168D03*
X0146274Y0325325D03*
X0146117Y0328160D03*
D41*
X0191180Y0365900D03*
X0191180Y0366057D03*
X0191967Y0367632D03*
X0195274Y0367632D03*
X0229577Y0367790D03*
X0231310Y0364325D03*
X0236349Y0365270D03*
X0276349Y0365270D03*
X0270318Y0327530D03*
X0237089Y0325010D03*
X0235357Y0328475D03*
X0230318Y0327530D03*
X0210605Y0325955D03*
X0195987Y0326743D03*
X0195987Y0326900D03*
X0195199Y0325168D03*
X0191892Y0325168D03*
D42*
X0187325Y0326428D03*
X0199841Y0366372D03*
X0267845Y0366845D03*
X0267845Y0367002D03*
X0267845Y0367160D03*
X0267845Y0364955D03*
X0267845Y0364798D03*
X0267845Y0364640D03*
X0278822Y0328160D03*
X0278822Y0328002D03*
X0278822Y0327845D03*
X0278822Y0325955D03*
X0278822Y0325798D03*
X0278822Y0325640D03*
D43*
X0212416Y0326900D03*
X0193546Y0326428D03*
X0193546Y0326270D03*
X0154148Y0326743D03*
X0152731Y0326900D03*
X0153936Y0365900D03*
X0152518Y0366057D03*
X0193621Y0366372D03*
X0193621Y0366530D03*
D44*
X0195353Y0367947D03*
X0191888Y0367947D03*
X0190944Y0366372D03*
X0186692Y0367317D03*
X0200550Y0367317D03*
X0226034Y0367475D03*
X0226349Y0367947D03*
X0266979Y0367475D03*
X0266979Y0367317D03*
X0279688Y0325483D03*
X0279688Y0325325D03*
X0240633Y0325325D03*
X0240318Y0324853D03*
X0221392Y0325325D03*
X0221392Y0325483D03*
X0221077Y0324853D03*
X0206274Y0324853D03*
X0206117Y0325010D03*
X0206117Y0325168D03*
X0206117Y0328632D03*
X0206117Y0328790D03*
X0200475Y0325483D03*
X0196223Y0326428D03*
X0195278Y0324853D03*
X0191814Y0324853D03*
X0186617Y0325483D03*
X0150054Y0327372D03*
X0150054Y0327530D03*
X0156613Y0365270D03*
X0156613Y0365428D03*
D45*
X0191967Y0367790D03*
X0195274Y0367790D03*
X0195199Y0325010D03*
X0191892Y0325010D03*
X0271420Y0324853D03*
X0275247Y0367947D03*
D46*
X0273593Y0368420D03*
X0273593Y0363380D03*
X0233121Y0363065D03*
X0233121Y0368735D03*
X0233546Y0329735D03*
X0233546Y0324065D03*
X0273073Y0324380D03*
X0273073Y0329420D03*
X0153361Y0329892D03*
X0153361Y0323908D03*
X0153306Y0362908D03*
X0153306Y0368892D03*
D47*
X0153306Y0368420D03*
X0153306Y0363380D03*
X0153361Y0329420D03*
X0153361Y0324380D03*
X0233546Y0324695D03*
X0233546Y0329105D03*
X0233121Y0363695D03*
X0233121Y0368105D03*
D48*
X0213676Y0329577D03*
X0213676Y0324223D03*
X0153361Y0324538D03*
X0153361Y0329262D03*
X0153306Y0363538D03*
X0153306Y0368262D03*
D49*
X0153306Y0368105D03*
X0153306Y0363695D03*
X0153361Y0329105D03*
X0153361Y0324695D03*
X0213676Y0324380D03*
X0213676Y0329420D03*
D50*
X0240318Y0327215D03*
X0240318Y0327057D03*
X0266774Y0326585D03*
X0279892Y0366215D03*
X0226349Y0365743D03*
X0226349Y0365585D03*
X0159762Y0363853D03*
X0146849Y0367947D03*
X0146904Y0328947D03*
X0159818Y0324853D03*
D51*
X0155959Y0328947D03*
X0150707Y0363853D03*
X0230837Y0363853D03*
X0235829Y0328947D03*
D52*
X0240396Y0326900D03*
X0240396Y0326743D03*
X0213597Y0328947D03*
X0226270Y0365900D03*
X0226270Y0366057D03*
X0159999Y0364010D03*
X0159841Y0367947D03*
X0146613Y0364010D03*
X0146668Y0328790D03*
X0146825Y0324853D03*
X0160054Y0328790D03*
D53*
X0150133Y0327687D03*
X0156534Y0365113D03*
X0221314Y0325168D03*
X0221314Y0325010D03*
X0240554Y0325010D03*
X0240554Y0325168D03*
X0273782Y0326270D03*
X0273782Y0326428D03*
X0273782Y0326585D03*
X0273782Y0326743D03*
X0273782Y0326900D03*
X0273782Y0327057D03*
X0273782Y0327215D03*
X0273782Y0327372D03*
X0279451Y0324853D03*
X0279609Y0325010D03*
X0279609Y0325168D03*
X0272885Y0365428D03*
X0272885Y0365585D03*
X0272885Y0365743D03*
X0272885Y0365900D03*
X0272885Y0366057D03*
X0272885Y0366215D03*
X0272885Y0366372D03*
X0272885Y0366530D03*
X0267215Y0367947D03*
X0267058Y0367790D03*
X0267058Y0367632D03*
X0226113Y0367632D03*
X0226113Y0367790D03*
D54*
X0226192Y0366372D03*
X0226192Y0366215D03*
X0240050Y0366057D03*
X0280050Y0366057D03*
X0266617Y0326743D03*
X0240475Y0326585D03*
X0240475Y0326428D03*
X0226617Y0326743D03*
X0160133Y0325010D03*
X0146589Y0325010D03*
X0146534Y0367790D03*
X0160077Y0367790D03*
D55*
X0273593Y0369050D03*
X0273593Y0362750D03*
X0273073Y0330050D03*
X0273073Y0323750D03*
D56*
X0273073Y0323908D03*
X0273073Y0329892D03*
X0233546Y0330050D03*
X0233546Y0323750D03*
X0233121Y0362750D03*
X0233121Y0369050D03*
X0273593Y0368892D03*
X0273593Y0362908D03*
D57*
X0268081Y0364010D03*
X0268081Y0364168D03*
X0267924Y0364325D03*
X0267924Y0364483D03*
X0279577Y0366372D03*
X0239577Y0366372D03*
X0278585Y0328790D03*
X0278585Y0328632D03*
X0278743Y0328475D03*
X0278743Y0328317D03*
X0267089Y0326428D03*
X0227089Y0326428D03*
D58*
X0267247Y0326270D03*
X0278900Y0326270D03*
X0278900Y0326113D03*
X0278900Y0326428D03*
X0278900Y0326585D03*
X0278900Y0326743D03*
X0278900Y0326900D03*
X0278900Y0327057D03*
X0278900Y0327215D03*
X0278900Y0327372D03*
X0278900Y0327530D03*
X0278900Y0327687D03*
X0267766Y0365113D03*
X0267766Y0365270D03*
X0267766Y0365428D03*
X0267766Y0365585D03*
X0267766Y0365743D03*
X0267766Y0365900D03*
X0267766Y0366057D03*
X0267766Y0366215D03*
X0267766Y0366372D03*
X0267766Y0366530D03*
X0267766Y0366687D03*
X0279420Y0366530D03*
D59*
X0272806Y0366687D03*
X0272806Y0365270D03*
X0273861Y0327530D03*
X0273861Y0326113D03*
X0235278Y0328632D03*
X0231388Y0364168D03*
D60*
X0233121Y0362908D03*
X0233121Y0368892D03*
X0233546Y0329892D03*
X0233546Y0323908D03*
D61*
X0240160Y0327687D03*
X0240003Y0328160D03*
X0239845Y0328475D03*
X0239688Y0328790D03*
X0226979Y0364010D03*
X0226822Y0364325D03*
X0226664Y0364640D03*
X0226507Y0365113D03*
D62*
X0239341Y0366530D03*
X0227325Y0326270D03*
D63*
X0213676Y0324538D03*
X0213676Y0329262D03*
D64*
X0213676Y0329105D03*
X0213676Y0324695D03*
D65*
X0208085Y0328947D03*
D66*
X0219188Y0328947D03*
M02*
