G75*
%MOIN*%
%OFA0B0*%
%FSLAX25Y25*%
%IPPOS*%
%LPD*%
%AMOC8*
5,1,8,0,0,1.08239X$1,22.5*
%
%ADD10C,0.00800*%
%ADD11C,0.03937*%
%ADD12C,0.20000*%
%ADD13C,0.01000*%
%ADD14C,0.02900*%
D10*
X0152933Y0298400D02*
X0152933Y0310000D01*
X0140333Y0310000D01*
X0140333Y0310800D01*
X0152933Y0310800D01*
X0152933Y0310000D01*
X0153733Y0310000D01*
X0153733Y0298400D01*
X0152933Y0298400D01*
X0152933Y0298796D02*
X0153733Y0298796D01*
X0153733Y0299594D02*
X0152933Y0299594D01*
X0152933Y0300393D02*
X0153733Y0300393D01*
X0153733Y0301191D02*
X0152933Y0301191D01*
X0152933Y0301990D02*
X0153733Y0301990D01*
X0153733Y0302788D02*
X0152933Y0302788D01*
X0152933Y0303587D02*
X0153733Y0303587D01*
X0153733Y0304385D02*
X0152933Y0304385D01*
X0152933Y0305184D02*
X0153733Y0305184D01*
X0153733Y0305982D02*
X0152933Y0305982D01*
X0152933Y0306781D02*
X0153733Y0306781D01*
X0153733Y0307579D02*
X0152933Y0307579D01*
X0152933Y0308378D02*
X0153733Y0308378D01*
X0153733Y0309176D02*
X0152933Y0309176D01*
X0152933Y0309975D02*
X0153733Y0309975D01*
X0153733Y0310000D02*
X0153733Y0310800D01*
X0152933Y0310800D01*
X0152933Y0324300D01*
X0152605Y0324300D01*
X0151156Y0324148D01*
X0149731Y0323845D01*
X0148345Y0323395D01*
X0147014Y0322802D01*
X0145752Y0322074D01*
X0144574Y0321217D01*
X0143491Y0320242D01*
X0142516Y0319160D01*
X0142516Y0319160D01*
X0142507Y0319148D01*
X0141660Y0317981D01*
X0140931Y0316719D01*
X0140339Y0315388D01*
X0140333Y0315371D01*
X0140333Y0329353D01*
X0141312Y0328375D01*
X0142623Y0327831D01*
X0144043Y0327831D01*
X0145355Y0328375D01*
X0146359Y0329379D01*
X0146902Y0330690D01*
X0146902Y0332110D01*
X0146359Y0333421D01*
X0145355Y0334425D01*
X0144043Y0334968D01*
X0142623Y0334968D01*
X0141312Y0334425D01*
X0140333Y0333447D01*
X0140333Y0341656D01*
X0141099Y0340330D01*
X0143612Y0338222D01*
X0146693Y0337100D01*
X0149973Y0337100D01*
X0153055Y0338222D01*
X0155567Y0340330D01*
X0157207Y0343170D01*
X0157207Y0343170D01*
X0157777Y0346400D01*
X0157207Y0349630D01*
X0155567Y0352470D01*
X0153055Y0354578D01*
X0149973Y0355700D01*
X0146693Y0355700D01*
X0143612Y0354578D01*
X0143612Y0354578D01*
X0141099Y0352470D01*
X0140333Y0351144D01*
X0140333Y0377429D01*
X0140339Y0377412D01*
X0140339Y0377412D01*
X0140931Y0376081D01*
X0140931Y0376081D01*
X0141660Y0374819D01*
X0142516Y0373640D01*
X0143491Y0372558D01*
X0143491Y0372558D01*
X0143875Y0372212D01*
X0144574Y0371583D01*
X0145019Y0371259D01*
X0145752Y0370726D01*
X0145752Y0370726D01*
X0146657Y0370204D01*
X0147014Y0369998D01*
X0147014Y0369998D01*
X0148152Y0369492D01*
X0148345Y0369405D01*
X0149731Y0368955D01*
X0151156Y0368652D01*
X0152605Y0368500D01*
X0152933Y0368500D01*
X0152933Y0382000D01*
X0140333Y0382000D01*
X0140333Y0382800D01*
X0152933Y0382800D01*
X0152933Y0382000D01*
X0153733Y0382000D01*
X0153733Y0368500D01*
X0154062Y0368500D01*
X0155511Y0368652D01*
X0156936Y0368955D01*
X0158321Y0369405D01*
X0159652Y0369998D01*
X0160914Y0370726D01*
X0162093Y0371583D01*
X0163176Y0372558D01*
X0164150Y0373640D01*
X0164150Y0373640D01*
X0164153Y0373645D01*
X0165007Y0374819D01*
X0165007Y0374819D01*
X0165735Y0376081D01*
X0166328Y0377412D01*
X0166778Y0378797D01*
X0166778Y0378797D01*
X0167081Y0380223D01*
X0167233Y0381672D01*
X0167233Y0382000D01*
X0153733Y0382000D01*
X0153733Y0382800D01*
X0152933Y0382800D01*
X0152933Y0394400D01*
X0153733Y0394400D01*
X0153733Y0382800D01*
X0167233Y0382800D01*
X0167233Y0394400D01*
X0179233Y0394400D01*
X0179233Y0383183D01*
X0179177Y0383118D01*
X0179233Y0382325D01*
X0179233Y0381530D01*
X0179295Y0381469D01*
X0179311Y0381240D01*
X0179219Y0381096D01*
X0179372Y0380393D01*
X0179423Y0379675D01*
X0179552Y0379563D01*
X0179619Y0379256D01*
X0179548Y0379100D01*
X0179799Y0378426D01*
X0179952Y0377723D01*
X0180096Y0377630D01*
X0180206Y0377336D01*
X0180158Y0377172D01*
X0180503Y0376540D01*
X0180754Y0375866D01*
X0180910Y0375795D01*
X0181060Y0375519D01*
X0181036Y0375350D01*
X0181467Y0374774D01*
X0181812Y0374142D01*
X0181976Y0374094D01*
X0182164Y0373843D01*
X0182164Y0373672D01*
X0182673Y0373163D01*
X0183104Y0372587D01*
X0183274Y0372563D01*
X0183496Y0372340D01*
X0183520Y0372171D01*
X0184096Y0371740D01*
X0184605Y0371231D01*
X0184776Y0371231D01*
X0185028Y0371043D01*
X0185076Y0370879D01*
X0185707Y0370534D01*
X0186284Y0370103D01*
X0186453Y0370127D01*
X0186728Y0369976D01*
X0186799Y0369821D01*
X0187474Y0369569D01*
X0188105Y0369224D01*
X0188269Y0369273D01*
X0188564Y0369163D01*
X0188656Y0369019D01*
X0189359Y0368866D01*
X0190034Y0368615D01*
X0190189Y0368686D01*
X0190496Y0368619D01*
X0190608Y0368490D01*
X0191326Y0368438D01*
X0191333Y0368437D01*
X0191333Y0362127D01*
X0190919Y0363128D01*
X0190061Y0363986D01*
X0188940Y0364450D01*
X0187727Y0364450D01*
X0186606Y0363986D01*
X0185748Y0363128D01*
X0185283Y0362007D01*
X0185283Y0361178D01*
X0181505Y0357400D01*
X0180333Y0356228D01*
X0180333Y0343213D01*
X0179748Y0342628D01*
X0179283Y0341507D01*
X0179283Y0340293D01*
X0179748Y0339172D01*
X0180606Y0338314D01*
X0181727Y0337850D01*
X0182940Y0337850D01*
X0184061Y0338314D01*
X0184919Y0339172D01*
X0185383Y0340293D01*
X0185383Y0341507D01*
X0184919Y0342628D01*
X0184333Y0343213D01*
X0184333Y0354572D01*
X0188112Y0358350D01*
X0188940Y0358350D01*
X0190061Y0358814D01*
X0190919Y0359672D01*
X0191333Y0360673D01*
X0191333Y0347713D01*
X0190748Y0347128D01*
X0190283Y0346007D01*
X0190283Y0344793D01*
X0190748Y0343672D01*
X0191606Y0342814D01*
X0192727Y0342350D01*
X0193940Y0342350D01*
X0195061Y0342814D01*
X0195919Y0343672D01*
X0196383Y0344793D01*
X0196383Y0346007D01*
X0195919Y0347128D01*
X0195333Y0347713D01*
X0195333Y0368437D01*
X0195341Y0368438D01*
X0196059Y0368490D01*
X0196170Y0368619D01*
X0196478Y0368686D01*
X0196633Y0368615D01*
X0197307Y0368866D01*
X0198010Y0369019D01*
X0198103Y0369163D01*
X0198397Y0369273D01*
X0198561Y0369224D01*
X0199193Y0369569D01*
X0199867Y0369821D01*
X0199938Y0369976D01*
X0200214Y0370127D01*
X0200383Y0370103D01*
X0200959Y0370534D01*
X0201591Y0370879D01*
X0201639Y0371043D01*
X0201891Y0371231D01*
X0202062Y0371231D01*
X0202570Y0371740D01*
X0203146Y0372171D01*
X0203171Y0372340D01*
X0203393Y0372563D01*
X0203562Y0372587D01*
X0203993Y0373163D01*
X0204502Y0373672D01*
X0204502Y0373843D01*
X0204691Y0374094D01*
X0204855Y0374142D01*
X0205200Y0374774D01*
X0205631Y0375350D01*
X0205606Y0375519D01*
X0205757Y0375795D01*
X0205913Y0375866D01*
X0206164Y0376540D01*
X0206509Y0377172D01*
X0206461Y0377336D01*
X0206571Y0377630D01*
X0206714Y0377723D01*
X0206867Y0378426D01*
X0207119Y0379100D01*
X0207048Y0379256D01*
X0207115Y0379563D01*
X0207244Y0379675D01*
X0207295Y0380393D01*
X0207448Y0381096D01*
X0207356Y0381240D01*
X0207372Y0381469D01*
X0207433Y0381530D01*
X0207433Y0382325D01*
X0207490Y0383118D01*
X0207433Y0383183D01*
X0207433Y0394400D01*
X0219233Y0394400D01*
X0219233Y0383183D01*
X0219177Y0383118D01*
X0219233Y0382325D01*
X0219233Y0381530D01*
X0219295Y0381469D01*
X0219311Y0381240D01*
X0219219Y0381096D01*
X0219372Y0380393D01*
X0219423Y0379675D01*
X0219552Y0379563D01*
X0219619Y0379256D01*
X0219548Y0379100D01*
X0219799Y0378426D01*
X0219952Y0377723D01*
X0220096Y0377630D01*
X0220206Y0377336D01*
X0220158Y0377172D01*
X0220503Y0376540D01*
X0220754Y0375866D01*
X0220910Y0375795D01*
X0221060Y0375519D01*
X0221036Y0375350D01*
X0221467Y0374774D01*
X0221659Y0374422D01*
X0220606Y0373986D01*
X0219748Y0373128D01*
X0219283Y0372007D01*
X0219283Y0370793D01*
X0219748Y0369672D01*
X0220606Y0368814D01*
X0221727Y0368350D01*
X0222555Y0368350D01*
X0226505Y0364400D01*
X0236020Y0364400D01*
X0236333Y0364087D01*
X0236333Y0351713D01*
X0235748Y0351128D01*
X0235283Y0350007D01*
X0235283Y0349178D01*
X0227076Y0340971D01*
X0226561Y0341486D01*
X0225440Y0341950D01*
X0224227Y0341950D01*
X0223106Y0341486D01*
X0222248Y0340628D01*
X0221783Y0339507D01*
X0221783Y0338293D01*
X0222248Y0337172D01*
X0223106Y0336314D01*
X0224227Y0335850D01*
X0225440Y0335850D01*
X0226561Y0336314D01*
X0227147Y0336900D01*
X0228662Y0336900D01*
X0229833Y0338072D01*
X0238112Y0346350D01*
X0238940Y0346350D01*
X0240061Y0346814D01*
X0240919Y0347672D01*
X0241383Y0348793D01*
X0241383Y0350007D01*
X0240919Y0351128D01*
X0240333Y0351713D01*
X0240333Y0364087D01*
X0240919Y0364672D01*
X0241383Y0365793D01*
X0241383Y0367007D01*
X0240919Y0368128D01*
X0240061Y0368986D01*
X0238960Y0369442D01*
X0239193Y0369569D01*
X0239867Y0369821D01*
X0239938Y0369976D01*
X0240214Y0370127D01*
X0240383Y0370103D01*
X0240959Y0370534D01*
X0241591Y0370879D01*
X0241639Y0371043D01*
X0241891Y0371231D01*
X0242062Y0371231D01*
X0242570Y0371740D01*
X0243146Y0372171D01*
X0243171Y0372340D01*
X0243393Y0372563D01*
X0243562Y0372587D01*
X0243993Y0373163D01*
X0244502Y0373672D01*
X0244502Y0373843D01*
X0244691Y0374094D01*
X0244855Y0374142D01*
X0245200Y0374774D01*
X0245631Y0375350D01*
X0245606Y0375519D01*
X0245757Y0375795D01*
X0245913Y0375866D01*
X0246164Y0376540D01*
X0246509Y0377172D01*
X0246461Y0377336D01*
X0246571Y0377630D01*
X0246714Y0377723D01*
X0246867Y0378426D01*
X0247119Y0379100D01*
X0247048Y0379256D01*
X0247115Y0379563D01*
X0247244Y0379675D01*
X0247295Y0380393D01*
X0247448Y0381096D01*
X0247356Y0381240D01*
X0247372Y0381469D01*
X0247433Y0381530D01*
X0247433Y0382325D01*
X0247490Y0383118D01*
X0247433Y0383183D01*
X0247433Y0394400D01*
X0259233Y0394400D01*
X0259233Y0383183D01*
X0259177Y0383118D01*
X0259233Y0382325D01*
X0259233Y0381530D01*
X0259295Y0381469D01*
X0259311Y0381240D01*
X0259219Y0381096D01*
X0259372Y0380393D01*
X0259423Y0379675D01*
X0259552Y0379563D01*
X0259619Y0379256D01*
X0259548Y0379100D01*
X0259799Y0378426D01*
X0259952Y0377723D01*
X0260096Y0377630D01*
X0260206Y0377336D01*
X0260158Y0377172D01*
X0260503Y0376540D01*
X0260754Y0375866D01*
X0260910Y0375795D01*
X0261060Y0375519D01*
X0261036Y0375350D01*
X0261467Y0374774D01*
X0261812Y0374142D01*
X0261976Y0374094D01*
X0262164Y0373843D01*
X0262164Y0373672D01*
X0262673Y0373163D01*
X0263104Y0372587D01*
X0263274Y0372563D01*
X0263496Y0372340D01*
X0263520Y0372171D01*
X0264096Y0371740D01*
X0264605Y0371231D01*
X0264776Y0371231D01*
X0265028Y0371043D01*
X0265076Y0370879D01*
X0265707Y0370534D01*
X0266284Y0370103D01*
X0266453Y0370127D01*
X0266728Y0369976D01*
X0266799Y0369821D01*
X0267474Y0369569D01*
X0268105Y0369224D01*
X0268269Y0369273D01*
X0268564Y0369163D01*
X0268656Y0369019D01*
X0269359Y0368866D01*
X0270034Y0368615D01*
X0270189Y0368686D01*
X0270496Y0368619D01*
X0270608Y0368490D01*
X0271326Y0368438D01*
X0272029Y0368285D01*
X0272173Y0368378D01*
X0272486Y0368355D01*
X0272616Y0368243D01*
X0273333Y0368295D01*
X0274051Y0368243D01*
X0274180Y0368355D01*
X0274494Y0368378D01*
X0274638Y0368285D01*
X0275341Y0368438D01*
X0276059Y0368490D01*
X0276170Y0368619D01*
X0276478Y0368686D01*
X0276633Y0368615D01*
X0277307Y0368866D01*
X0278010Y0369019D01*
X0278103Y0369163D01*
X0278397Y0369273D01*
X0278561Y0369224D01*
X0279193Y0369569D01*
X0279867Y0369821D01*
X0279938Y0369976D01*
X0280214Y0370127D01*
X0280383Y0370103D01*
X0280959Y0370534D01*
X0281591Y0370879D01*
X0281639Y0371043D01*
X0281891Y0371231D01*
X0282062Y0371231D01*
X0282570Y0371740D01*
X0283146Y0372171D01*
X0283171Y0372340D01*
X0283393Y0372563D01*
X0283562Y0372587D01*
X0283993Y0373163D01*
X0284502Y0373672D01*
X0284502Y0373843D01*
X0284691Y0374094D01*
X0284855Y0374142D01*
X0285199Y0374774D01*
X0285631Y0375350D01*
X0285606Y0375519D01*
X0285757Y0375795D01*
X0285913Y0375866D01*
X0286164Y0376540D01*
X0286333Y0376851D01*
X0286333Y0363447D01*
X0285355Y0364425D01*
X0284043Y0364968D01*
X0282623Y0364968D01*
X0281312Y0364425D01*
X0280308Y0363421D01*
X0279765Y0362110D01*
X0279765Y0360690D01*
X0280308Y0359379D01*
X0281312Y0358375D01*
X0282623Y0357831D01*
X0284043Y0357831D01*
X0285355Y0358375D01*
X0286333Y0359353D01*
X0286333Y0351144D01*
X0285567Y0352470D01*
X0283055Y0354578D01*
X0279973Y0355700D01*
X0276693Y0355700D01*
X0273612Y0354578D01*
X0273612Y0354578D01*
X0271099Y0352470D01*
X0269459Y0349630D01*
X0268890Y0346400D01*
X0269459Y0343170D01*
X0269459Y0343170D01*
X0271099Y0340330D01*
X0273612Y0338222D01*
X0273612Y0338222D01*
X0276693Y0337100D01*
X0279973Y0337100D01*
X0283055Y0338222D01*
X0285567Y0340330D01*
X0286333Y0341656D01*
X0286333Y0315949D01*
X0286164Y0316260D01*
X0285913Y0316934D01*
X0285757Y0317005D01*
X0285606Y0317281D01*
X0285631Y0317450D01*
X0285200Y0318026D01*
X0284855Y0318658D01*
X0284691Y0318706D01*
X0284502Y0318957D01*
X0284502Y0319128D01*
X0283993Y0319637D01*
X0283562Y0320213D01*
X0283393Y0320237D01*
X0283171Y0320460D01*
X0283146Y0320629D01*
X0282570Y0321060D01*
X0282062Y0321569D01*
X0281891Y0321569D01*
X0281639Y0321757D01*
X0281591Y0321921D01*
X0280959Y0322266D01*
X0280383Y0322697D01*
X0280214Y0322673D01*
X0279938Y0322824D01*
X0279867Y0322979D01*
X0279193Y0323231D01*
X0278561Y0323576D01*
X0278397Y0323527D01*
X0278103Y0323637D01*
X0278010Y0323781D01*
X0277307Y0323934D01*
X0276633Y0324185D01*
X0276478Y0324114D01*
X0276170Y0324181D01*
X0276059Y0324310D01*
X0275341Y0324362D01*
X0274638Y0324515D01*
X0274494Y0324422D01*
X0274180Y0324445D01*
X0274051Y0324557D01*
X0273333Y0324505D01*
X0272616Y0324557D01*
X0272486Y0324445D01*
X0272173Y0324422D01*
X0272029Y0324515D01*
X0271326Y0324362D01*
X0270608Y0324310D01*
X0270496Y0324181D01*
X0270189Y0324114D01*
X0270034Y0324185D01*
X0269359Y0323934D01*
X0268656Y0323781D01*
X0268564Y0323637D01*
X0268269Y0323527D01*
X0268105Y0323576D01*
X0267474Y0323231D01*
X0266799Y0322979D01*
X0266728Y0322824D01*
X0266453Y0322673D01*
X0266284Y0322697D01*
X0265707Y0322266D01*
X0265076Y0321921D01*
X0265028Y0321757D01*
X0264776Y0321569D01*
X0264605Y0321569D01*
X0264096Y0321060D01*
X0263520Y0320629D01*
X0263496Y0320460D01*
X0263274Y0320237D01*
X0263104Y0320213D01*
X0262673Y0319637D01*
X0262164Y0319128D01*
X0262164Y0318957D01*
X0261976Y0318706D01*
X0261812Y0318658D01*
X0261467Y0318026D01*
X0261036Y0317450D01*
X0261060Y0317281D01*
X0260910Y0317005D01*
X0260754Y0316934D01*
X0260503Y0316260D01*
X0260158Y0315628D01*
X0260206Y0315464D01*
X0260096Y0315170D01*
X0259952Y0315077D01*
X0259799Y0314374D01*
X0259548Y0313700D01*
X0259619Y0313544D01*
X0259552Y0313237D01*
X0259423Y0313125D01*
X0259372Y0312407D01*
X0259219Y0311704D01*
X0259311Y0311560D01*
X0259295Y0311331D01*
X0259233Y0311270D01*
X0259233Y0310475D01*
X0259177Y0309682D01*
X0259233Y0309617D01*
X0259233Y0298400D01*
X0247433Y0298400D01*
X0247433Y0309617D01*
X0247490Y0309682D01*
X0247433Y0310475D01*
X0247433Y0311270D01*
X0247372Y0311331D01*
X0247356Y0311560D01*
X0247448Y0311704D01*
X0247295Y0312407D01*
X0247244Y0313125D01*
X0247115Y0313237D01*
X0247048Y0313544D01*
X0247119Y0313700D01*
X0246867Y0314374D01*
X0246714Y0315077D01*
X0246571Y0315170D01*
X0246461Y0315464D01*
X0246509Y0315628D01*
X0246164Y0316260D01*
X0245913Y0316934D01*
X0245757Y0317005D01*
X0245606Y0317281D01*
X0245631Y0317450D01*
X0245200Y0318026D01*
X0244855Y0318658D01*
X0244691Y0318706D01*
X0244502Y0318957D01*
X0244502Y0319128D01*
X0243993Y0319637D01*
X0243562Y0320213D01*
X0243393Y0320237D01*
X0243171Y0320460D01*
X0243146Y0320629D01*
X0242570Y0321060D01*
X0242062Y0321569D01*
X0241891Y0321569D01*
X0241639Y0321757D01*
X0241591Y0321921D01*
X0240959Y0322266D01*
X0240383Y0322697D01*
X0240214Y0322673D01*
X0239938Y0322824D01*
X0239867Y0322979D01*
X0239193Y0323231D01*
X0238561Y0323576D01*
X0238397Y0323527D01*
X0238103Y0323637D01*
X0238010Y0323781D01*
X0237307Y0323934D01*
X0236633Y0324185D01*
X0236478Y0324114D01*
X0236170Y0324181D01*
X0236059Y0324310D01*
X0235341Y0324362D01*
X0234638Y0324515D01*
X0234494Y0324422D01*
X0234180Y0324445D01*
X0234051Y0324557D01*
X0233333Y0324505D01*
X0232616Y0324557D01*
X0232486Y0324445D01*
X0232173Y0324422D01*
X0232029Y0324515D01*
X0231326Y0324362D01*
X0230608Y0324310D01*
X0230496Y0324181D01*
X0230189Y0324114D01*
X0230034Y0324185D01*
X0229359Y0323934D01*
X0228656Y0323781D01*
X0228564Y0323637D01*
X0228269Y0323527D01*
X0228105Y0323576D01*
X0227474Y0323231D01*
X0226799Y0322979D01*
X0226728Y0322824D01*
X0226453Y0322673D01*
X0226284Y0322697D01*
X0225707Y0322266D01*
X0225076Y0321921D01*
X0225028Y0321757D01*
X0224776Y0321569D01*
X0224605Y0321569D01*
X0224096Y0321060D01*
X0223520Y0320629D01*
X0223496Y0320460D01*
X0223274Y0320237D01*
X0223104Y0320213D01*
X0222673Y0319637D01*
X0222164Y0319128D01*
X0222164Y0318957D01*
X0221976Y0318706D01*
X0221812Y0318658D01*
X0221467Y0318026D01*
X0221036Y0317450D01*
X0221060Y0317281D01*
X0220910Y0317005D01*
X0220754Y0316934D01*
X0220503Y0316260D01*
X0220158Y0315628D01*
X0220206Y0315464D01*
X0220096Y0315170D01*
X0219952Y0315077D01*
X0219799Y0314374D01*
X0219548Y0313700D01*
X0219619Y0313544D01*
X0219552Y0313237D01*
X0219423Y0313125D01*
X0219372Y0312407D01*
X0219219Y0311704D01*
X0219311Y0311560D01*
X0219295Y0311331D01*
X0219233Y0311270D01*
X0219233Y0310475D01*
X0219177Y0309682D01*
X0219233Y0309617D01*
X0219233Y0302409D01*
X0218612Y0302719D01*
X0217390Y0302312D01*
X0216169Y0302719D01*
X0216042Y0302656D01*
X0215070Y0303628D01*
X0212345Y0303628D01*
X0211811Y0303094D01*
X0211599Y0302881D01*
X0211588Y0302892D01*
X0210853Y0303628D01*
X0209196Y0303628D01*
X0208601Y0303033D01*
X0208024Y0302456D01*
X0208024Y0300321D01*
X0207433Y0299730D01*
X0207433Y0309617D01*
X0207490Y0309682D01*
X0207433Y0310475D01*
X0207433Y0311270D01*
X0207372Y0311331D01*
X0207356Y0311560D01*
X0207448Y0311704D01*
X0207295Y0312407D01*
X0207244Y0313125D01*
X0207115Y0313237D01*
X0207048Y0313544D01*
X0207119Y0313700D01*
X0206867Y0314374D01*
X0206714Y0315077D01*
X0206571Y0315170D01*
X0206461Y0315464D01*
X0206509Y0315628D01*
X0206164Y0316260D01*
X0205913Y0316934D01*
X0205757Y0317005D01*
X0205606Y0317281D01*
X0205631Y0317450D01*
X0205200Y0318026D01*
X0204855Y0318658D01*
X0204691Y0318706D01*
X0204502Y0318957D01*
X0204502Y0319128D01*
X0203993Y0319637D01*
X0203562Y0320213D01*
X0203393Y0320237D01*
X0203171Y0320460D01*
X0203146Y0320629D01*
X0202570Y0321060D01*
X0202062Y0321569D01*
X0201891Y0321569D01*
X0201639Y0321757D01*
X0201591Y0321921D01*
X0200959Y0322266D01*
X0200383Y0322697D01*
X0200214Y0322673D01*
X0199938Y0322824D01*
X0199867Y0322979D01*
X0199193Y0323231D01*
X0198561Y0323576D01*
X0198397Y0323527D01*
X0198103Y0323637D01*
X0198010Y0323781D01*
X0197307Y0323934D01*
X0196633Y0324185D01*
X0196478Y0324114D01*
X0196170Y0324181D01*
X0196059Y0324310D01*
X0195341Y0324362D01*
X0194638Y0324515D01*
X0194494Y0324422D01*
X0194180Y0324445D01*
X0194051Y0324557D01*
X0193333Y0324505D01*
X0192616Y0324557D01*
X0192486Y0324445D01*
X0192173Y0324422D01*
X0192029Y0324515D01*
X0191326Y0324362D01*
X0190608Y0324310D01*
X0190496Y0324181D01*
X0190189Y0324114D01*
X0190034Y0324185D01*
X0189359Y0323934D01*
X0188656Y0323781D01*
X0188564Y0323637D01*
X0188269Y0323527D01*
X0188105Y0323576D01*
X0187474Y0323231D01*
X0186799Y0322979D01*
X0186728Y0322824D01*
X0186453Y0322673D01*
X0186284Y0322697D01*
X0185707Y0322266D01*
X0185076Y0321921D01*
X0185028Y0321757D01*
X0184776Y0321569D01*
X0184605Y0321569D01*
X0184096Y0321060D01*
X0183520Y0320629D01*
X0183496Y0320460D01*
X0183274Y0320237D01*
X0183104Y0320213D01*
X0182673Y0319637D01*
X0182164Y0319128D01*
X0182164Y0318957D01*
X0181976Y0318706D01*
X0181812Y0318658D01*
X0181467Y0318026D01*
X0181036Y0317450D01*
X0181060Y0317281D01*
X0180910Y0317005D01*
X0180754Y0316934D01*
X0180503Y0316260D01*
X0180158Y0315628D01*
X0180206Y0315464D01*
X0180096Y0315170D01*
X0179952Y0315077D01*
X0179799Y0314374D01*
X0179548Y0313700D01*
X0179619Y0313544D01*
X0179552Y0313237D01*
X0179423Y0313125D01*
X0179372Y0312407D01*
X0179219Y0311704D01*
X0179311Y0311560D01*
X0179295Y0311331D01*
X0179233Y0311270D01*
X0179233Y0310475D01*
X0179177Y0309682D01*
X0179233Y0309617D01*
X0179233Y0298400D01*
X0167233Y0298400D01*
X0167233Y0310000D01*
X0153733Y0310000D01*
X0153733Y0310773D02*
X0179233Y0310773D01*
X0179198Y0309975D02*
X0167233Y0309975D01*
X0167233Y0309176D02*
X0179233Y0309176D01*
X0179233Y0308378D02*
X0167233Y0308378D01*
X0167233Y0307579D02*
X0179233Y0307579D01*
X0179233Y0306781D02*
X0167233Y0306781D01*
X0167233Y0305982D02*
X0179233Y0305982D01*
X0179233Y0305184D02*
X0167233Y0305184D01*
X0167233Y0304385D02*
X0179233Y0304385D01*
X0179233Y0303587D02*
X0167233Y0303587D01*
X0167233Y0302788D02*
X0179233Y0302788D01*
X0179233Y0301990D02*
X0167233Y0301990D01*
X0167233Y0301191D02*
X0179233Y0301191D01*
X0179233Y0300393D02*
X0167233Y0300393D01*
X0167233Y0299594D02*
X0179233Y0299594D01*
X0179233Y0298796D02*
X0167233Y0298796D01*
X0167233Y0310800D02*
X0153733Y0310800D01*
X0153733Y0324300D01*
X0154062Y0324300D01*
X0155511Y0324148D01*
X0155511Y0324148D01*
X0156537Y0323930D01*
X0156936Y0323845D01*
X0156936Y0323845D01*
X0158005Y0323498D01*
X0158321Y0323395D01*
X0158321Y0323395D01*
X0159394Y0322917D01*
X0159652Y0322802D01*
X0159652Y0322802D01*
X0160699Y0322198D01*
X0160914Y0322074D01*
X0160914Y0322074D01*
X0161913Y0321348D01*
X0162093Y0321217D01*
X0162093Y0321217D01*
X0163024Y0320379D01*
X0163176Y0320242D01*
X0163176Y0320242D01*
X0164150Y0319160D01*
X0164150Y0319160D01*
X0165007Y0317981D01*
X0165007Y0317981D01*
X0165735Y0316719D01*
X0165735Y0316719D01*
X0166328Y0315388D01*
X0166328Y0315388D01*
X0166778Y0314003D01*
X0166778Y0314002D01*
X0167081Y0312577D01*
X0167081Y0312577D01*
X0167233Y0311128D01*
X0167233Y0310800D01*
X0167187Y0311572D02*
X0179304Y0311572D01*
X0179363Y0312370D02*
X0167103Y0312370D01*
X0166955Y0313169D02*
X0179473Y0313169D01*
X0179648Y0313967D02*
X0166786Y0313967D01*
X0166530Y0314766D02*
X0179885Y0314766D01*
X0180176Y0315564D02*
X0166249Y0315564D01*
X0165894Y0316363D02*
X0180541Y0316363D01*
X0180995Y0317161D02*
X0165480Y0317161D01*
X0165019Y0317960D02*
X0181418Y0317960D01*
X0182015Y0318758D02*
X0164442Y0318758D01*
X0163793Y0319557D02*
X0182593Y0319557D01*
X0183391Y0320355D02*
X0163050Y0320355D01*
X0163176Y0320242D02*
X0163176Y0320242D01*
X0162163Y0321154D02*
X0184190Y0321154D01*
X0185133Y0321952D02*
X0161081Y0321952D01*
X0159741Y0322751D02*
X0186595Y0322751D01*
X0188057Y0323549D02*
X0157845Y0323549D01*
X0153733Y0323549D02*
X0152933Y0323549D01*
X0152933Y0322751D02*
X0153733Y0322751D01*
X0153733Y0321952D02*
X0152933Y0321952D01*
X0152933Y0321154D02*
X0153733Y0321154D01*
X0153733Y0320355D02*
X0152933Y0320355D01*
X0152933Y0319557D02*
X0153733Y0319557D01*
X0153733Y0318758D02*
X0152933Y0318758D01*
X0152933Y0317960D02*
X0153733Y0317960D01*
X0153733Y0317161D02*
X0152933Y0317161D01*
X0152933Y0316363D02*
X0153733Y0316363D01*
X0153733Y0315564D02*
X0152933Y0315564D01*
X0152933Y0314766D02*
X0153733Y0314766D01*
X0153733Y0313967D02*
X0152933Y0313967D01*
X0152933Y0313169D02*
X0153733Y0313169D01*
X0153733Y0312370D02*
X0152933Y0312370D01*
X0152933Y0311572D02*
X0153733Y0311572D01*
X0152933Y0310773D02*
X0140333Y0310773D01*
X0140339Y0315388D02*
X0140339Y0315388D01*
X0140333Y0315564D02*
X0140417Y0315564D01*
X0140333Y0316363D02*
X0140773Y0316363D01*
X0140931Y0316719D02*
X0140931Y0316719D01*
X0141187Y0317161D02*
X0140333Y0317161D01*
X0140333Y0317960D02*
X0141648Y0317960D01*
X0141660Y0317981D02*
X0141660Y0317981D01*
X0142225Y0318758D02*
X0140333Y0318758D01*
X0140333Y0319557D02*
X0142874Y0319557D01*
X0143491Y0320242D02*
X0143491Y0320242D01*
X0143617Y0320355D02*
X0140333Y0320355D01*
X0140333Y0321154D02*
X0144503Y0321154D01*
X0145586Y0321952D02*
X0140333Y0321952D01*
X0140333Y0322751D02*
X0146926Y0322751D01*
X0148822Y0323549D02*
X0140333Y0323549D01*
X0140333Y0324348D02*
X0191132Y0324348D01*
X0188328Y0323549D02*
X0188195Y0323549D01*
X0195535Y0324348D02*
X0231132Y0324348D01*
X0228328Y0323549D02*
X0228195Y0323549D01*
X0228057Y0323549D02*
X0198609Y0323549D01*
X0198472Y0323549D02*
X0198338Y0323549D01*
X0200072Y0322751D02*
X0226595Y0322751D01*
X0225133Y0321952D02*
X0201534Y0321952D01*
X0202477Y0321154D02*
X0224190Y0321154D01*
X0223391Y0320355D02*
X0203275Y0320355D01*
X0204074Y0319557D02*
X0222593Y0319557D01*
X0222015Y0318758D02*
X0204651Y0318758D01*
X0205249Y0317960D02*
X0221418Y0317960D01*
X0220995Y0317161D02*
X0205672Y0317161D01*
X0206126Y0316363D02*
X0220541Y0316363D01*
X0220176Y0315564D02*
X0206490Y0315564D01*
X0206782Y0314766D02*
X0219885Y0314766D01*
X0219648Y0313967D02*
X0207019Y0313967D01*
X0207194Y0313169D02*
X0219473Y0313169D01*
X0219363Y0312370D02*
X0207303Y0312370D01*
X0207363Y0311572D02*
X0219304Y0311572D01*
X0219233Y0310773D02*
X0207433Y0310773D01*
X0207469Y0309975D02*
X0219198Y0309975D01*
X0219233Y0309176D02*
X0207433Y0309176D01*
X0207433Y0308378D02*
X0219233Y0308378D01*
X0219233Y0307579D02*
X0207433Y0307579D01*
X0207433Y0306781D02*
X0219233Y0306781D01*
X0219233Y0305982D02*
X0207433Y0305982D01*
X0207433Y0305184D02*
X0219233Y0305184D01*
X0219233Y0304385D02*
X0207433Y0304385D01*
X0207433Y0303587D02*
X0209155Y0303587D01*
X0208356Y0302788D02*
X0207433Y0302788D01*
X0207433Y0301990D02*
X0208024Y0301990D01*
X0208024Y0301191D02*
X0207433Y0301191D01*
X0207433Y0300393D02*
X0208024Y0300393D01*
X0208957Y0298425D02*
X0211092Y0298425D01*
X0210024Y0298425D02*
X0210024Y0301628D01*
X0211092Y0300560D01*
X0212640Y0301094D02*
X0214775Y0298959D01*
X0214241Y0298425D01*
X0213174Y0298425D01*
X0212640Y0298959D01*
X0212640Y0301094D01*
X0213174Y0301628D01*
X0214241Y0301628D01*
X0214775Y0301094D01*
X0214775Y0298959D01*
X0216323Y0300560D02*
X0217390Y0298425D01*
X0218458Y0300560D01*
X0219233Y0302788D02*
X0215909Y0302788D01*
X0215111Y0303587D02*
X0219233Y0303587D01*
X0212304Y0303587D02*
X0210894Y0303587D01*
X0211811Y0303094D02*
X0211811Y0303094D01*
X0235535Y0324348D02*
X0271132Y0324348D01*
X0268328Y0323549D02*
X0268195Y0323549D01*
X0268057Y0323549D02*
X0238609Y0323549D01*
X0238472Y0323549D02*
X0238338Y0323549D01*
X0240072Y0322751D02*
X0266595Y0322751D01*
X0265133Y0321952D02*
X0241534Y0321952D01*
X0242477Y0321154D02*
X0264190Y0321154D01*
X0263391Y0320355D02*
X0243275Y0320355D01*
X0244074Y0319557D02*
X0262593Y0319557D01*
X0262015Y0318758D02*
X0244651Y0318758D01*
X0245249Y0317960D02*
X0261418Y0317960D01*
X0260995Y0317161D02*
X0245672Y0317161D01*
X0246126Y0316363D02*
X0260541Y0316363D01*
X0260176Y0315564D02*
X0246490Y0315564D01*
X0246782Y0314766D02*
X0259885Y0314766D01*
X0259648Y0313967D02*
X0247019Y0313967D01*
X0247194Y0313169D02*
X0259473Y0313169D01*
X0259363Y0312370D02*
X0247303Y0312370D01*
X0247363Y0311572D02*
X0259304Y0311572D01*
X0259233Y0310773D02*
X0247433Y0310773D01*
X0247469Y0309975D02*
X0259198Y0309975D01*
X0259233Y0309176D02*
X0247433Y0309176D01*
X0247433Y0308378D02*
X0259233Y0308378D01*
X0259233Y0307579D02*
X0247433Y0307579D01*
X0247433Y0306781D02*
X0259233Y0306781D01*
X0259233Y0305982D02*
X0247433Y0305982D01*
X0247433Y0305184D02*
X0259233Y0305184D01*
X0259233Y0304385D02*
X0247433Y0304385D01*
X0247433Y0303587D02*
X0259233Y0303587D01*
X0259233Y0302788D02*
X0247433Y0302788D01*
X0247433Y0301990D02*
X0259233Y0301990D01*
X0259233Y0301191D02*
X0247433Y0301191D01*
X0247433Y0300393D02*
X0259233Y0300393D01*
X0259233Y0299594D02*
X0247433Y0299594D01*
X0247433Y0298796D02*
X0259233Y0298796D01*
X0286126Y0316363D02*
X0286333Y0316363D01*
X0286333Y0317161D02*
X0285672Y0317161D01*
X0285249Y0317960D02*
X0286333Y0317960D01*
X0286333Y0318758D02*
X0284651Y0318758D01*
X0284074Y0319557D02*
X0286333Y0319557D01*
X0286333Y0320355D02*
X0283275Y0320355D01*
X0282477Y0321154D02*
X0286333Y0321154D01*
X0286333Y0321952D02*
X0281534Y0321952D01*
X0280072Y0322751D02*
X0286333Y0322751D01*
X0286333Y0323549D02*
X0278609Y0323549D01*
X0278472Y0323549D02*
X0278338Y0323549D01*
X0275535Y0324348D02*
X0286333Y0324348D01*
X0286333Y0325146D02*
X0140333Y0325146D01*
X0140333Y0325945D02*
X0286333Y0325945D01*
X0286333Y0326743D02*
X0140333Y0326743D01*
X0140333Y0327542D02*
X0286333Y0327542D01*
X0286333Y0328340D02*
X0145272Y0328340D01*
X0146119Y0329139D02*
X0286333Y0329139D01*
X0286333Y0329937D02*
X0146590Y0329937D01*
X0146902Y0330736D02*
X0286333Y0330736D01*
X0286333Y0331534D02*
X0146902Y0331534D01*
X0146809Y0332333D02*
X0286333Y0332333D01*
X0286333Y0333132D02*
X0146479Y0333132D01*
X0145850Y0333930D02*
X0286333Y0333930D01*
X0286333Y0334729D02*
X0144622Y0334729D01*
X0142044Y0334729D02*
X0140333Y0334729D01*
X0140333Y0335527D02*
X0286333Y0335527D01*
X0286333Y0336326D02*
X0226572Y0336326D01*
X0228886Y0337124D02*
X0276627Y0337124D01*
X0274433Y0337923D02*
X0229684Y0337923D01*
X0230483Y0338721D02*
X0273016Y0338721D01*
X0272065Y0339520D02*
X0231281Y0339520D01*
X0232080Y0340318D02*
X0271113Y0340318D01*
X0271099Y0340330D02*
X0271099Y0340330D01*
X0270645Y0341117D02*
X0232878Y0341117D01*
X0233677Y0341915D02*
X0270184Y0341915D01*
X0269723Y0342714D02*
X0234475Y0342714D01*
X0235274Y0343512D02*
X0269399Y0343512D01*
X0269258Y0344311D02*
X0236072Y0344311D01*
X0236871Y0345109D02*
X0269117Y0345109D01*
X0268977Y0345908D02*
X0237669Y0345908D01*
X0239800Y0346706D02*
X0268944Y0346706D01*
X0268890Y0346400D02*
X0268890Y0346400D01*
X0269085Y0347505D02*
X0240751Y0347505D01*
X0241180Y0348303D02*
X0269225Y0348303D01*
X0269366Y0349102D02*
X0241383Y0349102D01*
X0241383Y0349900D02*
X0269616Y0349900D01*
X0269459Y0349630D02*
X0269459Y0349630D01*
X0270077Y0350699D02*
X0241097Y0350699D01*
X0240549Y0351497D02*
X0270538Y0351497D01*
X0270999Y0352296D02*
X0240333Y0352296D01*
X0240333Y0353094D02*
X0271843Y0353094D01*
X0271099Y0352470D02*
X0271099Y0352470D01*
X0271099Y0352470D01*
X0272795Y0353893D02*
X0260139Y0353893D01*
X0260061Y0353814D02*
X0260919Y0354672D01*
X0261383Y0355793D01*
X0261383Y0357007D01*
X0260919Y0358128D01*
X0260333Y0358713D01*
X0260333Y0364087D01*
X0260919Y0364672D01*
X0261383Y0365793D01*
X0261383Y0367007D01*
X0260919Y0368128D01*
X0260061Y0368986D01*
X0258940Y0369450D01*
X0257727Y0369450D01*
X0256606Y0368986D01*
X0255748Y0368128D01*
X0255283Y0367007D01*
X0255283Y0365793D01*
X0255748Y0364672D01*
X0256333Y0364087D01*
X0256333Y0358713D01*
X0255748Y0358128D01*
X0255283Y0357007D01*
X0255283Y0355793D01*
X0255748Y0354672D01*
X0256606Y0353814D01*
X0257727Y0353350D01*
X0258940Y0353350D01*
X0260061Y0353814D01*
X0260927Y0354691D02*
X0273922Y0354691D01*
X0276116Y0355490D02*
X0261258Y0355490D01*
X0261383Y0356288D02*
X0286333Y0356288D01*
X0286333Y0355490D02*
X0280551Y0355490D01*
X0282744Y0354691D02*
X0286333Y0354691D01*
X0286333Y0353893D02*
X0283872Y0353893D01*
X0283055Y0354578D02*
X0283055Y0354578D01*
X0284824Y0353094D02*
X0286333Y0353094D01*
X0286333Y0352296D02*
X0285668Y0352296D01*
X0285567Y0352470D02*
X0285567Y0352470D01*
X0286129Y0351497D02*
X0286333Y0351497D01*
X0286333Y0357087D02*
X0261350Y0357087D01*
X0261019Y0357885D02*
X0282493Y0357885D01*
X0284173Y0357885D02*
X0286333Y0357885D01*
X0286333Y0358684D02*
X0285664Y0358684D01*
X0281003Y0358684D02*
X0260363Y0358684D01*
X0260333Y0359482D02*
X0280265Y0359482D01*
X0279934Y0360281D02*
X0260333Y0360281D01*
X0260333Y0361079D02*
X0279765Y0361079D01*
X0279765Y0361878D02*
X0260333Y0361878D01*
X0260333Y0362676D02*
X0280000Y0362676D01*
X0280362Y0363475D02*
X0260333Y0363475D01*
X0260520Y0364273D02*
X0281160Y0364273D01*
X0285506Y0364273D02*
X0286333Y0364273D01*
X0286305Y0363475D02*
X0286333Y0363475D01*
X0286333Y0365072D02*
X0261085Y0365072D01*
X0261383Y0365870D02*
X0286333Y0365870D01*
X0286333Y0366669D02*
X0261383Y0366669D01*
X0261192Y0367468D02*
X0286333Y0367468D01*
X0286333Y0368266D02*
X0274077Y0368266D01*
X0273733Y0368266D02*
X0272933Y0368266D01*
X0272589Y0368266D02*
X0260781Y0368266D01*
X0259871Y0369065D02*
X0268627Y0369065D01*
X0266780Y0369863D02*
X0239886Y0369863D01*
X0239871Y0369065D02*
X0256796Y0369065D01*
X0255886Y0368266D02*
X0240781Y0368266D01*
X0241192Y0367468D02*
X0255474Y0367468D01*
X0255283Y0366669D02*
X0241383Y0366669D01*
X0241383Y0365870D02*
X0255283Y0365870D01*
X0255582Y0365072D02*
X0241085Y0365072D01*
X0240520Y0364273D02*
X0256147Y0364273D01*
X0256333Y0363475D02*
X0240333Y0363475D01*
X0240333Y0362676D02*
X0256333Y0362676D01*
X0256333Y0361878D02*
X0240333Y0361878D01*
X0240333Y0361079D02*
X0256333Y0361079D01*
X0256333Y0360281D02*
X0240333Y0360281D01*
X0240333Y0359482D02*
X0256333Y0359482D01*
X0256304Y0358684D02*
X0240333Y0358684D01*
X0240333Y0357885D02*
X0255647Y0357885D01*
X0255317Y0357087D02*
X0240333Y0357087D01*
X0240333Y0356288D02*
X0255283Y0356288D01*
X0255409Y0355490D02*
X0240333Y0355490D01*
X0240333Y0354691D02*
X0255740Y0354691D01*
X0256527Y0353893D02*
X0240333Y0353893D01*
X0236333Y0353893D02*
X0229425Y0353893D01*
X0229419Y0353907D02*
X0228833Y0354493D01*
X0228833Y0359728D01*
X0228383Y0360178D01*
X0228383Y0361007D01*
X0227919Y0362128D01*
X0227061Y0362986D01*
X0225940Y0363450D01*
X0224727Y0363450D01*
X0223606Y0362986D01*
X0222748Y0362128D01*
X0222283Y0361007D01*
X0222283Y0359793D01*
X0222748Y0358672D01*
X0223606Y0357814D01*
X0224727Y0357350D01*
X0224833Y0357350D01*
X0224833Y0354493D01*
X0224248Y0353907D01*
X0223783Y0352786D01*
X0223783Y0351573D01*
X0224248Y0350452D01*
X0225106Y0349594D01*
X0226227Y0349130D01*
X0227440Y0349130D01*
X0228561Y0349594D01*
X0229419Y0350452D01*
X0229883Y0351573D01*
X0229883Y0352786D01*
X0229419Y0353907D01*
X0229756Y0353094D02*
X0236333Y0353094D01*
X0236333Y0352296D02*
X0229883Y0352296D01*
X0229852Y0351497D02*
X0236117Y0351497D01*
X0235570Y0350699D02*
X0229521Y0350699D01*
X0228867Y0349900D02*
X0235283Y0349900D01*
X0235207Y0349102D02*
X0195333Y0349102D01*
X0195333Y0349900D02*
X0224799Y0349900D01*
X0224145Y0350699D02*
X0195333Y0350699D01*
X0195333Y0351497D02*
X0223815Y0351497D01*
X0223783Y0352296D02*
X0195333Y0352296D01*
X0195333Y0353094D02*
X0223911Y0353094D01*
X0224242Y0353893D02*
X0195333Y0353893D01*
X0195333Y0354691D02*
X0224833Y0354691D01*
X0224833Y0355490D02*
X0195333Y0355490D01*
X0195333Y0356288D02*
X0224833Y0356288D01*
X0224833Y0357087D02*
X0195333Y0357087D01*
X0195333Y0357885D02*
X0223535Y0357885D01*
X0222743Y0358684D02*
X0195333Y0358684D01*
X0195333Y0359482D02*
X0222412Y0359482D01*
X0222283Y0360281D02*
X0195333Y0360281D01*
X0195333Y0361079D02*
X0222313Y0361079D01*
X0222644Y0361878D02*
X0195333Y0361878D01*
X0195333Y0362676D02*
X0223296Y0362676D01*
X0225333Y0360400D02*
X0226833Y0358900D01*
X0226833Y0352180D01*
X0228833Y0354691D02*
X0236333Y0354691D01*
X0236333Y0355490D02*
X0228833Y0355490D01*
X0228833Y0356288D02*
X0236333Y0356288D01*
X0236333Y0357087D02*
X0228833Y0357087D01*
X0228833Y0357885D02*
X0236333Y0357885D01*
X0236333Y0358684D02*
X0228833Y0358684D01*
X0228833Y0359482D02*
X0236333Y0359482D01*
X0236333Y0360281D02*
X0228383Y0360281D01*
X0228353Y0361079D02*
X0236333Y0361079D01*
X0236333Y0361878D02*
X0228022Y0361878D01*
X0227370Y0362676D02*
X0236333Y0362676D01*
X0236333Y0363475D02*
X0195333Y0363475D01*
X0195333Y0364273D02*
X0236147Y0364273D01*
X0238333Y0366400D02*
X0227333Y0366400D01*
X0222333Y0371400D01*
X0219283Y0371460D02*
X0202291Y0371460D01*
X0203159Y0372259D02*
X0219388Y0372259D01*
X0219718Y0373057D02*
X0203914Y0373057D01*
X0204512Y0373856D02*
X0220476Y0373856D01*
X0221533Y0374654D02*
X0205134Y0374654D01*
X0205616Y0375453D02*
X0221051Y0375453D01*
X0220611Y0376251D02*
X0206056Y0376251D01*
X0206442Y0377050D02*
X0220225Y0377050D01*
X0219925Y0377848D02*
X0206742Y0377848D01*
X0206950Y0378647D02*
X0219717Y0378647D01*
X0219578Y0379445D02*
X0207089Y0379445D01*
X0207284Y0380244D02*
X0219382Y0380244D01*
X0219230Y0381042D02*
X0207436Y0381042D01*
X0207433Y0381841D02*
X0219233Y0381841D01*
X0219211Y0382639D02*
X0207456Y0382639D01*
X0207433Y0383438D02*
X0219233Y0383438D01*
X0219233Y0384236D02*
X0207433Y0384236D01*
X0207433Y0385035D02*
X0219233Y0385035D01*
X0219233Y0385833D02*
X0207433Y0385833D01*
X0207433Y0386632D02*
X0219233Y0386632D01*
X0219233Y0387430D02*
X0207433Y0387430D01*
X0207433Y0388229D02*
X0219233Y0388229D01*
X0219233Y0389027D02*
X0207433Y0389027D01*
X0207433Y0389826D02*
X0219233Y0389826D01*
X0219233Y0390624D02*
X0207433Y0390624D01*
X0207433Y0391423D02*
X0219233Y0391423D01*
X0219233Y0392221D02*
X0207433Y0392221D01*
X0207433Y0393020D02*
X0219233Y0393020D01*
X0219233Y0393818D02*
X0207433Y0393818D01*
X0193333Y0382400D02*
X0193333Y0345400D01*
X0191125Y0347505D02*
X0184333Y0347505D01*
X0184333Y0348303D02*
X0191333Y0348303D01*
X0191333Y0349102D02*
X0184333Y0349102D01*
X0184333Y0349900D02*
X0191333Y0349900D01*
X0191333Y0350699D02*
X0184333Y0350699D01*
X0184333Y0351497D02*
X0191333Y0351497D01*
X0191333Y0352296D02*
X0184333Y0352296D01*
X0184333Y0353094D02*
X0191333Y0353094D01*
X0191333Y0353893D02*
X0184333Y0353893D01*
X0184453Y0354691D02*
X0191333Y0354691D01*
X0191333Y0355490D02*
X0185252Y0355490D01*
X0186050Y0356288D02*
X0191333Y0356288D01*
X0191333Y0357087D02*
X0186849Y0357087D01*
X0187647Y0357885D02*
X0191333Y0357885D01*
X0191333Y0358684D02*
X0189746Y0358684D01*
X0190729Y0359482D02*
X0191333Y0359482D01*
X0191333Y0360281D02*
X0191171Y0360281D01*
X0191106Y0362676D02*
X0191333Y0362676D01*
X0191333Y0363475D02*
X0190572Y0363475D01*
X0191333Y0364273D02*
X0189366Y0364273D01*
X0187300Y0364273D02*
X0140333Y0364273D01*
X0140333Y0363475D02*
X0186095Y0363475D01*
X0185561Y0362676D02*
X0140333Y0362676D01*
X0140333Y0361878D02*
X0185283Y0361878D01*
X0185184Y0361079D02*
X0140333Y0361079D01*
X0140333Y0360281D02*
X0184386Y0360281D01*
X0183587Y0359482D02*
X0140333Y0359482D01*
X0140333Y0358684D02*
X0182789Y0358684D01*
X0181990Y0357885D02*
X0140333Y0357885D01*
X0140333Y0357087D02*
X0181192Y0357087D01*
X0180393Y0356288D02*
X0140333Y0356288D01*
X0140333Y0355490D02*
X0146116Y0355490D01*
X0143922Y0354691D02*
X0140333Y0354691D01*
X0140333Y0353893D02*
X0142795Y0353893D01*
X0141843Y0353094D02*
X0140333Y0353094D01*
X0140333Y0352296D02*
X0140999Y0352296D01*
X0141099Y0352470D02*
X0141099Y0352470D01*
X0141099Y0352470D01*
X0140538Y0351497D02*
X0140333Y0351497D01*
X0150551Y0355490D02*
X0180333Y0355490D01*
X0180333Y0354691D02*
X0152744Y0354691D01*
X0153055Y0354578D02*
X0153055Y0354578D01*
X0153872Y0353893D02*
X0180333Y0353893D01*
X0180333Y0353094D02*
X0154824Y0353094D01*
X0155567Y0352470D02*
X0155567Y0352470D01*
X0155668Y0352296D02*
X0180333Y0352296D01*
X0180333Y0351497D02*
X0156129Y0351497D01*
X0156590Y0350699D02*
X0180333Y0350699D01*
X0180333Y0349900D02*
X0157051Y0349900D01*
X0157207Y0349630D02*
X0157207Y0349630D01*
X0157300Y0349102D02*
X0180333Y0349102D01*
X0180333Y0348303D02*
X0157441Y0348303D01*
X0157582Y0347505D02*
X0180333Y0347505D01*
X0180333Y0346706D02*
X0157723Y0346706D01*
X0157777Y0346400D02*
X0157777Y0346400D01*
X0157690Y0345908D02*
X0180333Y0345908D01*
X0180333Y0345109D02*
X0157549Y0345109D01*
X0157408Y0344311D02*
X0180333Y0344311D01*
X0180333Y0343512D02*
X0157268Y0343512D01*
X0156944Y0342714D02*
X0179834Y0342714D01*
X0179453Y0341915D02*
X0156483Y0341915D01*
X0156022Y0341117D02*
X0179283Y0341117D01*
X0179283Y0340318D02*
X0155553Y0340318D01*
X0155567Y0340330D02*
X0155567Y0340330D01*
X0155567Y0340330D01*
X0154602Y0339520D02*
X0179604Y0339520D01*
X0180199Y0338721D02*
X0153650Y0338721D01*
X0153055Y0338222D02*
X0153055Y0338222D01*
X0152233Y0337923D02*
X0181551Y0337923D01*
X0183115Y0337923D02*
X0221937Y0337923D01*
X0221783Y0338721D02*
X0184468Y0338721D01*
X0185063Y0339520D02*
X0221789Y0339520D01*
X0222119Y0340318D02*
X0185383Y0340318D01*
X0185383Y0341117D02*
X0222737Y0341117D01*
X0224143Y0341915D02*
X0185214Y0341915D01*
X0184833Y0342714D02*
X0191849Y0342714D01*
X0190908Y0343512D02*
X0184333Y0343512D01*
X0184333Y0344311D02*
X0190483Y0344311D01*
X0190283Y0345109D02*
X0184333Y0345109D01*
X0184333Y0345908D02*
X0190283Y0345908D01*
X0190573Y0346706D02*
X0184333Y0346706D01*
X0182333Y0340900D02*
X0182333Y0355400D01*
X0188333Y0361400D01*
X0191333Y0365072D02*
X0140333Y0365072D01*
X0140333Y0365870D02*
X0191333Y0365870D01*
X0191333Y0366669D02*
X0140333Y0366669D01*
X0140333Y0367468D02*
X0191333Y0367468D01*
X0191333Y0368266D02*
X0140333Y0368266D01*
X0140333Y0369065D02*
X0149394Y0369065D01*
X0148345Y0369405D02*
X0148345Y0369405D01*
X0147317Y0369863D02*
X0140333Y0369863D01*
X0140333Y0370662D02*
X0145865Y0370662D01*
X0144743Y0371460D02*
X0140333Y0371460D01*
X0140333Y0372259D02*
X0143823Y0372259D01*
X0143491Y0372558D02*
X0143491Y0372558D01*
X0143041Y0373057D02*
X0140333Y0373057D01*
X0140333Y0373856D02*
X0142360Y0373856D01*
X0142516Y0373640D02*
X0142516Y0373640D01*
X0141780Y0374654D02*
X0140333Y0374654D01*
X0140333Y0375453D02*
X0141294Y0375453D01*
X0141660Y0374819D02*
X0141660Y0374819D01*
X0140856Y0376251D02*
X0140333Y0376251D01*
X0140333Y0377050D02*
X0140500Y0377050D01*
X0144574Y0371583D02*
X0144574Y0371583D01*
X0152933Y0371460D02*
X0153733Y0371460D01*
X0153733Y0370662D02*
X0152933Y0370662D01*
X0152933Y0369863D02*
X0153733Y0369863D01*
X0153733Y0369065D02*
X0152933Y0369065D01*
X0152933Y0372259D02*
X0153733Y0372259D01*
X0153733Y0373057D02*
X0152933Y0373057D01*
X0152933Y0373856D02*
X0153733Y0373856D01*
X0153733Y0374654D02*
X0152933Y0374654D01*
X0152933Y0375453D02*
X0153733Y0375453D01*
X0153733Y0376251D02*
X0152933Y0376251D01*
X0152933Y0377050D02*
X0153733Y0377050D01*
X0153733Y0377848D02*
X0152933Y0377848D01*
X0152933Y0378647D02*
X0153733Y0378647D01*
X0153733Y0379445D02*
X0152933Y0379445D01*
X0152933Y0380244D02*
X0153733Y0380244D01*
X0153733Y0381042D02*
X0152933Y0381042D01*
X0152933Y0381841D02*
X0153733Y0381841D01*
X0153733Y0382639D02*
X0179211Y0382639D01*
X0179233Y0381841D02*
X0167233Y0381841D01*
X0167167Y0381042D02*
X0179230Y0381042D01*
X0179382Y0380244D02*
X0167083Y0380244D01*
X0167081Y0380223D02*
X0167081Y0380223D01*
X0166916Y0379445D02*
X0179578Y0379445D01*
X0179717Y0378647D02*
X0166729Y0378647D01*
X0166470Y0377848D02*
X0179925Y0377848D01*
X0180225Y0377050D02*
X0166167Y0377050D01*
X0166328Y0377412D02*
X0166328Y0377412D01*
X0165811Y0376251D02*
X0180611Y0376251D01*
X0181051Y0375453D02*
X0165373Y0375453D01*
X0165735Y0376081D02*
X0165735Y0376081D01*
X0164887Y0374654D02*
X0181533Y0374654D01*
X0182155Y0373856D02*
X0164307Y0373856D01*
X0163625Y0373057D02*
X0182752Y0373057D01*
X0183508Y0372259D02*
X0162843Y0372259D01*
X0163176Y0372558D02*
X0163176Y0372558D01*
X0161924Y0371460D02*
X0184376Y0371460D01*
X0185473Y0370662D02*
X0160802Y0370662D01*
X0159349Y0369863D02*
X0186780Y0369863D01*
X0188627Y0369065D02*
X0157272Y0369065D01*
X0152933Y0382639D02*
X0140333Y0382639D01*
X0152933Y0383438D02*
X0153733Y0383438D01*
X0153733Y0384236D02*
X0152933Y0384236D01*
X0152933Y0385035D02*
X0153733Y0385035D01*
X0153733Y0385833D02*
X0152933Y0385833D01*
X0152933Y0386632D02*
X0153733Y0386632D01*
X0153733Y0387430D02*
X0152933Y0387430D01*
X0152933Y0388229D02*
X0153733Y0388229D01*
X0153733Y0389027D02*
X0152933Y0389027D01*
X0152933Y0389826D02*
X0153733Y0389826D01*
X0153733Y0390624D02*
X0152933Y0390624D01*
X0152933Y0391423D02*
X0153733Y0391423D01*
X0153733Y0392221D02*
X0152933Y0392221D01*
X0152933Y0393020D02*
X0153733Y0393020D01*
X0153733Y0393818D02*
X0152933Y0393818D01*
X0167233Y0393818D02*
X0179233Y0393818D01*
X0179233Y0393020D02*
X0167233Y0393020D01*
X0167233Y0392221D02*
X0179233Y0392221D01*
X0179233Y0391423D02*
X0167233Y0391423D01*
X0167233Y0390624D02*
X0179233Y0390624D01*
X0179233Y0389826D02*
X0167233Y0389826D01*
X0167233Y0389027D02*
X0179233Y0389027D01*
X0179233Y0388229D02*
X0167233Y0388229D01*
X0167233Y0387430D02*
X0179233Y0387430D01*
X0179233Y0386632D02*
X0167233Y0386632D01*
X0167233Y0385833D02*
X0179233Y0385833D01*
X0179233Y0385035D02*
X0167233Y0385035D01*
X0167233Y0384236D02*
X0179233Y0384236D01*
X0179233Y0383438D02*
X0167233Y0383438D01*
X0195333Y0368266D02*
X0222639Y0368266D01*
X0223437Y0367468D02*
X0195333Y0367468D01*
X0195333Y0366669D02*
X0224236Y0366669D01*
X0225034Y0365870D02*
X0195333Y0365870D01*
X0195333Y0365072D02*
X0225833Y0365072D01*
X0220355Y0369065D02*
X0198040Y0369065D01*
X0199886Y0369863D02*
X0219669Y0369863D01*
X0219338Y0370662D02*
X0201193Y0370662D01*
X0195333Y0348303D02*
X0234408Y0348303D01*
X0233610Y0347505D02*
X0195542Y0347505D01*
X0196094Y0346706D02*
X0232811Y0346706D01*
X0232013Y0345908D02*
X0196383Y0345908D01*
X0196383Y0345109D02*
X0231214Y0345109D01*
X0230416Y0344311D02*
X0196183Y0344311D01*
X0195759Y0343512D02*
X0229617Y0343512D01*
X0228819Y0342714D02*
X0194818Y0342714D01*
X0222296Y0337124D02*
X0150039Y0337124D01*
X0146627Y0337124D02*
X0140333Y0337124D01*
X0140333Y0336326D02*
X0223094Y0336326D01*
X0224833Y0338900D02*
X0227833Y0338900D01*
X0238333Y0349400D01*
X0238333Y0366400D01*
X0241193Y0370662D02*
X0265473Y0370662D01*
X0264376Y0371460D02*
X0242291Y0371460D01*
X0243159Y0372259D02*
X0263508Y0372259D01*
X0262752Y0373057D02*
X0243914Y0373057D01*
X0244512Y0373856D02*
X0262155Y0373856D01*
X0261533Y0374654D02*
X0245134Y0374654D01*
X0245616Y0375453D02*
X0261051Y0375453D01*
X0260611Y0376251D02*
X0246056Y0376251D01*
X0246442Y0377050D02*
X0260225Y0377050D01*
X0259925Y0377848D02*
X0246742Y0377848D01*
X0246950Y0378647D02*
X0259717Y0378647D01*
X0259578Y0379445D02*
X0247089Y0379445D01*
X0247284Y0380244D02*
X0259382Y0380244D01*
X0259230Y0381042D02*
X0247436Y0381042D01*
X0247433Y0381841D02*
X0259233Y0381841D01*
X0259211Y0382639D02*
X0247456Y0382639D01*
X0247433Y0383438D02*
X0259233Y0383438D01*
X0259233Y0384236D02*
X0247433Y0384236D01*
X0247433Y0385035D02*
X0259233Y0385035D01*
X0259233Y0385833D02*
X0247433Y0385833D01*
X0247433Y0386632D02*
X0259233Y0386632D01*
X0259233Y0387430D02*
X0247433Y0387430D01*
X0247433Y0388229D02*
X0259233Y0388229D01*
X0259233Y0389027D02*
X0247433Y0389027D01*
X0247433Y0389826D02*
X0259233Y0389826D01*
X0259233Y0390624D02*
X0247433Y0390624D01*
X0247433Y0391423D02*
X0259233Y0391423D01*
X0259233Y0392221D02*
X0247433Y0392221D01*
X0247433Y0393020D02*
X0259233Y0393020D01*
X0259233Y0393818D02*
X0247433Y0393818D01*
X0278040Y0369065D02*
X0286333Y0369065D01*
X0286333Y0369863D02*
X0279886Y0369863D01*
X0281193Y0370662D02*
X0286333Y0370662D01*
X0286333Y0371460D02*
X0282291Y0371460D01*
X0283159Y0372259D02*
X0286333Y0372259D01*
X0286333Y0373057D02*
X0283914Y0373057D01*
X0284512Y0373856D02*
X0286333Y0373856D01*
X0286333Y0374654D02*
X0285134Y0374654D01*
X0285616Y0375453D02*
X0286333Y0375453D01*
X0286333Y0376251D02*
X0286056Y0376251D01*
X0258333Y0366400D02*
X0258333Y0356400D01*
X0280039Y0337124D02*
X0286333Y0337124D01*
X0286333Y0337923D02*
X0282233Y0337923D01*
X0283055Y0338222D02*
X0283055Y0338222D01*
X0283650Y0338721D02*
X0286333Y0338721D01*
X0286333Y0339520D02*
X0284602Y0339520D01*
X0285553Y0340318D02*
X0286333Y0340318D01*
X0285567Y0340330D02*
X0285567Y0340330D01*
X0285567Y0340330D01*
X0286022Y0341117D02*
X0286333Y0341117D01*
X0228020Y0341915D02*
X0225524Y0341915D01*
X0226930Y0341117D02*
X0227222Y0341117D01*
X0144433Y0337923D02*
X0140333Y0337923D01*
X0140333Y0338721D02*
X0143016Y0338721D01*
X0143612Y0338222D02*
X0143612Y0338222D01*
X0142065Y0339520D02*
X0140333Y0339520D01*
X0140333Y0340318D02*
X0141113Y0340318D01*
X0141099Y0340330D02*
X0141099Y0340330D01*
X0140645Y0341117D02*
X0140333Y0341117D01*
X0140333Y0333930D02*
X0140817Y0333930D01*
X0140548Y0329139D02*
X0140333Y0329139D01*
X0140333Y0328340D02*
X0141395Y0328340D01*
D11*
X0143333Y0331400D03*
X0283333Y0361400D03*
D12*
X0273333Y0382400D03*
X0233333Y0382400D03*
X0193333Y0382400D03*
X0153333Y0382400D03*
X0153333Y0310400D03*
X0193333Y0310400D03*
X0233333Y0310400D03*
X0273333Y0310400D03*
D13*
X0165333Y0296400D02*
X0141333Y0296400D01*
X0165333Y0296400D01*
X0165333Y0310400D01*
X0165211Y0312108D01*
X0164847Y0313781D01*
X0164249Y0315385D01*
X0163428Y0316888D01*
X0162402Y0318258D01*
X0161192Y0319469D01*
X0159821Y0320495D01*
X0158318Y0321316D01*
X0156714Y0321914D01*
X0155041Y0322278D01*
X0153333Y0322400D01*
X0151626Y0322278D01*
X0149953Y0321914D01*
X0148348Y0321316D01*
X0146846Y0320495D01*
X0145475Y0319469D01*
X0144264Y0318258D01*
X0143238Y0316888D01*
X0142418Y0315385D01*
X0141819Y0313781D01*
X0141455Y0312108D01*
X0141333Y0310400D01*
X0141333Y0296400D01*
X0141333Y0297399D02*
X0165333Y0297399D01*
X0165333Y0298397D02*
X0141333Y0298397D01*
X0141333Y0299396D02*
X0165333Y0299396D01*
X0165333Y0300394D02*
X0141333Y0300394D01*
X0141333Y0301393D02*
X0165333Y0301393D01*
X0165333Y0302391D02*
X0141333Y0302391D01*
X0141333Y0303390D02*
X0165333Y0303390D01*
X0165333Y0304388D02*
X0141333Y0304388D01*
X0141333Y0305387D02*
X0165333Y0305387D01*
X0165333Y0306385D02*
X0141333Y0306385D01*
X0141333Y0307384D02*
X0165333Y0307384D01*
X0165333Y0308382D02*
X0141333Y0308382D01*
X0141333Y0309381D02*
X0165333Y0309381D01*
X0165333Y0310379D02*
X0141333Y0310379D01*
X0141403Y0311378D02*
X0165263Y0311378D01*
X0165153Y0312376D02*
X0141514Y0312376D01*
X0141731Y0313375D02*
X0164936Y0313375D01*
X0164626Y0314373D02*
X0142040Y0314373D01*
X0142413Y0315372D02*
X0164254Y0315372D01*
X0163711Y0316370D02*
X0142956Y0316370D01*
X0143598Y0317369D02*
X0163068Y0317369D01*
X0162293Y0318367D02*
X0144373Y0318367D01*
X0145372Y0319366D02*
X0161295Y0319366D01*
X0159996Y0320364D02*
X0146671Y0320364D01*
X0148475Y0321363D02*
X0158192Y0321363D01*
X0153874Y0322361D02*
X0152792Y0322361D01*
X0181819Y0313781D02*
X0181455Y0312108D01*
X0181333Y0310400D01*
X0181333Y0296400D01*
X0205333Y0296400D01*
X0205333Y0310400D01*
X0205211Y0312108D01*
X0204847Y0313781D01*
X0204249Y0315385D01*
X0203428Y0316888D01*
X0202402Y0318258D01*
X0201192Y0319469D01*
X0199821Y0320495D01*
X0198318Y0321316D01*
X0196714Y0321914D01*
X0195041Y0322278D01*
X0193333Y0322400D01*
X0191626Y0322278D01*
X0189953Y0321914D01*
X0188348Y0321316D01*
X0186846Y0320495D01*
X0185475Y0319469D01*
X0184264Y0318258D01*
X0183238Y0316888D01*
X0182418Y0315385D01*
X0181819Y0313781D01*
X0181731Y0313375D02*
X0204936Y0313375D01*
X0205153Y0312376D02*
X0181514Y0312376D01*
X0181403Y0311378D02*
X0205263Y0311378D01*
X0205333Y0310379D02*
X0181333Y0310379D01*
X0181333Y0309381D02*
X0205333Y0309381D01*
X0205333Y0308382D02*
X0181333Y0308382D01*
X0181333Y0307384D02*
X0205333Y0307384D01*
X0205333Y0306385D02*
X0181333Y0306385D01*
X0181333Y0305387D02*
X0205333Y0305387D01*
X0205333Y0304388D02*
X0181333Y0304388D01*
X0181333Y0303390D02*
X0205333Y0303390D01*
X0205333Y0302391D02*
X0181333Y0302391D01*
X0181333Y0301393D02*
X0205333Y0301393D01*
X0205333Y0300394D02*
X0181333Y0300394D01*
X0181333Y0299396D02*
X0205333Y0299396D01*
X0205333Y0298397D02*
X0181333Y0298397D01*
X0181333Y0297399D02*
X0205333Y0297399D01*
X0205333Y0296400D02*
X0181333Y0296400D01*
X0182040Y0314373D02*
X0204626Y0314373D01*
X0204254Y0315372D02*
X0182413Y0315372D01*
X0182956Y0316370D02*
X0203711Y0316370D01*
X0203068Y0317369D02*
X0183598Y0317369D01*
X0184373Y0318367D02*
X0202293Y0318367D01*
X0201295Y0319366D02*
X0185372Y0319366D01*
X0186671Y0320364D02*
X0199996Y0320364D01*
X0198192Y0321363D02*
X0188475Y0321363D01*
X0192792Y0322361D02*
X0193874Y0322361D01*
X0221819Y0313781D02*
X0221455Y0312108D01*
X0221333Y0310400D01*
X0221333Y0296400D01*
X0245333Y0296400D01*
X0245333Y0310400D01*
X0245211Y0312108D01*
X0244847Y0313781D01*
X0244249Y0315385D01*
X0243428Y0316888D01*
X0242402Y0318258D01*
X0241192Y0319469D01*
X0239821Y0320495D01*
X0238318Y0321316D01*
X0236714Y0321914D01*
X0235041Y0322278D01*
X0233333Y0322400D01*
X0231626Y0322278D01*
X0229953Y0321914D01*
X0228348Y0321316D01*
X0226846Y0320495D01*
X0225475Y0319469D01*
X0224264Y0318258D01*
X0223238Y0316888D01*
X0222418Y0315385D01*
X0221819Y0313781D01*
X0221731Y0313375D02*
X0244936Y0313375D01*
X0245153Y0312376D02*
X0221514Y0312376D01*
X0221403Y0311378D02*
X0245263Y0311378D01*
X0245333Y0310379D02*
X0221333Y0310379D01*
X0221333Y0309381D02*
X0245333Y0309381D01*
X0245333Y0308382D02*
X0221333Y0308382D01*
X0221333Y0307384D02*
X0245333Y0307384D01*
X0245333Y0306385D02*
X0221333Y0306385D01*
X0221333Y0305387D02*
X0245333Y0305387D01*
X0245333Y0304388D02*
X0221333Y0304388D01*
X0221333Y0303390D02*
X0245333Y0303390D01*
X0245333Y0302391D02*
X0221333Y0302391D01*
X0221333Y0301393D02*
X0245333Y0301393D01*
X0245333Y0300394D02*
X0221333Y0300394D01*
X0221333Y0299396D02*
X0245333Y0299396D01*
X0245333Y0298397D02*
X0221333Y0298397D01*
X0221333Y0297399D02*
X0245333Y0297399D01*
X0245333Y0296400D02*
X0221333Y0296400D01*
X0222040Y0314373D02*
X0244626Y0314373D01*
X0244254Y0315372D02*
X0222413Y0315372D01*
X0222956Y0316370D02*
X0243711Y0316370D01*
X0243068Y0317369D02*
X0223598Y0317369D01*
X0224373Y0318367D02*
X0242293Y0318367D01*
X0241295Y0319366D02*
X0225372Y0319366D01*
X0226671Y0320364D02*
X0239996Y0320364D01*
X0238192Y0321363D02*
X0228475Y0321363D01*
X0232792Y0322361D02*
X0233874Y0322361D01*
X0261819Y0313781D02*
X0261455Y0312108D01*
X0261333Y0310400D01*
X0261333Y0296400D01*
X0285333Y0296400D01*
X0285333Y0310400D01*
X0285211Y0312108D01*
X0284847Y0313781D01*
X0284249Y0315385D01*
X0283428Y0316888D01*
X0282402Y0318258D01*
X0281192Y0319469D01*
X0279821Y0320495D01*
X0278318Y0321316D01*
X0276714Y0321914D01*
X0275041Y0322278D01*
X0273333Y0322400D01*
X0271626Y0322278D01*
X0269953Y0321914D01*
X0268348Y0321316D01*
X0266846Y0320495D01*
X0265475Y0319469D01*
X0264264Y0318258D01*
X0263238Y0316888D01*
X0262418Y0315385D01*
X0261819Y0313781D01*
X0261731Y0313375D02*
X0284936Y0313375D01*
X0285153Y0312376D02*
X0261514Y0312376D01*
X0261403Y0311378D02*
X0285263Y0311378D01*
X0285333Y0310379D02*
X0261333Y0310379D01*
X0261333Y0309381D02*
X0285333Y0309381D01*
X0285333Y0308382D02*
X0261333Y0308382D01*
X0261333Y0307384D02*
X0285333Y0307384D01*
X0285333Y0306385D02*
X0261333Y0306385D01*
X0261333Y0305387D02*
X0285333Y0305387D01*
X0285333Y0304388D02*
X0261333Y0304388D01*
X0261333Y0303390D02*
X0285333Y0303390D01*
X0285333Y0302391D02*
X0261333Y0302391D01*
X0261333Y0301393D02*
X0285333Y0301393D01*
X0285333Y0300394D02*
X0261333Y0300394D01*
X0261333Y0299396D02*
X0285333Y0299396D01*
X0285333Y0298397D02*
X0261333Y0298397D01*
X0261333Y0297399D02*
X0285333Y0297399D01*
X0285333Y0296400D02*
X0261333Y0296400D01*
X0262040Y0314373D02*
X0284626Y0314373D01*
X0284254Y0315372D02*
X0262413Y0315372D01*
X0262956Y0316370D02*
X0283711Y0316370D01*
X0283068Y0317369D02*
X0263598Y0317369D01*
X0264373Y0318367D02*
X0282293Y0318367D01*
X0281295Y0319366D02*
X0265372Y0319366D01*
X0266671Y0320364D02*
X0279996Y0320364D01*
X0278192Y0321363D02*
X0268475Y0321363D01*
X0272792Y0322361D02*
X0273874Y0322361D01*
X0273333Y0370400D02*
X0271626Y0370522D01*
X0269953Y0370886D01*
X0268348Y0371484D01*
X0266846Y0372305D01*
X0265475Y0373331D01*
X0264264Y0374542D01*
X0263238Y0375912D01*
X0262418Y0377415D01*
X0261819Y0379019D01*
X0261455Y0380692D01*
X0261333Y0382400D01*
X0261333Y0396400D01*
X0285333Y0396400D01*
X0285333Y0382400D01*
X0285211Y0380692D01*
X0284847Y0379019D01*
X0284249Y0377415D01*
X0283428Y0375912D01*
X0282402Y0374542D01*
X0281192Y0373331D01*
X0279821Y0372305D01*
X0278318Y0371484D01*
X0276714Y0370886D01*
X0275041Y0370522D01*
X0273333Y0370400D01*
X0268874Y0371288D02*
X0277793Y0371288D01*
X0279788Y0372287D02*
X0266879Y0372287D01*
X0265536Y0373285D02*
X0281131Y0373285D01*
X0282145Y0374284D02*
X0264522Y0374284D01*
X0263710Y0375282D02*
X0282957Y0375282D01*
X0283630Y0376281D02*
X0263037Y0376281D01*
X0262492Y0377279D02*
X0284175Y0377279D01*
X0284571Y0378278D02*
X0262096Y0378278D01*
X0261763Y0379276D02*
X0284903Y0379276D01*
X0285120Y0380275D02*
X0261546Y0380275D01*
X0261414Y0381273D02*
X0285253Y0381273D01*
X0285324Y0382272D02*
X0261342Y0382272D01*
X0261333Y0383270D02*
X0285333Y0383270D01*
X0285333Y0384269D02*
X0261333Y0384269D01*
X0261333Y0385268D02*
X0285333Y0385268D01*
X0285333Y0386266D02*
X0261333Y0386266D01*
X0261333Y0387265D02*
X0285333Y0387265D01*
X0285333Y0388263D02*
X0261333Y0388263D01*
X0261333Y0389262D02*
X0285333Y0389262D01*
X0285333Y0390260D02*
X0261333Y0390260D01*
X0261333Y0391259D02*
X0285333Y0391259D01*
X0285333Y0392257D02*
X0261333Y0392257D01*
X0261333Y0393256D02*
X0285333Y0393256D01*
X0285333Y0394254D02*
X0261333Y0394254D01*
X0261333Y0395253D02*
X0285333Y0395253D01*
X0285333Y0396251D02*
X0261333Y0396251D01*
X0245333Y0396251D02*
X0221333Y0396251D01*
X0221333Y0396400D02*
X0221333Y0382400D01*
X0221455Y0380692D01*
X0221819Y0379019D01*
X0222418Y0377415D01*
X0223238Y0375912D01*
X0224264Y0374542D01*
X0225475Y0373331D01*
X0226846Y0372305D01*
X0228348Y0371484D01*
X0229953Y0370886D01*
X0231626Y0370522D01*
X0233333Y0370400D01*
X0235041Y0370522D01*
X0236714Y0370886D01*
X0238318Y0371484D01*
X0239821Y0372305D01*
X0241192Y0373331D01*
X0242402Y0374542D01*
X0243428Y0375912D01*
X0244249Y0377415D01*
X0244847Y0379019D01*
X0245211Y0380692D01*
X0245333Y0382400D01*
X0245333Y0396400D01*
X0221333Y0396400D01*
X0221333Y0395253D02*
X0245333Y0395253D01*
X0245333Y0394254D02*
X0221333Y0394254D01*
X0221333Y0393256D02*
X0245333Y0393256D01*
X0245333Y0392257D02*
X0221333Y0392257D01*
X0221333Y0391259D02*
X0245333Y0391259D01*
X0245333Y0390260D02*
X0221333Y0390260D01*
X0221333Y0389262D02*
X0245333Y0389262D01*
X0245333Y0388263D02*
X0221333Y0388263D01*
X0221333Y0387265D02*
X0245333Y0387265D01*
X0245333Y0386266D02*
X0221333Y0386266D01*
X0221333Y0385268D02*
X0245333Y0385268D01*
X0245333Y0384269D02*
X0221333Y0384269D01*
X0221333Y0383270D02*
X0245333Y0383270D01*
X0245324Y0382272D02*
X0221342Y0382272D01*
X0221414Y0381273D02*
X0245253Y0381273D01*
X0245120Y0380275D02*
X0221546Y0380275D01*
X0221763Y0379276D02*
X0244903Y0379276D01*
X0244571Y0378278D02*
X0222096Y0378278D01*
X0222492Y0377279D02*
X0244175Y0377279D01*
X0243630Y0376281D02*
X0223037Y0376281D01*
X0223710Y0375282D02*
X0242957Y0375282D01*
X0242145Y0374284D02*
X0224522Y0374284D01*
X0225536Y0373285D02*
X0241131Y0373285D01*
X0239788Y0372287D02*
X0226879Y0372287D01*
X0228874Y0371288D02*
X0237793Y0371288D01*
X0204847Y0379019D02*
X0204249Y0377415D01*
X0203428Y0375912D01*
X0202402Y0374542D01*
X0201192Y0373331D01*
X0199821Y0372305D01*
X0198318Y0371484D01*
X0196714Y0370886D01*
X0195041Y0370522D01*
X0193333Y0370400D01*
X0191626Y0370522D01*
X0189953Y0370886D01*
X0188348Y0371484D01*
X0186846Y0372305D01*
X0185475Y0373331D01*
X0184264Y0374542D01*
X0183238Y0375912D01*
X0182418Y0377415D01*
X0181819Y0379019D01*
X0181455Y0380692D01*
X0181333Y0382400D01*
X0181333Y0396400D01*
X0205333Y0396400D01*
X0205333Y0382400D01*
X0205211Y0380692D01*
X0204847Y0379019D01*
X0204903Y0379276D02*
X0181763Y0379276D01*
X0181546Y0380275D02*
X0205120Y0380275D01*
X0205253Y0381273D02*
X0181414Y0381273D01*
X0181342Y0382272D02*
X0205324Y0382272D01*
X0205333Y0383270D02*
X0181333Y0383270D01*
X0181333Y0384269D02*
X0205333Y0384269D01*
X0205333Y0385268D02*
X0181333Y0385268D01*
X0181333Y0386266D02*
X0205333Y0386266D01*
X0205333Y0387265D02*
X0181333Y0387265D01*
X0181333Y0388263D02*
X0205333Y0388263D01*
X0205333Y0389262D02*
X0181333Y0389262D01*
X0181333Y0390260D02*
X0205333Y0390260D01*
X0205333Y0391259D02*
X0181333Y0391259D01*
X0181333Y0392257D02*
X0205333Y0392257D01*
X0205333Y0393256D02*
X0181333Y0393256D01*
X0181333Y0394254D02*
X0205333Y0394254D01*
X0205333Y0395253D02*
X0181333Y0395253D01*
X0181333Y0396251D02*
X0205333Y0396251D01*
X0204571Y0378278D02*
X0182096Y0378278D01*
X0182492Y0377279D02*
X0204175Y0377279D01*
X0203630Y0376281D02*
X0183037Y0376281D01*
X0183710Y0375282D02*
X0202957Y0375282D01*
X0202145Y0374284D02*
X0184522Y0374284D01*
X0185536Y0373285D02*
X0201131Y0373285D01*
X0199788Y0372287D02*
X0186879Y0372287D01*
X0188874Y0371288D02*
X0197793Y0371288D01*
X0164847Y0379019D02*
X0164249Y0377415D01*
X0163428Y0375912D01*
X0162402Y0374542D01*
X0161192Y0373331D01*
X0159821Y0372305D01*
X0158318Y0371484D01*
X0156714Y0370886D01*
X0155041Y0370522D01*
X0153333Y0370400D01*
X0151626Y0370522D01*
X0149953Y0370886D01*
X0148348Y0371484D01*
X0146846Y0372305D01*
X0145475Y0373331D01*
X0144264Y0374542D01*
X0143238Y0375912D01*
X0142418Y0377415D01*
X0141819Y0379019D01*
X0141455Y0380692D01*
X0141333Y0382400D01*
X0141333Y0396400D01*
X0165333Y0396400D01*
X0165333Y0382400D01*
X0165211Y0380692D01*
X0164847Y0379019D01*
X0164903Y0379276D02*
X0141763Y0379276D01*
X0141546Y0380275D02*
X0165120Y0380275D01*
X0165253Y0381273D02*
X0141414Y0381273D01*
X0141342Y0382272D02*
X0165324Y0382272D01*
X0165333Y0383270D02*
X0141333Y0383270D01*
X0141333Y0384269D02*
X0165333Y0384269D01*
X0165333Y0385268D02*
X0141333Y0385268D01*
X0141333Y0386266D02*
X0165333Y0386266D01*
X0165333Y0387265D02*
X0141333Y0387265D01*
X0141333Y0388263D02*
X0165333Y0388263D01*
X0165333Y0389262D02*
X0141333Y0389262D01*
X0141333Y0390260D02*
X0165333Y0390260D01*
X0165333Y0391259D02*
X0141333Y0391259D01*
X0141333Y0392257D02*
X0165333Y0392257D01*
X0165333Y0393256D02*
X0141333Y0393256D01*
X0141333Y0394254D02*
X0165333Y0394254D01*
X0165333Y0395253D02*
X0141333Y0395253D01*
X0141333Y0396251D02*
X0165333Y0396251D01*
X0164571Y0378278D02*
X0142096Y0378278D01*
X0142492Y0377279D02*
X0164175Y0377279D01*
X0163630Y0376281D02*
X0143037Y0376281D01*
X0143710Y0375282D02*
X0162957Y0375282D01*
X0162145Y0374284D02*
X0144522Y0374284D01*
X0145536Y0373285D02*
X0161131Y0373285D01*
X0159788Y0372287D02*
X0146879Y0372287D01*
X0148874Y0371288D02*
X0157793Y0371288D01*
D14*
X0183333Y0371400D03*
X0188333Y0361400D03*
X0193333Y0345400D03*
X0182333Y0340900D03*
X0178333Y0343900D03*
X0188333Y0331400D03*
X0198333Y0331400D03*
X0224833Y0338900D03*
X0226833Y0352180D03*
X0225333Y0360400D03*
X0222333Y0371400D03*
X0238333Y0366400D03*
X0248333Y0371400D03*
X0258333Y0366400D03*
X0258333Y0356400D03*
X0248333Y0346400D03*
X0238333Y0349400D03*
M02*
