G75*
%MOIN*%
%OFA0B0*%
%FSLAX25Y25*%
%IPPOS*%
%LPD*%
%AMOC8*
5,1,8,0,0,1.08239X$1,22.5*
%
%ADD10C,0.00591*%
%ADD11R,0.12756X0.00157*%
%ADD12R,0.13701X0.00157*%
%ADD13R,0.14331X0.00157*%
%ADD14R,0.14961X0.00157*%
%ADD15R,0.15276X0.00157*%
%ADD16R,0.15591X0.00157*%
%ADD17R,0.15906X0.00157*%
%ADD18R,0.03780X0.00157*%
%ADD19R,0.07087X0.00157*%
%ADD20R,0.03465X0.00157*%
%ADD21R,0.01102X0.00157*%
%ADD22R,0.02362X0.00157*%
%ADD23R,0.03307X0.00157*%
%ADD24R,0.00787X0.00157*%
%ADD25R,0.00630X0.00157*%
%ADD26R,0.02047X0.00157*%
%ADD27R,0.03150X0.00157*%
%ADD28R,0.00472X0.00157*%
%ADD29R,0.01890X0.00157*%
%ADD30R,0.00315X0.00157*%
%ADD31R,0.01732X0.00157*%
%ADD32R,0.01575X0.00157*%
%ADD33R,0.01417X0.00157*%
%ADD34R,0.01260X0.00157*%
%ADD35R,0.04409X0.00157*%
%ADD36R,0.00945X0.00157*%
%ADD37R,0.03622X0.00157*%
%ADD38R,0.02205X0.00157*%
%ADD39R,0.05039X0.00157*%
%ADD40R,0.00157X0.00157*%
%ADD41R,0.02992X0.00157*%
%ADD42R,0.02520X0.00157*%
%ADD43R,0.14646X0.00157*%
%ADD44R,0.16220X0.00157*%
%ADD45R,0.16535X0.00157*%
%ADD46R,0.16850X0.00157*%
%ADD47R,0.04252X0.00157*%
%ADD48R,0.11969X0.00157*%
%ADD49R,0.04094X0.00157*%
%ADD50R,0.02835X0.00157*%
%ADD51R,0.03937X0.00157*%
%ADD52R,0.12126X0.00157*%
%ADD53R,0.13071X0.00157*%
%ADD54R,0.04882X0.00157*%
%ADD55R,0.05197X0.00157*%
%ADD56R,0.02677X0.00157*%
%ADD57R,0.14016X0.00157*%
%ADD58R,0.04567X0.00157*%
%ADD59R,0.05354X0.00157*%
%ADD60C,0.00300*%
%ADD61R,0.01378X0.00276*%
%ADD62R,0.01929X0.00276*%
%ADD63R,0.00551X0.00315*%
%ADD64R,0.01929X0.00315*%
%ADD65R,0.01654X0.00276*%
%ADD66R,0.01654X0.00236*%
%ADD67R,0.01929X0.00236*%
%ADD68R,0.01654X0.00315*%
%ADD69R,0.00827X0.00276*%
%ADD70R,0.00551X0.00236*%
%ADD71R,0.01378X0.00315*%
%ADD72R,0.03858X0.00315*%
%ADD73R,0.02480X0.00315*%
%ADD74R,0.04134X0.00276*%
%ADD75R,0.03307X0.00276*%
%ADD76R,0.03858X0.00276*%
%ADD77R,0.04409X0.00276*%
%ADD78R,0.04685X0.00276*%
%ADD79R,0.04961X0.00276*%
%ADD80R,0.05236X0.00276*%
%ADD81R,0.02205X0.00276*%
%ADD82R,0.00551X0.00276*%
%ADD83R,0.00276X0.00276*%
%ADD84R,0.02205X0.00315*%
%ADD85R,0.00827X0.00315*%
%ADD86R,0.01102X0.00276*%
%ADD87R,0.02756X0.00276*%
%ADD88R,0.03031X0.00276*%
%ADD89R,0.04685X0.00236*%
%ADD90R,0.04961X0.00236*%
%ADD91R,0.03031X0.00236*%
%ADD92R,0.04409X0.00236*%
%ADD93R,0.00276X0.00236*%
%ADD94R,0.01378X0.00236*%
%ADD95R,0.02205X0.00236*%
%ADD96R,0.01102X0.00236*%
%ADD97R,0.04134X0.00236*%
%ADD98R,0.00197X0.00079*%
%ADD99R,0.00315X0.00079*%
%ADD100R,0.00709X0.00118*%
%ADD101R,0.00984X0.00079*%
%ADD102R,0.01102X0.00118*%
%ADD103R,0.01181X0.00079*%
%ADD104R,0.01142X0.00118*%
%ADD105R,0.01929X0.00118*%
%ADD106R,0.02047X0.00079*%
%ADD107R,0.00591X0.00118*%
%ADD108R,0.02047X0.00118*%
%ADD109R,0.02992X0.00079*%
%ADD110R,0.00394X0.00118*%
%ADD111R,0.02992X0.00118*%
%ADD112R,0.04094X0.00079*%
%ADD113R,0.00354X0.00118*%
%ADD114R,0.04055X0.00118*%
%ADD115R,0.00591X0.00079*%
%ADD116R,0.03976X0.00079*%
%ADD117R,0.05236X0.00079*%
%ADD118R,0.05276X0.00118*%
%ADD119R,0.00472X0.00079*%
%ADD120R,0.05276X0.00079*%
%ADD121R,0.06142X0.00118*%
%ADD122R,0.05906X0.00079*%
%ADD123R,0.05827X0.00118*%
%ADD124R,0.06811X0.00079*%
%ADD125R,0.06732X0.00118*%
%ADD126R,0.06614X0.00079*%
%ADD127R,0.06693X0.00118*%
%ADD128R,0.06299X0.00079*%
%ADD129R,0.06417X0.00118*%
%ADD130R,0.06732X0.00079*%
%ADD131R,0.06299X0.00118*%
%ADD132R,0.06417X0.00079*%
%ADD133R,0.06220X0.00118*%
%ADD134R,0.05866X0.00079*%
%ADD135R,0.05630X0.00118*%
%ADD136R,0.05433X0.00079*%
%ADD137R,0.05354X0.00118*%
%ADD138R,0.05039X0.00079*%
%ADD139R,0.04843X0.00118*%
%ADD140R,0.04764X0.00079*%
%ADD141R,0.04449X0.00118*%
%ADD142R,0.00787X0.00118*%
%ADD143R,0.04173X0.00079*%
%ADD144R,0.01260X0.00079*%
%ADD145R,0.04173X0.00118*%
%ADD146R,0.01732X0.00118*%
%ADD147R,0.03819X0.00079*%
%ADD148R,0.01929X0.00079*%
%ADD149R,0.03701X0.00118*%
%ADD150R,0.02323X0.00118*%
%ADD151R,0.03583X0.00079*%
%ADD152R,0.02520X0.00079*%
%ADD153R,0.03425X0.00118*%
%ADD154R,0.02717X0.00118*%
%ADD155R,0.03425X0.00079*%
%ADD156R,0.02913X0.00079*%
%ADD157R,0.03228X0.00079*%
%ADD158R,0.03110X0.00079*%
%ADD159R,0.00276X0.00118*%
%ADD160R,0.03110X0.00118*%
%ADD161R,0.03307X0.00118*%
%ADD162R,0.00276X0.00079*%
%ADD163R,0.03031X0.00079*%
%ADD164R,0.03504X0.00079*%
%ADD165R,0.02913X0.00118*%
%ADD166R,0.03583X0.00118*%
%ADD167R,0.00394X0.00079*%
%ADD168R,0.02835X0.00079*%
%ADD169R,0.03701X0.00079*%
%ADD170R,0.03465X0.00118*%
%ADD171R,0.04094X0.00118*%
%ADD172R,0.02638X0.00079*%
%ADD173R,0.04291X0.00079*%
%ADD174R,0.02520X0.00118*%
%ADD175R,0.04370X0.00118*%
%ADD176R,0.05354X0.00079*%
%ADD177R,0.04961X0.00079*%
%ADD178R,0.02362X0.00118*%
%ADD179R,0.04961X0.00118*%
%ADD180R,0.02362X0.00079*%
%ADD181R,0.05945X0.00079*%
%ADD182R,0.05118X0.00079*%
%ADD183R,0.00669X0.00118*%
%ADD184R,0.06614X0.00118*%
%ADD185R,0.05433X0.00118*%
%ADD186R,0.00669X0.00079*%
%ADD187R,0.09331X0.00079*%
%ADD188R,0.05551X0.00079*%
%ADD189R,0.00748X0.00118*%
%ADD190R,0.09528X0.00118*%
%ADD191R,0.05669X0.00118*%
%ADD192R,0.00748X0.00079*%
%ADD193R,0.09724X0.00079*%
%ADD194R,0.06024X0.00079*%
%ADD195R,0.00866X0.00118*%
%ADD196R,0.09724X0.00118*%
%ADD197R,0.10000X0.00079*%
%ADD198R,0.01142X0.00079*%
%ADD199R,0.10039X0.00079*%
%ADD200R,0.10000X0.00118*%
%ADD201R,0.05157X0.00118*%
%ADD202R,0.10276X0.00079*%
%ADD203R,0.01260X0.00118*%
%ADD204R,0.10394X0.00118*%
%ADD205R,0.05236X0.00118*%
%ADD206R,0.05157X0.00079*%
%ADD207R,0.01339X0.00118*%
%ADD208R,0.05551X0.00118*%
%ADD209R,0.01457X0.00079*%
%ADD210R,0.05827X0.00079*%
%ADD211R,0.01575X0.00118*%
%ADD212R,0.02441X0.00118*%
%ADD213R,0.03504X0.00118*%
%ADD214R,0.05866X0.00118*%
%ADD215R,0.01772X0.00079*%
%ADD216R,0.02717X0.00079*%
%ADD217R,0.02323X0.00079*%
%ADD218R,0.03780X0.00079*%
%ADD219R,0.01850X0.00118*%
%ADD220R,0.02638X0.00118*%
%ADD221R,0.00315X0.00118*%
%ADD222R,0.06496X0.00118*%
%ADD223R,0.01969X0.00079*%
%ADD224R,0.02441X0.00079*%
%ADD225R,0.01850X0.00079*%
%ADD226R,0.03858X0.00079*%
%ADD227R,0.06693X0.00079*%
%ADD228R,0.02165X0.00118*%
%ADD229R,0.01654X0.00118*%
%ADD230R,0.07205X0.00118*%
%ADD231R,0.04921X0.00079*%
%ADD232R,0.04409X0.00079*%
%ADD233R,0.01063X0.00118*%
%ADD234R,0.00984X0.00118*%
%ADD235R,0.04488X0.00118*%
%ADD236R,0.02795X0.00079*%
%ADD237R,0.01378X0.00079*%
%ADD238R,0.00866X0.00079*%
%ADD239R,0.04685X0.00079*%
%ADD240R,0.00906X0.00118*%
%ADD241R,0.00472X0.00118*%
%ADD242R,0.04567X0.00118*%
%ADD243R,0.00945X0.00079*%
%ADD244R,0.00787X0.00079*%
%ADD245R,0.04449X0.00079*%
%ADD246R,0.01811X0.00079*%
%ADD247R,0.04882X0.00079*%
%ADD248R,0.00906X0.00079*%
%ADD249R,0.04370X0.00079*%
%ADD250R,0.02598X0.00118*%
%ADD251R,0.05039X0.00118*%
%ADD252R,0.01535X0.00079*%
%ADD253R,0.04055X0.00079*%
%ADD254R,0.03228X0.00118*%
%ADD255R,0.03780X0.00118*%
%ADD256R,0.03386X0.00079*%
%ADD257R,0.01969X0.00118*%
%ADD258R,0.02244X0.00118*%
%ADD259R,0.03189X0.00118*%
%ADD260R,0.03622X0.00079*%
%ADD261R,0.01457X0.00118*%
%ADD262R,0.02835X0.00118*%
%ADD263R,0.08937X0.00079*%
%ADD264R,0.09134X0.00118*%
%ADD265R,0.01535X0.00118*%
%ADD266R,0.09252X0.00079*%
%ADD267R,0.02126X0.00079*%
%ADD268R,0.01654X0.00079*%
%ADD269R,0.09843X0.00118*%
%ADD270R,0.02008X0.00118*%
%ADD271R,0.09921X0.00079*%
%ADD272R,0.00079X0.00079*%
%ADD273R,0.10512X0.00118*%
%ADD274R,0.03031X0.00118*%
%ADD275R,0.04685X0.00118*%
%ADD276R,0.14488X0.00079*%
%ADD277R,0.06142X0.00079*%
%ADD278R,0.00709X0.00079*%
%ADD279R,0.01496X0.00079*%
%ADD280R,0.14685X0.00079*%
%ADD281R,0.01496X0.00118*%
%ADD282R,0.16811X0.00118*%
%ADD283R,0.04646X0.00079*%
%ADD284R,0.16890X0.00079*%
%ADD285R,0.00512X0.00118*%
%ADD286R,0.01299X0.00118*%
%ADD287R,0.17008X0.00118*%
%ADD288R,0.01299X0.00079*%
%ADD289R,0.17205X0.00079*%
%ADD290R,0.17323X0.00118*%
%ADD291R,0.17402X0.00079*%
%ADD292R,0.03622X0.00118*%
%ADD293R,0.17402X0.00118*%
%ADD294R,0.01378X0.00118*%
%ADD295R,0.03386X0.00118*%
%ADD296R,0.02008X0.00079*%
%ADD297R,0.03150X0.00079*%
%ADD298R,0.02126X0.00118*%
%ADD299R,0.02205X0.00079*%
%ADD300R,0.03150X0.00118*%
%ADD301R,0.02953X0.00118*%
%ADD302R,0.02756X0.00079*%
%ADD303R,0.02559X0.00079*%
%ADD304R,0.00197X0.00118*%
D10*
X0209698Y0306746D02*
X0208680Y0307764D01*
X0209890Y0309248D01*
X0209582Y0309846D01*
X0209377Y0310487D01*
X0207472Y0310680D01*
X0207472Y0312120D01*
X0209377Y0312313D01*
X0209582Y0312954D01*
X0209890Y0313552D01*
X0208680Y0315036D01*
X0209698Y0316054D01*
X0211182Y0314843D01*
X0211780Y0315151D01*
X0212420Y0315356D01*
X0212614Y0317261D01*
X0214053Y0317261D01*
X0214247Y0315356D01*
X0214887Y0315151D01*
X0215485Y0314843D01*
X0216969Y0316054D01*
X0217987Y0315036D01*
X0216777Y0313552D01*
X0217085Y0312954D01*
X0217290Y0312313D01*
X0219195Y0312120D01*
X0219195Y0310680D01*
X0217290Y0310487D01*
X0217085Y0309846D01*
X0216777Y0309248D01*
X0217987Y0307764D01*
X0216969Y0306746D01*
X0215485Y0307957D01*
X0214887Y0307649D01*
X0214040Y0309695D01*
X0214418Y0309907D01*
X0214737Y0310201D01*
X0214978Y0310562D01*
X0215128Y0310969D01*
X0215179Y0311400D01*
X0215126Y0311839D01*
X0214970Y0312252D01*
X0214721Y0312617D01*
X0214392Y0312911D01*
X0214002Y0313120D01*
X0213574Y0313229D01*
X0213133Y0313234D01*
X0212702Y0313134D01*
X0212308Y0312934D01*
X0211973Y0312646D01*
X0211716Y0312287D01*
X0211551Y0311877D01*
X0211489Y0311440D01*
X0211532Y0311000D01*
X0211678Y0310584D01*
X0211920Y0310214D01*
X0212242Y0309912D01*
X0212627Y0309695D01*
X0211779Y0307649D01*
X0211182Y0307957D01*
X0209698Y0306746D01*
X0209441Y0307003D02*
X0210012Y0307003D01*
X0210735Y0307592D02*
X0208852Y0307592D01*
X0209020Y0308181D02*
X0212000Y0308181D01*
X0212244Y0308770D02*
X0209500Y0308770D01*
X0209833Y0309359D02*
X0212488Y0309359D01*
X0212203Y0309948D02*
X0209549Y0309948D01*
X0208877Y0310538D02*
X0211709Y0310538D01*
X0211520Y0311127D02*
X0207472Y0311127D01*
X0207472Y0311716D02*
X0211528Y0311716D01*
X0211728Y0312305D02*
X0209291Y0312305D01*
X0209563Y0312894D02*
X0212262Y0312894D01*
X0214412Y0312894D02*
X0217104Y0312894D01*
X0217375Y0312305D02*
X0214934Y0312305D01*
X0215141Y0311716D02*
X0219195Y0311716D01*
X0219195Y0311127D02*
X0215147Y0311127D01*
X0214961Y0310538D02*
X0217790Y0310538D01*
X0217117Y0309948D02*
X0214463Y0309948D01*
X0214179Y0309359D02*
X0216834Y0309359D01*
X0217166Y0308770D02*
X0214423Y0308770D01*
X0214667Y0308181D02*
X0217647Y0308181D01*
X0217815Y0307592D02*
X0215932Y0307592D01*
X0216654Y0307003D02*
X0217226Y0307003D01*
X0216812Y0313483D02*
X0209855Y0313483D01*
X0209466Y0314072D02*
X0217201Y0314072D01*
X0217681Y0314661D02*
X0208985Y0314661D01*
X0208894Y0315250D02*
X0210683Y0315250D01*
X0209961Y0315839D02*
X0209483Y0315839D01*
X0212088Y0315250D02*
X0214579Y0315250D01*
X0214198Y0315839D02*
X0212469Y0315839D01*
X0212529Y0316428D02*
X0214138Y0316428D01*
X0214078Y0317017D02*
X0212589Y0317017D01*
X0215984Y0315250D02*
X0217773Y0315250D01*
X0217184Y0315839D02*
X0216706Y0315839D01*
D11*
X0193621Y0323750D03*
X0193621Y0330050D03*
X0193546Y0362750D03*
X0193546Y0369050D03*
X0193546Y0382750D03*
X0193546Y0389050D03*
D12*
X0193546Y0388892D03*
X0193546Y0382908D03*
X0193546Y0368892D03*
X0193546Y0362908D03*
X0153361Y0362750D03*
X0153361Y0369050D03*
X0153361Y0382750D03*
X0153361Y0389050D03*
X0153306Y0330050D03*
X0153306Y0323750D03*
X0193621Y0323908D03*
X0193621Y0329892D03*
X0273593Y0329735D03*
X0273593Y0324065D03*
X0273573Y0363065D03*
X0273573Y0368735D03*
X0273073Y0383065D03*
X0273073Y0388735D03*
D13*
X0273073Y0388577D03*
X0273073Y0383223D03*
X0273573Y0368577D03*
X0273573Y0363223D03*
X0273593Y0329577D03*
X0273593Y0324223D03*
X0193621Y0324065D03*
X0193621Y0329735D03*
X0193546Y0363065D03*
X0193546Y0368735D03*
X0193546Y0383065D03*
X0193546Y0388735D03*
D14*
X0193546Y0388577D03*
X0193546Y0383223D03*
X0193546Y0368577D03*
X0193546Y0363223D03*
X0193621Y0329577D03*
X0193621Y0324223D03*
X0273593Y0324538D03*
X0273593Y0329262D03*
X0273573Y0363538D03*
X0273573Y0368262D03*
X0273073Y0383538D03*
X0273073Y0388262D03*
D15*
X0273073Y0388105D03*
X0273073Y0383695D03*
X0273573Y0368105D03*
X0273573Y0363695D03*
X0233046Y0363223D03*
X0233046Y0368577D03*
X0233546Y0383223D03*
X0233546Y0388577D03*
X0193546Y0388420D03*
X0193546Y0383380D03*
X0193546Y0368420D03*
X0193546Y0363380D03*
X0153361Y0363065D03*
X0153361Y0368735D03*
X0153361Y0383065D03*
X0153361Y0388735D03*
X0153306Y0329735D03*
X0153306Y0324065D03*
X0193621Y0324380D03*
X0193621Y0329420D03*
X0233121Y0329577D03*
X0233121Y0324223D03*
X0273593Y0324695D03*
X0273593Y0329105D03*
D16*
X0233121Y0329420D03*
X0233121Y0324380D03*
X0193621Y0324538D03*
X0193621Y0329262D03*
X0193546Y0363538D03*
X0193546Y0368262D03*
X0193546Y0383538D03*
X0193546Y0388262D03*
X0233546Y0388420D03*
X0233546Y0383380D03*
X0233046Y0368420D03*
X0233046Y0363380D03*
D17*
X0233046Y0363538D03*
X0233046Y0368262D03*
X0233546Y0383538D03*
X0233546Y0388262D03*
X0193546Y0388105D03*
X0193546Y0383695D03*
X0193546Y0368105D03*
X0193546Y0363695D03*
X0153361Y0363223D03*
X0153361Y0368577D03*
X0153361Y0383223D03*
X0153361Y0388577D03*
X0153306Y0329577D03*
X0153306Y0324223D03*
X0193621Y0324695D03*
X0193621Y0329105D03*
X0233121Y0329262D03*
X0233121Y0324538D03*
D18*
X0240129Y0326900D03*
X0239499Y0328947D03*
X0226113Y0326270D03*
X0226113Y0326113D03*
X0200471Y0327530D03*
X0199841Y0328947D03*
X0187400Y0328947D03*
X0186770Y0326900D03*
X0160314Y0328475D03*
X0160156Y0328632D03*
X0146455Y0328632D03*
X0146298Y0328475D03*
X0146510Y0364168D03*
X0146353Y0364325D03*
X0160211Y0364168D03*
X0160369Y0364325D03*
X0160211Y0384168D03*
X0160369Y0384325D03*
X0146510Y0384168D03*
X0146353Y0384325D03*
X0186696Y0385270D03*
X0187325Y0383853D03*
X0199766Y0383853D03*
X0200396Y0385900D03*
X0200396Y0365900D03*
X0199766Y0363853D03*
X0187325Y0363853D03*
X0186696Y0365270D03*
X0226038Y0365900D03*
X0226668Y0363853D03*
X0240054Y0366530D03*
X0240054Y0366687D03*
X0227168Y0383853D03*
X0226538Y0385900D03*
X0240554Y0386530D03*
X0240554Y0386687D03*
X0266538Y0385900D03*
X0267168Y0383853D03*
X0267038Y0365900D03*
X0267668Y0363853D03*
X0279499Y0328947D03*
X0280129Y0326900D03*
D19*
X0269341Y0328947D03*
X0277825Y0363853D03*
X0277325Y0383853D03*
X0193546Y0383853D03*
X0193546Y0363853D03*
X0193621Y0328947D03*
D20*
X0200156Y0328790D03*
X0200629Y0327687D03*
X0200629Y0326270D03*
X0199999Y0324853D03*
X0187243Y0324853D03*
X0186613Y0326585D03*
X0186613Y0326743D03*
X0186613Y0327215D03*
X0186613Y0327372D03*
X0187085Y0328790D03*
X0160786Y0327687D03*
X0160786Y0327530D03*
X0160629Y0328002D03*
X0160471Y0328317D03*
X0160786Y0326270D03*
X0160786Y0326113D03*
X0160629Y0325798D03*
X0160629Y0325640D03*
X0160471Y0325483D03*
X0146140Y0325483D03*
X0145983Y0325640D03*
X0145983Y0325798D03*
X0145825Y0326113D03*
X0145825Y0327687D03*
X0145983Y0328002D03*
X0146196Y0364483D03*
X0146038Y0364798D03*
X0145881Y0365113D03*
X0145881Y0365270D03*
X0145881Y0366530D03*
X0145881Y0366687D03*
X0146038Y0367002D03*
X0146038Y0367160D03*
X0146196Y0367317D03*
X0160526Y0367317D03*
X0160684Y0367160D03*
X0160684Y0367002D03*
X0160841Y0366687D03*
X0160841Y0365113D03*
X0160684Y0364798D03*
X0160684Y0384798D03*
X0160841Y0385113D03*
X0160841Y0386687D03*
X0160684Y0387002D03*
X0160684Y0387160D03*
X0160526Y0387317D03*
X0146196Y0387317D03*
X0146038Y0387160D03*
X0146038Y0387002D03*
X0145881Y0386687D03*
X0145881Y0386530D03*
X0145881Y0385270D03*
X0145881Y0385113D03*
X0146038Y0384798D03*
X0146196Y0384483D03*
X0186538Y0385113D03*
X0187010Y0384010D03*
X0186538Y0386530D03*
X0187168Y0387947D03*
X0199924Y0387947D03*
X0200554Y0386215D03*
X0200554Y0386057D03*
X0200554Y0385585D03*
X0200554Y0385428D03*
X0200081Y0384010D03*
X0199924Y0367947D03*
X0200554Y0366215D03*
X0200554Y0366057D03*
X0200554Y0365585D03*
X0200554Y0365428D03*
X0200081Y0364010D03*
X0187010Y0364010D03*
X0186538Y0365113D03*
X0186538Y0366530D03*
X0187168Y0367947D03*
X0225881Y0365428D03*
X0225881Y0365270D03*
X0225881Y0365113D03*
X0226353Y0367790D03*
X0240054Y0367002D03*
X0240054Y0366845D03*
X0226381Y0385113D03*
X0226381Y0385270D03*
X0226381Y0385428D03*
X0226853Y0387790D03*
X0240554Y0387002D03*
X0240554Y0386845D03*
X0266381Y0385585D03*
X0266381Y0385428D03*
X0266381Y0385270D03*
X0266381Y0385113D03*
X0266853Y0384010D03*
X0266853Y0387790D03*
X0267010Y0387947D03*
X0267510Y0367947D03*
X0267353Y0367790D03*
X0266881Y0365585D03*
X0266881Y0365428D03*
X0266881Y0365270D03*
X0266881Y0365113D03*
X0267353Y0364010D03*
X0279814Y0328790D03*
X0280286Y0327687D03*
X0280286Y0327530D03*
X0280286Y0327372D03*
X0280286Y0327215D03*
X0279814Y0325010D03*
X0279656Y0324853D03*
X0240286Y0327372D03*
X0240286Y0327530D03*
X0240286Y0327687D03*
X0239814Y0325010D03*
X0226113Y0325798D03*
X0226113Y0325955D03*
D21*
X0232176Y0325010D03*
X0237215Y0325955D03*
X0235798Y0328790D03*
X0271861Y0328790D03*
X0273278Y0327845D03*
X0275325Y0328317D03*
X0275483Y0328160D03*
X0275640Y0327845D03*
X0275955Y0327215D03*
X0277215Y0325955D03*
X0275325Y0325325D03*
X0275306Y0364010D03*
X0273888Y0364955D03*
X0271841Y0364483D03*
X0271684Y0364640D03*
X0271526Y0364955D03*
X0271211Y0365585D03*
X0269951Y0366845D03*
X0271841Y0367475D03*
X0274806Y0384010D03*
X0273388Y0384955D03*
X0271341Y0384483D03*
X0271184Y0384640D03*
X0271026Y0384955D03*
X0270711Y0385585D03*
X0269451Y0386845D03*
X0271341Y0387475D03*
X0234491Y0387790D03*
X0229451Y0386845D03*
X0230869Y0384010D03*
X0233991Y0367790D03*
X0228951Y0366845D03*
X0230369Y0364010D03*
X0197483Y0365113D03*
X0197325Y0365270D03*
X0197483Y0366687D03*
X0197483Y0366845D03*
X0196066Y0364010D03*
X0193546Y0365428D03*
X0193546Y0365585D03*
X0191499Y0365585D03*
X0191026Y0364010D03*
X0189609Y0365113D03*
X0189451Y0365270D03*
X0189609Y0366687D03*
X0189609Y0366845D03*
X0191026Y0384010D03*
X0191499Y0385585D03*
X0189609Y0385113D03*
X0189451Y0385270D03*
X0189609Y0386687D03*
X0189609Y0386845D03*
X0193546Y0385585D03*
X0193546Y0385428D03*
X0196066Y0384010D03*
X0197325Y0385270D03*
X0197483Y0385113D03*
X0197483Y0386687D03*
X0197483Y0386845D03*
X0157298Y0386845D03*
X0157298Y0385113D03*
X0153676Y0384798D03*
X0153203Y0387160D03*
X0149581Y0384955D03*
X0148951Y0385585D03*
X0153203Y0367160D03*
X0153676Y0364798D03*
X0157298Y0365113D03*
X0157298Y0366845D03*
X0149581Y0364955D03*
X0148951Y0365585D03*
X0152991Y0328002D03*
X0153463Y0325640D03*
X0149369Y0325955D03*
X0149369Y0327687D03*
X0157085Y0327845D03*
X0157715Y0327215D03*
X0189684Y0327687D03*
X0189841Y0327530D03*
X0189684Y0326113D03*
X0189684Y0325955D03*
X0191101Y0328790D03*
X0193621Y0327372D03*
X0193621Y0327215D03*
X0195668Y0327215D03*
X0196140Y0328790D03*
X0197558Y0327687D03*
X0197715Y0327530D03*
X0197558Y0326113D03*
X0197558Y0325955D03*
D22*
X0193621Y0328632D03*
X0193621Y0328790D03*
X0191259Y0326585D03*
X0229656Y0324853D03*
X0236428Y0327687D03*
X0275168Y0328790D03*
X0276428Y0327687D03*
X0271999Y0364010D03*
X0270739Y0365113D03*
X0271499Y0384010D03*
X0270239Y0385113D03*
X0237010Y0387947D03*
X0230239Y0385113D03*
X0236510Y0367947D03*
X0229739Y0365113D03*
X0195908Y0366215D03*
X0193546Y0364168D03*
X0193546Y0364010D03*
X0193546Y0384010D03*
X0193546Y0384168D03*
X0195908Y0386215D03*
D23*
X0200160Y0387790D03*
X0200633Y0386687D03*
X0200633Y0386530D03*
X0200633Y0386372D03*
X0200633Y0385270D03*
X0200633Y0385113D03*
X0200475Y0384640D03*
X0200318Y0384325D03*
X0200160Y0384168D03*
X0186932Y0384168D03*
X0186774Y0384325D03*
X0186617Y0384640D03*
X0186617Y0384798D03*
X0186617Y0384955D03*
X0186459Y0386687D03*
X0186932Y0387790D03*
X0186932Y0367790D03*
X0186459Y0366687D03*
X0186617Y0364955D03*
X0186617Y0364798D03*
X0186617Y0364640D03*
X0186774Y0364325D03*
X0186932Y0364168D03*
X0200160Y0364168D03*
X0200318Y0364325D03*
X0200475Y0364640D03*
X0200633Y0365113D03*
X0200633Y0365270D03*
X0200633Y0366372D03*
X0200633Y0366530D03*
X0200633Y0366687D03*
X0200160Y0367790D03*
X0225959Y0367160D03*
X0225959Y0367002D03*
X0225959Y0366845D03*
X0226117Y0367475D03*
X0225959Y0364955D03*
X0225959Y0364798D03*
X0225959Y0364640D03*
X0226117Y0364483D03*
X0226117Y0364325D03*
X0226274Y0364168D03*
X0240133Y0367160D03*
X0226774Y0384168D03*
X0226617Y0384325D03*
X0226617Y0384483D03*
X0226459Y0384640D03*
X0226459Y0384798D03*
X0226459Y0384955D03*
X0226459Y0386845D03*
X0226459Y0387002D03*
X0226459Y0387160D03*
X0226617Y0387475D03*
X0240633Y0387160D03*
X0266459Y0387002D03*
X0266459Y0386845D03*
X0266459Y0384955D03*
X0266459Y0384798D03*
X0266459Y0384640D03*
X0266617Y0384483D03*
X0266617Y0384325D03*
X0266774Y0384168D03*
X0271499Y0383853D03*
X0266959Y0367002D03*
X0266959Y0366845D03*
X0266959Y0364955D03*
X0266959Y0364798D03*
X0266959Y0364640D03*
X0267117Y0364483D03*
X0267117Y0364325D03*
X0267274Y0364168D03*
X0271999Y0363853D03*
X0275168Y0328947D03*
X0279892Y0328632D03*
X0280050Y0328475D03*
X0280050Y0328317D03*
X0280207Y0328160D03*
X0280207Y0328002D03*
X0280207Y0327845D03*
X0280207Y0325955D03*
X0280207Y0325798D03*
X0240207Y0325798D03*
X0240207Y0325955D03*
X0240207Y0325640D03*
X0240050Y0325325D03*
X0240207Y0327845D03*
X0240207Y0328002D03*
X0240207Y0328160D03*
X0240050Y0328317D03*
X0240050Y0328475D03*
X0239892Y0328632D03*
X0226034Y0325640D03*
X0200707Y0326113D03*
X0200235Y0325010D03*
X0200550Y0327845D03*
X0200550Y0328002D03*
X0200550Y0328160D03*
X0200392Y0328475D03*
X0200235Y0328632D03*
X0187007Y0328632D03*
X0186849Y0328475D03*
X0186692Y0328160D03*
X0186534Y0327687D03*
X0186534Y0327530D03*
X0186534Y0326428D03*
X0186534Y0326270D03*
X0186534Y0326113D03*
X0187007Y0325010D03*
X0160865Y0326428D03*
X0160865Y0326585D03*
X0160865Y0326743D03*
X0160865Y0326900D03*
X0160865Y0327057D03*
X0160865Y0327215D03*
X0160865Y0327372D03*
X0160707Y0327845D03*
X0160707Y0325955D03*
X0145904Y0325955D03*
X0145747Y0326270D03*
X0145747Y0326428D03*
X0145747Y0326585D03*
X0145747Y0326743D03*
X0145747Y0326900D03*
X0145747Y0327057D03*
X0145747Y0327215D03*
X0145747Y0327372D03*
X0145747Y0327530D03*
X0145904Y0327845D03*
X0145959Y0364955D03*
X0145802Y0365428D03*
X0145802Y0365585D03*
X0145802Y0365743D03*
X0145802Y0365900D03*
X0145802Y0366057D03*
X0145802Y0366215D03*
X0145802Y0366372D03*
X0145959Y0366845D03*
X0160762Y0366845D03*
X0160920Y0366530D03*
X0160920Y0366372D03*
X0160920Y0366215D03*
X0160920Y0366057D03*
X0160920Y0365900D03*
X0160920Y0365743D03*
X0160920Y0365585D03*
X0160920Y0365428D03*
X0160920Y0365270D03*
X0160762Y0364955D03*
X0160762Y0384955D03*
X0160920Y0385270D03*
X0160920Y0385428D03*
X0160920Y0385585D03*
X0160920Y0385743D03*
X0160920Y0385900D03*
X0160920Y0386057D03*
X0160920Y0386215D03*
X0160920Y0386372D03*
X0160920Y0386530D03*
X0160762Y0386845D03*
X0145959Y0386845D03*
X0145802Y0386372D03*
X0145802Y0386215D03*
X0145802Y0386057D03*
X0145802Y0385900D03*
X0145802Y0385743D03*
X0145802Y0385585D03*
X0145802Y0385428D03*
X0145959Y0384955D03*
D24*
X0149581Y0387002D03*
X0151156Y0384955D03*
X0151156Y0384168D03*
X0153833Y0385270D03*
X0153046Y0386687D03*
X0153046Y0386845D03*
X0155408Y0387947D03*
X0155408Y0367947D03*
X0153046Y0366845D03*
X0153046Y0366687D03*
X0153833Y0365270D03*
X0151156Y0364955D03*
X0151156Y0364168D03*
X0149581Y0367002D03*
X0189609Y0367002D03*
X0189609Y0364955D03*
X0191026Y0364168D03*
X0191499Y0365270D03*
X0193546Y0365743D03*
X0193546Y0365900D03*
X0195751Y0365113D03*
X0195751Y0364955D03*
X0196066Y0364168D03*
X0197483Y0364955D03*
X0197483Y0367002D03*
X0196066Y0384168D03*
X0195751Y0384955D03*
X0195751Y0385113D03*
X0197483Y0384955D03*
X0197483Y0387002D03*
X0193546Y0385900D03*
X0193546Y0385743D03*
X0191499Y0385270D03*
X0191026Y0384168D03*
X0189609Y0384955D03*
X0189609Y0387002D03*
X0231026Y0387632D03*
X0231026Y0385743D03*
X0231026Y0384798D03*
X0231026Y0384168D03*
X0235436Y0385743D03*
X0235436Y0385900D03*
X0230526Y0367632D03*
X0230526Y0365743D03*
X0230526Y0364798D03*
X0230526Y0364168D03*
X0234936Y0365743D03*
X0234936Y0365900D03*
X0271369Y0365743D03*
X0271841Y0367160D03*
X0271841Y0367317D03*
X0273888Y0367002D03*
X0275306Y0365113D03*
X0274806Y0385113D03*
X0273388Y0387002D03*
X0271341Y0387160D03*
X0271341Y0387317D03*
X0270869Y0385743D03*
X0271861Y0327687D03*
X0273278Y0325798D03*
X0275325Y0325640D03*
X0275325Y0325483D03*
X0275798Y0327057D03*
X0235640Y0327057D03*
X0235640Y0328002D03*
X0235640Y0328632D03*
X0235640Y0325168D03*
X0231231Y0326900D03*
X0231231Y0327057D03*
X0197558Y0327845D03*
X0196140Y0328632D03*
X0195668Y0327530D03*
X0193621Y0327057D03*
X0193621Y0326900D03*
X0191416Y0327687D03*
X0191416Y0327845D03*
X0191101Y0328632D03*
X0189684Y0327845D03*
X0189684Y0325798D03*
X0197558Y0325798D03*
X0157085Y0325798D03*
X0155510Y0327845D03*
X0155510Y0328632D03*
X0152833Y0327530D03*
X0153621Y0326113D03*
X0153621Y0325955D03*
X0151259Y0324853D03*
D25*
X0151180Y0325010D03*
X0149605Y0325798D03*
X0151180Y0328790D03*
X0152755Y0327372D03*
X0153699Y0326270D03*
X0155432Y0327215D03*
X0155432Y0328002D03*
X0155432Y0328160D03*
X0155432Y0328317D03*
X0155432Y0328475D03*
X0155432Y0325168D03*
X0191180Y0328475D03*
X0191337Y0328160D03*
X0191337Y0328002D03*
X0195747Y0327845D03*
X0195747Y0327687D03*
X0195904Y0328160D03*
X0196062Y0328475D03*
X0229577Y0326585D03*
X0231310Y0326585D03*
X0231310Y0326743D03*
X0231467Y0326270D03*
X0231782Y0325640D03*
X0231940Y0325483D03*
X0231940Y0325325D03*
X0233829Y0325798D03*
X0235562Y0325325D03*
X0235562Y0326900D03*
X0235562Y0328160D03*
X0235562Y0328317D03*
X0235562Y0328475D03*
X0237136Y0328002D03*
X0271782Y0327845D03*
X0271782Y0328632D03*
X0271782Y0325955D03*
X0275404Y0325955D03*
X0275404Y0325798D03*
X0277136Y0328002D03*
X0275385Y0364168D03*
X0275385Y0364955D03*
X0275385Y0366845D03*
X0271762Y0366845D03*
X0271762Y0367002D03*
X0270030Y0364798D03*
X0274885Y0384168D03*
X0274885Y0384955D03*
X0274885Y0386845D03*
X0271262Y0386845D03*
X0271262Y0387002D03*
X0269530Y0384798D03*
X0237089Y0386215D03*
X0235357Y0386215D03*
X0235357Y0386057D03*
X0235199Y0386530D03*
X0234885Y0387160D03*
X0234727Y0387317D03*
X0234727Y0387475D03*
X0232837Y0387002D03*
X0231105Y0387475D03*
X0231105Y0385900D03*
X0231105Y0384640D03*
X0231105Y0384483D03*
X0231105Y0384325D03*
X0229530Y0384798D03*
X0230605Y0367475D03*
X0230605Y0365900D03*
X0230605Y0364640D03*
X0230605Y0364483D03*
X0230605Y0364325D03*
X0229030Y0364798D03*
X0232337Y0367002D03*
X0234227Y0367317D03*
X0234227Y0367475D03*
X0234385Y0367160D03*
X0234699Y0366530D03*
X0234857Y0366215D03*
X0234857Y0366057D03*
X0236589Y0366215D03*
X0195987Y0364325D03*
X0195829Y0364640D03*
X0195829Y0364798D03*
X0191420Y0364955D03*
X0191420Y0365113D03*
X0191262Y0364640D03*
X0191105Y0364325D03*
X0191105Y0384325D03*
X0191262Y0384640D03*
X0191420Y0384955D03*
X0191420Y0385113D03*
X0195829Y0384798D03*
X0195829Y0384640D03*
X0195987Y0384325D03*
X0157062Y0387002D03*
X0155487Y0387790D03*
X0152967Y0386530D03*
X0153912Y0385428D03*
X0155487Y0384010D03*
X0151235Y0384325D03*
X0151235Y0384483D03*
X0151235Y0384640D03*
X0151235Y0384798D03*
X0151235Y0385585D03*
X0151235Y0387632D03*
X0151235Y0367632D03*
X0151235Y0365585D03*
X0151235Y0364798D03*
X0151235Y0364640D03*
X0151235Y0364483D03*
X0151235Y0364325D03*
X0152967Y0366530D03*
X0153912Y0365428D03*
X0155487Y0364010D03*
X0157062Y0367002D03*
X0155487Y0367790D03*
D26*
X0191971Y0367475D03*
X0195121Y0367475D03*
X0196066Y0365743D03*
X0196066Y0365585D03*
X0193546Y0364483D03*
X0193546Y0364325D03*
X0193546Y0384325D03*
X0193546Y0384483D03*
X0196066Y0385585D03*
X0196066Y0385743D03*
X0195121Y0387475D03*
X0191971Y0387475D03*
X0235436Y0384483D03*
X0237010Y0387632D03*
X0236510Y0367632D03*
X0234936Y0364483D03*
X0231231Y0328317D03*
X0229656Y0325168D03*
X0195196Y0325325D03*
X0192046Y0325325D03*
X0191101Y0327057D03*
X0191101Y0327215D03*
X0193621Y0328317D03*
X0193621Y0328475D03*
D27*
X0200471Y0328317D03*
X0200629Y0325955D03*
X0200629Y0325798D03*
X0200629Y0325640D03*
X0200471Y0325325D03*
X0200314Y0325168D03*
X0186928Y0325168D03*
X0186770Y0325325D03*
X0186613Y0325640D03*
X0186613Y0325798D03*
X0186613Y0325955D03*
X0186613Y0327845D03*
X0186613Y0328002D03*
X0186770Y0328317D03*
X0226113Y0325483D03*
X0231467Y0328790D03*
X0239971Y0325168D03*
X0240129Y0325483D03*
X0279971Y0325168D03*
X0280129Y0325325D03*
X0280129Y0325483D03*
X0280286Y0325640D03*
X0234699Y0364010D03*
X0240054Y0367317D03*
X0226196Y0367632D03*
X0226038Y0367317D03*
X0235199Y0384010D03*
X0240554Y0387317D03*
X0226696Y0387632D03*
X0226538Y0387317D03*
X0200554Y0387160D03*
X0200554Y0387002D03*
X0200554Y0386845D03*
X0200396Y0387475D03*
X0200239Y0387632D03*
X0200554Y0384955D03*
X0200554Y0384798D03*
X0200396Y0384483D03*
X0186853Y0387632D03*
X0186696Y0387475D03*
X0186538Y0387160D03*
X0186538Y0387002D03*
X0186538Y0386845D03*
X0186696Y0384483D03*
X0186853Y0367632D03*
X0186696Y0367475D03*
X0186538Y0367160D03*
X0186538Y0367002D03*
X0186538Y0366845D03*
X0186696Y0364483D03*
X0200396Y0364483D03*
X0200554Y0364798D03*
X0200554Y0364955D03*
X0200554Y0366845D03*
X0200554Y0367002D03*
X0200554Y0367160D03*
X0200396Y0367475D03*
X0200239Y0367632D03*
X0266881Y0367160D03*
X0267038Y0367317D03*
X0267038Y0367475D03*
X0267196Y0367632D03*
X0266381Y0387160D03*
X0266538Y0387317D03*
X0266538Y0387475D03*
X0266696Y0387632D03*
D28*
X0271184Y0386687D03*
X0271184Y0386530D03*
X0271184Y0386372D03*
X0271026Y0386057D03*
X0271026Y0385900D03*
X0274963Y0387002D03*
X0274963Y0387160D03*
X0274963Y0387632D03*
X0274963Y0384798D03*
X0274963Y0384325D03*
X0275463Y0367632D03*
X0275463Y0367160D03*
X0275463Y0367002D03*
X0275463Y0364798D03*
X0275463Y0364325D03*
X0271526Y0365900D03*
X0271526Y0366057D03*
X0271684Y0366372D03*
X0271684Y0366530D03*
X0271684Y0366687D03*
X0236510Y0366057D03*
X0234778Y0366372D03*
X0234621Y0366687D03*
X0234621Y0366845D03*
X0234463Y0367002D03*
X0230684Y0367002D03*
X0230684Y0366845D03*
X0230684Y0367160D03*
X0230684Y0367317D03*
X0230684Y0366530D03*
X0230684Y0366372D03*
X0230684Y0366215D03*
X0230684Y0366057D03*
X0231184Y0386057D03*
X0231184Y0386215D03*
X0231184Y0386372D03*
X0231184Y0386530D03*
X0231184Y0386845D03*
X0231184Y0387002D03*
X0231184Y0387160D03*
X0231184Y0387317D03*
X0234963Y0387002D03*
X0235121Y0386845D03*
X0235121Y0386687D03*
X0235278Y0386372D03*
X0237010Y0386057D03*
X0195908Y0384483D03*
X0193546Y0386057D03*
X0193546Y0386215D03*
X0191341Y0384798D03*
X0191184Y0384483D03*
X0193546Y0366215D03*
X0193546Y0366057D03*
X0191341Y0364798D03*
X0191184Y0364483D03*
X0195908Y0364483D03*
X0155408Y0364483D03*
X0155408Y0364640D03*
X0155408Y0364798D03*
X0155408Y0364955D03*
X0155408Y0365113D03*
X0155408Y0365270D03*
X0155408Y0365428D03*
X0155408Y0365585D03*
X0155408Y0365743D03*
X0155408Y0365900D03*
X0155408Y0366057D03*
X0155408Y0366215D03*
X0155408Y0366372D03*
X0155408Y0366530D03*
X0155408Y0366687D03*
X0155408Y0366845D03*
X0155408Y0367002D03*
X0155408Y0367160D03*
X0155408Y0367317D03*
X0155408Y0367475D03*
X0155408Y0367632D03*
X0153991Y0365743D03*
X0153991Y0365585D03*
X0152888Y0366372D03*
X0151314Y0366372D03*
X0151314Y0366215D03*
X0151314Y0366057D03*
X0151314Y0365900D03*
X0151314Y0365743D03*
X0151314Y0366530D03*
X0151314Y0366687D03*
X0151314Y0366845D03*
X0151314Y0367002D03*
X0151314Y0367160D03*
X0151314Y0367317D03*
X0151314Y0367475D03*
X0155408Y0364325D03*
X0155408Y0364168D03*
X0155408Y0384168D03*
X0155408Y0384325D03*
X0155408Y0384483D03*
X0155408Y0384640D03*
X0155408Y0384798D03*
X0155408Y0384955D03*
X0155408Y0385113D03*
X0155408Y0385270D03*
X0155408Y0385428D03*
X0155408Y0385585D03*
X0155408Y0385743D03*
X0155408Y0385900D03*
X0155408Y0386057D03*
X0155408Y0386215D03*
X0155408Y0386372D03*
X0155408Y0386530D03*
X0155408Y0386687D03*
X0155408Y0386845D03*
X0155408Y0387002D03*
X0155408Y0387160D03*
X0155408Y0387317D03*
X0155408Y0387475D03*
X0155408Y0387632D03*
X0153991Y0385743D03*
X0153991Y0385585D03*
X0152888Y0386372D03*
X0151314Y0386372D03*
X0151314Y0386215D03*
X0151314Y0386057D03*
X0151314Y0385900D03*
X0151314Y0385743D03*
X0151314Y0386530D03*
X0151314Y0386687D03*
X0151314Y0386845D03*
X0151314Y0387002D03*
X0151314Y0387160D03*
X0151314Y0387317D03*
X0151314Y0387475D03*
X0151259Y0328632D03*
X0151259Y0328475D03*
X0151259Y0328317D03*
X0151259Y0328160D03*
X0151259Y0328002D03*
X0151259Y0327845D03*
X0151259Y0327687D03*
X0151259Y0327530D03*
X0151259Y0327372D03*
X0151259Y0327215D03*
X0151259Y0327057D03*
X0151259Y0326900D03*
X0151259Y0326743D03*
X0151259Y0326585D03*
X0151259Y0326428D03*
X0151259Y0326270D03*
X0151259Y0326113D03*
X0151259Y0325955D03*
X0151259Y0325798D03*
X0151259Y0325640D03*
X0151259Y0325483D03*
X0151259Y0325325D03*
X0151259Y0325168D03*
X0152676Y0327057D03*
X0152676Y0327215D03*
X0153778Y0326428D03*
X0155353Y0326428D03*
X0155353Y0326585D03*
X0155353Y0326743D03*
X0155353Y0326900D03*
X0155353Y0327057D03*
X0155353Y0326270D03*
X0155353Y0326113D03*
X0155353Y0325955D03*
X0155353Y0325798D03*
X0155353Y0325640D03*
X0155353Y0325483D03*
X0155353Y0325325D03*
X0191259Y0328317D03*
X0193621Y0326743D03*
X0193621Y0326585D03*
X0195825Y0328002D03*
X0195983Y0328317D03*
X0229656Y0326743D03*
X0231388Y0326428D03*
X0231546Y0326113D03*
X0231546Y0325955D03*
X0231703Y0325798D03*
X0235483Y0325798D03*
X0235483Y0325955D03*
X0235483Y0325640D03*
X0235483Y0325483D03*
X0235483Y0326270D03*
X0235483Y0326428D03*
X0235483Y0326585D03*
X0235483Y0326743D03*
X0271703Y0325798D03*
X0271703Y0325640D03*
X0271703Y0325168D03*
X0271703Y0328002D03*
X0271703Y0328475D03*
X0275640Y0326900D03*
X0275640Y0326743D03*
X0275483Y0326428D03*
X0275483Y0326270D03*
X0275483Y0326113D03*
D29*
X0275247Y0325010D03*
X0276192Y0327372D03*
X0236192Y0327372D03*
X0229577Y0325325D03*
X0193542Y0328160D03*
X0191022Y0327372D03*
X0153227Y0328790D03*
X0153227Y0324853D03*
X0153440Y0364010D03*
X0153440Y0367947D03*
X0153440Y0384010D03*
X0153440Y0387947D03*
X0193625Y0384640D03*
X0196144Y0385428D03*
X0196144Y0365428D03*
X0193625Y0364640D03*
X0229975Y0365428D03*
X0236589Y0367475D03*
X0230475Y0385428D03*
X0237089Y0387475D03*
X0270475Y0385428D03*
X0271420Y0387790D03*
X0271920Y0367790D03*
X0270975Y0365428D03*
D30*
X0271605Y0366215D03*
X0275542Y0367317D03*
X0275542Y0367475D03*
X0275542Y0364640D03*
X0275542Y0364483D03*
X0275042Y0384483D03*
X0275042Y0384640D03*
X0275042Y0387317D03*
X0275042Y0387475D03*
X0271105Y0386215D03*
X0237089Y0385900D03*
X0237089Y0385743D03*
X0231262Y0386687D03*
X0230762Y0366687D03*
X0236589Y0365900D03*
X0236589Y0365743D03*
X0197562Y0364798D03*
X0189688Y0364798D03*
X0189688Y0384798D03*
X0197562Y0384798D03*
X0154070Y0385900D03*
X0152810Y0386057D03*
X0152810Y0386215D03*
X0152810Y0366215D03*
X0152810Y0366057D03*
X0154070Y0365900D03*
X0152597Y0326900D03*
X0153857Y0326743D03*
X0153857Y0326585D03*
X0189605Y0328002D03*
X0197479Y0328002D03*
X0229577Y0327057D03*
X0229577Y0326900D03*
X0235404Y0326113D03*
X0271625Y0325483D03*
X0271625Y0325325D03*
X0271625Y0328160D03*
X0271625Y0328317D03*
X0275562Y0326585D03*
D31*
X0275168Y0328632D03*
X0233436Y0327057D03*
X0233436Y0326900D03*
X0233436Y0326743D03*
X0232333Y0324853D03*
X0229656Y0325483D03*
X0231231Y0328160D03*
X0195196Y0325640D03*
X0195196Y0325483D03*
X0193621Y0328002D03*
X0192046Y0325640D03*
X0192046Y0325483D03*
X0153306Y0325010D03*
X0193546Y0364798D03*
X0195121Y0367160D03*
X0195121Y0367317D03*
X0191971Y0367317D03*
X0191971Y0367160D03*
X0193546Y0384798D03*
X0195121Y0387160D03*
X0195121Y0387317D03*
X0191971Y0387317D03*
X0191971Y0387160D03*
X0153361Y0387790D03*
X0153361Y0367790D03*
X0232731Y0366057D03*
X0232731Y0365900D03*
X0232731Y0365743D03*
X0233833Y0367947D03*
X0236510Y0367317D03*
X0234936Y0364640D03*
X0235436Y0384640D03*
X0233231Y0385743D03*
X0233231Y0385900D03*
X0233231Y0386057D03*
X0234333Y0387947D03*
X0237010Y0387317D03*
X0271499Y0384168D03*
X0271999Y0364168D03*
D32*
X0273967Y0365113D03*
X0271920Y0367632D03*
X0273467Y0385113D03*
X0271420Y0387632D03*
X0237089Y0387160D03*
X0235514Y0384955D03*
X0235514Y0384798D03*
X0233152Y0385428D03*
X0233152Y0385585D03*
X0233152Y0386215D03*
X0233152Y0386372D03*
X0233152Y0386530D03*
X0236589Y0367160D03*
X0235014Y0364955D03*
X0235014Y0364798D03*
X0232652Y0365428D03*
X0232652Y0365585D03*
X0232652Y0366215D03*
X0232652Y0366372D03*
X0232652Y0366530D03*
X0195357Y0366530D03*
X0195199Y0366845D03*
X0195199Y0367002D03*
X0193625Y0364955D03*
X0191420Y0365900D03*
X0191892Y0366845D03*
X0191892Y0367002D03*
X0193625Y0384955D03*
X0195357Y0386530D03*
X0195199Y0386845D03*
X0195199Y0387002D03*
X0191892Y0387002D03*
X0191892Y0386845D03*
X0191420Y0385900D03*
X0157534Y0385900D03*
X0157534Y0386057D03*
X0157534Y0386215D03*
X0157534Y0385743D03*
X0157534Y0385585D03*
X0153440Y0384168D03*
X0149345Y0386372D03*
X0149345Y0386530D03*
X0149345Y0366530D03*
X0149345Y0366372D03*
X0153440Y0364168D03*
X0157534Y0365585D03*
X0157534Y0365743D03*
X0157534Y0365900D03*
X0157534Y0366057D03*
X0157534Y0366215D03*
X0153227Y0328632D03*
X0149133Y0327215D03*
X0149133Y0327057D03*
X0149133Y0326900D03*
X0149133Y0326743D03*
X0149133Y0326585D03*
X0157322Y0326428D03*
X0157322Y0326270D03*
X0191810Y0326270D03*
X0191967Y0325955D03*
X0191967Y0325798D03*
X0193542Y0327845D03*
X0195747Y0326900D03*
X0195274Y0325955D03*
X0195274Y0325798D03*
X0229577Y0325640D03*
X0231152Y0327845D03*
X0231152Y0328002D03*
X0233514Y0327372D03*
X0233514Y0327215D03*
X0233514Y0326585D03*
X0233514Y0326428D03*
X0233514Y0326270D03*
X0273199Y0327687D03*
X0275247Y0325168D03*
D33*
X0273278Y0325955D03*
X0235798Y0324853D03*
X0233593Y0326113D03*
X0233593Y0327530D03*
X0195510Y0326585D03*
X0195353Y0326270D03*
X0195353Y0326113D03*
X0193621Y0327687D03*
X0191888Y0326113D03*
X0157243Y0326113D03*
X0153306Y0325168D03*
X0153148Y0328317D03*
X0153148Y0328475D03*
X0149211Y0327372D03*
X0149211Y0326428D03*
X0149211Y0326270D03*
X0153518Y0364325D03*
X0153518Y0364483D03*
X0153361Y0367632D03*
X0149424Y0366687D03*
X0157455Y0366530D03*
X0157455Y0366372D03*
X0157455Y0365428D03*
X0153518Y0384325D03*
X0153518Y0384483D03*
X0153361Y0387632D03*
X0149424Y0386687D03*
X0157455Y0386530D03*
X0157455Y0386372D03*
X0157455Y0385428D03*
X0191656Y0386215D03*
X0191814Y0386530D03*
X0191814Y0386687D03*
X0193546Y0385113D03*
X0195278Y0386687D03*
X0195278Y0366687D03*
X0193546Y0365113D03*
X0191656Y0366215D03*
X0191814Y0366530D03*
X0191814Y0366687D03*
X0230369Y0367947D03*
X0232573Y0366687D03*
X0232573Y0365270D03*
X0233073Y0385270D03*
X0233073Y0386687D03*
X0230869Y0387947D03*
X0273388Y0386845D03*
X0273888Y0366845D03*
D34*
X0275227Y0367947D03*
X0271920Y0364325D03*
X0269873Y0366687D03*
X0271420Y0384325D03*
X0269373Y0386687D03*
X0274727Y0387947D03*
X0235514Y0385270D03*
X0235514Y0385113D03*
X0232995Y0385113D03*
X0232995Y0386845D03*
X0230790Y0385585D03*
X0229373Y0386687D03*
X0228873Y0366687D03*
X0230290Y0365585D03*
X0232495Y0365113D03*
X0232495Y0366845D03*
X0235014Y0365270D03*
X0235014Y0365113D03*
X0197404Y0366530D03*
X0195829Y0365270D03*
X0193625Y0365270D03*
X0191735Y0366372D03*
X0191577Y0366057D03*
X0191420Y0365743D03*
X0189530Y0366530D03*
X0193625Y0385270D03*
X0191735Y0386372D03*
X0191577Y0386057D03*
X0191420Y0385743D03*
X0189530Y0386530D03*
X0195829Y0385270D03*
X0197404Y0386530D03*
X0157377Y0386687D03*
X0157377Y0385270D03*
X0153597Y0384640D03*
X0151077Y0384010D03*
X0149503Y0386845D03*
X0151077Y0387947D03*
X0153282Y0387475D03*
X0153282Y0387317D03*
X0151077Y0367947D03*
X0149503Y0366845D03*
X0151077Y0364010D03*
X0153597Y0364640D03*
X0153282Y0367317D03*
X0153282Y0367475D03*
X0157377Y0366687D03*
X0157377Y0365270D03*
X0155589Y0328790D03*
X0153070Y0328160D03*
X0153385Y0325483D03*
X0153385Y0325325D03*
X0155589Y0324853D03*
X0157164Y0325955D03*
X0149290Y0326113D03*
X0149290Y0327530D03*
X0189762Y0326270D03*
X0191337Y0327530D03*
X0193542Y0327530D03*
X0195432Y0326428D03*
X0195589Y0326743D03*
X0195747Y0327057D03*
X0197636Y0326270D03*
X0231152Y0327530D03*
X0231152Y0327687D03*
X0233672Y0327687D03*
X0233672Y0325955D03*
X0235877Y0327215D03*
X0237294Y0326113D03*
X0271940Y0324853D03*
X0275247Y0328475D03*
X0277294Y0326113D03*
D35*
X0239814Y0326585D03*
X0226900Y0328632D03*
X0226743Y0328317D03*
X0226585Y0328002D03*
X0226585Y0327845D03*
X0226428Y0327530D03*
X0226428Y0327372D03*
X0200156Y0327372D03*
X0200156Y0327215D03*
X0200156Y0327057D03*
X0200156Y0326900D03*
X0200156Y0326743D03*
X0200156Y0326585D03*
X0187010Y0365428D03*
X0187010Y0365585D03*
X0187010Y0365743D03*
X0187010Y0365900D03*
X0187010Y0366057D03*
X0187010Y0366215D03*
X0187010Y0385428D03*
X0187010Y0385585D03*
X0187010Y0385743D03*
X0187010Y0385900D03*
X0187010Y0386057D03*
X0187010Y0386215D03*
X0226853Y0386215D03*
X0239766Y0384168D03*
X0239924Y0384483D03*
X0240081Y0384798D03*
X0240081Y0384955D03*
X0240239Y0385270D03*
X0240239Y0385428D03*
X0239739Y0365428D03*
X0239739Y0365270D03*
X0239581Y0364955D03*
X0239581Y0364798D03*
X0239424Y0364483D03*
X0239266Y0364168D03*
X0226353Y0366215D03*
D36*
X0229030Y0367002D03*
X0230448Y0367790D03*
X0230448Y0364955D03*
X0229030Y0364955D03*
X0232337Y0364955D03*
X0235014Y0365428D03*
X0235014Y0365585D03*
X0234070Y0367632D03*
X0232837Y0384955D03*
X0230948Y0384955D03*
X0229530Y0384955D03*
X0229530Y0387002D03*
X0230948Y0387790D03*
X0234570Y0387632D03*
X0235514Y0385585D03*
X0235514Y0385428D03*
X0269530Y0384955D03*
X0271105Y0384798D03*
X0269530Y0387002D03*
X0274885Y0387790D03*
X0275385Y0367790D03*
X0271605Y0364798D03*
X0270030Y0364955D03*
X0270030Y0367002D03*
X0275562Y0328002D03*
X0277136Y0327845D03*
X0277136Y0325798D03*
X0271782Y0325010D03*
X0237136Y0325798D03*
X0235719Y0325010D03*
X0235719Y0327845D03*
X0237136Y0327845D03*
X0233829Y0327845D03*
X0231152Y0327372D03*
X0231152Y0327215D03*
X0232097Y0325168D03*
X0195747Y0327372D03*
X0157794Y0327057D03*
X0157794Y0326900D03*
X0157794Y0326743D03*
X0157794Y0326585D03*
X0155432Y0325010D03*
X0153542Y0325798D03*
X0152912Y0327687D03*
X0152912Y0327845D03*
X0149448Y0327845D03*
X0153755Y0364955D03*
X0153755Y0365113D03*
X0153125Y0367002D03*
X0151235Y0367790D03*
X0148873Y0366215D03*
X0148873Y0366057D03*
X0148873Y0365900D03*
X0148873Y0365743D03*
X0157219Y0364955D03*
X0157219Y0384955D03*
X0153755Y0384955D03*
X0153755Y0385113D03*
X0153125Y0387002D03*
X0151235Y0387790D03*
X0148873Y0386215D03*
X0148873Y0386057D03*
X0148873Y0385900D03*
X0148873Y0385743D03*
X0191420Y0385428D03*
X0191420Y0365428D03*
D37*
X0200475Y0365743D03*
X0200475Y0385743D03*
X0226459Y0385743D03*
X0226459Y0385585D03*
X0226459Y0386687D03*
X0227089Y0387947D03*
X0226932Y0384010D03*
X0226589Y0367947D03*
X0225959Y0366687D03*
X0225959Y0365743D03*
X0225959Y0365585D03*
X0226432Y0364010D03*
X0266959Y0365743D03*
X0266959Y0366687D03*
X0266459Y0385743D03*
X0266459Y0386687D03*
X0280207Y0327057D03*
X0280207Y0326113D03*
X0240207Y0326113D03*
X0240207Y0327057D03*
X0240207Y0327215D03*
X0239735Y0328790D03*
X0239577Y0324853D03*
X0186692Y0327057D03*
X0160550Y0328160D03*
X0160392Y0325325D03*
X0160235Y0325168D03*
X0146377Y0325168D03*
X0146219Y0325325D03*
X0146062Y0328160D03*
X0146219Y0328317D03*
X0146117Y0364640D03*
X0146274Y0367475D03*
X0146432Y0367632D03*
X0160290Y0367632D03*
X0160448Y0367475D03*
X0160605Y0364640D03*
X0160448Y0364483D03*
X0160448Y0384483D03*
X0160605Y0384640D03*
X0160448Y0387475D03*
X0160290Y0387632D03*
X0146432Y0387632D03*
X0146274Y0387475D03*
X0146117Y0384640D03*
D38*
X0191892Y0387632D03*
X0195199Y0387632D03*
X0195987Y0386057D03*
X0195987Y0385900D03*
X0195199Y0367632D03*
X0195987Y0366057D03*
X0195987Y0365900D03*
X0191892Y0367632D03*
X0229818Y0365270D03*
X0234857Y0364325D03*
X0236589Y0367790D03*
X0235357Y0384325D03*
X0237089Y0387790D03*
X0230318Y0385270D03*
X0270318Y0385270D03*
X0270818Y0365270D03*
X0276349Y0327530D03*
X0236349Y0327530D03*
X0231310Y0328475D03*
X0229577Y0325010D03*
X0195274Y0325168D03*
X0191967Y0325168D03*
X0191180Y0326743D03*
X0191180Y0326900D03*
D39*
X0199841Y0326428D03*
X0187325Y0366372D03*
X0187325Y0386372D03*
X0267845Y0328160D03*
X0267845Y0328002D03*
X0267845Y0327845D03*
X0267845Y0325955D03*
X0267845Y0325798D03*
X0267845Y0325640D03*
X0279322Y0364640D03*
X0279322Y0364798D03*
X0279322Y0364955D03*
X0279322Y0366845D03*
X0279322Y0367002D03*
X0279322Y0367160D03*
X0278822Y0384640D03*
X0278822Y0384798D03*
X0278822Y0384955D03*
X0278822Y0386845D03*
X0278822Y0387002D03*
X0278822Y0387160D03*
D40*
X0193546Y0386530D03*
X0193546Y0386372D03*
X0193546Y0366530D03*
X0193546Y0366372D03*
X0154148Y0366057D03*
X0152731Y0365900D03*
X0152731Y0385900D03*
X0154148Y0386057D03*
X0153936Y0326900D03*
X0152518Y0326743D03*
X0193621Y0326428D03*
X0193621Y0326270D03*
D41*
X0195353Y0324853D03*
X0191888Y0324853D03*
X0190944Y0326428D03*
X0186692Y0325483D03*
X0200550Y0325483D03*
X0226034Y0325325D03*
X0226349Y0324853D03*
X0266979Y0325325D03*
X0266979Y0325483D03*
X0280188Y0367317D03*
X0280188Y0367475D03*
X0279688Y0387317D03*
X0279688Y0387475D03*
X0240633Y0387475D03*
X0240318Y0387947D03*
X0239818Y0367947D03*
X0240133Y0367475D03*
X0200475Y0367317D03*
X0196223Y0366372D03*
X0195278Y0367947D03*
X0191814Y0367947D03*
X0186617Y0367317D03*
X0186617Y0387317D03*
X0191814Y0387947D03*
X0195278Y0387947D03*
X0196223Y0386372D03*
X0200475Y0387317D03*
X0150054Y0385428D03*
X0150054Y0385270D03*
X0150054Y0365428D03*
X0150054Y0365270D03*
X0156613Y0327530D03*
X0156613Y0327372D03*
D42*
X0191967Y0325010D03*
X0195274Y0325010D03*
X0195199Y0367790D03*
X0191892Y0367790D03*
X0191892Y0387790D03*
X0195199Y0387790D03*
X0271420Y0387947D03*
X0271920Y0367947D03*
X0275247Y0324853D03*
D43*
X0273593Y0324380D03*
X0273593Y0329420D03*
X0233121Y0329735D03*
X0233121Y0324065D03*
X0233046Y0363065D03*
X0233046Y0368735D03*
X0233546Y0383065D03*
X0233546Y0388735D03*
X0273073Y0388420D03*
X0273073Y0383380D03*
X0273573Y0368420D03*
X0273573Y0363380D03*
X0153361Y0362908D03*
X0153361Y0368892D03*
X0153361Y0382908D03*
X0153361Y0388892D03*
X0153306Y0329892D03*
X0153306Y0323908D03*
D44*
X0153306Y0324380D03*
X0153306Y0329420D03*
X0153361Y0363380D03*
X0153361Y0368420D03*
X0153361Y0383380D03*
X0153361Y0388420D03*
X0233546Y0388105D03*
X0233546Y0383695D03*
X0233046Y0368105D03*
X0233046Y0363695D03*
X0233121Y0329105D03*
X0233121Y0324695D03*
D45*
X0153306Y0324538D03*
X0153306Y0329262D03*
X0153361Y0363538D03*
X0153361Y0368262D03*
X0153361Y0383538D03*
X0153361Y0388262D03*
D46*
X0153361Y0388105D03*
X0153361Y0383695D03*
X0153361Y0368105D03*
X0153361Y0363695D03*
X0153306Y0329105D03*
X0153306Y0324695D03*
D47*
X0146849Y0324853D03*
X0159762Y0328947D03*
X0146904Y0363853D03*
X0159818Y0367947D03*
X0146904Y0383853D03*
X0159818Y0387947D03*
X0226349Y0327215D03*
X0226349Y0327057D03*
X0239818Y0365585D03*
X0239818Y0365743D03*
X0240318Y0385585D03*
X0240318Y0385743D03*
X0266774Y0386215D03*
X0267274Y0366215D03*
X0279892Y0326585D03*
D48*
X0230837Y0328947D03*
X0235329Y0363853D03*
X0235829Y0383853D03*
X0155959Y0383853D03*
X0155959Y0363853D03*
X0150707Y0328947D03*
D49*
X0146613Y0328790D03*
X0159999Y0328790D03*
X0159841Y0324853D03*
X0160054Y0364010D03*
X0146668Y0364010D03*
X0146825Y0367947D03*
X0146668Y0384010D03*
X0146825Y0387947D03*
X0160054Y0384010D03*
X0226270Y0326900D03*
X0226270Y0326743D03*
X0239896Y0365900D03*
X0239896Y0366057D03*
X0240396Y0385900D03*
X0240396Y0386057D03*
D50*
X0240554Y0387632D03*
X0240554Y0387790D03*
X0240054Y0367790D03*
X0240054Y0367632D03*
X0274282Y0366530D03*
X0274282Y0366372D03*
X0274282Y0366215D03*
X0274282Y0366057D03*
X0274282Y0365900D03*
X0274282Y0365743D03*
X0274282Y0365585D03*
X0274282Y0365428D03*
X0279951Y0367947D03*
X0280109Y0367790D03*
X0280109Y0367632D03*
X0273782Y0385428D03*
X0273782Y0385585D03*
X0273782Y0385743D03*
X0273782Y0385900D03*
X0273782Y0386057D03*
X0273782Y0386215D03*
X0273782Y0386372D03*
X0273782Y0386530D03*
X0279451Y0387947D03*
X0279609Y0387790D03*
X0279609Y0387632D03*
X0272885Y0327372D03*
X0272885Y0327215D03*
X0272885Y0327057D03*
X0272885Y0326900D03*
X0272885Y0326743D03*
X0272885Y0326585D03*
X0272885Y0326428D03*
X0272885Y0326270D03*
X0267215Y0324853D03*
X0267058Y0325010D03*
X0267058Y0325168D03*
X0226113Y0325168D03*
X0226113Y0325010D03*
X0156534Y0327687D03*
X0150133Y0365113D03*
X0150133Y0385113D03*
D51*
X0146589Y0387790D03*
X0160133Y0387790D03*
X0160133Y0367790D03*
X0146589Y0367790D03*
X0146534Y0325010D03*
X0160077Y0325010D03*
X0226192Y0326428D03*
X0226192Y0326585D03*
X0240050Y0326743D03*
X0280050Y0326743D03*
X0267117Y0366057D03*
X0266617Y0386057D03*
X0240475Y0386215D03*
X0240475Y0386372D03*
X0226617Y0386057D03*
X0226117Y0366057D03*
X0239975Y0366215D03*
X0239975Y0366372D03*
D52*
X0273573Y0369050D03*
X0273573Y0362750D03*
X0273073Y0382750D03*
X0273073Y0389050D03*
X0273593Y0330050D03*
X0273593Y0323750D03*
D53*
X0273593Y0323908D03*
X0273593Y0329892D03*
X0233121Y0330050D03*
X0233121Y0323750D03*
X0233046Y0362750D03*
X0233046Y0369050D03*
X0233546Y0382750D03*
X0233546Y0389050D03*
X0273073Y0388892D03*
X0273073Y0382908D03*
X0273573Y0368892D03*
X0273573Y0362908D03*
D54*
X0279085Y0364010D03*
X0279085Y0364168D03*
X0279243Y0364325D03*
X0279243Y0364483D03*
X0267589Y0366372D03*
X0278585Y0384010D03*
X0278585Y0384168D03*
X0278743Y0384325D03*
X0278743Y0384483D03*
X0267089Y0386372D03*
X0227089Y0386372D03*
X0226589Y0366372D03*
X0268081Y0328790D03*
X0268081Y0328632D03*
X0267924Y0328475D03*
X0267924Y0328317D03*
X0279577Y0326428D03*
X0239577Y0326428D03*
D55*
X0267766Y0326428D03*
X0267766Y0326585D03*
X0267766Y0326743D03*
X0267766Y0326900D03*
X0267766Y0327057D03*
X0267766Y0327215D03*
X0267766Y0327372D03*
X0267766Y0327530D03*
X0267766Y0327687D03*
X0267766Y0326270D03*
X0267766Y0326113D03*
X0279420Y0326270D03*
X0279400Y0365113D03*
X0279400Y0365270D03*
X0279400Y0365428D03*
X0279400Y0365585D03*
X0279400Y0365743D03*
X0279400Y0365900D03*
X0279400Y0366057D03*
X0279400Y0366215D03*
X0279400Y0366372D03*
X0279400Y0366530D03*
X0279400Y0366687D03*
X0267747Y0366530D03*
X0278900Y0385113D03*
X0278900Y0385270D03*
X0278900Y0385428D03*
X0278900Y0385585D03*
X0278900Y0385743D03*
X0278900Y0385900D03*
X0278900Y0386057D03*
X0278900Y0386215D03*
X0278900Y0386372D03*
X0278900Y0386530D03*
X0278900Y0386687D03*
X0267247Y0386530D03*
D56*
X0273861Y0386687D03*
X0273861Y0385270D03*
X0274361Y0366687D03*
X0274361Y0365270D03*
X0234778Y0364168D03*
X0235278Y0384168D03*
X0231388Y0328632D03*
X0272806Y0327530D03*
X0272806Y0326113D03*
D57*
X0233121Y0323908D03*
X0233121Y0329892D03*
X0233046Y0362908D03*
X0233046Y0368892D03*
X0233546Y0382908D03*
X0233546Y0388892D03*
D58*
X0240160Y0385113D03*
X0240003Y0384640D03*
X0239845Y0384325D03*
X0239688Y0384010D03*
X0239660Y0365113D03*
X0239503Y0364640D03*
X0239345Y0364325D03*
X0239188Y0364010D03*
X0226979Y0328790D03*
X0226822Y0328475D03*
X0226664Y0328160D03*
X0226507Y0327687D03*
D59*
X0239341Y0326270D03*
X0226825Y0366530D03*
X0227325Y0386530D03*
D60*
X0207503Y0369203D02*
X0207699Y0368928D01*
X0207818Y0368573D01*
X0207818Y0368258D01*
X0207739Y0367904D01*
X0207542Y0367550D01*
X0207266Y0367235D01*
X0206951Y0366880D01*
X0206676Y0366565D01*
X0206558Y0366290D01*
X0206558Y0366014D01*
X0206636Y0365778D01*
X0206794Y0365581D01*
X0207030Y0365424D01*
X0207345Y0365345D01*
X0207660Y0365345D01*
X0207857Y0365384D01*
X0208054Y0365463D01*
X0208172Y0365542D01*
X0208290Y0365660D01*
X0208369Y0365817D01*
X0208408Y0365935D01*
X0208408Y0366054D01*
X0208369Y0366172D01*
X0208290Y0366290D01*
X0208133Y0366447D01*
X0208014Y0366487D01*
X0207857Y0366565D01*
X0207818Y0366605D01*
X0207896Y0366644D01*
X0207975Y0366644D01*
X0208133Y0366683D01*
X0208448Y0366683D01*
X0208684Y0366644D01*
X0209077Y0366487D01*
X0209235Y0366369D01*
X0209432Y0366250D01*
X0209550Y0366054D01*
X0209668Y0365817D01*
X0209747Y0365581D01*
X0209825Y0364872D01*
X0209825Y0359833D01*
X0209786Y0359833D01*
X0209707Y0359951D01*
X0209589Y0360069D01*
X0209471Y0360227D01*
X0209274Y0360424D01*
X0209077Y0360660D01*
X0208841Y0360896D01*
X0208644Y0361172D01*
X0208133Y0361683D01*
X0207936Y0361920D01*
X0207542Y0362235D01*
X0207345Y0362353D01*
X0207109Y0362392D01*
X0206361Y0362392D01*
X0205888Y0362471D01*
X0205455Y0362589D01*
X0205062Y0362746D01*
X0204668Y0362983D01*
X0204353Y0363258D01*
X0204038Y0363573D01*
X0203762Y0363928D01*
X0203369Y0364636D01*
X0203172Y0365345D01*
X0203133Y0366054D01*
X0203251Y0366683D01*
X0203448Y0367235D01*
X0203723Y0367707D01*
X0204038Y0368061D01*
X0204353Y0368219D01*
X0204353Y0367904D01*
X0204432Y0367668D01*
X0204550Y0367589D01*
X0204668Y0367550D01*
X0204944Y0367550D01*
X0205259Y0367707D01*
X0205377Y0367786D01*
X0205534Y0367904D01*
X0205652Y0367983D01*
X0205770Y0368101D01*
X0205849Y0368258D01*
X0205928Y0368376D01*
X0205967Y0368534D01*
X0206007Y0368652D01*
X0205967Y0368770D01*
X0205928Y0368849D01*
X0205888Y0368967D01*
X0205810Y0369085D01*
X0205652Y0369203D01*
X0205495Y0369282D01*
X0205298Y0369321D01*
X0205140Y0369361D01*
X0205022Y0369361D01*
X0204904Y0369321D01*
X0204786Y0369321D01*
X0204825Y0369361D01*
X0204983Y0369479D01*
X0205219Y0369597D01*
X0205534Y0369715D01*
X0205888Y0369833D01*
X0206282Y0369833D01*
X0206715Y0369754D01*
X0207148Y0369518D01*
X0207503Y0369203D01*
X0207465Y0369237D02*
X0205585Y0369237D01*
X0205898Y0368938D02*
X0207692Y0368938D01*
X0207795Y0368640D02*
X0206002Y0368640D01*
X0205904Y0368341D02*
X0207818Y0368341D01*
X0207770Y0368043D02*
X0205712Y0368043D01*
X0205314Y0367744D02*
X0207650Y0367744D01*
X0207451Y0367446D02*
X0203571Y0367446D01*
X0203416Y0367147D02*
X0207189Y0367147D01*
X0206924Y0366849D02*
X0203310Y0366849D01*
X0203226Y0366550D02*
X0206669Y0366550D01*
X0206558Y0366252D02*
X0203170Y0366252D01*
X0203138Y0365953D02*
X0206578Y0365953D01*
X0206735Y0365655D02*
X0203155Y0365655D01*
X0203171Y0365356D02*
X0207300Y0365356D01*
X0207716Y0365356D02*
X0209772Y0365356D01*
X0209805Y0365058D02*
X0203252Y0365058D01*
X0203335Y0364759D02*
X0209825Y0364759D01*
X0209825Y0364461D02*
X0203466Y0364461D01*
X0203632Y0364162D02*
X0209825Y0364162D01*
X0209825Y0363864D02*
X0203812Y0363864D01*
X0204046Y0363565D02*
X0209825Y0363565D01*
X0209825Y0363267D02*
X0204345Y0363267D01*
X0204692Y0362968D02*
X0209825Y0362968D01*
X0209825Y0362670D02*
X0205254Y0362670D01*
X0205101Y0360778D02*
X0203959Y0360778D01*
X0203881Y0360739D01*
X0203881Y0359636D01*
X0204550Y0359636D01*
X0204707Y0359597D01*
X0204865Y0359518D01*
X0204944Y0359400D01*
X0204983Y0359321D01*
X0204983Y0359164D01*
X0205022Y0359006D01*
X0205022Y0358691D01*
X0203959Y0358691D01*
X0203959Y0357668D01*
X0205022Y0357668D01*
X0205022Y0353101D01*
X0206518Y0353101D01*
X0206518Y0357668D01*
X0208054Y0357668D01*
X0207896Y0357786D01*
X0207266Y0358416D01*
X0207109Y0358534D01*
X0206991Y0358691D01*
X0206518Y0358691D01*
X0206518Y0359479D01*
X0206400Y0359794D01*
X0206282Y0360069D01*
X0206085Y0360306D01*
X0205810Y0360502D01*
X0205495Y0360660D01*
X0205101Y0360778D01*
X0205655Y0360580D02*
X0203881Y0360580D01*
X0203881Y0360281D02*
X0206105Y0360281D01*
X0206319Y0359983D02*
X0203881Y0359983D01*
X0203881Y0359684D02*
X0206441Y0359684D01*
X0206518Y0359386D02*
X0204951Y0359386D01*
X0205002Y0359087D02*
X0206518Y0359087D01*
X0206518Y0358789D02*
X0205022Y0358789D01*
X0203959Y0358490D02*
X0207167Y0358490D01*
X0207490Y0358192D02*
X0203959Y0358192D01*
X0203959Y0357893D02*
X0207789Y0357893D01*
X0208209Y0358192D02*
X0209990Y0358192D01*
X0209704Y0358490D02*
X0207904Y0358490D01*
X0207699Y0358691D02*
X0209786Y0356644D01*
X0207463Y0353101D01*
X0209314Y0353101D01*
X0210849Y0355581D01*
X0211440Y0355030D01*
X0211440Y0353101D01*
X0212975Y0353101D01*
X0212975Y0359951D01*
X0211440Y0360778D01*
X0211440Y0356683D01*
X0209510Y0358691D01*
X0207699Y0358691D01*
X0208513Y0357893D02*
X0210277Y0357893D01*
X0210564Y0357595D02*
X0208817Y0357595D01*
X0209121Y0357296D02*
X0210851Y0357296D01*
X0211138Y0356998D02*
X0209426Y0356998D01*
X0209730Y0356699D02*
X0211424Y0356699D01*
X0211440Y0356699D02*
X0212975Y0356699D01*
X0212975Y0356401D02*
X0209627Y0356401D01*
X0209431Y0356102D02*
X0212975Y0356102D01*
X0212975Y0355804D02*
X0209235Y0355804D01*
X0209040Y0355505D02*
X0210802Y0355505D01*
X0210930Y0355505D02*
X0212975Y0355505D01*
X0212975Y0355207D02*
X0211250Y0355207D01*
X0211440Y0354908D02*
X0212975Y0354908D01*
X0212975Y0354610D02*
X0211440Y0354610D01*
X0211440Y0354311D02*
X0212975Y0354311D01*
X0212975Y0354013D02*
X0211440Y0354013D01*
X0211440Y0353714D02*
X0212975Y0353714D01*
X0212975Y0353416D02*
X0211440Y0353416D01*
X0211440Y0353117D02*
X0212975Y0353117D01*
X0215613Y0353117D02*
X0217148Y0353117D01*
X0217148Y0353101D02*
X0217148Y0358416D01*
X0216951Y0358455D01*
X0216794Y0358494D01*
X0216597Y0358494D01*
X0216400Y0358534D01*
X0216243Y0358573D01*
X0215849Y0358652D01*
X0215692Y0358691D01*
X0215692Y0357628D01*
X0215534Y0357904D01*
X0215377Y0358101D01*
X0215180Y0358337D01*
X0214983Y0358494D01*
X0214707Y0358652D01*
X0214471Y0358731D01*
X0214196Y0358809D01*
X0213644Y0358809D01*
X0213605Y0358770D01*
X0213566Y0358770D01*
X0213566Y0357353D01*
X0213605Y0357353D01*
X0213684Y0357392D01*
X0214117Y0357392D01*
X0214510Y0357353D01*
X0214825Y0357274D01*
X0215101Y0357117D01*
X0215298Y0356880D01*
X0215455Y0356605D01*
X0215534Y0356329D01*
X0215613Y0355975D01*
X0215613Y0353101D01*
X0217148Y0353101D01*
X0217148Y0353416D02*
X0215613Y0353416D01*
X0215613Y0353714D02*
X0217148Y0353714D01*
X0217148Y0354013D02*
X0215613Y0354013D01*
X0215613Y0354311D02*
X0217148Y0354311D01*
X0217148Y0354610D02*
X0215613Y0354610D01*
X0215613Y0354908D02*
X0217148Y0354908D01*
X0217148Y0355207D02*
X0215613Y0355207D01*
X0215613Y0355505D02*
X0217148Y0355505D01*
X0217148Y0355804D02*
X0215613Y0355804D01*
X0215585Y0356102D02*
X0217148Y0356102D01*
X0217148Y0356401D02*
X0215514Y0356401D01*
X0215401Y0356699D02*
X0217148Y0356699D01*
X0217148Y0356998D02*
X0215200Y0356998D01*
X0214736Y0357296D02*
X0217148Y0357296D01*
X0217148Y0357595D02*
X0213566Y0357595D01*
X0213566Y0357893D02*
X0215540Y0357893D01*
X0215692Y0357893D02*
X0217148Y0357893D01*
X0217148Y0358192D02*
X0215692Y0358192D01*
X0215692Y0358490D02*
X0216810Y0358490D01*
X0218133Y0357865D02*
X0218054Y0357668D01*
X0218014Y0357471D01*
X0218014Y0354046D01*
X0217975Y0353967D01*
X0217975Y0353613D01*
X0217936Y0353534D01*
X0217936Y0353455D01*
X0217896Y0353376D01*
X0217896Y0353258D01*
X0217857Y0353180D01*
X0217818Y0353140D01*
X0217818Y0353101D01*
X0219353Y0353101D01*
X0219353Y0353140D01*
X0219392Y0353180D01*
X0219392Y0353219D01*
X0219432Y0353258D01*
X0219432Y0353376D01*
X0219471Y0353416D01*
X0219471Y0353652D01*
X0219550Y0353534D01*
X0219668Y0353455D01*
X0219747Y0353376D01*
X0219865Y0353298D01*
X0219983Y0353258D01*
X0220101Y0353180D01*
X0220573Y0353022D01*
X0220692Y0353022D01*
X0220810Y0352983D01*
X0220967Y0352983D01*
X0221085Y0352943D01*
X0221518Y0352943D01*
X0221715Y0352983D01*
X0221912Y0352983D01*
X0222070Y0353022D01*
X0222266Y0353101D01*
X0222424Y0353180D01*
X0222542Y0353258D01*
X0222699Y0353337D01*
X0222818Y0353455D01*
X0222896Y0353573D01*
X0223014Y0353731D01*
X0223093Y0353849D01*
X0223133Y0354046D01*
X0223211Y0354203D01*
X0223211Y0354400D01*
X0223251Y0354597D01*
X0223172Y0355030D01*
X0223054Y0355384D01*
X0222896Y0355660D01*
X0222621Y0355896D01*
X0222345Y0356054D01*
X0222030Y0356172D01*
X0221715Y0356250D01*
X0221361Y0356290D01*
X0221046Y0355463D01*
X0221164Y0355424D01*
X0221243Y0355384D01*
X0221282Y0355345D01*
X0221440Y0355266D01*
X0221479Y0355227D01*
X0221558Y0355187D01*
X0221676Y0354951D01*
X0221676Y0354872D01*
X0221715Y0354794D01*
X0221715Y0354597D01*
X0221676Y0354479D01*
X0221676Y0354400D01*
X0221636Y0354321D01*
X0221597Y0354282D01*
X0221558Y0354203D01*
X0221479Y0354164D01*
X0221440Y0354124D01*
X0221282Y0354046D01*
X0221203Y0354046D01*
X0221125Y0354006D01*
X0221046Y0354006D01*
X0220967Y0353967D01*
X0220770Y0353967D01*
X0220573Y0354006D01*
X0220377Y0354006D01*
X0220219Y0354085D01*
X0220062Y0354124D01*
X0219944Y0354203D01*
X0219865Y0354282D01*
X0219786Y0354400D01*
X0219707Y0354479D01*
X0219629Y0354715D01*
X0219589Y0354794D01*
X0219550Y0354912D01*
X0219550Y0355817D01*
X0219629Y0355739D01*
X0219707Y0355739D01*
X0219865Y0355660D01*
X0219944Y0355660D01*
X0220022Y0355620D01*
X0220180Y0355620D01*
X0220377Y0356408D01*
X0220101Y0356487D01*
X0219865Y0356565D01*
X0219668Y0356683D01*
X0219550Y0356841D01*
X0219550Y0357274D01*
X0219668Y0357510D01*
X0219707Y0357550D01*
X0219747Y0357628D01*
X0219983Y0357746D01*
X0220062Y0357746D01*
X0220140Y0357786D01*
X0220849Y0357786D01*
X0221243Y0357589D01*
X0221400Y0357431D01*
X0221440Y0357353D01*
X0221479Y0357235D01*
X0221518Y0357156D01*
X0221518Y0356959D01*
X0223054Y0356959D01*
X0222975Y0357431D01*
X0222896Y0357668D01*
X0222778Y0357825D01*
X0222660Y0358022D01*
X0222542Y0358180D01*
X0222385Y0358298D01*
X0221991Y0358534D01*
X0221794Y0358613D01*
X0221597Y0358652D01*
X0221361Y0358731D01*
X0221125Y0358770D01*
X0220928Y0358809D01*
X0220022Y0358809D01*
X0219825Y0358770D01*
X0219589Y0358770D01*
X0219392Y0358731D01*
X0219196Y0358652D01*
X0218999Y0358613D01*
X0218802Y0358534D01*
X0218329Y0358180D01*
X0218211Y0358022D01*
X0218133Y0357865D01*
X0218147Y0357893D02*
X0222737Y0357893D01*
X0222921Y0357595D02*
X0221231Y0357595D01*
X0221458Y0357296D02*
X0222998Y0357296D01*
X0223047Y0356998D02*
X0221518Y0356998D01*
X0221361Y0356290D02*
X0221046Y0355463D01*
X0220967Y0355463D01*
X0220888Y0355502D01*
X0220731Y0355502D01*
X0220613Y0355542D01*
X0220455Y0355542D01*
X0220337Y0355581D01*
X0220259Y0355581D01*
X0220180Y0355620D01*
X0220377Y0356408D01*
X0220652Y0356369D01*
X0221361Y0356290D01*
X0221289Y0356102D02*
X0222215Y0356102D01*
X0222728Y0355804D02*
X0221176Y0355804D01*
X0220226Y0355804D01*
X0219563Y0355804D01*
X0219550Y0355804D02*
X0218014Y0355804D01*
X0218014Y0356102D02*
X0220300Y0356102D01*
X0221289Y0356102D01*
X0221062Y0355505D02*
X0222985Y0355505D01*
X0223113Y0355207D02*
X0221519Y0355207D01*
X0221676Y0354908D02*
X0223194Y0354908D01*
X0223248Y0354610D02*
X0221715Y0354610D01*
X0221626Y0354311D02*
X0223211Y0354311D01*
X0223126Y0354013D02*
X0221137Y0354013D01*
X0220364Y0354013D02*
X0217998Y0354013D01*
X0218014Y0354311D02*
X0219845Y0354311D01*
X0219664Y0354610D02*
X0218014Y0354610D01*
X0218014Y0354908D02*
X0219551Y0354908D01*
X0219550Y0355207D02*
X0218014Y0355207D01*
X0218014Y0355505D02*
X0219550Y0355505D01*
X0220722Y0355505D02*
X0221062Y0355505D01*
X0220426Y0356401D02*
X0220375Y0356401D01*
X0218014Y0356401D01*
X0218014Y0356699D02*
X0219656Y0356699D01*
X0219550Y0356998D02*
X0218014Y0356998D01*
X0218014Y0357296D02*
X0219561Y0357296D01*
X0219730Y0357595D02*
X0218039Y0357595D01*
X0218346Y0358192D02*
X0222526Y0358192D01*
X0222063Y0358490D02*
X0218744Y0358490D01*
X0219919Y0358789D02*
X0221031Y0358789D01*
X0223999Y0357471D02*
X0223841Y0356959D01*
X0223723Y0356408D01*
X0223684Y0355817D01*
X0225219Y0355857D01*
X0225219Y0356211D01*
X0225259Y0356526D01*
X0225377Y0356841D01*
X0225495Y0357117D01*
X0225692Y0357353D01*
X0225928Y0357510D01*
X0226203Y0357628D01*
X0226558Y0357668D01*
X0226873Y0357628D01*
X0227188Y0357510D01*
X0227385Y0357353D01*
X0227581Y0357117D01*
X0227699Y0356841D01*
X0227818Y0356526D01*
X0227857Y0356211D01*
X0227857Y0355542D01*
X0227699Y0354912D01*
X0227581Y0354636D01*
X0227385Y0354439D01*
X0227148Y0354243D01*
X0226873Y0354164D01*
X0226518Y0354124D01*
X0226203Y0354164D01*
X0225888Y0354243D01*
X0225652Y0354439D01*
X0225495Y0354636D01*
X0225377Y0354912D01*
X0224038Y0354282D01*
X0224274Y0353849D01*
X0224629Y0353494D01*
X0225062Y0353180D01*
X0225534Y0353022D01*
X0226125Y0352943D01*
X0226833Y0353061D01*
X0227070Y0353180D01*
X0227463Y0353416D01*
X0224737Y0353416D01*
X0224409Y0353714D02*
X0227702Y0353714D01*
X0227818Y0353714D02*
X0229314Y0353714D01*
X0229314Y0353416D02*
X0227818Y0353416D01*
X0227818Y0353117D02*
X0229314Y0353117D01*
X0229314Y0352819D02*
X0227818Y0352819D01*
X0227818Y0352520D02*
X0229314Y0352520D01*
X0229314Y0352222D02*
X0227818Y0352222D01*
X0227818Y0351923D02*
X0229314Y0351923D01*
X0229314Y0351625D02*
X0227818Y0351625D01*
X0227818Y0351326D02*
X0229314Y0351326D01*
X0229314Y0351132D02*
X0229314Y0358416D01*
X0229156Y0358455D01*
X0228959Y0358494D01*
X0228762Y0358494D01*
X0228605Y0358534D01*
X0228408Y0358573D01*
X0228251Y0358613D01*
X0227857Y0358691D01*
X0227857Y0357983D01*
X0227699Y0358180D01*
X0227542Y0358337D01*
X0227345Y0358494D01*
X0226951Y0358731D01*
X0226479Y0358809D01*
X0226203Y0358809D01*
X0225613Y0358770D01*
X0225062Y0358573D01*
X0224629Y0358298D01*
X0224274Y0357904D01*
X0223999Y0357471D01*
X0224078Y0357595D02*
X0226125Y0357595D01*
X0225645Y0357296D02*
X0223945Y0357296D01*
X0223853Y0356998D02*
X0225444Y0356998D01*
X0225324Y0356699D02*
X0223786Y0356699D01*
X0223723Y0356401D02*
X0225243Y0356401D01*
X0225219Y0356102D02*
X0223703Y0356102D01*
X0223684Y0355817D02*
X0223723Y0355266D01*
X0223841Y0354754D01*
X0224038Y0354282D01*
X0225377Y0354912D01*
X0225259Y0355227D01*
X0225219Y0355542D01*
X0225219Y0355857D01*
X0223684Y0355817D01*
X0223685Y0355804D02*
X0225219Y0355804D01*
X0225224Y0355505D02*
X0223706Y0355505D01*
X0223737Y0355207D02*
X0225266Y0355207D01*
X0225369Y0354908D02*
X0225378Y0354908D01*
X0225369Y0354908D02*
X0223806Y0354908D01*
X0223901Y0354610D02*
X0224735Y0354610D01*
X0225516Y0354610D01*
X0225806Y0354311D02*
X0224100Y0354311D01*
X0224026Y0354311D01*
X0224185Y0354013D02*
X0229314Y0354013D01*
X0229314Y0354311D02*
X0227231Y0354311D01*
X0227555Y0354610D02*
X0229314Y0354610D01*
X0229314Y0354908D02*
X0227698Y0354908D01*
X0227773Y0355207D02*
X0229314Y0355207D01*
X0229314Y0355505D02*
X0227848Y0355505D01*
X0227857Y0355804D02*
X0229314Y0355804D01*
X0229314Y0356102D02*
X0227857Y0356102D01*
X0227833Y0356401D02*
X0229314Y0356401D01*
X0229314Y0356699D02*
X0227753Y0356699D01*
X0227632Y0356998D02*
X0229314Y0356998D01*
X0229314Y0357296D02*
X0227432Y0357296D01*
X0226962Y0357595D02*
X0229314Y0357595D01*
X0229314Y0357893D02*
X0224268Y0357893D01*
X0224533Y0358192D02*
X0227687Y0358192D01*
X0227857Y0358192D02*
X0229314Y0358192D01*
X0228980Y0358490D02*
X0227857Y0358490D01*
X0227350Y0358490D02*
X0224931Y0358490D01*
X0225895Y0358789D02*
X0226602Y0358789D01*
X0230180Y0357510D02*
X0230101Y0357038D01*
X0231558Y0357038D01*
X0231597Y0357235D01*
X0231676Y0357431D01*
X0231755Y0357550D01*
X0231873Y0357628D01*
X0232030Y0357707D01*
X0232227Y0357786D01*
X0232896Y0357786D01*
X0233014Y0357746D01*
X0233172Y0357707D01*
X0233290Y0357668D01*
X0233448Y0357431D01*
X0233448Y0357274D01*
X0233408Y0357117D01*
X0233290Y0356959D01*
X0233133Y0356841D01*
X0232896Y0356723D01*
X0232660Y0356644D01*
X0232345Y0356605D01*
X0231400Y0356369D01*
X0231046Y0356290D01*
X0230495Y0355975D01*
X0230259Y0355778D01*
X0230101Y0355542D01*
X0229983Y0355266D01*
X0229944Y0354912D01*
X0230022Y0354400D01*
X0230180Y0353967D01*
X0230416Y0353652D01*
X0230731Y0353376D01*
X0231125Y0353180D01*
X0231558Y0353061D01*
X0232030Y0352983D01*
X0232503Y0352943D01*
X0232975Y0352983D01*
X0233448Y0353061D01*
X0233881Y0353180D01*
X0234274Y0353376D01*
X0234589Y0353652D01*
X0234865Y0354006D01*
X0235022Y0354400D01*
X0235101Y0354912D01*
X0233644Y0354912D01*
X0233644Y0354676D01*
X0233566Y0354479D01*
X0233448Y0354321D01*
X0233133Y0354085D01*
X0232896Y0354046D01*
X0232699Y0354006D01*
X0232463Y0353967D01*
X0232306Y0354006D01*
X0232148Y0354006D01*
X0231991Y0354046D01*
X0231833Y0354124D01*
X0231676Y0354243D01*
X0231558Y0354361D01*
X0231479Y0354676D01*
X0231518Y0354833D01*
X0231597Y0354991D01*
X0231755Y0355109D01*
X0231951Y0355227D01*
X0232188Y0355306D01*
X0232818Y0355463D01*
X0233211Y0355542D01*
X0233566Y0355620D01*
X0233881Y0355739D01*
X0234156Y0355857D01*
X0234432Y0356014D01*
X0234668Y0356172D01*
X0234825Y0356408D01*
X0234944Y0356683D01*
X0234983Y0357038D01*
X0234944Y0357510D01*
X0234786Y0357904D01*
X0234510Y0358219D01*
X0234235Y0358455D01*
X0233841Y0358652D01*
X0233448Y0358731D01*
X0233014Y0358809D01*
X0232109Y0358809D01*
X0231676Y0358731D01*
X0231282Y0358613D01*
X0230928Y0358455D01*
X0230613Y0358219D01*
X0230377Y0357904D01*
X0230180Y0357510D01*
X0230222Y0357595D02*
X0231822Y0357595D01*
X0231622Y0357296D02*
X0230144Y0357296D01*
X0230371Y0357893D02*
X0234790Y0357893D01*
X0234910Y0357595D02*
X0233339Y0357595D01*
X0233448Y0357296D02*
X0234961Y0357296D01*
X0234978Y0356998D02*
X0233319Y0356998D01*
X0232826Y0356699D02*
X0234945Y0356699D01*
X0234821Y0356401D02*
X0231529Y0356401D01*
X0230718Y0356102D02*
X0234564Y0356102D01*
X0234033Y0355804D02*
X0230289Y0355804D01*
X0230085Y0355505D02*
X0233029Y0355505D01*
X0233644Y0354908D02*
X0235100Y0354908D01*
X0235055Y0354610D02*
X0233618Y0354610D01*
X0233434Y0354311D02*
X0234987Y0354311D01*
X0234867Y0354013D02*
X0232731Y0354013D01*
X0232123Y0354013D02*
X0230163Y0354013D01*
X0230055Y0354311D02*
X0231607Y0354311D01*
X0231495Y0354610D02*
X0229990Y0354610D01*
X0229944Y0354908D02*
X0231556Y0354908D01*
X0231918Y0355207D02*
X0229976Y0355207D01*
X0230369Y0353714D02*
X0234638Y0353714D01*
X0234319Y0353416D02*
X0230686Y0353416D01*
X0231353Y0353117D02*
X0233652Y0353117D01*
X0229314Y0351132D02*
X0229117Y0350975D01*
X0228762Y0350620D01*
X0228172Y0350148D01*
X0227818Y0349794D01*
X0227818Y0353809D01*
X0227778Y0353809D01*
X0227463Y0353416D01*
X0226945Y0353117D02*
X0225249Y0353117D01*
X0223002Y0353714D02*
X0217975Y0353714D01*
X0217916Y0353416D02*
X0219471Y0353416D01*
X0219707Y0353416D02*
X0222778Y0353416D01*
X0222299Y0353117D02*
X0220288Y0353117D01*
X0219353Y0353117D02*
X0217818Y0353117D01*
X0215301Y0358192D02*
X0213566Y0358192D01*
X0213566Y0358490D02*
X0214988Y0358490D01*
X0214268Y0358789D02*
X0213624Y0358789D01*
X0212975Y0358789D02*
X0211440Y0358789D01*
X0211440Y0359087D02*
X0212975Y0359087D01*
X0212975Y0359386D02*
X0211440Y0359386D01*
X0211440Y0359684D02*
X0212975Y0359684D01*
X0212916Y0359983D02*
X0211440Y0359983D01*
X0211440Y0360281D02*
X0212362Y0360281D01*
X0211807Y0360580D02*
X0211440Y0360580D01*
X0209825Y0360580D02*
X0209144Y0360580D01*
X0209416Y0360281D02*
X0209825Y0360281D01*
X0209825Y0359983D02*
X0209676Y0359983D01*
X0209825Y0360878D02*
X0208859Y0360878D01*
X0208639Y0361177D02*
X0209825Y0361177D01*
X0209825Y0361475D02*
X0208341Y0361475D01*
X0208057Y0361774D02*
X0209825Y0361774D01*
X0209825Y0362072D02*
X0207745Y0362072D01*
X0207236Y0362371D02*
X0209825Y0362371D01*
X0209722Y0365655D02*
X0208285Y0365655D01*
X0208408Y0365953D02*
X0209600Y0365953D01*
X0209430Y0366252D02*
X0208315Y0366252D01*
X0207887Y0366550D02*
X0208919Y0366550D01*
X0207117Y0369535D02*
X0205096Y0369535D01*
X0204353Y0368043D02*
X0204021Y0368043D01*
X0203756Y0367744D02*
X0204406Y0367744D01*
X0203487Y0358691D02*
X0201991Y0358691D01*
X0201991Y0355542D01*
X0201912Y0354912D01*
X0201873Y0354676D01*
X0201636Y0354361D01*
X0201440Y0354243D01*
X0201243Y0354203D01*
X0201007Y0354164D01*
X0200692Y0354203D01*
X0200455Y0354243D01*
X0200259Y0354361D01*
X0200101Y0354518D01*
X0199983Y0354754D01*
X0199865Y0355030D01*
X0199825Y0355345D01*
X0199825Y0358691D01*
X0198290Y0358691D01*
X0198290Y0353101D01*
X0199747Y0353101D01*
X0199747Y0353888D01*
X0199786Y0353888D01*
X0199944Y0353652D01*
X0200101Y0353455D01*
X0200298Y0353298D01*
X0200534Y0353180D01*
X0200731Y0353101D01*
X0200967Y0353022D01*
X0201243Y0352983D01*
X0201479Y0352943D01*
X0202030Y0352983D01*
X0202463Y0353140D01*
X0202818Y0353337D01*
X0203093Y0353573D01*
X0203290Y0353928D01*
X0203408Y0354321D01*
X0203487Y0354754D01*
X0203487Y0358691D01*
X0203487Y0358490D02*
X0201991Y0358490D01*
X0201991Y0358192D02*
X0203487Y0358192D01*
X0203487Y0357893D02*
X0201991Y0357893D01*
X0201991Y0357595D02*
X0203487Y0357595D01*
X0203487Y0357296D02*
X0201991Y0357296D01*
X0201991Y0356998D02*
X0203487Y0356998D01*
X0203487Y0356699D02*
X0201991Y0356699D01*
X0201991Y0356401D02*
X0203487Y0356401D01*
X0203487Y0356102D02*
X0201991Y0356102D01*
X0201991Y0355804D02*
X0203487Y0355804D01*
X0203487Y0355505D02*
X0201986Y0355505D01*
X0201949Y0355207D02*
X0203487Y0355207D01*
X0203487Y0354908D02*
X0201911Y0354908D01*
X0201823Y0354610D02*
X0203461Y0354610D01*
X0203405Y0354311D02*
X0201554Y0354311D01*
X0200341Y0354311D02*
X0198290Y0354311D01*
X0198290Y0354013D02*
X0203316Y0354013D01*
X0203171Y0353714D02*
X0199902Y0353714D01*
X0199747Y0353714D02*
X0198290Y0353714D01*
X0198290Y0353416D02*
X0199747Y0353416D01*
X0199747Y0353117D02*
X0198290Y0353117D01*
X0197463Y0353117D02*
X0195928Y0353117D01*
X0195928Y0353101D02*
X0197463Y0353101D01*
X0197463Y0358691D01*
X0196007Y0358691D01*
X0196007Y0357904D01*
X0195967Y0357904D01*
X0195810Y0358140D01*
X0195652Y0358298D01*
X0195455Y0358455D01*
X0195219Y0358613D01*
X0194747Y0358770D01*
X0194510Y0358809D01*
X0194274Y0358809D01*
X0193723Y0358770D01*
X0193290Y0358652D01*
X0192936Y0358455D01*
X0192660Y0358180D01*
X0192463Y0357865D01*
X0192345Y0357471D01*
X0192266Y0357038D01*
X0192227Y0356526D01*
X0192227Y0353101D01*
X0193762Y0353101D01*
X0193762Y0356250D01*
X0193802Y0356565D01*
X0193841Y0356841D01*
X0193881Y0357077D01*
X0193999Y0357274D01*
X0194117Y0357431D01*
X0194314Y0357550D01*
X0194510Y0357589D01*
X0194747Y0357628D01*
X0195062Y0357589D01*
X0195298Y0357550D01*
X0195495Y0357431D01*
X0195652Y0357235D01*
X0195770Y0357038D01*
X0195888Y0356762D01*
X0195928Y0356408D01*
X0195928Y0353101D01*
X0195928Y0353416D02*
X0197463Y0353416D01*
X0197463Y0353714D02*
X0195928Y0353714D01*
X0195928Y0354013D02*
X0197463Y0354013D01*
X0197463Y0354311D02*
X0195928Y0354311D01*
X0195928Y0354610D02*
X0197463Y0354610D01*
X0197463Y0354908D02*
X0195928Y0354908D01*
X0195928Y0355207D02*
X0197463Y0355207D01*
X0197463Y0355505D02*
X0195928Y0355505D01*
X0195928Y0355804D02*
X0197463Y0355804D01*
X0197463Y0356102D02*
X0195928Y0356102D01*
X0195928Y0356401D02*
X0197463Y0356401D01*
X0197463Y0356699D02*
X0195895Y0356699D01*
X0195787Y0356998D02*
X0197463Y0356998D01*
X0197463Y0357296D02*
X0195603Y0357296D01*
X0195015Y0357595D02*
X0197463Y0357595D01*
X0197463Y0357893D02*
X0192481Y0357893D01*
X0192382Y0357595D02*
X0194546Y0357595D01*
X0194015Y0357296D02*
X0192313Y0357296D01*
X0192263Y0356998D02*
X0193867Y0356998D01*
X0193821Y0356699D02*
X0192240Y0356699D01*
X0192227Y0356401D02*
X0193781Y0356401D01*
X0193762Y0356102D02*
X0192227Y0356102D01*
X0192227Y0355804D02*
X0193762Y0355804D01*
X0193762Y0355505D02*
X0192227Y0355505D01*
X0192227Y0355207D02*
X0193762Y0355207D01*
X0193762Y0354908D02*
X0192227Y0354908D01*
X0192227Y0354610D02*
X0193762Y0354610D01*
X0193762Y0354311D02*
X0192227Y0354311D01*
X0192227Y0354013D02*
X0193762Y0354013D01*
X0193762Y0353714D02*
X0192227Y0353714D01*
X0192227Y0353416D02*
X0193762Y0353416D01*
X0193762Y0353117D02*
X0192227Y0353117D01*
X0192672Y0358192D02*
X0195758Y0358192D01*
X0196007Y0358192D02*
X0197463Y0358192D01*
X0197463Y0358490D02*
X0196007Y0358490D01*
X0195403Y0358490D02*
X0192999Y0358490D01*
X0193986Y0358789D02*
X0194634Y0358789D01*
X0198290Y0358490D02*
X0199825Y0358490D01*
X0199825Y0358192D02*
X0198290Y0358192D01*
X0198290Y0357893D02*
X0199825Y0357893D01*
X0199825Y0357595D02*
X0198290Y0357595D01*
X0198290Y0357296D02*
X0199825Y0357296D01*
X0199825Y0356998D02*
X0198290Y0356998D01*
X0198290Y0356699D02*
X0199825Y0356699D01*
X0199825Y0356401D02*
X0198290Y0356401D01*
X0198290Y0356102D02*
X0199825Y0356102D01*
X0199825Y0355804D02*
X0198290Y0355804D01*
X0198290Y0355505D02*
X0199825Y0355505D01*
X0199843Y0355207D02*
X0198290Y0355207D01*
X0198290Y0354908D02*
X0199917Y0354908D01*
X0200055Y0354610D02*
X0198290Y0354610D01*
X0200150Y0353416D02*
X0202909Y0353416D01*
X0202400Y0353117D02*
X0200690Y0353117D01*
X0205022Y0353117D02*
X0206518Y0353117D01*
X0206518Y0353416D02*
X0205022Y0353416D01*
X0205022Y0353714D02*
X0206518Y0353714D01*
X0206518Y0354013D02*
X0205022Y0354013D01*
X0205022Y0354311D02*
X0206518Y0354311D01*
X0206518Y0354610D02*
X0205022Y0354610D01*
X0205022Y0354908D02*
X0206518Y0354908D01*
X0206518Y0355207D02*
X0205022Y0355207D01*
X0205022Y0355505D02*
X0206518Y0355505D01*
X0206518Y0355804D02*
X0205022Y0355804D01*
X0205022Y0356102D02*
X0206518Y0356102D01*
X0206518Y0356401D02*
X0205022Y0356401D01*
X0205022Y0356699D02*
X0206518Y0356699D01*
X0206518Y0356998D02*
X0205022Y0356998D01*
X0205022Y0357296D02*
X0206518Y0357296D01*
X0206518Y0357595D02*
X0205022Y0357595D01*
X0208844Y0355207D02*
X0210617Y0355207D01*
X0210433Y0354908D02*
X0208648Y0354908D01*
X0208452Y0354610D02*
X0210248Y0354610D01*
X0210063Y0354311D02*
X0208257Y0354311D01*
X0208061Y0354013D02*
X0209878Y0354013D01*
X0209693Y0353714D02*
X0207865Y0353714D01*
X0207670Y0353416D02*
X0209509Y0353416D01*
X0209324Y0353117D02*
X0207474Y0353117D01*
X0211440Y0356998D02*
X0212975Y0356998D01*
X0212975Y0357296D02*
X0211440Y0357296D01*
X0211440Y0357595D02*
X0212975Y0357595D01*
X0212975Y0357893D02*
X0211440Y0357893D01*
X0211440Y0358192D02*
X0212975Y0358192D01*
X0212975Y0358490D02*
X0211440Y0358490D01*
X0227818Y0351028D02*
X0229183Y0351028D01*
X0228871Y0350729D02*
X0227818Y0350729D01*
X0227818Y0350431D02*
X0228525Y0350431D01*
X0228156Y0350132D02*
X0227818Y0350132D01*
X0227818Y0349834D02*
X0227857Y0349834D01*
X0230593Y0358192D02*
X0234534Y0358192D01*
X0234164Y0358490D02*
X0231007Y0358490D01*
X0231996Y0358789D02*
X0233128Y0358789D01*
D61*
X0206798Y0347983D03*
X0198530Y0350778D03*
D62*
X0198530Y0350502D03*
X0198530Y0349912D03*
X0198530Y0347983D03*
X0198530Y0347707D03*
X0198530Y0347431D03*
X0198530Y0347156D03*
X0198530Y0346880D03*
X0198530Y0346605D03*
X0198530Y0346054D03*
X0198530Y0345778D03*
X0198530Y0345502D03*
X0198530Y0345227D03*
X0198530Y0344951D03*
X0198530Y0344676D03*
X0198530Y0344400D03*
X0198530Y0343849D03*
X0198530Y0343573D03*
X0201010Y0345502D03*
X0201010Y0345778D03*
X0201010Y0346054D03*
X0204593Y0346054D03*
X0204593Y0345778D03*
X0204593Y0345502D03*
X0206798Y0344400D03*
X0206798Y0343849D03*
X0206798Y0343573D03*
X0206798Y0346880D03*
X0206798Y0347156D03*
X0206798Y0347431D03*
X0206798Y0347707D03*
X0211207Y0346054D03*
X0211207Y0345778D03*
X0211207Y0345502D03*
X0211207Y0345227D03*
X0211207Y0344951D03*
X0211207Y0344676D03*
X0211207Y0344400D03*
X0213688Y0345502D03*
X0213688Y0345778D03*
X0213688Y0346054D03*
X0217270Y0346054D03*
X0217270Y0345778D03*
X0217270Y0345502D03*
X0217270Y0345227D03*
X0221129Y0345227D03*
X0221129Y0345502D03*
X0221129Y0345778D03*
X0221129Y0346054D03*
X0221129Y0348809D03*
X0221129Y0349085D03*
X0224160Y0345778D03*
X0227743Y0345778D03*
X0227743Y0346054D03*
X0227743Y0345502D03*
X0230223Y0345502D03*
X0230223Y0345778D03*
X0230223Y0346054D03*
X0230223Y0343022D03*
X0233530Y0345502D03*
X0233530Y0345778D03*
X0233530Y0346054D03*
X0195774Y0346605D03*
D63*
X0220991Y0350207D03*
D64*
X0221129Y0349380D03*
X0221129Y0346349D03*
X0217270Y0346349D03*
X0213688Y0346349D03*
X0211207Y0346349D03*
X0198530Y0346349D03*
X0198530Y0350207D03*
X0230223Y0346349D03*
X0233530Y0346349D03*
D65*
X0220991Y0344951D03*
X0220991Y0349912D03*
X0211345Y0343849D03*
X0211345Y0343573D03*
X0206936Y0344676D03*
X0206936Y0346605D03*
X0195912Y0346054D03*
X0195912Y0345778D03*
X0195912Y0345502D03*
X0195912Y0345227D03*
X0195912Y0344951D03*
X0195912Y0344676D03*
X0195912Y0344400D03*
X0195912Y0343849D03*
X0195912Y0343573D03*
D66*
X0195912Y0344144D03*
X0203077Y0343317D03*
X0220991Y0349656D03*
X0230085Y0343317D03*
D67*
X0230223Y0342766D03*
X0220026Y0343317D03*
X0221129Y0348554D03*
X0211207Y0344144D03*
X0206798Y0344144D03*
X0198530Y0344144D03*
X0198530Y0349656D03*
D68*
X0198392Y0349380D03*
X0195912Y0346349D03*
X0209140Y0348278D03*
D69*
X0198530Y0349085D03*
D70*
X0215479Y0348554D03*
D71*
X0211207Y0348278D03*
X0203215Y0348278D03*
X0201010Y0348278D03*
X0198530Y0348278D03*
X0196050Y0348278D03*
X0193845Y0348278D03*
X0224160Y0348278D03*
X0226365Y0348278D03*
X0230223Y0348278D03*
X0232152Y0348278D03*
D72*
X0220715Y0348278D03*
D73*
X0215617Y0348278D03*
D74*
X0220853Y0347983D03*
X0225538Y0347983D03*
X0225538Y0343573D03*
X0231325Y0343849D03*
X0231325Y0347983D03*
X0210105Y0347707D03*
D75*
X0215479Y0347983D03*
X0215479Y0343573D03*
D76*
X0215479Y0343849D03*
X0215479Y0347707D03*
X0210243Y0347431D03*
X0210243Y0347156D03*
X0210243Y0346880D03*
X0210243Y0347983D03*
X0220715Y0346880D03*
X0231188Y0343573D03*
X0232014Y0341644D03*
X0194810Y0346880D03*
X0194810Y0347156D03*
X0194810Y0347431D03*
X0194810Y0347707D03*
X0194810Y0347983D03*
D77*
X0202251Y0347983D03*
X0202251Y0343573D03*
X0215479Y0347431D03*
X0220715Y0347431D03*
X0220715Y0347156D03*
X0220715Y0347707D03*
X0231463Y0347707D03*
X0231739Y0342471D03*
X0231739Y0342195D03*
D78*
X0231601Y0344400D03*
X0231601Y0347431D03*
X0225538Y0347707D03*
X0225538Y0343849D03*
X0202388Y0343849D03*
X0202388Y0347707D03*
D79*
X0202526Y0347431D03*
X0202526Y0347156D03*
X0202526Y0344400D03*
X0215479Y0344400D03*
X0215479Y0344676D03*
X0215479Y0346880D03*
X0215479Y0347156D03*
X0225676Y0347431D03*
X0231739Y0347156D03*
X0231739Y0346880D03*
X0231739Y0344951D03*
X0231739Y0344676D03*
D80*
X0225814Y0344676D03*
X0225814Y0344951D03*
X0225814Y0344400D03*
X0225814Y0346605D03*
X0225814Y0346880D03*
X0225814Y0347156D03*
X0202664Y0346880D03*
X0202664Y0346605D03*
X0202664Y0344951D03*
X0202664Y0344676D03*
D81*
X0201148Y0345227D03*
X0204455Y0345227D03*
X0211070Y0346605D03*
X0214101Y0346605D03*
X0213825Y0345227D03*
X0214101Y0344951D03*
X0217133Y0344951D03*
X0217133Y0346605D03*
X0221266Y0346605D03*
X0224298Y0346054D03*
X0224298Y0345502D03*
X0224298Y0345227D03*
X0227605Y0345227D03*
X0230361Y0345227D03*
X0230361Y0346605D03*
X0233392Y0346605D03*
X0233392Y0345227D03*
X0220164Y0343573D03*
D82*
X0219613Y0346605D03*
D83*
X0215617Y0343022D03*
X0209003Y0346605D03*
X0193570Y0346605D03*
D84*
X0201148Y0346349D03*
X0204455Y0346349D03*
X0224298Y0346349D03*
X0227605Y0346349D03*
D85*
X0206798Y0346349D03*
D86*
X0206936Y0344951D03*
D87*
X0220164Y0343849D03*
X0220440Y0344676D03*
D88*
X0220302Y0344400D03*
X0231877Y0341369D03*
D89*
X0231601Y0344144D03*
D90*
X0225676Y0344144D03*
X0202526Y0344144D03*
D91*
X0220302Y0344144D03*
D92*
X0215479Y0344144D03*
D93*
X0232152Y0343317D03*
D94*
X0226365Y0343317D03*
X0224160Y0343317D03*
X0211207Y0343317D03*
X0206798Y0343317D03*
X0201010Y0343317D03*
X0198530Y0343317D03*
X0196050Y0343317D03*
D95*
X0215479Y0343317D03*
D96*
X0233117Y0342766D03*
D97*
X0231877Y0341939D03*
D98*
X0224136Y0332660D03*
X0223073Y0330416D03*
X0222483Y0330416D03*
X0211381Y0342660D03*
X0204688Y0334313D03*
D99*
X0215140Y0334983D03*
X0211440Y0342581D03*
D100*
X0211636Y0342483D03*
X0224077Y0333152D03*
D101*
X0223743Y0336439D03*
X0211892Y0342384D03*
D102*
X0212030Y0342286D03*
D103*
X0212070Y0342187D03*
X0212266Y0341991D03*
X0208487Y0335180D03*
X0204392Y0334510D03*
X0216558Y0335180D03*
X0217621Y0334707D03*
D104*
X0217325Y0337719D03*
X0223743Y0336262D03*
X0212168Y0342089D03*
D105*
X0212759Y0341892D03*
D106*
X0212818Y0341794D03*
X0217266Y0337620D03*
X0223605Y0334117D03*
X0222542Y0330809D03*
X0200259Y0333920D03*
D107*
X0207010Y0334884D03*
X0210711Y0333821D03*
X0215081Y0334884D03*
X0214609Y0341695D03*
X0223743Y0337325D03*
X0223743Y0337128D03*
D108*
X0222542Y0330711D03*
X0216991Y0335475D03*
X0214156Y0334018D03*
X0212896Y0341695D03*
D109*
X0213487Y0341597D03*
X0207070Y0334510D03*
X0220770Y0334313D03*
D110*
X0222463Y0330514D03*
X0223644Y0337522D03*
X0215967Y0341498D03*
X0202542Y0334018D03*
X0200022Y0333624D03*
X0199550Y0333624D03*
D111*
X0213684Y0341498D03*
X0220967Y0335869D03*
X0223014Y0334884D03*
D112*
X0222581Y0334707D03*
X0217227Y0337424D03*
X0214314Y0341400D03*
D113*
X0217325Y0341302D03*
D114*
X0214412Y0341302D03*
X0211302Y0334609D03*
D115*
X0219373Y0334786D03*
X0223743Y0337030D03*
X0223743Y0337227D03*
X0224136Y0333054D03*
X0217325Y0341203D03*
D116*
X0214570Y0341203D03*
X0211262Y0334510D03*
D117*
X0207325Y0336164D03*
X0215199Y0341124D03*
D118*
X0215377Y0341026D03*
D119*
X0218644Y0340928D03*
X0223684Y0337424D03*
D120*
X0215573Y0340928D03*
D121*
X0216007Y0340829D03*
D122*
X0216203Y0340731D03*
X0219117Y0339471D03*
X0208329Y0336361D03*
D123*
X0208959Y0336538D03*
X0216361Y0340632D03*
D124*
X0216932Y0340534D03*
D125*
X0217089Y0340435D03*
D126*
X0217227Y0340337D03*
D127*
X0217385Y0340239D03*
D128*
X0217660Y0340140D03*
X0206007Y0335573D03*
D129*
X0217798Y0340042D03*
D130*
X0218152Y0339943D03*
D131*
X0218448Y0339845D03*
D132*
X0218585Y0339746D03*
X0203625Y0333250D03*
D133*
X0218802Y0339648D03*
D134*
X0218979Y0339550D03*
D135*
X0219373Y0339372D03*
X0217129Y0337128D03*
D136*
X0219550Y0339274D03*
D137*
X0219707Y0339176D03*
D138*
X0219944Y0339077D03*
D139*
X0220042Y0338979D03*
X0219373Y0333152D03*
D140*
X0222247Y0334510D03*
X0220199Y0338880D03*
X0214766Y0332463D03*
X0211735Y0334983D03*
D141*
X0219570Y0332955D03*
X0220436Y0338782D03*
D142*
X0211873Y0338782D03*
D143*
X0220573Y0338683D03*
D144*
X0223684Y0335967D03*
X0214668Y0334510D03*
X0211833Y0338683D03*
D145*
X0220692Y0338585D03*
X0222542Y0334609D03*
D146*
X0215770Y0330317D03*
X0214314Y0334215D03*
X0208290Y0334018D03*
X0211794Y0338585D03*
D147*
X0220869Y0338487D03*
D148*
X0214215Y0334117D03*
X0211774Y0338487D03*
X0208388Y0333920D03*
D149*
X0207109Y0334215D03*
X0211203Y0334412D03*
X0213054Y0335475D03*
X0213841Y0335869D03*
X0220062Y0334018D03*
X0221007Y0338388D03*
X0201085Y0334215D03*
D150*
X0210908Y0334018D03*
X0211774Y0338388D03*
X0215475Y0330514D03*
X0222562Y0331105D03*
X0222562Y0331971D03*
D151*
X0220199Y0334117D03*
X0221066Y0338290D03*
X0213979Y0335967D03*
D152*
X0211676Y0338290D03*
X0208684Y0333526D03*
X0216164Y0332069D03*
X0221715Y0337227D03*
X0222581Y0331676D03*
X0222581Y0331400D03*
D153*
X0221262Y0338191D03*
D154*
X0221617Y0337522D03*
X0220829Y0335672D03*
X0216066Y0332168D03*
X0216066Y0331774D03*
X0211696Y0338191D03*
D155*
X0221262Y0338093D03*
D156*
X0221007Y0335967D03*
X0220928Y0335770D03*
X0215967Y0331676D03*
X0211597Y0338093D03*
D157*
X0215810Y0331400D03*
X0221361Y0338014D03*
D158*
X0217719Y0335967D03*
X0219451Y0332266D03*
X0219451Y0332069D03*
X0211499Y0338014D03*
D159*
X0223585Y0337916D03*
X0223585Y0337719D03*
X0224176Y0332758D03*
D160*
X0219451Y0332168D03*
X0215869Y0331498D03*
X0221420Y0337916D03*
D161*
X0219471Y0332365D03*
X0211479Y0337916D03*
D162*
X0201735Y0333920D03*
X0223585Y0337817D03*
D163*
X0221459Y0337817D03*
X0215908Y0331597D03*
X0215711Y0331203D03*
X0215633Y0331006D03*
D164*
X0211381Y0337817D03*
X0222759Y0334786D03*
D165*
X0221518Y0337719D03*
X0217621Y0335869D03*
X0219471Y0331971D03*
D166*
X0211262Y0337719D03*
D167*
X0216164Y0334786D03*
X0218014Y0334983D03*
X0223644Y0337620D03*
X0224117Y0332857D03*
X0202266Y0333526D03*
D168*
X0221558Y0337620D03*
D169*
X0213644Y0335770D03*
X0211203Y0337620D03*
X0201203Y0334313D03*
D170*
X0217227Y0337522D03*
D171*
X0219550Y0332758D03*
X0211007Y0337522D03*
D172*
X0210948Y0334117D03*
X0216105Y0331872D03*
X0217483Y0335770D03*
X0221656Y0337424D03*
X0222522Y0331597D03*
D173*
X0219570Y0332857D03*
X0210908Y0337424D03*
D174*
X0221715Y0337325D03*
X0223251Y0335081D03*
X0222581Y0331774D03*
X0222581Y0331302D03*
D175*
X0217168Y0337325D03*
X0210751Y0337325D03*
D176*
X0217188Y0337227D03*
D177*
X0210455Y0337227D03*
D178*
X0220337Y0335278D03*
X0221794Y0336931D03*
X0221794Y0337128D03*
X0223448Y0333821D03*
D179*
X0211833Y0335081D03*
X0210377Y0337128D03*
D180*
X0221794Y0337030D03*
X0223448Y0333920D03*
X0223251Y0333329D03*
D181*
X0217168Y0337030D03*
D182*
X0210180Y0337030D03*
D183*
X0204530Y0334412D03*
X0217955Y0334884D03*
X0223782Y0336931D03*
D184*
X0217148Y0336931D03*
D185*
X0209944Y0336931D03*
D186*
X0209885Y0335376D03*
X0208625Y0334983D03*
X0215436Y0330140D03*
X0223782Y0336833D03*
D187*
X0218310Y0336833D03*
D188*
X0209688Y0336833D03*
D189*
X0223743Y0336735D03*
D190*
X0218211Y0336735D03*
D191*
X0209550Y0336735D03*
D192*
X0223743Y0336636D03*
D193*
X0218113Y0336636D03*
D194*
X0209255Y0336636D03*
X0208664Y0336439D03*
D195*
X0223802Y0336538D03*
D196*
X0217995Y0336538D03*
D197*
X0217857Y0336439D03*
D198*
X0223743Y0336361D03*
X0223743Y0336164D03*
D199*
X0217759Y0336361D03*
D200*
X0217660Y0336262D03*
D201*
X0222050Y0334412D03*
X0207759Y0336262D03*
D202*
X0217522Y0336164D03*
D203*
X0217581Y0334609D03*
X0223684Y0336065D03*
X0199865Y0333821D03*
D204*
X0217463Y0336065D03*
D205*
X0212089Y0335278D03*
X0207010Y0336065D03*
D206*
X0206892Y0335967D03*
X0202680Y0334707D03*
D207*
X0214510Y0334412D03*
X0223644Y0335869D03*
D208*
X0206577Y0335869D03*
D209*
X0205790Y0333920D03*
X0214451Y0334313D03*
X0215829Y0330219D03*
X0222719Y0330613D03*
X0223585Y0335770D03*
D210*
X0206440Y0335770D03*
D211*
X0223644Y0335672D03*
D212*
X0223290Y0333624D03*
X0223290Y0333428D03*
X0217266Y0335672D03*
D213*
X0220436Y0334215D03*
X0213546Y0335672D03*
D214*
X0206341Y0335672D03*
D215*
X0208192Y0334117D03*
X0223546Y0335573D03*
X0223743Y0334313D03*
D216*
X0220711Y0335573D03*
D217*
X0223349Y0335180D03*
X0223349Y0333723D03*
X0222562Y0331872D03*
X0222562Y0331203D03*
X0222562Y0331006D03*
X0217129Y0335573D03*
X0215475Y0330416D03*
D218*
X0219510Y0332660D03*
X0213290Y0335573D03*
X0204629Y0333526D03*
X0201833Y0332463D03*
D219*
X0223507Y0335475D03*
D220*
X0220593Y0335475D03*
X0216696Y0334018D03*
X0216105Y0331971D03*
X0215514Y0330711D03*
X0222522Y0331498D03*
D221*
X0209786Y0335475D03*
X0200849Y0333821D03*
D222*
X0205908Y0335475D03*
D223*
X0223448Y0335376D03*
D224*
X0223290Y0333526D03*
X0220495Y0335376D03*
X0216794Y0334117D03*
X0207070Y0334707D03*
D225*
X0210869Y0333920D03*
X0216892Y0335376D03*
X0217089Y0334313D03*
X0220081Y0335180D03*
D226*
X0212857Y0335376D03*
D227*
X0205810Y0335376D03*
D228*
X0223349Y0335278D03*
X0223546Y0334018D03*
D229*
X0219904Y0335081D03*
X0217188Y0334412D03*
X0216794Y0335278D03*
D230*
X0205554Y0335278D03*
D231*
X0211932Y0335180D03*
D232*
X0203959Y0335180D03*
D233*
X0216499Y0335081D03*
D234*
X0214806Y0334609D03*
X0208585Y0335081D03*
D235*
X0203723Y0335081D03*
D236*
X0223113Y0334983D03*
D237*
X0222877Y0333054D03*
X0219766Y0334983D03*
D238*
X0216400Y0334983D03*
D239*
X0203428Y0334983D03*
D240*
X0219412Y0334884D03*
D241*
X0216203Y0334884D03*
X0216203Y0330042D03*
X0201440Y0333428D03*
D242*
X0203172Y0334884D03*
X0211558Y0334884D03*
D243*
X0217818Y0334786D03*
X0199825Y0333723D03*
D244*
X0214983Y0334786D03*
D245*
X0211499Y0334786D03*
D246*
X0207070Y0334786D03*
D247*
X0202936Y0334786D03*
D248*
X0214845Y0334707D03*
D249*
X0211459Y0334707D03*
D250*
X0207070Y0334609D03*
D251*
X0202542Y0334609D03*
D252*
X0205948Y0334117D03*
X0217325Y0334510D03*
D253*
X0201577Y0334510D03*
D254*
X0207070Y0334412D03*
D255*
X0201322Y0334412D03*
D256*
X0207070Y0334313D03*
X0211046Y0334313D03*
X0219510Y0332463D03*
D257*
X0223644Y0334215D03*
X0208487Y0333821D03*
D258*
X0208625Y0333624D03*
X0216892Y0334215D03*
D259*
X0211066Y0334215D03*
D260*
X0201046Y0334117D03*
D261*
X0203664Y0333624D03*
X0205908Y0334018D03*
D262*
X0200652Y0334018D03*
X0215613Y0330908D03*
D263*
X0217325Y0333920D03*
D264*
X0217227Y0333821D03*
D265*
X0205751Y0333821D03*
D266*
X0217089Y0333723D03*
D267*
X0208566Y0333723D03*
D268*
X0205692Y0333723D03*
D269*
X0216794Y0333624D03*
D270*
X0205514Y0333624D03*
D271*
X0216636Y0333526D03*
D272*
X0221755Y0330613D03*
X0201440Y0333526D03*
D273*
X0216459Y0333428D03*
D274*
X0208822Y0333428D03*
D275*
X0204294Y0333428D03*
D276*
X0214471Y0333329D03*
D277*
X0203566Y0333329D03*
D278*
X0216203Y0330140D03*
X0224077Y0333250D03*
D279*
X0222818Y0333250D03*
D280*
X0214373Y0333250D03*
D281*
X0222818Y0333152D03*
D282*
X0208231Y0333152D03*
D283*
X0219471Y0333054D03*
D284*
X0208192Y0333054D03*
D285*
X0215436Y0330042D03*
X0223113Y0330514D03*
X0224176Y0332955D03*
D286*
X0222916Y0332955D03*
X0222916Y0332758D03*
X0222916Y0332561D03*
D287*
X0208133Y0332955D03*
D288*
X0222916Y0332857D03*
X0222916Y0332660D03*
X0222916Y0332463D03*
D289*
X0208231Y0332857D03*
D290*
X0208290Y0332758D03*
D291*
X0208329Y0332660D03*
D292*
X0219510Y0332561D03*
D293*
X0208448Y0332561D03*
D294*
X0222955Y0332365D03*
D295*
X0215534Y0332365D03*
D296*
X0222719Y0332266D03*
D297*
X0215770Y0332266D03*
D298*
X0222660Y0332168D03*
X0222581Y0330908D03*
D299*
X0222621Y0332069D03*
D300*
X0215770Y0331302D03*
D301*
X0215672Y0331105D03*
D302*
X0215573Y0330809D03*
D303*
X0215475Y0330613D03*
D304*
X0214491Y0330317D03*
M02*
