G75*
%MOIN*%
%OFA0B0*%
%FSLAX25Y25*%
%IPPOS*%
%LPD*%
%AMOC8*
5,1,8,0,0,1.08239X$1,22.5*
%
%ADD10R,0.03937X0.04331*%
%ADD11R,0.04331X0.03937*%
%ADD12C,0.03937*%
%ADD13R,0.02756X0.01575*%
%ADD14R,0.04331X0.09646*%
%ADD15R,0.01969X0.01378*%
%ADD16C,0.20000*%
%ADD17C,0.01000*%
%ADD18R,0.03268X0.02480*%
%ADD19C,0.01181*%
%ADD20R,0.03150X0.03543*%
%ADD21C,0.00800*%
%ADD22C,0.02900*%
%ADD23C,0.00700*%
D10*
X0173333Y0308054D03*
X0173333Y0314746D03*
X0166833Y0337054D03*
X0166833Y0343746D03*
X0208333Y0360554D03*
X0208333Y0367246D03*
X0218333Y0367246D03*
X0218333Y0360554D03*
D11*
X0216680Y0341400D03*
X0209987Y0341400D03*
X0196680Y0336400D03*
X0189987Y0336400D03*
X0181680Y0336400D03*
X0174987Y0336400D03*
X0174987Y0366400D03*
X0181680Y0366400D03*
X0244987Y0366400D03*
X0251680Y0366400D03*
X0251680Y0336400D03*
X0244987Y0336400D03*
D12*
X0283333Y0361400D03*
X0143333Y0331400D03*
D13*
X0174003Y0346676D03*
X0174003Y0349038D03*
X0174003Y0351400D03*
X0174003Y0353762D03*
X0174003Y0356124D03*
X0182664Y0356124D03*
X0182664Y0353762D03*
X0182664Y0351400D03*
X0182664Y0349038D03*
X0182664Y0346676D03*
D14*
X0178333Y0351400D03*
D15*
X0244298Y0350120D03*
X0244298Y0347561D03*
X0244298Y0352680D03*
X0244298Y0355239D03*
X0252369Y0355239D03*
X0252369Y0352680D03*
X0252369Y0350120D03*
X0252369Y0347561D03*
D16*
X0233333Y0382400D03*
X0193333Y0382400D03*
X0153333Y0382400D03*
X0153333Y0310400D03*
X0193333Y0310400D03*
X0233333Y0310400D03*
X0273333Y0310400D03*
X0273333Y0382400D03*
D17*
X0165333Y0296400D02*
X0141333Y0296400D01*
X0165333Y0296400D01*
X0165333Y0310400D01*
X0165211Y0312108D01*
X0164847Y0313781D01*
X0164249Y0315385D01*
X0163428Y0316888D01*
X0162402Y0318258D01*
X0161192Y0319469D01*
X0159821Y0320495D01*
X0158318Y0321316D01*
X0156714Y0321914D01*
X0155041Y0322278D01*
X0153333Y0322400D01*
X0151626Y0322278D01*
X0149953Y0321914D01*
X0148348Y0321316D01*
X0146846Y0320495D01*
X0145475Y0319469D01*
X0144264Y0318258D01*
X0143238Y0316888D01*
X0142418Y0315385D01*
X0141819Y0313781D01*
X0141455Y0312108D01*
X0141333Y0310400D01*
X0141333Y0296400D01*
X0141333Y0297399D02*
X0165333Y0297399D01*
X0165333Y0298397D02*
X0141333Y0298397D01*
X0141333Y0299396D02*
X0165333Y0299396D01*
X0165333Y0300394D02*
X0141333Y0300394D01*
X0141333Y0301393D02*
X0165333Y0301393D01*
X0165333Y0302391D02*
X0141333Y0302391D01*
X0141333Y0303390D02*
X0165333Y0303390D01*
X0165333Y0304388D02*
X0141333Y0304388D01*
X0141333Y0305387D02*
X0165333Y0305387D01*
X0165333Y0306385D02*
X0141333Y0306385D01*
X0141333Y0307384D02*
X0165333Y0307384D01*
X0165333Y0308382D02*
X0141333Y0308382D01*
X0141333Y0309381D02*
X0165333Y0309381D01*
X0165333Y0310379D02*
X0141333Y0310379D01*
X0141403Y0311378D02*
X0165263Y0311378D01*
X0165153Y0312376D02*
X0141514Y0312376D01*
X0141731Y0313375D02*
X0164936Y0313375D01*
X0164626Y0314373D02*
X0142040Y0314373D01*
X0142413Y0315372D02*
X0164254Y0315372D01*
X0163711Y0316370D02*
X0142956Y0316370D01*
X0143598Y0317369D02*
X0163068Y0317369D01*
X0162293Y0318367D02*
X0144373Y0318367D01*
X0145372Y0319366D02*
X0161295Y0319366D01*
X0159996Y0320364D02*
X0146671Y0320364D01*
X0148475Y0321363D02*
X0158192Y0321363D01*
X0153874Y0322361D02*
X0152792Y0322361D01*
X0181819Y0313781D02*
X0181455Y0312108D01*
X0181333Y0310400D01*
X0181333Y0296400D01*
X0205333Y0296400D01*
X0205333Y0310400D01*
X0205211Y0312108D01*
X0204847Y0313781D01*
X0204249Y0315385D01*
X0203428Y0316888D01*
X0202402Y0318258D01*
X0201192Y0319469D01*
X0199821Y0320495D01*
X0198318Y0321316D01*
X0196714Y0321914D01*
X0195041Y0322278D01*
X0193333Y0322400D01*
X0191626Y0322278D01*
X0189953Y0321914D01*
X0188348Y0321316D01*
X0186846Y0320495D01*
X0185475Y0319469D01*
X0184264Y0318258D01*
X0183238Y0316888D01*
X0182418Y0315385D01*
X0181819Y0313781D01*
X0181731Y0313375D02*
X0204936Y0313375D01*
X0205153Y0312376D02*
X0181514Y0312376D01*
X0181403Y0311378D02*
X0205263Y0311378D01*
X0205333Y0310379D02*
X0181333Y0310379D01*
X0181333Y0309381D02*
X0205333Y0309381D01*
X0205333Y0308382D02*
X0181333Y0308382D01*
X0181333Y0307384D02*
X0205333Y0307384D01*
X0205333Y0306385D02*
X0181333Y0306385D01*
X0181333Y0305387D02*
X0205333Y0305387D01*
X0205333Y0304388D02*
X0181333Y0304388D01*
X0181333Y0303390D02*
X0205333Y0303390D01*
X0205333Y0302391D02*
X0181333Y0302391D01*
X0181333Y0301393D02*
X0205333Y0301393D01*
X0205333Y0300394D02*
X0181333Y0300394D01*
X0181333Y0299396D02*
X0205333Y0299396D01*
X0205333Y0298397D02*
X0181333Y0298397D01*
X0181333Y0297399D02*
X0205333Y0297399D01*
X0205333Y0296400D02*
X0181333Y0296400D01*
X0182040Y0314373D02*
X0204626Y0314373D01*
X0204254Y0315372D02*
X0182413Y0315372D01*
X0182956Y0316370D02*
X0203711Y0316370D01*
X0203068Y0317369D02*
X0183598Y0317369D01*
X0184373Y0318367D02*
X0202293Y0318367D01*
X0201295Y0319366D02*
X0185372Y0319366D01*
X0186671Y0320364D02*
X0199996Y0320364D01*
X0198192Y0321363D02*
X0188475Y0321363D01*
X0192792Y0322361D02*
X0193874Y0322361D01*
X0221819Y0313781D02*
X0221455Y0312108D01*
X0221333Y0310400D01*
X0221333Y0296400D01*
X0245333Y0296400D01*
X0245333Y0310400D01*
X0245211Y0312108D01*
X0244847Y0313781D01*
X0244249Y0315385D01*
X0243428Y0316888D01*
X0242402Y0318258D01*
X0241192Y0319469D01*
X0239821Y0320495D01*
X0238318Y0321316D01*
X0236714Y0321914D01*
X0235041Y0322278D01*
X0233333Y0322400D01*
X0231626Y0322278D01*
X0229953Y0321914D01*
X0228348Y0321316D01*
X0226846Y0320495D01*
X0225475Y0319469D01*
X0224264Y0318258D01*
X0223238Y0316888D01*
X0222418Y0315385D01*
X0221819Y0313781D01*
X0221731Y0313375D02*
X0244936Y0313375D01*
X0245153Y0312376D02*
X0221514Y0312376D01*
X0221403Y0311378D02*
X0245263Y0311378D01*
X0245333Y0310379D02*
X0221333Y0310379D01*
X0221333Y0309381D02*
X0245333Y0309381D01*
X0245333Y0308382D02*
X0221333Y0308382D01*
X0221333Y0307384D02*
X0245333Y0307384D01*
X0245333Y0306385D02*
X0221333Y0306385D01*
X0221333Y0305387D02*
X0245333Y0305387D01*
X0245333Y0304388D02*
X0221333Y0304388D01*
X0221333Y0303390D02*
X0245333Y0303390D01*
X0245333Y0302391D02*
X0221333Y0302391D01*
X0221333Y0301393D02*
X0245333Y0301393D01*
X0245333Y0300394D02*
X0221333Y0300394D01*
X0221333Y0299396D02*
X0245333Y0299396D01*
X0245333Y0298397D02*
X0221333Y0298397D01*
X0221333Y0297399D02*
X0245333Y0297399D01*
X0245333Y0296400D02*
X0221333Y0296400D01*
X0222040Y0314373D02*
X0244626Y0314373D01*
X0244254Y0315372D02*
X0222413Y0315372D01*
X0222956Y0316370D02*
X0243711Y0316370D01*
X0243068Y0317369D02*
X0223598Y0317369D01*
X0224373Y0318367D02*
X0242293Y0318367D01*
X0241295Y0319366D02*
X0225372Y0319366D01*
X0226671Y0320364D02*
X0239996Y0320364D01*
X0238192Y0321363D02*
X0228475Y0321363D01*
X0232792Y0322361D02*
X0233874Y0322361D01*
X0261819Y0313781D02*
X0261455Y0312108D01*
X0261333Y0310400D01*
X0261333Y0296400D01*
X0285333Y0296400D01*
X0285333Y0310400D01*
X0285211Y0312108D01*
X0284847Y0313781D01*
X0284249Y0315385D01*
X0283428Y0316888D01*
X0282402Y0318258D01*
X0281192Y0319469D01*
X0279821Y0320495D01*
X0278318Y0321316D01*
X0276714Y0321914D01*
X0275041Y0322278D01*
X0273333Y0322400D01*
X0271626Y0322278D01*
X0269953Y0321914D01*
X0268348Y0321316D01*
X0266846Y0320495D01*
X0265475Y0319469D01*
X0264264Y0318258D01*
X0263238Y0316888D01*
X0262418Y0315385D01*
X0261819Y0313781D01*
X0261731Y0313375D02*
X0284936Y0313375D01*
X0285153Y0312376D02*
X0261514Y0312376D01*
X0261403Y0311378D02*
X0285263Y0311378D01*
X0285333Y0310379D02*
X0261333Y0310379D01*
X0261333Y0309381D02*
X0285333Y0309381D01*
X0285333Y0308382D02*
X0261333Y0308382D01*
X0261333Y0307384D02*
X0285333Y0307384D01*
X0285333Y0306385D02*
X0261333Y0306385D01*
X0261333Y0305387D02*
X0285333Y0305387D01*
X0285333Y0304388D02*
X0261333Y0304388D01*
X0261333Y0303390D02*
X0285333Y0303390D01*
X0285333Y0302391D02*
X0261333Y0302391D01*
X0261333Y0301393D02*
X0285333Y0301393D01*
X0285333Y0300394D02*
X0261333Y0300394D01*
X0261333Y0299396D02*
X0285333Y0299396D01*
X0285333Y0298397D02*
X0261333Y0298397D01*
X0261333Y0297399D02*
X0285333Y0297399D01*
X0285333Y0296400D02*
X0261333Y0296400D01*
X0262040Y0314373D02*
X0284626Y0314373D01*
X0284254Y0315372D02*
X0262413Y0315372D01*
X0262956Y0316370D02*
X0283711Y0316370D01*
X0283068Y0317369D02*
X0263598Y0317369D01*
X0264373Y0318367D02*
X0282293Y0318367D01*
X0281295Y0319366D02*
X0265372Y0319366D01*
X0266671Y0320364D02*
X0279996Y0320364D01*
X0278192Y0321363D02*
X0268475Y0321363D01*
X0272792Y0322361D02*
X0273874Y0322361D01*
X0273333Y0370400D02*
X0271626Y0370522D01*
X0269953Y0370886D01*
X0268348Y0371484D01*
X0266846Y0372305D01*
X0265475Y0373331D01*
X0264264Y0374542D01*
X0263238Y0375912D01*
X0262418Y0377415D01*
X0261819Y0379019D01*
X0261455Y0380692D01*
X0261333Y0382400D01*
X0261333Y0396400D01*
X0285333Y0396400D01*
X0285333Y0382400D01*
X0285211Y0380692D01*
X0284847Y0379019D01*
X0284249Y0377415D01*
X0283428Y0375912D01*
X0282402Y0374542D01*
X0281192Y0373331D01*
X0279821Y0372305D01*
X0278318Y0371484D01*
X0276714Y0370886D01*
X0275041Y0370522D01*
X0273333Y0370400D01*
X0268874Y0371288D02*
X0277793Y0371288D01*
X0279788Y0372287D02*
X0266879Y0372287D01*
X0265536Y0373285D02*
X0281131Y0373285D01*
X0282145Y0374284D02*
X0264522Y0374284D01*
X0263710Y0375282D02*
X0282957Y0375282D01*
X0283630Y0376281D02*
X0263037Y0376281D01*
X0262492Y0377279D02*
X0284175Y0377279D01*
X0284571Y0378278D02*
X0262096Y0378278D01*
X0261763Y0379276D02*
X0284903Y0379276D01*
X0285120Y0380275D02*
X0261546Y0380275D01*
X0261414Y0381273D02*
X0285253Y0381273D01*
X0285324Y0382272D02*
X0261342Y0382272D01*
X0261333Y0383270D02*
X0285333Y0383270D01*
X0285333Y0384269D02*
X0261333Y0384269D01*
X0261333Y0385268D02*
X0285333Y0385268D01*
X0285333Y0386266D02*
X0261333Y0386266D01*
X0261333Y0387265D02*
X0285333Y0387265D01*
X0285333Y0388263D02*
X0261333Y0388263D01*
X0261333Y0389262D02*
X0285333Y0389262D01*
X0285333Y0390260D02*
X0261333Y0390260D01*
X0261333Y0391259D02*
X0285333Y0391259D01*
X0285333Y0392257D02*
X0261333Y0392257D01*
X0261333Y0393256D02*
X0285333Y0393256D01*
X0285333Y0394254D02*
X0261333Y0394254D01*
X0261333Y0395253D02*
X0285333Y0395253D01*
X0285333Y0396251D02*
X0261333Y0396251D01*
X0245333Y0396251D02*
X0221333Y0396251D01*
X0221333Y0396400D02*
X0221333Y0382400D01*
X0221455Y0380692D01*
X0221819Y0379019D01*
X0222418Y0377415D01*
X0223238Y0375912D01*
X0224264Y0374542D01*
X0225475Y0373331D01*
X0226846Y0372305D01*
X0228348Y0371484D01*
X0229953Y0370886D01*
X0231626Y0370522D01*
X0233333Y0370400D01*
X0235041Y0370522D01*
X0236714Y0370886D01*
X0238318Y0371484D01*
X0239821Y0372305D01*
X0241192Y0373331D01*
X0242402Y0374542D01*
X0243428Y0375912D01*
X0244249Y0377415D01*
X0244847Y0379019D01*
X0245211Y0380692D01*
X0245333Y0382400D01*
X0245333Y0396400D01*
X0221333Y0396400D01*
X0221333Y0395253D02*
X0245333Y0395253D01*
X0245333Y0394254D02*
X0221333Y0394254D01*
X0221333Y0393256D02*
X0245333Y0393256D01*
X0245333Y0392257D02*
X0221333Y0392257D01*
X0221333Y0391259D02*
X0245333Y0391259D01*
X0245333Y0390260D02*
X0221333Y0390260D01*
X0221333Y0389262D02*
X0245333Y0389262D01*
X0245333Y0388263D02*
X0221333Y0388263D01*
X0221333Y0387265D02*
X0245333Y0387265D01*
X0245333Y0386266D02*
X0221333Y0386266D01*
X0221333Y0385268D02*
X0245333Y0385268D01*
X0245333Y0384269D02*
X0221333Y0384269D01*
X0221333Y0383270D02*
X0245333Y0383270D01*
X0245324Y0382272D02*
X0221342Y0382272D01*
X0221414Y0381273D02*
X0245253Y0381273D01*
X0245120Y0380275D02*
X0221546Y0380275D01*
X0221763Y0379276D02*
X0244903Y0379276D01*
X0244571Y0378278D02*
X0222096Y0378278D01*
X0222492Y0377279D02*
X0244175Y0377279D01*
X0243630Y0376281D02*
X0223037Y0376281D01*
X0223710Y0375282D02*
X0242957Y0375282D01*
X0242145Y0374284D02*
X0224522Y0374284D01*
X0225536Y0373285D02*
X0241131Y0373285D01*
X0239788Y0372287D02*
X0226879Y0372287D01*
X0228874Y0371288D02*
X0237793Y0371288D01*
X0204847Y0379019D02*
X0204249Y0377415D01*
X0203428Y0375912D01*
X0202402Y0374542D01*
X0201192Y0373331D01*
X0199821Y0372305D01*
X0198318Y0371484D01*
X0196714Y0370886D01*
X0195041Y0370522D01*
X0193333Y0370400D01*
X0191626Y0370522D01*
X0189953Y0370886D01*
X0188348Y0371484D01*
X0186846Y0372305D01*
X0185475Y0373331D01*
X0184264Y0374542D01*
X0183238Y0375912D01*
X0182418Y0377415D01*
X0181819Y0379019D01*
X0181455Y0380692D01*
X0181333Y0382400D01*
X0181333Y0396400D01*
X0205333Y0396400D01*
X0205333Y0382400D01*
X0205211Y0380692D01*
X0204847Y0379019D01*
X0204903Y0379276D02*
X0181763Y0379276D01*
X0181546Y0380275D02*
X0205120Y0380275D01*
X0205253Y0381273D02*
X0181414Y0381273D01*
X0181342Y0382272D02*
X0205324Y0382272D01*
X0205333Y0383270D02*
X0181333Y0383270D01*
X0181333Y0384269D02*
X0205333Y0384269D01*
X0205333Y0385268D02*
X0181333Y0385268D01*
X0181333Y0386266D02*
X0205333Y0386266D01*
X0205333Y0387265D02*
X0181333Y0387265D01*
X0181333Y0388263D02*
X0205333Y0388263D01*
X0205333Y0389262D02*
X0181333Y0389262D01*
X0181333Y0390260D02*
X0205333Y0390260D01*
X0205333Y0391259D02*
X0181333Y0391259D01*
X0181333Y0392257D02*
X0205333Y0392257D01*
X0205333Y0393256D02*
X0181333Y0393256D01*
X0181333Y0394254D02*
X0205333Y0394254D01*
X0205333Y0395253D02*
X0181333Y0395253D01*
X0181333Y0396251D02*
X0205333Y0396251D01*
X0204571Y0378278D02*
X0182096Y0378278D01*
X0182492Y0377279D02*
X0204175Y0377279D01*
X0203630Y0376281D02*
X0183037Y0376281D01*
X0183710Y0375282D02*
X0202957Y0375282D01*
X0202145Y0374284D02*
X0184522Y0374284D01*
X0185536Y0373285D02*
X0201131Y0373285D01*
X0199788Y0372287D02*
X0186879Y0372287D01*
X0188874Y0371288D02*
X0197793Y0371288D01*
X0164847Y0379019D02*
X0164249Y0377415D01*
X0163428Y0375912D01*
X0162402Y0374542D01*
X0161192Y0373331D01*
X0159821Y0372305D01*
X0158318Y0371484D01*
X0156714Y0370886D01*
X0155041Y0370522D01*
X0153333Y0370400D01*
X0151626Y0370522D01*
X0149953Y0370886D01*
X0148348Y0371484D01*
X0146846Y0372305D01*
X0145475Y0373331D01*
X0144264Y0374542D01*
X0143238Y0375912D01*
X0142418Y0377415D01*
X0141819Y0379019D01*
X0141455Y0380692D01*
X0141333Y0382400D01*
X0141333Y0396400D01*
X0165333Y0396400D01*
X0165333Y0382400D01*
X0165211Y0380692D01*
X0164847Y0379019D01*
X0164903Y0379276D02*
X0141763Y0379276D01*
X0141546Y0380275D02*
X0165120Y0380275D01*
X0165253Y0381273D02*
X0141414Y0381273D01*
X0141342Y0382272D02*
X0165324Y0382272D01*
X0165333Y0383270D02*
X0141333Y0383270D01*
X0141333Y0384269D02*
X0165333Y0384269D01*
X0165333Y0385268D02*
X0141333Y0385268D01*
X0141333Y0386266D02*
X0165333Y0386266D01*
X0165333Y0387265D02*
X0141333Y0387265D01*
X0141333Y0388263D02*
X0165333Y0388263D01*
X0165333Y0389262D02*
X0141333Y0389262D01*
X0141333Y0390260D02*
X0165333Y0390260D01*
X0165333Y0391259D02*
X0141333Y0391259D01*
X0141333Y0392257D02*
X0165333Y0392257D01*
X0165333Y0393256D02*
X0141333Y0393256D01*
X0141333Y0394254D02*
X0165333Y0394254D01*
X0165333Y0395253D02*
X0141333Y0395253D01*
X0141333Y0396251D02*
X0165333Y0396251D01*
X0164571Y0378278D02*
X0142096Y0378278D01*
X0142492Y0377279D02*
X0164175Y0377279D01*
X0163630Y0376281D02*
X0143037Y0376281D01*
X0143710Y0375282D02*
X0162957Y0375282D01*
X0162145Y0374284D02*
X0144522Y0374284D01*
X0145536Y0373285D02*
X0161131Y0373285D01*
X0159788Y0372287D02*
X0146879Y0372287D01*
X0148874Y0371288D02*
X0157793Y0371288D01*
D18*
X0166833Y0329928D03*
X0166833Y0320872D03*
X0213333Y0315928D03*
X0213333Y0306872D03*
X0253333Y0306872D03*
X0253333Y0315928D03*
D19*
X0215408Y0332522D02*
X0215408Y0335278D01*
X0218164Y0335278D01*
X0218164Y0332522D01*
X0215408Y0332522D01*
X0215408Y0333644D02*
X0218164Y0333644D01*
X0218164Y0334766D02*
X0215408Y0334766D01*
X0208503Y0335278D02*
X0208503Y0332522D01*
X0208503Y0335278D02*
X0211259Y0335278D01*
X0211259Y0332522D01*
X0208503Y0332522D01*
X0208503Y0333644D02*
X0211259Y0333644D01*
X0211259Y0334766D02*
X0208503Y0334766D01*
D20*
X0180573Y0321463D03*
X0173093Y0321463D03*
X0176833Y0329731D03*
D21*
X0176833Y0312900D01*
X0178333Y0311400D01*
X0192333Y0311400D01*
X0192833Y0310900D01*
X0193333Y0311400D01*
X0193333Y0345400D01*
X0195542Y0347505D02*
X0231333Y0347505D01*
X0231333Y0348303D02*
X0194294Y0348303D01*
X0193940Y0348450D02*
X0192727Y0348450D01*
X0191606Y0347986D01*
X0191591Y0347971D01*
X0188524Y0351038D01*
X0185642Y0351038D01*
X0185642Y0351762D01*
X0214867Y0351762D01*
X0216450Y0350180D01*
X0224520Y0350180D01*
X0225106Y0349594D01*
X0226227Y0349130D01*
X0227440Y0349130D01*
X0228561Y0349594D01*
X0229147Y0350180D01*
X0231333Y0350180D01*
X0231333Y0333400D01*
X0222505Y0333400D01*
X0221333Y0332228D01*
X0211333Y0322228D01*
X0211333Y0318768D01*
X0211037Y0318768D01*
X0210099Y0317830D01*
X0210099Y0314025D01*
X0211037Y0313087D01*
X0215630Y0313087D01*
X0216567Y0314025D01*
X0216567Y0317830D01*
X0215630Y0318768D01*
X0215333Y0318768D01*
X0215333Y0320572D01*
X0224162Y0329400D01*
X0231333Y0329400D01*
X0231333Y0324363D01*
X0231326Y0324362D01*
X0230608Y0324310D01*
X0230496Y0324181D01*
X0230189Y0324114D01*
X0230034Y0324185D01*
X0229359Y0323934D01*
X0228656Y0323781D01*
X0228564Y0323637D01*
X0228269Y0323527D01*
X0228105Y0323576D01*
X0227474Y0323231D01*
X0226799Y0322979D01*
X0226728Y0322824D01*
X0226453Y0322673D01*
X0226284Y0322697D01*
X0225707Y0322266D01*
X0225076Y0321921D01*
X0225028Y0321757D01*
X0224776Y0321569D01*
X0224605Y0321569D01*
X0224096Y0321060D01*
X0223520Y0320629D01*
X0223496Y0320460D01*
X0223274Y0320237D01*
X0223104Y0320213D01*
X0222673Y0319637D01*
X0222164Y0319128D01*
X0222164Y0318957D01*
X0221976Y0318706D01*
X0221812Y0318658D01*
X0221467Y0318026D01*
X0221036Y0317450D01*
X0221060Y0317281D01*
X0220910Y0317005D01*
X0220754Y0316934D01*
X0220503Y0316260D01*
X0220158Y0315628D01*
X0220206Y0315464D01*
X0220096Y0315170D01*
X0219952Y0315077D01*
X0219799Y0314374D01*
X0219548Y0313700D01*
X0219619Y0313544D01*
X0219552Y0313237D01*
X0219423Y0313125D01*
X0219372Y0312407D01*
X0219219Y0311704D01*
X0219311Y0311560D01*
X0219295Y0311331D01*
X0219233Y0311270D01*
X0219233Y0310475D01*
X0219177Y0309682D01*
X0219233Y0309617D01*
X0219233Y0298400D01*
X0207433Y0298400D01*
X0207433Y0309617D01*
X0207490Y0309682D01*
X0207433Y0310475D01*
X0207433Y0311270D01*
X0207372Y0311331D01*
X0207356Y0311560D01*
X0207448Y0311704D01*
X0207295Y0312407D01*
X0207244Y0313125D01*
X0207115Y0313237D01*
X0207048Y0313544D01*
X0207119Y0313700D01*
X0206867Y0314374D01*
X0206714Y0315077D01*
X0206571Y0315170D01*
X0206461Y0315464D01*
X0206509Y0315628D01*
X0206164Y0316260D01*
X0205913Y0316934D01*
X0205757Y0317005D01*
X0205606Y0317281D01*
X0205631Y0317450D01*
X0205200Y0318026D01*
X0204855Y0318658D01*
X0204691Y0318706D01*
X0204502Y0318957D01*
X0204502Y0319128D01*
X0203993Y0319637D01*
X0203562Y0320213D01*
X0203393Y0320237D01*
X0203171Y0320460D01*
X0203146Y0320629D01*
X0202570Y0321060D01*
X0202062Y0321569D01*
X0201891Y0321569D01*
X0201639Y0321757D01*
X0201591Y0321921D01*
X0200959Y0322266D01*
X0200383Y0322697D01*
X0200214Y0322673D01*
X0199938Y0322824D01*
X0199867Y0322979D01*
X0199193Y0323231D01*
X0198561Y0323576D01*
X0198397Y0323527D01*
X0198103Y0323637D01*
X0198010Y0323781D01*
X0197307Y0323934D01*
X0196633Y0324185D01*
X0196478Y0324114D01*
X0196170Y0324181D01*
X0196059Y0324310D01*
X0195341Y0324362D01*
X0195333Y0324363D01*
X0195333Y0333031D01*
X0196280Y0333031D01*
X0196280Y0336000D01*
X0197080Y0336000D01*
X0197080Y0336800D01*
X0200245Y0336800D01*
X0200245Y0338553D01*
X0200150Y0338909D01*
X0199965Y0339228D01*
X0199705Y0339489D01*
X0199386Y0339673D01*
X0199029Y0339768D01*
X0197080Y0339768D01*
X0197080Y0336800D01*
X0196280Y0336800D01*
X0196280Y0339768D01*
X0195333Y0339768D01*
X0195333Y0343087D01*
X0195919Y0343672D01*
X0196383Y0344793D01*
X0196383Y0346007D01*
X0195919Y0347128D01*
X0195061Y0347986D01*
X0193940Y0348450D01*
X0192372Y0348303D02*
X0191259Y0348303D01*
X0190460Y0349102D02*
X0231333Y0349102D01*
X0231333Y0349900D02*
X0228867Y0349900D01*
X0226833Y0352180D02*
X0217278Y0352180D01*
X0215696Y0353762D01*
X0182664Y0353762D01*
X0182664Y0356124D02*
X0208333Y0356124D01*
X0208333Y0360554D01*
X0204765Y0360281D02*
X0195043Y0360281D01*
X0195333Y0360572D02*
X0204162Y0369400D01*
X0204765Y0369400D01*
X0204765Y0364418D01*
X0205283Y0363900D01*
X0204765Y0363382D01*
X0204765Y0358124D01*
X0185092Y0358124D01*
X0184705Y0358512D01*
X0180623Y0358512D01*
X0179686Y0357575D01*
X0179686Y0345225D01*
X0180623Y0344288D01*
X0180664Y0344288D01*
X0180664Y0343510D01*
X0180606Y0343486D01*
X0179970Y0342850D01*
X0170402Y0342850D01*
X0170402Y0344676D01*
X0171575Y0344676D01*
X0171962Y0344288D01*
X0176043Y0344288D01*
X0176981Y0345225D01*
X0176981Y0355212D01*
X0176981Y0357575D01*
X0176043Y0358512D01*
X0171962Y0358512D01*
X0171575Y0358124D01*
X0170937Y0358124D01*
X0170333Y0358728D01*
X0170333Y0363572D01*
X0171162Y0364400D01*
X0171222Y0364400D01*
X0171222Y0363769D01*
X0172159Y0362831D01*
X0177815Y0362831D01*
X0178333Y0363350D01*
X0178852Y0362831D01*
X0179730Y0362831D01*
X0179730Y0362246D01*
X0180872Y0361104D01*
X0182526Y0359450D01*
X0185970Y0359450D01*
X0186606Y0358814D01*
X0187727Y0358350D01*
X0188940Y0358350D01*
X0190061Y0358814D01*
X0190647Y0359400D01*
X0194162Y0359400D01*
X0195333Y0360572D01*
X0195841Y0361079D02*
X0204765Y0361079D01*
X0204765Y0361878D02*
X0196640Y0361878D01*
X0197438Y0362676D02*
X0204765Y0362676D01*
X0204858Y0363475D02*
X0198237Y0363475D01*
X0199035Y0364273D02*
X0204910Y0364273D01*
X0204765Y0365072D02*
X0199834Y0365072D01*
X0200632Y0365870D02*
X0204765Y0365870D01*
X0204765Y0366669D02*
X0201431Y0366669D01*
X0202229Y0367468D02*
X0204765Y0367468D01*
X0204765Y0368266D02*
X0203028Y0368266D01*
X0203826Y0369065D02*
X0204765Y0369065D01*
X0203333Y0371400D02*
X0208333Y0371400D01*
X0208333Y0367246D01*
X0208333Y0371400D02*
X0218333Y0371400D01*
X0218333Y0367246D01*
X0218333Y0371400D02*
X0222333Y0371400D01*
X0233333Y0371400D02*
X0233333Y0368400D01*
X0225333Y0360400D01*
X0225180Y0360554D01*
X0218333Y0360554D01*
X0217109Y0356124D02*
X0208333Y0356124D01*
X0204765Y0358684D02*
X0189746Y0358684D01*
X0186921Y0358684D02*
X0170378Y0358684D01*
X0170333Y0359482D02*
X0182493Y0359482D01*
X0181695Y0360281D02*
X0170333Y0360281D01*
X0170333Y0361079D02*
X0180896Y0361079D01*
X0180098Y0361878D02*
X0170333Y0361878D01*
X0170333Y0362676D02*
X0179730Y0362676D01*
X0185026Y0363350D02*
X0185445Y0363769D01*
X0185445Y0369031D01*
X0184508Y0369968D01*
X0178852Y0369968D01*
X0178333Y0369450D01*
X0177815Y0369968D01*
X0172159Y0369968D01*
X0171222Y0369031D01*
X0171222Y0368400D01*
X0169505Y0368400D01*
X0167505Y0366400D01*
X0166333Y0365228D01*
X0166333Y0357072D01*
X0167505Y0355900D01*
X0168790Y0354615D01*
X0164883Y0350708D01*
X0164883Y0347512D01*
X0164202Y0347512D01*
X0163265Y0346575D01*
X0163265Y0340918D01*
X0163783Y0340400D01*
X0163265Y0339882D01*
X0163265Y0334225D01*
X0164202Y0333288D01*
X0169465Y0333288D01*
X0170402Y0334225D01*
X0170402Y0337864D01*
X0171488Y0338950D01*
X0171541Y0338950D01*
X0171517Y0338909D01*
X0171422Y0338553D01*
X0171422Y0336800D01*
X0174587Y0336800D01*
X0174587Y0336000D01*
X0171422Y0336000D01*
X0171422Y0334247D01*
X0171517Y0333891D01*
X0171701Y0333572D01*
X0171962Y0333311D01*
X0172281Y0333127D01*
X0172637Y0333031D01*
X0174525Y0333031D01*
X0173659Y0332165D01*
X0173659Y0331928D01*
X0169970Y0331928D01*
X0169130Y0332768D01*
X0164537Y0332768D01*
X0163599Y0331830D01*
X0163599Y0328025D01*
X0164537Y0327087D01*
X0169130Y0327087D01*
X0169970Y0327928D01*
X0173659Y0327928D01*
X0173659Y0327296D01*
X0174596Y0326359D01*
X0174833Y0326359D01*
X0174833Y0324835D01*
X0170856Y0324835D01*
X0169918Y0323897D01*
X0169918Y0323223D01*
X0169620Y0323223D01*
X0169130Y0323713D01*
X0164537Y0323713D01*
X0163599Y0322775D01*
X0163599Y0319771D01*
X0163176Y0320242D01*
X0163176Y0320242D01*
X0162974Y0320424D01*
X0162093Y0321217D01*
X0162093Y0321217D01*
X0161855Y0321390D01*
X0160914Y0322074D01*
X0160632Y0322237D01*
X0159652Y0322802D01*
X0159316Y0322952D01*
X0158321Y0323395D01*
X0157915Y0323527D01*
X0156936Y0323845D01*
X0156936Y0323845D01*
X0156433Y0323952D01*
X0155511Y0324148D01*
X0154062Y0324300D01*
X0153733Y0324300D01*
X0153733Y0310800D01*
X0152933Y0310800D01*
X0152933Y0310000D01*
X0140333Y0310000D01*
X0140333Y0310800D01*
X0152933Y0310800D01*
X0152933Y0324300D01*
X0152605Y0324300D01*
X0151156Y0324148D01*
X0149731Y0323845D01*
X0148345Y0323395D01*
X0147014Y0322802D01*
X0145752Y0322074D01*
X0144574Y0321217D01*
X0143491Y0320242D01*
X0142516Y0319160D01*
X0142516Y0319160D01*
X0142506Y0319145D01*
X0141660Y0317981D01*
X0140931Y0316719D01*
X0140339Y0315388D01*
X0140333Y0315371D01*
X0140333Y0329353D01*
X0141312Y0328375D01*
X0142623Y0327831D01*
X0144043Y0327831D01*
X0145355Y0328375D01*
X0146359Y0329379D01*
X0146902Y0330690D01*
X0146902Y0332110D01*
X0146359Y0333421D01*
X0145355Y0334425D01*
X0144043Y0334968D01*
X0142623Y0334968D01*
X0141312Y0334425D01*
X0140333Y0333447D01*
X0140333Y0341656D01*
X0141099Y0340330D01*
X0143612Y0338222D01*
X0146693Y0337100D01*
X0149973Y0337100D01*
X0153055Y0338222D01*
X0155567Y0340330D01*
X0157207Y0343170D01*
X0157207Y0343170D01*
X0157777Y0346400D01*
X0157207Y0349630D01*
X0155567Y0352470D01*
X0153055Y0354578D01*
X0149973Y0355700D01*
X0146693Y0355700D01*
X0143612Y0354578D01*
X0143612Y0354578D01*
X0141099Y0352470D01*
X0140333Y0351144D01*
X0140333Y0377429D01*
X0140339Y0377412D01*
X0140339Y0377412D01*
X0140931Y0376081D01*
X0140931Y0376081D01*
X0141660Y0374819D01*
X0142516Y0373640D01*
X0143491Y0372558D01*
X0143491Y0372558D01*
X0143508Y0372543D01*
X0144574Y0371583D01*
X0144594Y0371568D01*
X0145752Y0370726D01*
X0145752Y0370726D01*
X0145777Y0370712D01*
X0147014Y0369998D01*
X0147014Y0369998D01*
X0147045Y0369984D01*
X0148345Y0369405D01*
X0148384Y0369393D01*
X0149731Y0368955D01*
X0149783Y0368944D01*
X0151156Y0368652D01*
X0152605Y0368500D01*
X0152933Y0368500D01*
X0152933Y0382000D01*
X0140333Y0382000D01*
X0140333Y0382800D01*
X0152933Y0382800D01*
X0152933Y0382000D01*
X0153733Y0382000D01*
X0153733Y0368500D01*
X0154062Y0368500D01*
X0155511Y0368652D01*
X0156936Y0368955D01*
X0158321Y0369405D01*
X0159652Y0369998D01*
X0160914Y0370726D01*
X0162093Y0371583D01*
X0163176Y0372558D01*
X0164150Y0373640D01*
X0164150Y0373640D01*
X0164155Y0373647D01*
X0165007Y0374819D01*
X0165007Y0374819D01*
X0165735Y0376081D01*
X0166328Y0377412D01*
X0166778Y0378797D01*
X0166778Y0378797D01*
X0167081Y0380223D01*
X0167233Y0381672D01*
X0167233Y0382000D01*
X0153733Y0382000D01*
X0153733Y0382800D01*
X0152933Y0382800D01*
X0152933Y0394400D01*
X0153733Y0394400D01*
X0153733Y0382800D01*
X0167233Y0382800D01*
X0167233Y0394400D01*
X0179233Y0394400D01*
X0179233Y0383183D01*
X0179177Y0383118D01*
X0179233Y0382325D01*
X0179233Y0381530D01*
X0179295Y0381469D01*
X0179311Y0381240D01*
X0179219Y0381096D01*
X0179372Y0380393D01*
X0179423Y0379675D01*
X0179552Y0379563D01*
X0179619Y0379256D01*
X0179548Y0379100D01*
X0179799Y0378426D01*
X0179952Y0377723D01*
X0180096Y0377630D01*
X0180206Y0377336D01*
X0180158Y0377172D01*
X0180503Y0376540D01*
X0180754Y0375866D01*
X0180910Y0375795D01*
X0181060Y0375519D01*
X0181036Y0375350D01*
X0181467Y0374774D01*
X0181812Y0374142D01*
X0181976Y0374094D01*
X0182164Y0373843D01*
X0182164Y0373672D01*
X0182673Y0373163D01*
X0183104Y0372587D01*
X0183274Y0372563D01*
X0183496Y0372340D01*
X0183520Y0372171D01*
X0184096Y0371740D01*
X0184605Y0371231D01*
X0184776Y0371231D01*
X0185028Y0371043D01*
X0185076Y0370879D01*
X0185707Y0370534D01*
X0186284Y0370103D01*
X0186453Y0370127D01*
X0186728Y0369976D01*
X0186799Y0369821D01*
X0187474Y0369569D01*
X0188105Y0369224D01*
X0188269Y0369273D01*
X0188564Y0369163D01*
X0188656Y0369019D01*
X0189359Y0368866D01*
X0190034Y0368615D01*
X0190189Y0368686D01*
X0190496Y0368619D01*
X0190608Y0368490D01*
X0191326Y0368438D01*
X0192029Y0368285D01*
X0192173Y0368378D01*
X0192486Y0368355D01*
X0192616Y0368243D01*
X0193333Y0368295D01*
X0194051Y0368243D01*
X0194180Y0368355D01*
X0194494Y0368378D01*
X0194638Y0368285D01*
X0195341Y0368438D01*
X0196059Y0368490D01*
X0196170Y0368619D01*
X0196478Y0368686D01*
X0196633Y0368615D01*
X0197307Y0368866D01*
X0198010Y0369019D01*
X0198103Y0369163D01*
X0198366Y0369261D01*
X0192505Y0363400D01*
X0190647Y0363400D01*
X0190061Y0363986D01*
X0188940Y0364450D01*
X0187727Y0364450D01*
X0186606Y0363986D01*
X0185970Y0363350D01*
X0185026Y0363350D01*
X0185151Y0363475D02*
X0186095Y0363475D01*
X0185445Y0364273D02*
X0187300Y0364273D01*
X0185445Y0365072D02*
X0194177Y0365072D01*
X0194975Y0365870D02*
X0185445Y0365870D01*
X0185445Y0366669D02*
X0195774Y0366669D01*
X0196572Y0367468D02*
X0185445Y0367468D01*
X0185445Y0368266D02*
X0192589Y0368266D01*
X0192933Y0368266D02*
X0193733Y0368266D01*
X0194077Y0368266D02*
X0197371Y0368266D01*
X0198040Y0369065D02*
X0198169Y0369065D01*
X0203333Y0371400D02*
X0193333Y0361400D01*
X0188333Y0361400D01*
X0190572Y0363475D02*
X0192580Y0363475D01*
X0193378Y0364273D02*
X0189366Y0364273D01*
X0188627Y0369065D02*
X0185412Y0369065D01*
X0184613Y0369863D02*
X0186780Y0369863D01*
X0185473Y0370662D02*
X0160802Y0370662D01*
X0161924Y0371460D02*
X0184376Y0371460D01*
X0183508Y0372259D02*
X0162843Y0372259D01*
X0163176Y0372558D02*
X0163176Y0372558D01*
X0163625Y0373057D02*
X0182752Y0373057D01*
X0182155Y0373856D02*
X0164307Y0373856D01*
X0164887Y0374654D02*
X0181533Y0374654D01*
X0181051Y0375453D02*
X0165373Y0375453D01*
X0165735Y0376081D02*
X0165735Y0376081D01*
X0165811Y0376251D02*
X0180611Y0376251D01*
X0180225Y0377050D02*
X0166167Y0377050D01*
X0166328Y0377412D02*
X0166328Y0377412D01*
X0166470Y0377848D02*
X0179925Y0377848D01*
X0179717Y0378647D02*
X0166729Y0378647D01*
X0166916Y0379445D02*
X0179578Y0379445D01*
X0179382Y0380244D02*
X0167083Y0380244D01*
X0167081Y0380223D02*
X0167081Y0380223D01*
X0167167Y0381042D02*
X0179230Y0381042D01*
X0179233Y0381841D02*
X0167233Y0381841D01*
X0167233Y0383438D02*
X0179233Y0383438D01*
X0179233Y0384236D02*
X0167233Y0384236D01*
X0167233Y0385035D02*
X0179233Y0385035D01*
X0179233Y0385833D02*
X0167233Y0385833D01*
X0167233Y0386632D02*
X0179233Y0386632D01*
X0179233Y0387430D02*
X0167233Y0387430D01*
X0167233Y0388229D02*
X0179233Y0388229D01*
X0179233Y0389027D02*
X0167233Y0389027D01*
X0167233Y0389826D02*
X0179233Y0389826D01*
X0179233Y0390624D02*
X0167233Y0390624D01*
X0167233Y0391423D02*
X0179233Y0391423D01*
X0179233Y0392221D02*
X0167233Y0392221D01*
X0167233Y0393020D02*
X0179233Y0393020D01*
X0179233Y0393818D02*
X0167233Y0393818D01*
X0179211Y0382639D02*
X0153733Y0382639D01*
X0153733Y0381841D02*
X0152933Y0381841D01*
X0152933Y0382639D02*
X0140333Y0382639D01*
X0140333Y0377050D02*
X0140500Y0377050D01*
X0140333Y0376251D02*
X0140856Y0376251D01*
X0141294Y0375453D02*
X0140333Y0375453D01*
X0140333Y0374654D02*
X0141780Y0374654D01*
X0141660Y0374819D02*
X0141660Y0374819D01*
X0142360Y0373856D02*
X0140333Y0373856D01*
X0140333Y0373057D02*
X0143041Y0373057D01*
X0143491Y0372558D02*
X0143491Y0372558D01*
X0143823Y0372259D02*
X0140333Y0372259D01*
X0140333Y0371460D02*
X0144743Y0371460D01*
X0144574Y0371583D02*
X0144574Y0371583D01*
X0145865Y0370662D02*
X0140333Y0370662D01*
X0140333Y0369863D02*
X0147317Y0369863D01*
X0148345Y0369405D02*
X0148345Y0369405D01*
X0149394Y0369065D02*
X0140333Y0369065D01*
X0140333Y0368266D02*
X0169371Y0368266D01*
X0168572Y0367468D02*
X0140333Y0367468D01*
X0140333Y0366669D02*
X0167774Y0366669D01*
X0166975Y0365870D02*
X0140333Y0365870D01*
X0140333Y0365072D02*
X0166333Y0365072D01*
X0166333Y0364273D02*
X0140333Y0364273D01*
X0140333Y0363475D02*
X0166333Y0363475D01*
X0166333Y0362676D02*
X0140333Y0362676D01*
X0140333Y0361878D02*
X0166333Y0361878D01*
X0166333Y0361079D02*
X0140333Y0361079D01*
X0140333Y0360281D02*
X0166333Y0360281D01*
X0166333Y0359482D02*
X0140333Y0359482D01*
X0140333Y0358684D02*
X0166333Y0358684D01*
X0166333Y0357885D02*
X0140333Y0357885D01*
X0140333Y0357087D02*
X0166333Y0357087D01*
X0167117Y0356288D02*
X0140333Y0356288D01*
X0140333Y0355490D02*
X0146116Y0355490D01*
X0143922Y0354691D02*
X0140333Y0354691D01*
X0140333Y0353893D02*
X0142795Y0353893D01*
X0141843Y0353094D02*
X0140333Y0353094D01*
X0140333Y0352296D02*
X0140999Y0352296D01*
X0141099Y0352470D02*
X0141099Y0352470D01*
X0141099Y0352470D01*
X0140538Y0351497D02*
X0140333Y0351497D01*
X0150551Y0355490D02*
X0167915Y0355490D01*
X0168714Y0354691D02*
X0152744Y0354691D01*
X0153055Y0354578D02*
X0153055Y0354578D01*
X0153872Y0353893D02*
X0168068Y0353893D01*
X0167270Y0353094D02*
X0154824Y0353094D01*
X0155567Y0352470D02*
X0155567Y0352470D01*
X0155668Y0352296D02*
X0166471Y0352296D01*
X0165673Y0351497D02*
X0156129Y0351497D01*
X0156590Y0350699D02*
X0164883Y0350699D01*
X0164883Y0349900D02*
X0157051Y0349900D01*
X0157207Y0349630D02*
X0157207Y0349630D01*
X0157300Y0349102D02*
X0164883Y0349102D01*
X0164883Y0348303D02*
X0157441Y0348303D01*
X0157582Y0347505D02*
X0164195Y0347505D01*
X0163396Y0346706D02*
X0157723Y0346706D01*
X0157777Y0346400D02*
X0157777Y0346400D01*
X0157690Y0345908D02*
X0163265Y0345908D01*
X0163265Y0345109D02*
X0157549Y0345109D01*
X0157408Y0344311D02*
X0163265Y0344311D01*
X0163265Y0343512D02*
X0157268Y0343512D01*
X0156944Y0342714D02*
X0163265Y0342714D01*
X0163265Y0341915D02*
X0156483Y0341915D01*
X0156022Y0341117D02*
X0163265Y0341117D01*
X0163701Y0340318D02*
X0155553Y0340318D01*
X0155567Y0340330D02*
X0155567Y0340330D01*
X0155567Y0340330D01*
X0154602Y0339520D02*
X0163265Y0339520D01*
X0163265Y0338721D02*
X0153650Y0338721D01*
X0153055Y0338222D02*
X0153055Y0338222D01*
X0152233Y0337923D02*
X0163265Y0337923D01*
X0163265Y0337124D02*
X0150039Y0337124D01*
X0146627Y0337124D02*
X0140333Y0337124D01*
X0140333Y0336326D02*
X0163265Y0336326D01*
X0163265Y0335527D02*
X0140333Y0335527D01*
X0140333Y0334729D02*
X0142044Y0334729D01*
X0140817Y0333930D02*
X0140333Y0333930D01*
X0140333Y0337923D02*
X0144433Y0337923D01*
X0143612Y0338222D02*
X0143612Y0338222D01*
X0143016Y0338721D02*
X0140333Y0338721D01*
X0140333Y0339520D02*
X0142065Y0339520D01*
X0141113Y0340318D02*
X0140333Y0340318D01*
X0141099Y0340330D02*
X0141099Y0340330D01*
X0140645Y0341117D02*
X0140333Y0341117D01*
X0144622Y0334729D02*
X0163265Y0334729D01*
X0163560Y0333930D02*
X0145850Y0333930D01*
X0146479Y0333132D02*
X0172273Y0333132D01*
X0171506Y0333930D02*
X0170106Y0333930D01*
X0170402Y0334729D02*
X0171422Y0334729D01*
X0171422Y0335527D02*
X0170402Y0335527D01*
X0170402Y0336326D02*
X0174587Y0336326D01*
X0171422Y0337124D02*
X0170402Y0337124D01*
X0170460Y0337923D02*
X0171422Y0337923D01*
X0171467Y0338721D02*
X0171259Y0338721D01*
X0170402Y0343512D02*
X0180664Y0343512D01*
X0180601Y0344311D02*
X0176066Y0344311D01*
X0176864Y0345109D02*
X0179802Y0345109D01*
X0179686Y0345908D02*
X0176981Y0345908D01*
X0176981Y0346706D02*
X0179686Y0346706D01*
X0179686Y0347505D02*
X0176981Y0347505D01*
X0176981Y0348303D02*
X0179686Y0348303D01*
X0179686Y0349102D02*
X0176981Y0349102D01*
X0176981Y0349900D02*
X0179686Y0349900D01*
X0179686Y0350699D02*
X0176981Y0350699D01*
X0176981Y0351497D02*
X0179686Y0351497D01*
X0179686Y0352296D02*
X0176981Y0352296D01*
X0176981Y0353094D02*
X0179686Y0353094D01*
X0179686Y0353893D02*
X0176981Y0353893D01*
X0176981Y0354691D02*
X0179686Y0354691D01*
X0179686Y0355490D02*
X0176981Y0355490D01*
X0176981Y0356288D02*
X0179686Y0356288D01*
X0179686Y0357087D02*
X0176981Y0357087D01*
X0176670Y0357885D02*
X0179997Y0357885D01*
X0174003Y0356124D02*
X0170109Y0356124D01*
X0168333Y0357900D01*
X0168333Y0364400D01*
X0170333Y0366400D01*
X0174987Y0366400D01*
X0171222Y0364273D02*
X0171035Y0364273D01*
X0171515Y0363475D02*
X0170333Y0363475D01*
X0171255Y0369065D02*
X0157272Y0369065D01*
X0159349Y0369863D02*
X0172053Y0369863D01*
X0177920Y0369863D02*
X0178746Y0369863D01*
X0194244Y0359482D02*
X0204765Y0359482D01*
X0215132Y0351497D02*
X0185642Y0351497D01*
X0187696Y0349038D02*
X0182664Y0349038D01*
X0182664Y0346676D02*
X0182664Y0341231D01*
X0182333Y0340900D01*
X0181680Y0340246D01*
X0181680Y0336400D01*
X0181680Y0327246D01*
X0180573Y0326140D01*
X0180573Y0321463D01*
X0183748Y0321154D02*
X0184190Y0321154D01*
X0184096Y0321060D02*
X0183748Y0320800D01*
X0183748Y0323897D01*
X0182811Y0324835D01*
X0182573Y0324835D01*
X0182573Y0325312D01*
X0183680Y0326418D01*
X0183680Y0328075D01*
X0183680Y0332831D01*
X0184508Y0332831D01*
X0185445Y0333769D01*
X0185445Y0339031D01*
X0185032Y0339445D01*
X0185383Y0340293D01*
X0185383Y0341507D01*
X0184919Y0342628D01*
X0184664Y0342883D01*
X0184664Y0344288D01*
X0184705Y0344288D01*
X0185642Y0345225D01*
X0185642Y0347038D01*
X0186867Y0347038D01*
X0187987Y0345918D01*
X0187987Y0339968D01*
X0187159Y0339968D01*
X0186222Y0339031D01*
X0186222Y0333769D01*
X0187159Y0332831D01*
X0191333Y0332831D01*
X0191333Y0324363D01*
X0191326Y0324362D01*
X0190608Y0324310D01*
X0190496Y0324181D01*
X0190189Y0324114D01*
X0190034Y0324185D01*
X0189359Y0323934D01*
X0188656Y0323781D01*
X0188564Y0323637D01*
X0188269Y0323527D01*
X0188105Y0323576D01*
X0187474Y0323231D01*
X0186799Y0322979D01*
X0186728Y0322824D01*
X0186453Y0322673D01*
X0186284Y0322697D01*
X0185707Y0322266D01*
X0185076Y0321921D01*
X0185028Y0321757D01*
X0184776Y0321569D01*
X0184605Y0321569D01*
X0184096Y0321060D01*
X0183748Y0321952D02*
X0185133Y0321952D01*
X0183748Y0322751D02*
X0186595Y0322751D01*
X0188057Y0323549D02*
X0183748Y0323549D01*
X0183298Y0324348D02*
X0191132Y0324348D01*
X0191333Y0325146D02*
X0182573Y0325146D01*
X0183207Y0325945D02*
X0191333Y0325945D01*
X0191333Y0326743D02*
X0183680Y0326743D01*
X0183680Y0327542D02*
X0191333Y0327542D01*
X0191333Y0328340D02*
X0183680Y0328340D01*
X0183680Y0329139D02*
X0191333Y0329139D01*
X0191333Y0329937D02*
X0183680Y0329937D01*
X0183680Y0330736D02*
X0191333Y0330736D01*
X0191333Y0331534D02*
X0183680Y0331534D01*
X0183680Y0332333D02*
X0191333Y0332333D01*
X0195333Y0332333D02*
X0206312Y0332333D01*
X0206312Y0331615D02*
X0207595Y0330331D01*
X0212166Y0330331D01*
X0213449Y0331615D01*
X0213449Y0332143D01*
X0213553Y0331754D01*
X0213815Y0331300D01*
X0214186Y0330929D01*
X0214640Y0330667D01*
X0215146Y0330531D01*
X0216386Y0330531D01*
X0216386Y0333500D01*
X0217186Y0333500D01*
X0217186Y0330531D01*
X0218426Y0330531D01*
X0218932Y0330667D01*
X0219386Y0330929D01*
X0219757Y0331300D01*
X0220019Y0331754D01*
X0220155Y0332260D01*
X0220155Y0333500D01*
X0217186Y0333500D01*
X0217186Y0334300D01*
X0216386Y0334300D01*
X0216386Y0337268D01*
X0215146Y0337268D01*
X0214640Y0337133D01*
X0214186Y0336871D01*
X0213815Y0336500D01*
X0213553Y0336046D01*
X0213449Y0335657D01*
X0213449Y0336185D01*
X0212166Y0337468D01*
X0211881Y0337468D01*
X0211881Y0337831D01*
X0212815Y0337831D01*
X0213333Y0338350D01*
X0213852Y0337831D01*
X0219508Y0337831D01*
X0220445Y0338769D01*
X0220445Y0339400D01*
X0221505Y0339400D01*
X0221783Y0339122D01*
X0221783Y0338293D01*
X0222248Y0337172D01*
X0223106Y0336314D01*
X0224227Y0335850D01*
X0225440Y0335850D01*
X0226561Y0336314D01*
X0227419Y0337172D01*
X0227883Y0338293D01*
X0227883Y0339507D01*
X0227419Y0340628D01*
X0226561Y0341486D01*
X0225440Y0341950D01*
X0224612Y0341950D01*
X0223162Y0343400D01*
X0220445Y0343400D01*
X0220445Y0344031D01*
X0219508Y0344968D01*
X0213852Y0344968D01*
X0213333Y0344450D01*
X0212815Y0344968D01*
X0207159Y0344968D01*
X0206222Y0344031D01*
X0206222Y0338769D01*
X0207159Y0337831D01*
X0207881Y0337831D01*
X0207881Y0337468D01*
X0207595Y0337468D01*
X0206312Y0336185D01*
X0206312Y0331615D01*
X0206392Y0331534D02*
X0195333Y0331534D01*
X0195333Y0330736D02*
X0207191Y0330736D01*
X0206312Y0333132D02*
X0199394Y0333132D01*
X0199386Y0333127D02*
X0199705Y0333311D01*
X0199965Y0333572D01*
X0200150Y0333891D01*
X0200245Y0334247D01*
X0200245Y0336000D01*
X0197080Y0336000D01*
X0197080Y0333031D01*
X0199029Y0333031D01*
X0199386Y0333127D01*
X0200160Y0333930D02*
X0206312Y0333930D01*
X0206312Y0334729D02*
X0200245Y0334729D01*
X0200245Y0335527D02*
X0206312Y0335527D01*
X0206452Y0336326D02*
X0197080Y0336326D01*
X0197080Y0337124D02*
X0196280Y0337124D01*
X0196280Y0337923D02*
X0197080Y0337923D01*
X0197080Y0338721D02*
X0196280Y0338721D01*
X0196280Y0339520D02*
X0197080Y0339520D01*
X0195333Y0340318D02*
X0206222Y0340318D01*
X0206222Y0339520D02*
X0199651Y0339520D01*
X0200200Y0338721D02*
X0206269Y0338721D01*
X0207068Y0337923D02*
X0200245Y0337923D01*
X0200245Y0337124D02*
X0207251Y0337124D01*
X0206222Y0341117D02*
X0195333Y0341117D01*
X0195333Y0341915D02*
X0206222Y0341915D01*
X0206222Y0342714D02*
X0195333Y0342714D01*
X0195759Y0343512D02*
X0206222Y0343512D01*
X0206501Y0344311D02*
X0196183Y0344311D01*
X0196383Y0345109D02*
X0231333Y0345109D01*
X0231333Y0344311D02*
X0220166Y0344311D01*
X0220445Y0343512D02*
X0231333Y0343512D01*
X0231333Y0342714D02*
X0223848Y0342714D01*
X0225524Y0341915D02*
X0231333Y0341915D01*
X0231333Y0341117D02*
X0226930Y0341117D01*
X0227547Y0340318D02*
X0231333Y0340318D01*
X0231333Y0339520D02*
X0227878Y0339520D01*
X0227883Y0338721D02*
X0231333Y0338721D01*
X0231333Y0337923D02*
X0227730Y0337923D01*
X0227371Y0337124D02*
X0231333Y0337124D01*
X0231333Y0336326D02*
X0226572Y0336326D01*
X0224833Y0338900D02*
X0222333Y0341400D01*
X0216680Y0341400D01*
X0217186Y0337268D02*
X0217186Y0334300D01*
X0220155Y0334300D01*
X0220155Y0335540D01*
X0220019Y0336046D01*
X0219757Y0336500D01*
X0219386Y0336871D01*
X0218932Y0337133D01*
X0218426Y0337268D01*
X0217186Y0337268D01*
X0217186Y0337124D02*
X0216386Y0337124D01*
X0216386Y0336326D02*
X0217186Y0336326D01*
X0217186Y0335527D02*
X0216386Y0335527D01*
X0216386Y0334729D02*
X0217186Y0334729D01*
X0217186Y0333930D02*
X0231333Y0333930D01*
X0231333Y0334729D02*
X0220155Y0334729D01*
X0220155Y0335527D02*
X0231333Y0335527D01*
X0235333Y0335527D02*
X0241422Y0335527D01*
X0241422Y0336000D02*
X0241422Y0334247D01*
X0241517Y0333891D01*
X0241701Y0333572D01*
X0241962Y0333311D01*
X0242281Y0333127D01*
X0242637Y0333031D01*
X0244587Y0333031D01*
X0244587Y0336000D01*
X0245387Y0336000D01*
X0245387Y0333031D01*
X0247337Y0333031D01*
X0247693Y0333127D01*
X0248012Y0333311D01*
X0248192Y0333491D01*
X0248852Y0332831D01*
X0254508Y0332831D01*
X0255445Y0333769D01*
X0255445Y0334400D01*
X0256662Y0334400D01*
X0259162Y0336900D01*
X0260333Y0338072D01*
X0260333Y0349728D01*
X0259333Y0350728D01*
X0258162Y0351900D01*
X0257833Y0351900D01*
X0257833Y0352228D01*
X0256823Y0353239D01*
X0258000Y0353239D01*
X0258112Y0353350D01*
X0258940Y0353350D01*
X0260061Y0353814D01*
X0260919Y0354672D01*
X0261333Y0355673D01*
X0261333Y0340572D01*
X0263005Y0338900D01*
X0251333Y0327228D01*
X0251333Y0318768D01*
X0251037Y0318768D01*
X0250099Y0317830D01*
X0250099Y0314025D01*
X0251037Y0313087D01*
X0255630Y0313087D01*
X0256567Y0314025D01*
X0256567Y0317830D01*
X0255630Y0318768D01*
X0255333Y0318768D01*
X0255333Y0325572D01*
X0265833Y0336072D01*
X0271333Y0330572D01*
X0271333Y0324363D01*
X0271326Y0324362D01*
X0270608Y0324310D01*
X0270496Y0324181D01*
X0270189Y0324114D01*
X0270034Y0324185D01*
X0269359Y0323934D01*
X0268656Y0323781D01*
X0268564Y0323637D01*
X0268269Y0323527D01*
X0268105Y0323576D01*
X0267474Y0323231D01*
X0266799Y0322979D01*
X0266728Y0322824D01*
X0266453Y0322673D01*
X0266284Y0322697D01*
X0265707Y0322266D01*
X0265076Y0321921D01*
X0265028Y0321757D01*
X0264776Y0321569D01*
X0264605Y0321569D01*
X0264096Y0321060D01*
X0263520Y0320629D01*
X0263496Y0320460D01*
X0263274Y0320237D01*
X0263104Y0320213D01*
X0262673Y0319637D01*
X0262164Y0319128D01*
X0262164Y0318957D01*
X0261976Y0318706D01*
X0261812Y0318658D01*
X0261467Y0318026D01*
X0261036Y0317450D01*
X0261060Y0317281D01*
X0260910Y0317005D01*
X0260754Y0316934D01*
X0260503Y0316260D01*
X0260158Y0315628D01*
X0260206Y0315464D01*
X0260096Y0315170D01*
X0259952Y0315077D01*
X0259799Y0314374D01*
X0259548Y0313700D01*
X0259619Y0313544D01*
X0259552Y0313237D01*
X0259423Y0313125D01*
X0259372Y0312407D01*
X0259219Y0311704D01*
X0259311Y0311560D01*
X0259295Y0311331D01*
X0259233Y0311270D01*
X0259233Y0310475D01*
X0259177Y0309682D01*
X0259233Y0309617D01*
X0259233Y0298400D01*
X0247433Y0298400D01*
X0247433Y0309617D01*
X0247490Y0309682D01*
X0247433Y0310475D01*
X0247433Y0311270D01*
X0247372Y0311331D01*
X0247356Y0311560D01*
X0247448Y0311704D01*
X0247295Y0312407D01*
X0247244Y0313125D01*
X0247115Y0313237D01*
X0247048Y0313544D01*
X0247119Y0313700D01*
X0246867Y0314374D01*
X0246714Y0315077D01*
X0246571Y0315170D01*
X0246461Y0315464D01*
X0246509Y0315628D01*
X0246164Y0316260D01*
X0245913Y0316934D01*
X0245757Y0317005D01*
X0245606Y0317281D01*
X0245631Y0317450D01*
X0245200Y0318026D01*
X0244855Y0318658D01*
X0244691Y0318706D01*
X0244502Y0318957D01*
X0244502Y0319128D01*
X0243993Y0319637D01*
X0243562Y0320213D01*
X0243393Y0320237D01*
X0243171Y0320460D01*
X0243146Y0320629D01*
X0242570Y0321060D01*
X0242062Y0321569D01*
X0241891Y0321569D01*
X0241639Y0321757D01*
X0241591Y0321921D01*
X0240959Y0322266D01*
X0240383Y0322697D01*
X0240214Y0322673D01*
X0239938Y0322824D01*
X0239867Y0322979D01*
X0239193Y0323231D01*
X0238561Y0323576D01*
X0238397Y0323527D01*
X0238103Y0323637D01*
X0238010Y0323781D01*
X0237307Y0323934D01*
X0236633Y0324185D01*
X0236478Y0324114D01*
X0236170Y0324181D01*
X0236059Y0324310D01*
X0235341Y0324362D01*
X0235333Y0324363D01*
X0235333Y0348673D01*
X0235748Y0347672D01*
X0236606Y0346814D01*
X0237727Y0346350D01*
X0238940Y0346350D01*
X0240061Y0346814D01*
X0240919Y0347672D01*
X0241105Y0348120D01*
X0241914Y0348120D01*
X0241914Y0347561D01*
X0241914Y0346688D01*
X0242009Y0346332D01*
X0242193Y0346013D01*
X0242454Y0345752D01*
X0242773Y0345568D01*
X0243129Y0345472D01*
X0244298Y0345472D01*
X0245466Y0345472D01*
X0245823Y0345568D01*
X0246142Y0345752D01*
X0246402Y0346013D01*
X0246587Y0346332D01*
X0246682Y0346688D01*
X0246682Y0347561D01*
X0244298Y0347561D01*
X0244298Y0345472D01*
X0244298Y0347561D01*
X0244298Y0347561D01*
X0244298Y0347561D01*
X0241914Y0347561D01*
X0244298Y0347561D01*
X0244298Y0347561D01*
X0246682Y0347561D01*
X0246682Y0348120D01*
X0247882Y0348120D01*
X0249984Y0350223D01*
X0249984Y0350121D01*
X0252369Y0350121D01*
X0252369Y0350120D01*
X0249985Y0350120D01*
X0249985Y0349247D01*
X0250013Y0349141D01*
X0249785Y0348913D01*
X0249785Y0346210D01*
X0250722Y0345272D01*
X0254016Y0345272D01*
X0254305Y0345561D01*
X0255323Y0345561D01*
X0256333Y0346572D01*
X0256333Y0339728D01*
X0255445Y0338840D01*
X0255445Y0339031D01*
X0254508Y0339968D01*
X0248852Y0339968D01*
X0248192Y0339309D01*
X0248012Y0339489D01*
X0247693Y0339673D01*
X0247337Y0339768D01*
X0245387Y0339768D01*
X0245387Y0336800D01*
X0244587Y0336800D01*
X0244587Y0339768D01*
X0242637Y0339768D01*
X0242281Y0339673D01*
X0241962Y0339489D01*
X0241701Y0339228D01*
X0241517Y0338909D01*
X0241422Y0338553D01*
X0241422Y0336800D01*
X0244587Y0336800D01*
X0244587Y0336000D01*
X0241422Y0336000D01*
X0241422Y0337124D02*
X0235333Y0337124D01*
X0235333Y0336326D02*
X0244587Y0336326D01*
X0244587Y0337124D02*
X0245387Y0337124D01*
X0245387Y0337923D02*
X0244587Y0337923D01*
X0244587Y0338721D02*
X0245387Y0338721D01*
X0245387Y0339520D02*
X0244587Y0339520D01*
X0242015Y0339520D02*
X0235333Y0339520D01*
X0235333Y0340318D02*
X0256333Y0340318D01*
X0256333Y0341117D02*
X0235333Y0341117D01*
X0235333Y0341915D02*
X0256333Y0341915D01*
X0256333Y0342714D02*
X0235333Y0342714D01*
X0235333Y0343512D02*
X0256333Y0343512D01*
X0256333Y0344311D02*
X0235333Y0344311D01*
X0235333Y0345109D02*
X0256333Y0345109D01*
X0256333Y0345908D02*
X0255669Y0345908D01*
X0254495Y0347561D02*
X0255833Y0348900D01*
X0255833Y0349900D01*
X0257333Y0349900D01*
X0258333Y0348900D01*
X0258333Y0338900D01*
X0255833Y0336400D01*
X0251680Y0336400D01*
X0255445Y0333930D02*
X0258035Y0333930D01*
X0258833Y0334729D02*
X0256990Y0334729D01*
X0257789Y0335527D02*
X0259632Y0335527D01*
X0260430Y0336326D02*
X0258587Y0336326D01*
X0259386Y0337124D02*
X0261229Y0337124D01*
X0262027Y0337923D02*
X0260184Y0337923D01*
X0260333Y0338721D02*
X0262826Y0338721D01*
X0262385Y0339520D02*
X0260333Y0339520D01*
X0260333Y0340318D02*
X0261587Y0340318D01*
X0261333Y0341117D02*
X0260333Y0341117D01*
X0260333Y0341915D02*
X0261333Y0341915D01*
X0261333Y0342714D02*
X0260333Y0342714D01*
X0260333Y0343512D02*
X0261333Y0343512D01*
X0261333Y0344311D02*
X0260333Y0344311D01*
X0260333Y0345109D02*
X0261333Y0345109D01*
X0261333Y0345908D02*
X0260333Y0345908D01*
X0260333Y0346706D02*
X0261333Y0346706D01*
X0261333Y0347505D02*
X0260333Y0347505D01*
X0260333Y0348303D02*
X0261333Y0348303D01*
X0261333Y0349102D02*
X0260333Y0349102D01*
X0260161Y0349900D02*
X0261333Y0349900D01*
X0261333Y0350699D02*
X0259363Y0350699D01*
X0258564Y0351497D02*
X0261333Y0351497D01*
X0261333Y0352296D02*
X0257766Y0352296D01*
X0256967Y0353094D02*
X0261333Y0353094D01*
X0261333Y0353893D02*
X0260139Y0353893D01*
X0260927Y0354691D02*
X0261333Y0354691D01*
X0261333Y0355490D02*
X0261258Y0355490D01*
X0258333Y0356400D02*
X0257172Y0355239D01*
X0252369Y0355239D01*
X0252369Y0352680D02*
X0249613Y0352680D01*
X0247054Y0350120D01*
X0244298Y0350120D01*
X0239054Y0350120D01*
X0238333Y0349400D01*
X0235486Y0348303D02*
X0235333Y0348303D01*
X0235333Y0347505D02*
X0235915Y0347505D01*
X0235333Y0346706D02*
X0236867Y0346706D01*
X0235333Y0345908D02*
X0242298Y0345908D01*
X0241914Y0346706D02*
X0239800Y0346706D01*
X0240751Y0347505D02*
X0241914Y0347505D01*
X0244298Y0347505D02*
X0244298Y0347505D01*
X0244298Y0346706D02*
X0244298Y0346706D01*
X0244298Y0345908D02*
X0244298Y0345908D01*
X0246297Y0345908D02*
X0250087Y0345908D01*
X0249785Y0346706D02*
X0246682Y0346706D01*
X0246682Y0347505D02*
X0249785Y0347505D01*
X0249785Y0348303D02*
X0248065Y0348303D01*
X0248863Y0349102D02*
X0249973Y0349102D01*
X0249985Y0349900D02*
X0249662Y0349900D01*
X0252369Y0347561D02*
X0254495Y0347561D01*
X0255833Y0349900D02*
X0255833Y0351400D01*
X0254554Y0352680D01*
X0252369Y0352680D01*
X0244298Y0352680D02*
X0233833Y0352680D01*
X0233333Y0352180D01*
X0233333Y0331400D01*
X0233333Y0310400D01*
X0245672Y0317161D02*
X0250099Y0317161D01*
X0250099Y0316363D02*
X0246126Y0316363D01*
X0246490Y0315564D02*
X0250099Y0315564D01*
X0250099Y0314766D02*
X0246782Y0314766D01*
X0247019Y0313967D02*
X0250157Y0313967D01*
X0250955Y0313169D02*
X0247194Y0313169D01*
X0247303Y0312370D02*
X0259363Y0312370D01*
X0259304Y0311572D02*
X0247363Y0311572D01*
X0247433Y0310773D02*
X0259233Y0310773D01*
X0259198Y0309975D02*
X0247469Y0309975D01*
X0247433Y0309176D02*
X0250783Y0309176D01*
X0250840Y0309233D02*
X0250579Y0308972D01*
X0250395Y0308653D01*
X0250299Y0308297D01*
X0250299Y0307093D01*
X0253113Y0307093D01*
X0253113Y0309513D01*
X0251515Y0309513D01*
X0251159Y0309417D01*
X0250840Y0309233D01*
X0250321Y0308378D02*
X0247433Y0308378D01*
X0247433Y0307579D02*
X0250299Y0307579D01*
X0250299Y0306652D02*
X0250299Y0305448D01*
X0250395Y0305092D01*
X0250579Y0304773D01*
X0250840Y0304512D01*
X0251159Y0304328D01*
X0251515Y0304232D01*
X0253113Y0304232D01*
X0253113Y0306652D01*
X0253553Y0306652D01*
X0253553Y0304232D01*
X0255152Y0304232D01*
X0255508Y0304328D01*
X0255827Y0304512D01*
X0256087Y0304773D01*
X0256272Y0305092D01*
X0256367Y0305448D01*
X0256367Y0306652D01*
X0253553Y0306652D01*
X0253553Y0307093D01*
X0253113Y0307093D01*
X0253113Y0306652D01*
X0250299Y0306652D01*
X0250299Y0305982D02*
X0247433Y0305982D01*
X0247433Y0305184D02*
X0250370Y0305184D01*
X0251060Y0304385D02*
X0247433Y0304385D01*
X0247433Y0303587D02*
X0259233Y0303587D01*
X0259233Y0304385D02*
X0255607Y0304385D01*
X0256296Y0305184D02*
X0259233Y0305184D01*
X0259233Y0305982D02*
X0256367Y0305982D01*
X0256367Y0307093D02*
X0256367Y0308297D01*
X0256272Y0308653D01*
X0256087Y0308972D01*
X0255827Y0309233D01*
X0255508Y0309417D01*
X0255152Y0309513D01*
X0253553Y0309513D01*
X0253553Y0307093D01*
X0256367Y0307093D01*
X0256367Y0307579D02*
X0259233Y0307579D01*
X0259233Y0306781D02*
X0253553Y0306781D01*
X0253113Y0306781D02*
X0247433Y0306781D01*
X0247433Y0302788D02*
X0259233Y0302788D01*
X0259233Y0301990D02*
X0247433Y0301990D01*
X0247433Y0301191D02*
X0259233Y0301191D01*
X0259233Y0300393D02*
X0247433Y0300393D01*
X0247433Y0299594D02*
X0259233Y0299594D01*
X0259233Y0298796D02*
X0247433Y0298796D01*
X0253113Y0304385D02*
X0253553Y0304385D01*
X0253553Y0305184D02*
X0253113Y0305184D01*
X0253113Y0305982D02*
X0253553Y0305982D01*
X0253553Y0307579D02*
X0253113Y0307579D01*
X0253113Y0308378D02*
X0253553Y0308378D01*
X0253553Y0309176D02*
X0253113Y0309176D01*
X0255883Y0309176D02*
X0259233Y0309176D01*
X0259233Y0308378D02*
X0256346Y0308378D01*
X0255711Y0313169D02*
X0259473Y0313169D01*
X0259648Y0313967D02*
X0256510Y0313967D01*
X0256567Y0314766D02*
X0259885Y0314766D01*
X0260176Y0315564D02*
X0256567Y0315564D01*
X0256567Y0316363D02*
X0260541Y0316363D01*
X0260995Y0317161D02*
X0256567Y0317161D01*
X0256438Y0317960D02*
X0261418Y0317960D01*
X0262015Y0318758D02*
X0255639Y0318758D01*
X0255333Y0319557D02*
X0262593Y0319557D01*
X0263391Y0320355D02*
X0255333Y0320355D01*
X0255333Y0321154D02*
X0264190Y0321154D01*
X0265133Y0321952D02*
X0255333Y0321952D01*
X0255333Y0322751D02*
X0266595Y0322751D01*
X0268057Y0323549D02*
X0255333Y0323549D01*
X0255333Y0324348D02*
X0271132Y0324348D01*
X0271333Y0325146D02*
X0255333Y0325146D01*
X0255707Y0325945D02*
X0271333Y0325945D01*
X0271333Y0326743D02*
X0256505Y0326743D01*
X0257304Y0327542D02*
X0271333Y0327542D01*
X0271333Y0328340D02*
X0258102Y0328340D01*
X0258901Y0329139D02*
X0271333Y0329139D01*
X0271333Y0329937D02*
X0259699Y0329937D01*
X0260498Y0330736D02*
X0271169Y0330736D01*
X0270370Y0331534D02*
X0261296Y0331534D01*
X0262095Y0332333D02*
X0269572Y0332333D01*
X0268773Y0333132D02*
X0262893Y0333132D01*
X0263692Y0333930D02*
X0267975Y0333930D01*
X0267176Y0334729D02*
X0264490Y0334729D01*
X0265289Y0335527D02*
X0266378Y0335527D01*
X0265833Y0338900D02*
X0253333Y0326400D01*
X0253333Y0315928D01*
X0251027Y0318758D02*
X0244651Y0318758D01*
X0244074Y0319557D02*
X0251333Y0319557D01*
X0251333Y0320355D02*
X0243275Y0320355D01*
X0242477Y0321154D02*
X0251333Y0321154D01*
X0251333Y0321952D02*
X0241534Y0321952D01*
X0240072Y0322751D02*
X0251333Y0322751D01*
X0251333Y0323549D02*
X0238609Y0323549D01*
X0238472Y0323549D02*
X0238338Y0323549D01*
X0235535Y0324348D02*
X0251333Y0324348D01*
X0251333Y0325146D02*
X0235333Y0325146D01*
X0235333Y0325945D02*
X0251333Y0325945D01*
X0251333Y0326743D02*
X0235333Y0326743D01*
X0235333Y0327542D02*
X0251647Y0327542D01*
X0252445Y0328340D02*
X0235333Y0328340D01*
X0235333Y0329139D02*
X0253244Y0329139D01*
X0254042Y0329937D02*
X0235333Y0329937D01*
X0235333Y0330736D02*
X0254841Y0330736D01*
X0255639Y0331534D02*
X0235333Y0331534D01*
X0235333Y0332333D02*
X0256438Y0332333D01*
X0257236Y0333132D02*
X0254808Y0333132D01*
X0248552Y0333132D02*
X0247701Y0333132D01*
X0245387Y0333132D02*
X0244587Y0333132D01*
X0244587Y0333930D02*
X0245387Y0333930D01*
X0245387Y0334729D02*
X0244587Y0334729D01*
X0244587Y0335527D02*
X0245387Y0335527D01*
X0242273Y0333132D02*
X0235333Y0333132D01*
X0235333Y0333930D02*
X0241506Y0333930D01*
X0241422Y0334729D02*
X0235333Y0334729D01*
X0235333Y0337923D02*
X0241422Y0337923D01*
X0241467Y0338721D02*
X0235333Y0338721D01*
X0231333Y0345908D02*
X0196383Y0345908D01*
X0196094Y0346706D02*
X0231333Y0346706D01*
X0233333Y0352180D02*
X0226833Y0352180D01*
X0224799Y0349900D02*
X0189661Y0349900D01*
X0188863Y0350699D02*
X0215931Y0350699D01*
X0217995Y0355239D02*
X0217109Y0356124D01*
X0217995Y0355239D02*
X0238333Y0355239D01*
X0238333Y0358400D01*
X0241333Y0361400D01*
X0263333Y0361400D01*
X0273333Y0371400D01*
X0273333Y0382400D01*
X0259578Y0379445D02*
X0247089Y0379445D01*
X0247115Y0379563D02*
X0247244Y0379675D01*
X0247295Y0380393D01*
X0247448Y0381096D01*
X0247356Y0381240D01*
X0247372Y0381469D01*
X0247433Y0381530D01*
X0247433Y0382325D01*
X0247490Y0383118D01*
X0247433Y0383183D01*
X0247433Y0394400D01*
X0259233Y0394400D01*
X0259233Y0383183D01*
X0259177Y0383118D01*
X0259233Y0382325D01*
X0259233Y0381530D01*
X0259295Y0381469D01*
X0259311Y0381240D01*
X0259219Y0381096D01*
X0259372Y0380393D01*
X0259423Y0379675D01*
X0259552Y0379563D01*
X0259619Y0379256D01*
X0259548Y0379100D01*
X0259799Y0378426D01*
X0259952Y0377723D01*
X0260096Y0377630D01*
X0260206Y0377336D01*
X0260158Y0377172D01*
X0260503Y0376540D01*
X0260754Y0375866D01*
X0260910Y0375795D01*
X0261060Y0375519D01*
X0261036Y0375350D01*
X0261467Y0374774D01*
X0261812Y0374142D01*
X0261976Y0374094D01*
X0262164Y0373843D01*
X0262164Y0373672D01*
X0262673Y0373163D01*
X0263104Y0372587D01*
X0263274Y0372563D01*
X0263496Y0372340D01*
X0263520Y0372171D01*
X0264096Y0371740D01*
X0264605Y0371231D01*
X0264776Y0371231D01*
X0265028Y0371043D01*
X0265076Y0370879D01*
X0265707Y0370534D01*
X0266284Y0370103D01*
X0266453Y0370127D01*
X0266728Y0369976D01*
X0266799Y0369821D01*
X0267474Y0369569D01*
X0268105Y0369224D01*
X0268269Y0369273D01*
X0268348Y0369243D01*
X0262505Y0363400D01*
X0259061Y0363400D01*
X0260061Y0363814D01*
X0260919Y0364672D01*
X0261383Y0365793D01*
X0261383Y0367007D01*
X0260919Y0368128D01*
X0260061Y0368986D01*
X0258940Y0369450D01*
X0257727Y0369450D01*
X0256606Y0368986D01*
X0256020Y0368400D01*
X0255445Y0368400D01*
X0255445Y0369031D01*
X0254508Y0369968D01*
X0248852Y0369968D01*
X0248333Y0369450D01*
X0247815Y0369968D01*
X0242159Y0369968D01*
X0241222Y0369031D01*
X0241222Y0368400D01*
X0240647Y0368400D01*
X0240061Y0368986D01*
X0238960Y0369442D01*
X0239193Y0369569D01*
X0239867Y0369821D01*
X0239938Y0369976D01*
X0240214Y0370127D01*
X0240383Y0370103D01*
X0240959Y0370534D01*
X0241591Y0370879D01*
X0241639Y0371043D01*
X0241891Y0371231D01*
X0242062Y0371231D01*
X0242570Y0371740D01*
X0243146Y0372171D01*
X0243171Y0372340D01*
X0243393Y0372563D01*
X0243562Y0372587D01*
X0243993Y0373163D01*
X0244502Y0373672D01*
X0244502Y0373843D01*
X0244691Y0374094D01*
X0244855Y0374142D01*
X0245200Y0374774D01*
X0245631Y0375350D01*
X0245606Y0375519D01*
X0245757Y0375795D01*
X0245913Y0375866D01*
X0246164Y0376540D01*
X0246509Y0377172D01*
X0246461Y0377336D01*
X0246571Y0377630D01*
X0246714Y0377723D01*
X0246867Y0378426D01*
X0247119Y0379100D01*
X0247048Y0379256D01*
X0247115Y0379563D01*
X0247284Y0380244D02*
X0259382Y0380244D01*
X0259230Y0381042D02*
X0247436Y0381042D01*
X0247433Y0381841D02*
X0259233Y0381841D01*
X0259211Y0382639D02*
X0247456Y0382639D01*
X0247433Y0383438D02*
X0259233Y0383438D01*
X0259233Y0384236D02*
X0247433Y0384236D01*
X0247433Y0385035D02*
X0259233Y0385035D01*
X0259233Y0385833D02*
X0247433Y0385833D01*
X0247433Y0386632D02*
X0259233Y0386632D01*
X0259233Y0387430D02*
X0247433Y0387430D01*
X0247433Y0388229D02*
X0259233Y0388229D01*
X0259233Y0389027D02*
X0247433Y0389027D01*
X0247433Y0389826D02*
X0259233Y0389826D01*
X0259233Y0390624D02*
X0247433Y0390624D01*
X0247433Y0391423D02*
X0259233Y0391423D01*
X0259233Y0392221D02*
X0247433Y0392221D01*
X0247433Y0393020D02*
X0259233Y0393020D01*
X0259233Y0393818D02*
X0247433Y0393818D01*
X0246950Y0378647D02*
X0259717Y0378647D01*
X0259925Y0377848D02*
X0246742Y0377848D01*
X0246442Y0377050D02*
X0260225Y0377050D01*
X0260611Y0376251D02*
X0246056Y0376251D01*
X0245616Y0375453D02*
X0261051Y0375453D01*
X0261533Y0374654D02*
X0245134Y0374654D01*
X0244512Y0373856D02*
X0262155Y0373856D01*
X0262752Y0373057D02*
X0243914Y0373057D01*
X0243159Y0372259D02*
X0263508Y0372259D01*
X0264376Y0371460D02*
X0242291Y0371460D01*
X0241193Y0370662D02*
X0265473Y0370662D01*
X0266780Y0369863D02*
X0254613Y0369863D01*
X0255412Y0369065D02*
X0256796Y0369065D01*
X0259871Y0369065D02*
X0268169Y0369065D01*
X0267371Y0368266D02*
X0260781Y0368266D01*
X0261192Y0367468D02*
X0266572Y0367468D01*
X0265774Y0366669D02*
X0261383Y0366669D01*
X0261383Y0365870D02*
X0264975Y0365870D01*
X0264177Y0365072D02*
X0261085Y0365072D01*
X0260520Y0364273D02*
X0263378Y0364273D01*
X0262580Y0363475D02*
X0259242Y0363475D01*
X0258333Y0366400D02*
X0251680Y0366400D01*
X0248746Y0369863D02*
X0247920Y0369863D01*
X0244987Y0366400D02*
X0238333Y0366400D01*
X0239871Y0369065D02*
X0241255Y0369065D01*
X0242053Y0369863D02*
X0239886Y0369863D01*
X0233333Y0371400D02*
X0233333Y0382400D01*
X0263333Y0361400D02*
X0263333Y0341400D01*
X0265833Y0338900D01*
X0273333Y0331400D01*
X0273333Y0310400D01*
X0268328Y0323549D02*
X0268195Y0323549D01*
X0250229Y0317960D02*
X0245249Y0317960D01*
X0231132Y0324348D02*
X0219110Y0324348D01*
X0219908Y0325146D02*
X0231333Y0325146D01*
X0231333Y0325945D02*
X0220707Y0325945D01*
X0221505Y0326743D02*
X0231333Y0326743D01*
X0231333Y0327542D02*
X0222304Y0327542D01*
X0223102Y0328340D02*
X0231333Y0328340D01*
X0231333Y0329139D02*
X0223901Y0329139D01*
X0223333Y0331400D02*
X0233333Y0331400D01*
X0228328Y0323549D02*
X0228195Y0323549D01*
X0228057Y0323549D02*
X0218311Y0323549D01*
X0217513Y0322751D02*
X0226595Y0322751D01*
X0225133Y0321952D02*
X0216714Y0321952D01*
X0215916Y0321154D02*
X0224190Y0321154D01*
X0223391Y0320355D02*
X0215333Y0320355D01*
X0215333Y0319557D02*
X0222593Y0319557D01*
X0222015Y0318758D02*
X0215639Y0318758D01*
X0216438Y0317960D02*
X0221418Y0317960D01*
X0220995Y0317161D02*
X0216567Y0317161D01*
X0216567Y0316363D02*
X0220541Y0316363D01*
X0220176Y0315564D02*
X0216567Y0315564D01*
X0216567Y0314766D02*
X0219885Y0314766D01*
X0219648Y0313967D02*
X0216510Y0313967D01*
X0215711Y0313169D02*
X0219473Y0313169D01*
X0219363Y0312370D02*
X0207303Y0312370D01*
X0207363Y0311572D02*
X0219304Y0311572D01*
X0219233Y0310773D02*
X0207433Y0310773D01*
X0207469Y0309975D02*
X0219198Y0309975D01*
X0219233Y0309176D02*
X0215883Y0309176D01*
X0215827Y0309233D02*
X0215508Y0309417D01*
X0215152Y0309513D01*
X0213553Y0309513D01*
X0213553Y0307093D01*
X0213113Y0307093D01*
X0213113Y0309513D01*
X0211515Y0309513D01*
X0211159Y0309417D01*
X0210840Y0309233D01*
X0210579Y0308972D01*
X0210395Y0308653D01*
X0210299Y0308297D01*
X0210299Y0307093D01*
X0213113Y0307093D01*
X0213113Y0306652D01*
X0213553Y0306652D01*
X0213553Y0304232D01*
X0215152Y0304232D01*
X0215508Y0304328D01*
X0215827Y0304512D01*
X0216087Y0304773D01*
X0216272Y0305092D01*
X0216367Y0305448D01*
X0216367Y0306652D01*
X0213553Y0306652D01*
X0213553Y0307093D01*
X0216367Y0307093D01*
X0216367Y0308297D01*
X0216272Y0308653D01*
X0216087Y0308972D01*
X0215827Y0309233D01*
X0216346Y0308378D02*
X0219233Y0308378D01*
X0219233Y0307579D02*
X0216367Y0307579D01*
X0216367Y0305982D02*
X0219233Y0305982D01*
X0219233Y0305184D02*
X0216296Y0305184D01*
X0215607Y0304385D02*
X0219233Y0304385D01*
X0219233Y0303587D02*
X0207433Y0303587D01*
X0207433Y0304385D02*
X0211060Y0304385D01*
X0211159Y0304328D02*
X0211515Y0304232D01*
X0213113Y0304232D01*
X0213113Y0306652D01*
X0210299Y0306652D01*
X0210299Y0305448D01*
X0210395Y0305092D01*
X0210579Y0304773D01*
X0210840Y0304512D01*
X0211159Y0304328D01*
X0210370Y0305184D02*
X0207433Y0305184D01*
X0207433Y0305982D02*
X0210299Y0305982D01*
X0210299Y0307579D02*
X0207433Y0307579D01*
X0207433Y0306781D02*
X0213113Y0306781D01*
X0213553Y0306781D02*
X0219233Y0306781D01*
X0219233Y0302788D02*
X0207433Y0302788D01*
X0207433Y0301990D02*
X0219233Y0301990D01*
X0219233Y0301191D02*
X0207433Y0301191D01*
X0207433Y0300393D02*
X0219233Y0300393D01*
X0219233Y0299594D02*
X0207433Y0299594D01*
X0207433Y0298796D02*
X0219233Y0298796D01*
X0213553Y0304385D02*
X0213113Y0304385D01*
X0213113Y0305184D02*
X0213553Y0305184D01*
X0213553Y0305982D02*
X0213113Y0305982D01*
X0213113Y0307579D02*
X0213553Y0307579D01*
X0213553Y0308378D02*
X0213113Y0308378D01*
X0213113Y0309176D02*
X0213553Y0309176D01*
X0210783Y0309176D02*
X0207433Y0309176D01*
X0207433Y0308378D02*
X0210321Y0308378D01*
X0210955Y0313169D02*
X0207194Y0313169D01*
X0207019Y0313967D02*
X0210157Y0313967D01*
X0210099Y0314766D02*
X0206782Y0314766D01*
X0206490Y0315564D02*
X0210099Y0315564D01*
X0210099Y0316363D02*
X0206126Y0316363D01*
X0205672Y0317161D02*
X0210099Y0317161D01*
X0210229Y0317960D02*
X0205249Y0317960D01*
X0204651Y0318758D02*
X0211027Y0318758D01*
X0211333Y0319557D02*
X0204074Y0319557D01*
X0203275Y0320355D02*
X0211333Y0320355D01*
X0211333Y0321154D02*
X0202477Y0321154D01*
X0201534Y0321952D02*
X0211333Y0321952D01*
X0211856Y0322751D02*
X0200072Y0322751D01*
X0198609Y0323549D02*
X0212654Y0323549D01*
X0213453Y0324348D02*
X0195535Y0324348D01*
X0195333Y0325146D02*
X0214251Y0325146D01*
X0215050Y0325945D02*
X0195333Y0325945D01*
X0195333Y0326743D02*
X0215848Y0326743D01*
X0216647Y0327542D02*
X0195333Y0327542D01*
X0195333Y0328340D02*
X0217445Y0328340D01*
X0218244Y0329139D02*
X0195333Y0329139D01*
X0195333Y0329937D02*
X0219042Y0329937D01*
X0219052Y0330736D02*
X0219841Y0330736D01*
X0219892Y0331534D02*
X0220639Y0331534D01*
X0220155Y0332333D02*
X0221438Y0332333D01*
X0222236Y0333132D02*
X0220155Y0333132D01*
X0217186Y0333132D02*
X0216386Y0333132D01*
X0216386Y0332333D02*
X0217186Y0332333D01*
X0217186Y0331534D02*
X0216386Y0331534D01*
X0216386Y0330736D02*
X0217186Y0330736D01*
X0214521Y0330736D02*
X0212570Y0330736D01*
X0213369Y0331534D02*
X0213680Y0331534D01*
X0209881Y0333900D02*
X0209881Y0341294D01*
X0209987Y0341400D01*
X0212906Y0337923D02*
X0213761Y0337923D01*
X0214625Y0337124D02*
X0212510Y0337124D01*
X0213309Y0336326D02*
X0213714Y0336326D01*
X0218948Y0337124D02*
X0222296Y0337124D01*
X0221937Y0337923D02*
X0219599Y0337923D01*
X0220397Y0338721D02*
X0221783Y0338721D01*
X0223094Y0336326D02*
X0219858Y0336326D01*
X0223333Y0331400D02*
X0213333Y0321400D01*
X0213333Y0315928D01*
X0198472Y0323549D02*
X0198338Y0323549D01*
X0197080Y0333132D02*
X0196280Y0333132D01*
X0196280Y0333930D02*
X0197080Y0333930D01*
X0197080Y0334729D02*
X0196280Y0334729D01*
X0196280Y0335527D02*
X0197080Y0335527D01*
X0189987Y0336400D02*
X0189987Y0346746D01*
X0187696Y0349038D01*
X0187199Y0346706D02*
X0185642Y0346706D01*
X0185642Y0345908D02*
X0187987Y0345908D01*
X0187987Y0345109D02*
X0185526Y0345109D01*
X0184727Y0344311D02*
X0187987Y0344311D01*
X0187987Y0343512D02*
X0184664Y0343512D01*
X0184833Y0342714D02*
X0187987Y0342714D01*
X0187987Y0341915D02*
X0185214Y0341915D01*
X0185383Y0341117D02*
X0187987Y0341117D01*
X0187987Y0340318D02*
X0185383Y0340318D01*
X0185063Y0339520D02*
X0186710Y0339520D01*
X0186222Y0338721D02*
X0185445Y0338721D01*
X0185445Y0337923D02*
X0186222Y0337923D01*
X0186222Y0337124D02*
X0185445Y0337124D01*
X0185445Y0336326D02*
X0186222Y0336326D01*
X0186222Y0335527D02*
X0185445Y0335527D01*
X0185445Y0334729D02*
X0186222Y0334729D01*
X0186222Y0333930D02*
X0185445Y0333930D01*
X0184808Y0333132D02*
X0186859Y0333132D01*
X0188195Y0323549D02*
X0188328Y0323549D01*
X0176833Y0329731D02*
X0176636Y0329928D01*
X0166833Y0329928D01*
X0163599Y0329937D02*
X0146590Y0329937D01*
X0146902Y0330736D02*
X0163599Y0330736D01*
X0163599Y0331534D02*
X0146902Y0331534D01*
X0146809Y0332333D02*
X0164102Y0332333D01*
X0163599Y0329139D02*
X0146119Y0329139D01*
X0145272Y0328340D02*
X0163599Y0328340D01*
X0164082Y0327542D02*
X0140333Y0327542D01*
X0140333Y0328340D02*
X0141395Y0328340D01*
X0140548Y0329139D02*
X0140333Y0329139D01*
X0140333Y0326743D02*
X0174211Y0326743D01*
X0173659Y0327542D02*
X0169584Y0327542D01*
X0170369Y0324348D02*
X0140333Y0324348D01*
X0140333Y0325146D02*
X0174833Y0325146D01*
X0174833Y0325945D02*
X0140333Y0325945D01*
X0140333Y0323549D02*
X0148822Y0323549D01*
X0146926Y0322751D02*
X0140333Y0322751D01*
X0140333Y0321952D02*
X0145586Y0321952D01*
X0144503Y0321154D02*
X0140333Y0321154D01*
X0140333Y0320355D02*
X0143617Y0320355D01*
X0143491Y0320242D02*
X0143491Y0320242D01*
X0142874Y0319557D02*
X0140333Y0319557D01*
X0140333Y0318758D02*
X0142225Y0318758D01*
X0141660Y0317981D02*
X0141660Y0317981D01*
X0141648Y0317960D02*
X0140333Y0317960D01*
X0140333Y0317161D02*
X0141187Y0317161D01*
X0140931Y0316719D02*
X0140931Y0316719D01*
X0140773Y0316363D02*
X0140333Y0316363D01*
X0140333Y0315564D02*
X0140417Y0315564D01*
X0140339Y0315388D02*
X0140339Y0315388D01*
X0140333Y0310773D02*
X0152933Y0310773D01*
X0152933Y0310000D02*
X0153733Y0310000D01*
X0153733Y0298400D01*
X0152933Y0298400D01*
X0152933Y0310000D01*
X0152933Y0309975D02*
X0153733Y0309975D01*
X0153733Y0310000D02*
X0153733Y0310800D01*
X0167233Y0310800D01*
X0167233Y0311128D01*
X0167081Y0312577D01*
X0167081Y0312577D01*
X0166778Y0314002D01*
X0166778Y0314003D01*
X0166328Y0315388D01*
X0166328Y0315388D01*
X0165735Y0316719D01*
X0165007Y0317981D01*
X0164969Y0318032D01*
X0169130Y0318032D01*
X0170022Y0318925D01*
X0170569Y0318378D01*
X0169765Y0317575D01*
X0169765Y0311918D01*
X0170425Y0311259D01*
X0170245Y0311079D01*
X0170060Y0310759D01*
X0169965Y0310403D01*
X0169965Y0308454D01*
X0172933Y0308454D01*
X0172933Y0307654D01*
X0169965Y0307654D01*
X0169965Y0305704D01*
X0170060Y0305348D01*
X0170245Y0305029D01*
X0170505Y0304768D01*
X0170824Y0304584D01*
X0171180Y0304488D01*
X0172933Y0304488D01*
X0172933Y0307653D01*
X0173733Y0307653D01*
X0173733Y0304488D01*
X0175486Y0304488D01*
X0175842Y0304584D01*
X0176161Y0304768D01*
X0176422Y0305029D01*
X0176606Y0305348D01*
X0176702Y0305704D01*
X0176702Y0307654D01*
X0173733Y0307654D01*
X0173733Y0308454D01*
X0176702Y0308454D01*
X0176702Y0310203D01*
X0177505Y0309400D01*
X0179233Y0309400D01*
X0179233Y0298400D01*
X0167233Y0298400D01*
X0167233Y0310000D01*
X0153733Y0310000D01*
X0153733Y0310773D02*
X0170068Y0310773D01*
X0170111Y0311572D02*
X0167187Y0311572D01*
X0167103Y0312370D02*
X0169765Y0312370D01*
X0169765Y0313169D02*
X0166955Y0313169D01*
X0166786Y0313967D02*
X0169765Y0313967D01*
X0169765Y0314766D02*
X0166530Y0314766D01*
X0166249Y0315564D02*
X0169765Y0315564D01*
X0169765Y0316363D02*
X0165894Y0316363D01*
X0165735Y0316719D02*
X0165735Y0316719D01*
X0165480Y0317161D02*
X0169765Y0317161D01*
X0170150Y0317960D02*
X0165019Y0317960D01*
X0165007Y0317981D02*
X0165007Y0317981D01*
X0163599Y0320355D02*
X0163050Y0320355D01*
X0163176Y0320242D02*
X0163176Y0320242D01*
X0163599Y0321154D02*
X0162163Y0321154D01*
X0161081Y0321952D02*
X0163599Y0321952D01*
X0163599Y0322751D02*
X0159741Y0322751D01*
X0159652Y0322802D02*
X0159652Y0322802D01*
X0158321Y0323395D02*
X0158321Y0323395D01*
X0157845Y0323549D02*
X0164374Y0323549D01*
X0166833Y0320872D02*
X0167184Y0321223D01*
X0173333Y0321223D01*
X0173333Y0314746D01*
X0170189Y0318758D02*
X0169856Y0318758D01*
X0173093Y0321463D02*
X0173333Y0321223D01*
X0169918Y0323549D02*
X0169293Y0323549D01*
X0160914Y0322074D02*
X0160914Y0322074D01*
X0155511Y0324148D02*
X0155511Y0324148D01*
X0153733Y0323549D02*
X0152933Y0323549D01*
X0152933Y0322751D02*
X0153733Y0322751D01*
X0153733Y0321952D02*
X0152933Y0321952D01*
X0152933Y0321154D02*
X0153733Y0321154D01*
X0153733Y0320355D02*
X0152933Y0320355D01*
X0152933Y0319557D02*
X0153733Y0319557D01*
X0153733Y0318758D02*
X0152933Y0318758D01*
X0152933Y0317960D02*
X0153733Y0317960D01*
X0153733Y0317161D02*
X0152933Y0317161D01*
X0152933Y0316363D02*
X0153733Y0316363D01*
X0153733Y0315564D02*
X0152933Y0315564D01*
X0152933Y0314766D02*
X0153733Y0314766D01*
X0153733Y0313967D02*
X0152933Y0313967D01*
X0152933Y0313169D02*
X0153733Y0313169D01*
X0153733Y0312370D02*
X0152933Y0312370D01*
X0152933Y0311572D02*
X0153733Y0311572D01*
X0153733Y0309176D02*
X0152933Y0309176D01*
X0152933Y0308378D02*
X0153733Y0308378D01*
X0153733Y0307579D02*
X0152933Y0307579D01*
X0152933Y0306781D02*
X0153733Y0306781D01*
X0153733Y0305982D02*
X0152933Y0305982D01*
X0152933Y0305184D02*
X0153733Y0305184D01*
X0153733Y0304385D02*
X0152933Y0304385D01*
X0152933Y0303587D02*
X0153733Y0303587D01*
X0153733Y0302788D02*
X0152933Y0302788D01*
X0152933Y0301990D02*
X0153733Y0301990D01*
X0153733Y0301191D02*
X0152933Y0301191D01*
X0152933Y0300393D02*
X0153733Y0300393D01*
X0153733Y0299594D02*
X0152933Y0299594D01*
X0152933Y0298796D02*
X0153733Y0298796D01*
X0167233Y0298796D02*
X0179233Y0298796D01*
X0179233Y0299594D02*
X0167233Y0299594D01*
X0167233Y0300393D02*
X0179233Y0300393D01*
X0179233Y0301191D02*
X0167233Y0301191D01*
X0167233Y0301990D02*
X0179233Y0301990D01*
X0179233Y0302788D02*
X0167233Y0302788D01*
X0167233Y0303587D02*
X0179233Y0303587D01*
X0179233Y0304385D02*
X0167233Y0304385D01*
X0167233Y0305184D02*
X0170155Y0305184D01*
X0169965Y0305982D02*
X0167233Y0305982D01*
X0167233Y0306781D02*
X0169965Y0306781D01*
X0169965Y0307579D02*
X0167233Y0307579D01*
X0167233Y0308378D02*
X0172933Y0308378D01*
X0172933Y0307579D02*
X0173733Y0307579D01*
X0173733Y0306781D02*
X0172933Y0306781D01*
X0172933Y0305982D02*
X0173733Y0305982D01*
X0173733Y0305184D02*
X0172933Y0305184D01*
X0173733Y0308378D02*
X0179233Y0308378D01*
X0179233Y0309176D02*
X0176702Y0309176D01*
X0176702Y0309975D02*
X0176930Y0309975D01*
X0176702Y0307579D02*
X0179233Y0307579D01*
X0179233Y0306781D02*
X0176702Y0306781D01*
X0176702Y0305982D02*
X0179233Y0305982D01*
X0179233Y0305184D02*
X0176512Y0305184D01*
X0169965Y0309176D02*
X0167233Y0309176D01*
X0167233Y0309975D02*
X0169965Y0309975D01*
X0192833Y0310900D02*
X0193333Y0310400D01*
X0173826Y0332333D02*
X0169565Y0332333D01*
X0170402Y0344311D02*
X0171939Y0344311D01*
X0171058Y0346676D02*
X0174003Y0346676D01*
X0174003Y0349038D02*
X0170971Y0349038D01*
X0170333Y0348400D01*
X0170333Y0347400D01*
X0171058Y0346676D01*
X0153733Y0369065D02*
X0152933Y0369065D01*
X0152933Y0369863D02*
X0153733Y0369863D01*
X0153733Y0370662D02*
X0152933Y0370662D01*
X0152933Y0371460D02*
X0153733Y0371460D01*
X0153733Y0372259D02*
X0152933Y0372259D01*
X0152933Y0373057D02*
X0153733Y0373057D01*
X0153733Y0373856D02*
X0152933Y0373856D01*
X0152933Y0374654D02*
X0153733Y0374654D01*
X0153733Y0375453D02*
X0152933Y0375453D01*
X0152933Y0376251D02*
X0153733Y0376251D01*
X0153733Y0377050D02*
X0152933Y0377050D01*
X0152933Y0377848D02*
X0153733Y0377848D01*
X0153733Y0378647D02*
X0152933Y0378647D01*
X0152933Y0379445D02*
X0153733Y0379445D01*
X0153733Y0380244D02*
X0152933Y0380244D01*
X0152933Y0381042D02*
X0153733Y0381042D01*
X0153733Y0383438D02*
X0152933Y0383438D01*
X0152933Y0384236D02*
X0153733Y0384236D01*
X0153733Y0385035D02*
X0152933Y0385035D01*
X0152933Y0385833D02*
X0153733Y0385833D01*
X0153733Y0386632D02*
X0152933Y0386632D01*
X0152933Y0387430D02*
X0153733Y0387430D01*
X0153733Y0388229D02*
X0152933Y0388229D01*
X0152933Y0389027D02*
X0153733Y0389027D01*
X0153733Y0389826D02*
X0152933Y0389826D01*
X0152933Y0390624D02*
X0153733Y0390624D01*
X0153733Y0391423D02*
X0152933Y0391423D01*
X0152933Y0392221D02*
X0153733Y0392221D01*
X0153733Y0393020D02*
X0152933Y0393020D01*
X0152933Y0393818D02*
X0153733Y0393818D01*
X0142516Y0373640D02*
X0142516Y0373640D01*
X0149731Y0368955D02*
X0149731Y0368955D01*
X0151156Y0368652D02*
X0151156Y0368652D01*
X0238333Y0355239D02*
X0244298Y0355239D01*
X0247958Y0339520D02*
X0248403Y0339520D01*
X0254957Y0339520D02*
X0256125Y0339520D01*
D22*
X0248333Y0346400D03*
X0238333Y0349400D03*
X0226833Y0352180D03*
X0225333Y0360400D03*
X0222333Y0371400D03*
X0238333Y0366400D03*
X0248333Y0371400D03*
X0258333Y0366400D03*
X0258333Y0356400D03*
X0224833Y0338900D03*
X0198333Y0331400D03*
X0188333Y0331400D03*
X0182333Y0340900D03*
X0178333Y0343900D03*
X0193333Y0345400D03*
X0188333Y0361400D03*
X0183333Y0371400D03*
D23*
X0181680Y0366400D02*
X0181680Y0363054D01*
X0183333Y0361400D01*
X0188333Y0361400D01*
X0174003Y0353762D02*
X0170696Y0353762D01*
X0166833Y0349900D01*
X0166833Y0343746D01*
X0170680Y0340900D02*
X0166833Y0337054D01*
X0170680Y0340900D02*
X0182333Y0340900D01*
M02*
