G75*
%MOIN*%
%OFA0B0*%
%FSLAX25Y25*%
%IPPOS*%
%LPD*%
%AMOC8*
5,1,8,0,0,1.08239X$1,22.5*
%
%ADD10C,0.13800*%
%ADD11C,0.04737*%
%ADD12C,0.20800*%
%ADD13C,0.01000*%
D10*
X0148333Y0346400D03*
X0278333Y0346400D03*
D11*
X0283333Y0361400D03*
X0143333Y0331400D03*
D12*
X0153333Y0310400D03*
X0193333Y0310400D03*
X0233333Y0310400D03*
X0273333Y0310400D03*
X0273333Y0382400D03*
X0233333Y0382400D03*
X0193333Y0382400D03*
X0153333Y0382400D03*
D13*
X0141033Y0311200D02*
X0141033Y0296200D01*
X0165833Y0296200D01*
X0165833Y0311600D01*
X0165628Y0313273D01*
X0165186Y0314900D01*
X0164518Y0316448D01*
X0163636Y0317884D01*
X0162558Y0319181D01*
X0161307Y0320311D01*
X0159908Y0321251D01*
X0158389Y0321983D01*
X0156782Y0322491D01*
X0155119Y0322765D01*
X0153433Y0322800D01*
X0151833Y0322846D01*
X0150243Y0322666D01*
X0148694Y0322262D01*
X0147218Y0321643D01*
X0145845Y0320821D01*
X0144601Y0319813D01*
X0143513Y0318640D01*
X0142602Y0317324D01*
X0141886Y0315893D01*
X0141380Y0314374D01*
X0141094Y0312799D01*
X0141033Y0311200D01*
X0141040Y0311378D02*
X0165833Y0311378D01*
X0165833Y0310379D02*
X0141033Y0310379D01*
X0141033Y0309381D02*
X0165833Y0309381D01*
X0165833Y0308382D02*
X0141033Y0308382D01*
X0141033Y0307384D02*
X0165833Y0307384D01*
X0165833Y0306385D02*
X0141033Y0306385D01*
X0141033Y0305387D02*
X0165833Y0305387D01*
X0165833Y0304388D02*
X0141033Y0304388D01*
X0141033Y0303390D02*
X0165833Y0303390D01*
X0165833Y0302391D02*
X0141033Y0302391D01*
X0141033Y0301393D02*
X0165833Y0301393D01*
X0165833Y0300394D02*
X0141033Y0300394D01*
X0141033Y0299396D02*
X0165833Y0299396D01*
X0165833Y0298397D02*
X0141033Y0298397D01*
X0141033Y0297399D02*
X0165833Y0297399D01*
X0165833Y0296400D02*
X0141033Y0296400D01*
X0141078Y0312376D02*
X0165738Y0312376D01*
X0165600Y0313375D02*
X0141198Y0313375D01*
X0141380Y0314373D02*
X0165329Y0314373D01*
X0164983Y0315372D02*
X0141712Y0315372D01*
X0142125Y0316370D02*
X0164551Y0316370D01*
X0163952Y0317369D02*
X0142633Y0317369D01*
X0143324Y0318367D02*
X0163234Y0318367D01*
X0162353Y0319366D02*
X0144186Y0319366D01*
X0145281Y0320364D02*
X0161228Y0320364D01*
X0159677Y0321363D02*
X0146750Y0321363D01*
X0149076Y0322361D02*
X0157193Y0322361D01*
X0181380Y0314374D02*
X0181886Y0315893D01*
X0182602Y0317324D01*
X0183513Y0318640D01*
X0184601Y0319813D01*
X0185845Y0320821D01*
X0187218Y0321643D01*
X0188694Y0322262D01*
X0190243Y0322666D01*
X0191833Y0322846D01*
X0193433Y0322800D01*
X0195119Y0322765D01*
X0196782Y0322491D01*
X0198389Y0321983D01*
X0199908Y0321251D01*
X0201307Y0320311D01*
X0202558Y0319181D01*
X0203636Y0317884D01*
X0204518Y0316448D01*
X0205186Y0314900D01*
X0205628Y0313273D01*
X0205833Y0311600D01*
X0205833Y0296200D01*
X0181033Y0296200D01*
X0181033Y0311200D01*
X0181094Y0312799D01*
X0181380Y0314374D01*
X0181380Y0314373D02*
X0205329Y0314373D01*
X0205600Y0313375D02*
X0181198Y0313375D01*
X0181078Y0312376D02*
X0205738Y0312376D01*
X0205833Y0311378D02*
X0181040Y0311378D01*
X0181033Y0310379D02*
X0205833Y0310379D01*
X0205833Y0309381D02*
X0181033Y0309381D01*
X0181033Y0308382D02*
X0205833Y0308382D01*
X0205833Y0307384D02*
X0181033Y0307384D01*
X0181033Y0306385D02*
X0205833Y0306385D01*
X0205833Y0305387D02*
X0181033Y0305387D01*
X0181033Y0304388D02*
X0205833Y0304388D01*
X0205833Y0303390D02*
X0181033Y0303390D01*
X0181033Y0302391D02*
X0205833Y0302391D01*
X0205833Y0301393D02*
X0181033Y0301393D01*
X0181033Y0300394D02*
X0205833Y0300394D01*
X0205833Y0299396D02*
X0181033Y0299396D01*
X0181033Y0298397D02*
X0205833Y0298397D01*
X0205833Y0297399D02*
X0181033Y0297399D01*
X0181033Y0296400D02*
X0205833Y0296400D01*
X0221033Y0296400D02*
X0245833Y0296400D01*
X0245833Y0296200D02*
X0245833Y0311600D01*
X0245628Y0313273D01*
X0245186Y0314900D01*
X0244518Y0316448D01*
X0243636Y0317884D01*
X0242558Y0319181D01*
X0241307Y0320311D01*
X0239908Y0321251D01*
X0238389Y0321983D01*
X0236782Y0322491D01*
X0235119Y0322765D01*
X0233433Y0322800D01*
X0231833Y0322846D01*
X0230243Y0322666D01*
X0228694Y0322262D01*
X0227218Y0321643D01*
X0225845Y0320821D01*
X0224601Y0319813D01*
X0223513Y0318640D01*
X0222602Y0317324D01*
X0221886Y0315893D01*
X0221380Y0314374D01*
X0221094Y0312799D01*
X0221033Y0311200D01*
X0221033Y0296200D01*
X0245833Y0296200D01*
X0245833Y0297399D02*
X0221033Y0297399D01*
X0221033Y0298397D02*
X0245833Y0298397D01*
X0245833Y0299396D02*
X0221033Y0299396D01*
X0221033Y0300394D02*
X0245833Y0300394D01*
X0245833Y0301393D02*
X0221033Y0301393D01*
X0221033Y0302391D02*
X0245833Y0302391D01*
X0245833Y0303390D02*
X0221033Y0303390D01*
X0221033Y0304388D02*
X0245833Y0304388D01*
X0245833Y0305387D02*
X0221033Y0305387D01*
X0221033Y0306385D02*
X0245833Y0306385D01*
X0245833Y0307384D02*
X0221033Y0307384D01*
X0221033Y0308382D02*
X0245833Y0308382D01*
X0245833Y0309381D02*
X0221033Y0309381D01*
X0221033Y0310379D02*
X0245833Y0310379D01*
X0245833Y0311378D02*
X0221040Y0311378D01*
X0221078Y0312376D02*
X0245738Y0312376D01*
X0245600Y0313375D02*
X0221198Y0313375D01*
X0221380Y0314373D02*
X0245329Y0314373D01*
X0244983Y0315372D02*
X0221712Y0315372D01*
X0222125Y0316370D02*
X0244551Y0316370D01*
X0243952Y0317369D02*
X0222633Y0317369D01*
X0223324Y0318367D02*
X0243234Y0318367D01*
X0242353Y0319366D02*
X0224186Y0319366D01*
X0225281Y0320364D02*
X0241228Y0320364D01*
X0239677Y0321363D02*
X0226750Y0321363D01*
X0229076Y0322361D02*
X0237193Y0322361D01*
X0261380Y0314374D02*
X0261886Y0315893D01*
X0262602Y0317324D01*
X0263513Y0318640D01*
X0264601Y0319813D01*
X0265845Y0320821D01*
X0267218Y0321643D01*
X0268694Y0322262D01*
X0270243Y0322666D01*
X0271833Y0322846D01*
X0273433Y0322800D01*
X0275119Y0322765D01*
X0276782Y0322491D01*
X0278389Y0321983D01*
X0279908Y0321251D01*
X0281307Y0320311D01*
X0282558Y0319181D01*
X0283636Y0317884D01*
X0284518Y0316448D01*
X0285186Y0314900D01*
X0285628Y0313273D01*
X0285833Y0311600D01*
X0285833Y0296200D01*
X0261033Y0296200D01*
X0261033Y0311200D01*
X0261094Y0312799D01*
X0261380Y0314374D01*
X0261380Y0314373D02*
X0285329Y0314373D01*
X0285600Y0313375D02*
X0261198Y0313375D01*
X0261078Y0312376D02*
X0285738Y0312376D01*
X0285833Y0311378D02*
X0261040Y0311378D01*
X0261033Y0310379D02*
X0285833Y0310379D01*
X0285833Y0309381D02*
X0261033Y0309381D01*
X0261033Y0308382D02*
X0285833Y0308382D01*
X0285833Y0307384D02*
X0261033Y0307384D01*
X0261033Y0306385D02*
X0285833Y0306385D01*
X0285833Y0305387D02*
X0261033Y0305387D01*
X0261033Y0304388D02*
X0285833Y0304388D01*
X0285833Y0303390D02*
X0261033Y0303390D01*
X0261033Y0302391D02*
X0285833Y0302391D01*
X0285833Y0301393D02*
X0261033Y0301393D01*
X0261033Y0300394D02*
X0285833Y0300394D01*
X0285833Y0299396D02*
X0261033Y0299396D01*
X0261033Y0298397D02*
X0285833Y0298397D01*
X0285833Y0297399D02*
X0261033Y0297399D01*
X0261033Y0296400D02*
X0285833Y0296400D01*
X0284983Y0315372D02*
X0261712Y0315372D01*
X0262125Y0316370D02*
X0284551Y0316370D01*
X0283952Y0317369D02*
X0262633Y0317369D01*
X0263324Y0318367D02*
X0283234Y0318367D01*
X0282353Y0319366D02*
X0264186Y0319366D01*
X0265281Y0320364D02*
X0281228Y0320364D01*
X0279677Y0321363D02*
X0266750Y0321363D01*
X0269076Y0322361D02*
X0277193Y0322361D01*
X0274833Y0369954D02*
X0273233Y0370000D01*
X0271548Y0370035D01*
X0269885Y0370309D01*
X0268277Y0370817D01*
X0266759Y0371549D01*
X0265359Y0372489D01*
X0264108Y0373619D01*
X0263031Y0374916D01*
X0262149Y0376352D01*
X0261480Y0377900D01*
X0261039Y0379527D01*
X0260833Y0381200D01*
X0260833Y0396600D01*
X0285633Y0396600D01*
X0285633Y0381600D01*
X0285573Y0380001D01*
X0285287Y0378426D01*
X0284781Y0376907D01*
X0284065Y0375476D01*
X0283153Y0374160D01*
X0282065Y0372987D01*
X0280822Y0371979D01*
X0279448Y0371157D01*
X0277972Y0370538D01*
X0276423Y0370134D01*
X0274833Y0369954D01*
X0277020Y0370290D02*
X0270000Y0370290D01*
X0267299Y0371288D02*
X0279667Y0371288D01*
X0281202Y0372287D02*
X0265661Y0372287D01*
X0264478Y0373285D02*
X0282342Y0373285D01*
X0283239Y0374284D02*
X0263556Y0374284D01*
X0262806Y0375282D02*
X0283931Y0375282D01*
X0284467Y0376281D02*
X0262193Y0376281D01*
X0261748Y0377279D02*
X0284905Y0377279D01*
X0285237Y0378278D02*
X0261378Y0378278D01*
X0261107Y0379276D02*
X0285441Y0379276D01*
X0285583Y0380275D02*
X0260947Y0380275D01*
X0260833Y0381273D02*
X0285621Y0381273D01*
X0285633Y0382272D02*
X0260833Y0382272D01*
X0260833Y0383270D02*
X0285633Y0383270D01*
X0285633Y0384269D02*
X0260833Y0384269D01*
X0260833Y0385268D02*
X0285633Y0385268D01*
X0285633Y0386266D02*
X0260833Y0386266D01*
X0260833Y0387265D02*
X0285633Y0387265D01*
X0285633Y0388263D02*
X0260833Y0388263D01*
X0260833Y0389262D02*
X0285633Y0389262D01*
X0285633Y0390260D02*
X0260833Y0390260D01*
X0260833Y0391259D02*
X0285633Y0391259D01*
X0285633Y0392257D02*
X0260833Y0392257D01*
X0260833Y0393256D02*
X0285633Y0393256D01*
X0285633Y0394254D02*
X0260833Y0394254D01*
X0260833Y0395253D02*
X0285633Y0395253D01*
X0285633Y0396251D02*
X0260833Y0396251D01*
X0245633Y0396251D02*
X0220833Y0396251D01*
X0220833Y0396600D02*
X0220833Y0381200D01*
X0221039Y0379527D01*
X0221480Y0377900D01*
X0222149Y0376352D01*
X0223031Y0374916D01*
X0224108Y0373619D01*
X0225359Y0372489D01*
X0226759Y0371549D01*
X0228277Y0370817D01*
X0229885Y0370309D01*
X0231548Y0370035D01*
X0233233Y0370000D01*
X0234833Y0369954D01*
X0236423Y0370134D01*
X0237972Y0370538D01*
X0239448Y0371157D01*
X0240822Y0371979D01*
X0242065Y0372987D01*
X0243153Y0374160D01*
X0244065Y0375476D01*
X0244781Y0376907D01*
X0245287Y0378426D01*
X0245573Y0380001D01*
X0245633Y0381600D01*
X0245633Y0396600D01*
X0220833Y0396600D01*
X0220833Y0395253D02*
X0245633Y0395253D01*
X0245633Y0394254D02*
X0220833Y0394254D01*
X0220833Y0393256D02*
X0245633Y0393256D01*
X0245633Y0392257D02*
X0220833Y0392257D01*
X0220833Y0391259D02*
X0245633Y0391259D01*
X0245633Y0390260D02*
X0220833Y0390260D01*
X0220833Y0389262D02*
X0245633Y0389262D01*
X0245633Y0388263D02*
X0220833Y0388263D01*
X0220833Y0387265D02*
X0245633Y0387265D01*
X0245633Y0386266D02*
X0220833Y0386266D01*
X0220833Y0385268D02*
X0245633Y0385268D01*
X0245633Y0384269D02*
X0220833Y0384269D01*
X0220833Y0383270D02*
X0245633Y0383270D01*
X0245633Y0382272D02*
X0220833Y0382272D01*
X0220833Y0381273D02*
X0245621Y0381273D01*
X0245583Y0380275D02*
X0220947Y0380275D01*
X0221107Y0379276D02*
X0245441Y0379276D01*
X0245237Y0378278D02*
X0221378Y0378278D01*
X0221748Y0377279D02*
X0244905Y0377279D01*
X0244467Y0376281D02*
X0222193Y0376281D01*
X0222806Y0375282D02*
X0243931Y0375282D01*
X0243239Y0374284D02*
X0223556Y0374284D01*
X0224478Y0373285D02*
X0242342Y0373285D01*
X0241202Y0372287D02*
X0225661Y0372287D01*
X0227299Y0371288D02*
X0239667Y0371288D01*
X0237020Y0370290D02*
X0230000Y0370290D01*
X0205287Y0378426D02*
X0204781Y0376907D01*
X0204065Y0375476D01*
X0203153Y0374160D01*
X0202065Y0372987D01*
X0200822Y0371979D01*
X0199448Y0371157D01*
X0197972Y0370538D01*
X0196423Y0370134D01*
X0194833Y0369954D01*
X0193233Y0370000D01*
X0191548Y0370035D01*
X0189885Y0370309D01*
X0188277Y0370817D01*
X0186759Y0371549D01*
X0185359Y0372489D01*
X0184108Y0373619D01*
X0183031Y0374916D01*
X0182149Y0376352D01*
X0181480Y0377900D01*
X0181039Y0379527D01*
X0180833Y0381200D01*
X0180833Y0396600D01*
X0205633Y0396600D01*
X0205633Y0381600D01*
X0205573Y0380001D01*
X0205287Y0378426D01*
X0205237Y0378278D02*
X0181378Y0378278D01*
X0181107Y0379276D02*
X0205441Y0379276D01*
X0205583Y0380275D02*
X0180947Y0380275D01*
X0180833Y0381273D02*
X0205621Y0381273D01*
X0205633Y0382272D02*
X0180833Y0382272D01*
X0180833Y0383270D02*
X0205633Y0383270D01*
X0205633Y0384269D02*
X0180833Y0384269D01*
X0180833Y0385268D02*
X0205633Y0385268D01*
X0205633Y0386266D02*
X0180833Y0386266D01*
X0180833Y0387265D02*
X0205633Y0387265D01*
X0205633Y0388263D02*
X0180833Y0388263D01*
X0180833Y0389262D02*
X0205633Y0389262D01*
X0205633Y0390260D02*
X0180833Y0390260D01*
X0180833Y0391259D02*
X0205633Y0391259D01*
X0205633Y0392257D02*
X0180833Y0392257D01*
X0180833Y0393256D02*
X0205633Y0393256D01*
X0205633Y0394254D02*
X0180833Y0394254D01*
X0180833Y0395253D02*
X0205633Y0395253D01*
X0205633Y0396251D02*
X0180833Y0396251D01*
X0165633Y0396251D02*
X0140833Y0396251D01*
X0140833Y0396600D02*
X0140833Y0381200D01*
X0141039Y0379527D01*
X0141480Y0377900D01*
X0142149Y0376352D01*
X0143031Y0374916D01*
X0144108Y0373619D01*
X0145359Y0372489D01*
X0146759Y0371549D01*
X0148277Y0370817D01*
X0149885Y0370309D01*
X0151548Y0370035D01*
X0153233Y0370000D01*
X0154833Y0369954D01*
X0156423Y0370134D01*
X0157972Y0370538D01*
X0159448Y0371157D01*
X0160822Y0371979D01*
X0162065Y0372987D01*
X0163153Y0374160D01*
X0164065Y0375476D01*
X0164781Y0376907D01*
X0165287Y0378426D01*
X0165573Y0380001D01*
X0165633Y0381600D01*
X0165633Y0396600D01*
X0140833Y0396600D01*
X0140833Y0395253D02*
X0165633Y0395253D01*
X0165633Y0394254D02*
X0140833Y0394254D01*
X0140833Y0393256D02*
X0165633Y0393256D01*
X0165633Y0392257D02*
X0140833Y0392257D01*
X0140833Y0391259D02*
X0165633Y0391259D01*
X0165633Y0390260D02*
X0140833Y0390260D01*
X0140833Y0389262D02*
X0165633Y0389262D01*
X0165633Y0388263D02*
X0140833Y0388263D01*
X0140833Y0387265D02*
X0165633Y0387265D01*
X0165633Y0386266D02*
X0140833Y0386266D01*
X0140833Y0385268D02*
X0165633Y0385268D01*
X0165633Y0384269D02*
X0140833Y0384269D01*
X0140833Y0383270D02*
X0165633Y0383270D01*
X0165633Y0382272D02*
X0140833Y0382272D01*
X0140833Y0381273D02*
X0165621Y0381273D01*
X0165583Y0380275D02*
X0140947Y0380275D01*
X0141107Y0379276D02*
X0165441Y0379276D01*
X0165237Y0378278D02*
X0141378Y0378278D01*
X0141748Y0377279D02*
X0164905Y0377279D01*
X0164467Y0376281D02*
X0142193Y0376281D01*
X0142806Y0375282D02*
X0163931Y0375282D01*
X0163239Y0374284D02*
X0143556Y0374284D01*
X0144478Y0373285D02*
X0162342Y0373285D01*
X0161202Y0372287D02*
X0145661Y0372287D01*
X0147299Y0371288D02*
X0159667Y0371288D01*
X0157020Y0370290D02*
X0150000Y0370290D01*
X0181748Y0377279D02*
X0204905Y0377279D01*
X0204467Y0376281D02*
X0182193Y0376281D01*
X0182806Y0375282D02*
X0203931Y0375282D01*
X0203239Y0374284D02*
X0183556Y0374284D01*
X0184478Y0373285D02*
X0202342Y0373285D01*
X0201202Y0372287D02*
X0185661Y0372287D01*
X0187299Y0371288D02*
X0199667Y0371288D01*
X0197020Y0370290D02*
X0190000Y0370290D01*
X0189076Y0322361D02*
X0197193Y0322361D01*
X0199677Y0321363D02*
X0186750Y0321363D01*
X0185281Y0320364D02*
X0201228Y0320364D01*
X0202353Y0319366D02*
X0184186Y0319366D01*
X0183324Y0318367D02*
X0203234Y0318367D01*
X0203952Y0317369D02*
X0182633Y0317369D01*
X0182125Y0316370D02*
X0204551Y0316370D01*
X0204983Y0315372D02*
X0181712Y0315372D01*
M02*
